<?xml version="1.0" encoding="utf-8"?>
<!-- Generator: Adobe Illustrator 26.3.1, SVG Export Plug-In . SVG Version: 6.00 Build 0)  -->
<svg version="1.1" id="Layer_1" xmlns="http://www.w3.org/2000/svg" xmlns:xlink="http://www.w3.org/1999/xlink" x="0px" y="0px"
	 viewBox="0 0 300 155" style="enable-background:new 0 0 300 155;" xml:space="preserve">
<style type="text/css">
	.st0{clip-path:url(#SVGID_00000098927340395643958340000007516611238433568141_);fill:#FFFFFF;}
	.st1{clip-path:url(#SVGID_00000098927340395643958340000007516611238433568141_);}
	.st2{clip-path:url(#SVGID_00000098927340395643958340000007516611238433568141_);fill:#ED1C24;}
</style>
<g>
	<g>
		<defs>
			<rect id="SVGID_1_" x="1" y="0.8" width="298" height="154.3"/>
		</defs>
		<clipPath id="SVGID_00000011722251374377399190000004443213520452245409_">
			<use xlink:href="#SVGID_1_"  style="overflow:visible;"/>
		</clipPath>
		<path style="clip-path:url(#SVGID_00000011722251374377399190000004443213520452245409_);fill:#FFFFFF;" d="M296,90.8
			c0,35.5-65.4,64.2-146,64.2C69.4,155,4,126.3,4,90.8l0-6.5V0.8h292v83.5V90.8z"/>
		<path style="clip-path:url(#SVGID_00000011722251374377399190000004443213520452245409_);" d="M50.4,136.4
			C22.6,124,7.3,107,7.3,88.6l0-6.3V0.8H1v84.8l0,6c0,17.5,16.9,31.5,45,45.5c18.5,9.2,43.2,13.4,69.2,16
			C90.9,150.2,68.6,144.6,50.4,136.4"/>
		<path style="clip-path:url(#SVGID_00000011722251374377399190000004443213520452245409_);" d="M299,85.5V0.8h-6.3v81.5v6.3
			c0,18.4-15.3,35.4-43.1,47.8c-18.2,8.2-40.5,13.8-64.8,16.6c25.9-2.6,49.8-8,69.2-16c29-11.9,45-28,45-45.5L299,85.5z"/>
		<path style="clip-path:url(#SVGID_00000011722251374377399190000004443213520452245409_);" d="M11.5,83l0,6.3
			c0,34.3,62,62,138.4,62c74.2,0,134.7-26.2,138.2-59.1c0.2-1.3,0.3-2.5,0.3-3.8v-6.3V0.8H11.5L11.5,83z"/>
		<path style="clip-path:url(#SVGID_00000011722251374377399190000004443213520452245409_);fill:#FFFFFF;" d="M48.4,84.3
			C48,87.2,46.1,97,39,98.4c-9.5,1.9-10.6-15.6-10.7-21c-0.3-13,3.7-21.4,10.2-21.6c7.5-0.2,8.6,8.5,9,11.3l0,0.3
			c0.6-0.2,1.3-0.3,1.9-0.5v-0.1c0-5.9-0.3-8.3-0.6-10.3c0-0.2-0.1-0.5-0.1-0.7c-2-1.4-4.9-3-10-3c-9,0.1-17.8,8.3-17.1,26.4
			c0.8,23.3,12.2,23.1,17.2,22c5-1.1,7.7-3.2,9.5-4.6c1.2-3.8,1.6-8.4,2-12.4l0-0.1c-0.6-0.1-1.2-0.1-1.9-0.2L48.4,84.3z"/>
		<path style="clip-path:url(#SVGID_00000011722251374377399190000004443213520452245409_);fill:#FFFFFF;" d="M93.8,75.3
			c0.1-0.3,4-13.2,4.1-13.5c0.1,0.3,2.8,11,2.8,11.4C98.6,73.4,95.2,74.4,93.8,75.3 M110.3,83.9l-9-31.3l-0.1,0
			c-1,0.1-2.7,0.8-5,1.9l-0.1,0c0.2,0.5,0.4,1,0.6,1.6l0.5,0.6L87.9,85c-1.4,4.2-2.3,5.2-3.1,5.4c-0.8,0.2-1.5,0.5-3.1,0.3
			c-1-0.4-1-1.8-0.9-6.5c0.1-7.2,0.2-14.5,0.3-21.7c0.1-6,0.1-6.6,2.2-7l0.7-0.2c0-0.6,0-1.2,0-1.7h-0.1c-3.8,0-7.7,0.1-11.5,0.1
			c0,0.6,0,1.2,0,1.8c0.2,0.1,0.5,0.1,0.8,0.2c2,0.4,2,1,1.9,7.1c0,0-0.1,8.5-0.1,8.7l-13.3,1c0-0.3,0.1-9.2,0.1-9.2
			c0.1-6.3,0.1-7,2.1-7.5l0.8-0.2c0-0.6,0-1.2,0-1.9c-3.9,0-7.7,0.1-11.6,0.1c0,0.6,0,1.3,0,1.9c0.2,0.1,0.5,0.1,0.7,0.2
			c2,0.4,2,1.1,1.9,7.6c-0.1,7.9-0.2,15.9-0.3,23.8c-0.1,6.5-0.1,7.1-2.1,7.9l-0.7,0.3c0,0.7,0,1.3,0,2c3.7-0.7,7.5-1.3,11.3-2
			c0-0.6,0-1.2,0-1.9c-0.3,0-0.5-0.1-0.7-0.1c-2-0.1-2-0.8-1.9-7.1c0,0,0.2-10.8,0.2-11l13.3-1.1c0,0.2-0.2,10.5-0.2,10.5
			c-0.1,6.1-0.1,6.7-2.1,7.4l-0.8,0.3c0,0.6,0,1.2,0,1.8c3.9-0.5,7.8-1.1,11.7-1.6c3.3-0.4,7-0.9,10.3-1.2c0-0.6,0-1.1,0-1.7
			c-0.8-0.1-1.7-0.2-2.5-0.3c-0.8-0.1-1.1-0.4-1.1-1.1c0-0.4,0.5-2.3,1-4.2l1.9-6.6c1.6-1.3,6.8-1.7,8.1-1.5l0.7,2l2.2,7.4
			c0.2,0.8,0.3,1.3,0.3,1.8c0,0.6-0.5,1-1.5,1.3l-1.5,0.5c0,0.6,0,1.1,0,1.7c4.3-0.4,8.5-0.7,12.8-1c0-0.5,0-1.1,0-1.6
			c-0.4-0.1-0.8-0.1-1.2-0.2C111.5,87.6,111,86.2,110.3,83.9"/>
		<path style="clip-path:url(#SVGID_00000011722251374377399190000004443213520452245409_);fill:#FFFFFF;" d="M188.3,74
			c0.1-0.3,3-12.1,3.1-12.4c0.1,0.3,3.9,12.3,4,12.7C193.7,74,189.7,74,188.3,74 M207.9,89.9c-1.6-0.6-2.1-2.2-2.9-4.7l-10.7-32.7
			l-0.1,0c-1,0.1-2.6,0.7-4.8,1.8l-0.1,0c0.2,0.5,0.5,1,0.7,1.5l0.6,0.6l-7.6,26.3c-1.1,3.7-1.7,4.3-2.7,4.6c0,0-1,0.1-1.6,0
			c-1.4-0.3-2-0.9-2.3-4.9l-2.3-29.6H174c-0.9,0-1.3,0.1-2.3,0.3c-0.1,0-9.9,24.3-10.7,26.2c-0.2-0.4-12.5-26.6-12.5-26.6l-0.1,0
			c-0.8,0.1-1.5,0.2-2.3,0.3v0.1c-0.5,9.7-1,19.5-1.5,29.2c-0.2,3.6-0.8,3.9-2.1,4.3l-0.8,0.3v1.6c3-0.1,6.2-0.1,9.4-0.1
			c0-0.5,0-1,0-1.6c-0.4-0.1-0.8-0.2-1.2-0.3c-1.8-0.4-2.4-0.5-2.4-3c0-0.3,0-0.7,0-1.1l0.5-18.3c0,0.2,10.6,24.2,10.6,24.2l0,0.1
			c0.6-0.2,1.2-0.4,1.9-0.5l9.1-23.6v0.2c0.1,2.1,1,18.3,1,18.3c0,0.3,0,0.6,0,0.9c0.1,2.6-0.4,2.8-2.2,3.1l-1.2,0.2
			c0,0.5,0,1.1,0,1.6c4.1,0.2,8.2,0.4,12.3,0.6c3.2,0.2,6.4,0.5,9.5,0.7c0-0.6-0.1-1.1-0.1-1.6c-0.8-0.3-1.7-0.5-2.5-0.8
			c-0.8-0.2-1.1-0.6-1.1-1.2c0-0.4,0.3-2.1,0.8-3.8l1.6-6.2c3.5-0.4,7.3,0.6,8.7,1.7l2.6,7.8c0.2,0.8,0.4,1.4,0.4,1.9
			c0,0.6-0.4,1-1.4,1.1l-1.5,0.2c0,0.6,0,1.1,0.1,1.7c4,0.4,8,0.9,12,1.4c0-0.6,2.3-1.1,2.3-1.7C209.6,90.6,208.2,90.1,207.9,89.9"
			/>
		<path style="clip-path:url(#SVGID_00000011722251374377399190000004443213520452245409_);fill:#FFFFFF;" d="M128.1,53.1
			c-3.8,0-7.7,0-11.5,0h-0.1c0,0.5,0,1.1,0,1.6c0.2,0.1,0.5,0.1,0.7,0.2c2,0.3,2,1,2,6.4c-0.1,6.7-0.1,13.3-0.2,19.9
			c0,5.4-0.1,6.1-2.1,6.5l-0.8,0.2c0,0.5,0,1.1,0,1.6c4.1-0.3,8.1-0.5,12.1-0.7v-1.6c-0.3,0-0.7-0.1-1-0.1c-2.1-0.2-2.1-0.8-2.1-6.2
			l0.2-25.3c0.6-0.2,1.3-0.4,2.1-0.4c3.3,0,6.8,2.1,6.8,8.1c0,6.8-3.3,8.2-6.2,8.8l-0.1,0c0,0.8,0,1.5,0,2.3l0.1,0
			c5.9-0.3,12.2-3.6,12.2-11.8C140.2,54.1,133.3,53.1,128.1,53.1"/>
		<path style="clip-path:url(#SVGID_00000011722251374377399190000004443213520452245409_);fill:#FFFFFF;" d="M230.6,53.6
			c0,0.6,0,1.2,0,1.9c0.3,0.1,0.7,0.1,1,0.2c2.3,0.4,2.6,0.8,2.7,11.2c0,0,0.1,16.2,0.1,16.9c-0.3-0.5-20-30.7-20-30.7
			c-0.4,0-1.8,0.2-2.3,0.4l-0.1,0c0.1,9,0.3,18,0.4,26.9c0.1,7.8,0.1,9.9-1.7,10l-1,0.1c0,0.6-0.9,1-0.9,1.5c3.1,0.4,7.2,1,10.2,1.5
			c0-0.6,0-1.2,0-1.8c-0.3-0.1-0.6-0.2-1-0.3c-2.3-0.8-2.6-1.2-2.8-10.5c0,0-0.2-15-0.2-15.6c0.3,0.5,19.7,31.2,19.7,31.2
			c0.6,0.2,1.9,0.1,2.4-0.1l0.1,0c0-9.8,0-19.7-0.1-29.5c0-8.5,0-10.8,1.9-11.1l1-0.3c0-0.6,0-1.3,0-1.9
			C236.8,53.7,233.7,53.6,230.6,53.6"/>
		<path style="clip-path:url(#SVGID_00000011722251374377399190000004443213520452245409_);fill:#FFFFFF;" d="M248.5,50.4
			L248.5,50.4c-1.8,0.3-2.8,0.6-4.3,1.5c-0.1,2.8-0.3,7.3-2.1,15.1c0.9-0.3,1.8-0.7,2.7-1l0.9-2.7c1.2-3.7,3-9.3,3-12.1l-0.1-0.5
			L248.5,50.4z"/>
		<path style="clip-path:url(#SVGID_00000011722251374377399190000004443213520452245409_);fill:#FFFFFF;" d="M264.3,73.7l-0.2-0.2
			c-3.9-2.9-7.5-5.7-7.5-10.5c0-2.3,0.7-4.2,2-5.5c1-1,2.3-1.5,3.8-1.5c5.9,0.1,7,6.7,7.7,10.6l0.1,0.5c0.3,0,1.2,0.1,1.6,0.1
			c0.1-4-0.1-7.6-0.4-10.7c-1.7-1.3-4.1-2.7-8.5-2.7c-4,0-7,1-9.1,3.1c-2,2-3.1,4.9-3.1,8.7c0,6.9,4.4,10.5,8.6,13.9l0.3,0.3
			c3.7,3,7.8,6.4,7.7,12.3c0,2.8-0.8,5-2.3,6.2c-1,0.8-2.3,1.2-3.7,0.9c-6.9-1.2-8.7-10.8-9.5-15c-0.4,0.1-1.8,0.3-2.2,0.3
			c0,5,0.2,8,1.5,12.5c2.6,2.2,5.8,3.7,9.3,4.3c3.8,0.7,7.1,0,9.4-1.9c2.4-2,3.7-5.2,3.7-9.6C273.9,81.3,268.6,77,264.3,73.7"/>
		<path style="clip-path:url(#SVGID_00000011722251374377399190000004443213520452245409_);fill:#ED1C24;" d="M147.7,110.7
			c37.8,0,71.7,3.6,94.4,9.3c-24.8-9.8-57.9-15.8-94.4-15.8c-36.4,0-69.6,6-94.4,15.8C76,114.3,109.8,110.7,147.7,110.7"/>
		<path style="clip-path:url(#SVGID_00000011722251374377399190000004443213520452245409_);fill:#FFFFFF;" d="M278.1,60.3
			c1.3,0,2.3-1,2.3-2.4c0-1.3-1-2.4-2.3-2.4c-1.3,0-2.3,1-2.3,2.4C275.8,59.3,276.8,60.3,278.1,60.3 M278.1,55.2
			c1.5,0,2.8,1.2,2.8,2.8c0,1.6-1.3,2.8-2.8,2.8c-1.5,0-2.8-1.2-2.8-2.8C275.3,56.3,276.6,55.2,278.1,55.2"/>
		<path style="clip-path:url(#SVGID_00000011722251374377399190000004443213520452245409_);fill:#FFFFFF;" d="M277.5,57.8h0.5
			c0.4,0,0.9,0,0.9-0.5c0-0.5-0.4-0.5-0.7-0.5h-0.7V57.8z M277,56.3h1.2c0.8,0,1.1,0.3,1.1,0.9c0,0.6-0.4,0.8-0.9,0.9l0.9,1.4h-0.5
			l-0.9-1.4h-0.5v1.4H277V56.3z"/>
	</g>
</g>
</svg>
