<?xml version="1.0" encoding="utf-8"?>
<!-- Generator: Adobe Illustrator 26.3.1, SVG Export Plug-In . SVG Version: 6.00 Build 0)  -->
<svg version="1.1" id="Layer_1" xmlns="http://www.w3.org/2000/svg" xmlns:xlink="http://www.w3.org/1999/xlink" x="0px" y="0px"
	 viewBox="0 0 300 127" style="enable-background:new 0 0 300 127;" xml:space="preserve">
<style type="text/css">
	.st0{clip-path:url(#SVGID_00000018950631334377585240000011206515728855580804_);fill:#E41E2B;}
	
		.st1{clip-path:url(#SVGID_00000062156051460180046600000008634312893720734853_);fill:url(#SVGID_00000124842237989485474500000012897327188428810153_);}
	.st2{clip-path:url(#SVGID_00000062899809341129138170000012752269801374619546_);fill:#E41E2B;}
	.st3{clip-path:url(#SVGID_00000005262783348583401010000008828140295793193099_);fill:#FFFFFF;}
	.st4{clip-path:url(#SVGID_00000005262783348583401010000008828140295793193099_);fill:#E41E2B;}
	.st5{fill:#E41E2B;}
</style>
<g>
	<g>
		<defs>
			<rect id="SVGID_1_" x="1.7" y="0.9" width="295.3" height="125.6"/>
		</defs>
		<clipPath id="SVGID_00000052106162344365905400000011343999208517302437_">
			<use xlink:href="#SVGID_1_"  style="overflow:visible;"/>
		</clipPath>
		<path style="clip-path:url(#SVGID_00000052106162344365905400000011343999208517302437_);fill:#E41E2B;" d="M126.3,114.5
			c0,6.6-5.3,11.9-11.9,11.9c-6.6,0-11.9-5.3-11.9-11.9s5.3-11.9,11.9-11.9C120.9,102.6,126.3,107.9,126.3,114.5"/>
	</g>
	<g>
		<defs>
			<path id="SVGID_00000142162699827015279830000018362651004071625117_" d="M111.5,103.1c-2.5,0.6-4.7,2-6.4,4
				c-2.2,2.8-3.1,6.6-2.3,10.1c0.8,3.5,3.2,6.6,6.6,8.1c0.6,0.3,1.3,0.5,2,0.7h6.1c0.8-0.2,1.5-0.5,2.3-0.9c3-1.5,5.2-4.3,6.1-7.5
				c0.1-0.4,0.2-0.7,0.2-1.1v-4c-0.3-2-1.1-3.9-2.4-5.4c-1.6-2-3.9-3.5-6.3-4.1L111.5,103.1z"/>
		</defs>
		<clipPath id="SVGID_00000091733210270993599140000014828011131357175454_">
			<use xlink:href="#SVGID_00000142162699827015279830000018362651004071625117_"  style="overflow:visible;"/>
		</clipPath>
		
			<radialGradient id="SVGID_00000071544969949150267350000017248636332891541693_" cx="-131.4521" cy="431.7164" r="2.9728" gradientTransform="matrix(6.4471 0 0 -6.4471 956.7345 2896.0244)" gradientUnits="userSpaceOnUse">
			<stop  offset="0" style="stop-color:#F38296"/>
			<stop  offset="6.044010e-02" style="stop-color:#F38296"/>
			<stop  offset="0.1166" style="stop-color:#F07684"/>
			<stop  offset="0.2929" style="stop-color:#EA4E52"/>
			<stop  offset="0.4175" style="stop-color:#E62F34"/>
			<stop  offset="0.478" style="stop-color:#E51E2B"/>
			<stop  offset="0.5924" style="stop-color:#E01E2A"/>
			<stop  offset="0.6909" style="stop-color:#D81C28"/>
			<stop  offset="0.7835" style="stop-color:#CB1A25"/>
			<stop  offset="0.8726" style="stop-color:#B91620"/>
			<stop  offset="0.9583" style="stop-color:#A10F18"/>
			<stop  offset="1" style="stop-color:#940A12"/>
		</radialGradient>
		
			<rect x="102" y="103.1" style="clip-path:url(#SVGID_00000091733210270993599140000014828011131357175454_);fill:url(#SVGID_00000071544969949150267350000017248636332891541693_);" width="24.1" height="23"/>
	</g>
	<g>
		<defs>
			<rect id="SVGID_00000049924040618538862350000016952271116433055384_" x="1.7" y="0.9" width="295.3" height="125.2"/>
		</defs>
		<clipPath id="SVGID_00000021822268271558056990000017248137604618901385_">
			<use xlink:href="#SVGID_00000049924040618538862350000016952271116433055384_"  style="overflow:visible;"/>
		</clipPath>
		<path style="clip-path:url(#SVGID_00000021822268271558056990000017248137604618901385_);fill:#E41E2B;" d="M267.7,92
			c-1.3,0-2.4-1.1-2.4-2.4c0-1.3,1.1-2.4,2.4-2.4c1.3,0,2.4,1.1,2.4,2.4C270.1,90.9,269,92,267.7,92 M267.7,87.6c-1.1,0-2,0.9-2,2
			c0,1.1,0.9,2,2,2c1.1,0,2-0.9,2-2C269.7,88.5,268.8,87.6,267.7,87.6 M268.3,90.9l-0.6-1.1h-0.4v1.1H267v-2.6h0.9
			c0.4,0,0.8,0.3,0.8,0.8c0,0.4-0.2,0.6-0.6,0.7l0.6,1.1H268.3z M267.8,88.7h-0.5v0.9h0.5c0.3,0,0.5-0.2,0.5-0.4
			C268.3,88.8,268.1,88.7,267.8,88.7"/>
		<path style="clip-path:url(#SVGID_00000021822268271558056990000017248137604618901385_);fill:#E41E2B;" d="M283.4,11.6
			c-6.4,3.5-12,5.9-19.9,5.5c-0.9,1.1-4.3,5-6.3,8.2c11.4,1.8,22.1-4.4,28.8-10.3c7.4-6.2,11.1-14.1,11.1-14.1S291.6,7,283.4,11.6
			 M208.7,10.2c-1.3,15.5-13.8,24.7-16.9,25.4c-1.9,0.4-5.1-0.4-2.3-6.9c4.2-8.8,11.3-16.3,19.1-20.1
			C208.8,9.2,208.8,9.6,208.7,10.2 M249.5,12.4l-0.2-0.1c-4.3-2.5-9.2-4.8-13.7-7.1c-10.2-5.2-18.5-3.3-22.7-1.8
			c-1.6,0.6-3.2,1.1-3.2,1.1c-3.2-3.2-8.3-2.9-12-2c-13.6,3.8-26.1,13-39.5,28.9c-9.9,12.5-15.9,23.2-19.2,33.7
			c-2.5,7.1-3.2,17.6,3.1,23.7c5.3,5.2,12.3,4,17.2,2.1c10.6-5.1,20.1-16,24.8-28.5c1.1-3.7,2.4-8.9,0.3-12.9
			c-0.9-1.9-3.1-3-5.3-2.9c-7.4,0.7-14.6,6.6-18.4,15c-2,4.3-3,7.9-3.7,13.5c2.3-2.5,7-6.7,12.3-9.1c0,0,0.7-5.4,4.3-10.3
			c1.4-2,4.2-5.2,7.3-4.4c2.7,0.9,1.8,8.2-1.8,15.2c-2.7,5.2-6.8,10.4-10.9,14c-3.7,3-9.1,6.7-13.9,3.9c-3-1.7-4.6-5.2-4.3-9.9
			c1.3-13.1,7.5-24.3,16.3-37c9.1-11.9,19.1-24,32.7-30.6c2.8-1.4,5.3-1.7,7.6-0.9c0,0-12.8,6.8-18.8,19.4
			c-1.5,3.2-3.7,7.5-1.4,11.2c1.2,2,3.2,2.1,4.8,2c7.5-1.7,12.3-8.4,16.2-14.6c2.3-4.7,4.3-9.3,4.2-14.4c0-0.6,0-1.4-0.1-2.1
			c3.6-1.8,10.9,1.3,10.9,1.3c5.2,1.6,14.7,8.4,19.6,11C245.5,15.9,248.6,13.2,249.5,12.4 M249.1,80.3l-0.9,0.8
			c-1.3,1.1-2.6,2.3-4.2,1.7c-0.5-0.1-0.8-0.7-0.8-1.2c-0.1-3.2,1.4-6.1,2.8-9l0.4-0.7c4.1-6.7,8.9-14.6,16-20.2
			c1.2-0.8,2.5-1.5,3.9-1c0.3,0.3,0.7,0.8,0.7,1.3c0,0.2-0.1,0.6-0.2,0.7c-2,3.1-3.9,6.3-5.7,9.5C257.4,68.3,253.7,74.7,249.1,80.3
			 M210.3,64.8c-0.3,0.2-5.1-1.3-6.1-5.6c-0.8-3.7,1.8-6.6,4.4-8.1c1.1-0.8,2.7-1.1,4-0.7c1.1,0.7,1.5,2,1.5,3.4
			c0,0.9-0.1,1.8-0.2,2.6c0,0,0,0.1,0,0.2C213,59.5,211.8,62.3,210.3,64.8 M192,82.4c-0.5-0.7-0.7-1.5-0.7-2.3
			c-0.1-5.1,5.5-14.1,9.5-19.2c1.7,3.8,5.5,5.8,7.9,6.7C205.8,73.7,196.1,86.9,192,82.4 M261.6,82.8c-0.9,0.6-2.3,0.1-1.8-1.3
			c1.2-3.6,6.1-11.1,6.1-11.1l13.7-23.7l-9.5,0.1c-0.4,0.8-1.4,2.4-1.4,2.4c-0.5-0.7-1.8-2.2-2.3-2.6c-2.3-1.4-5.7-0.7-8.1,0.6
			c-10.1,5.8-17.5,17.1-23.3,25.9c0,0-6.1,9.8-9.5,10.6c-2.7,0.2-2.4-3.2-2.3-4c1-5.8,3.4-11.3,5.7-16.4c4.9-3.3,10.5-7.6,15.6-12.3
			c10.4-9.7,19.3-20.5,21.3-23.9c-0.4,0.1-1.7,0.3-3.3,0.3c-8.6,11.4-25.5,27.7-30.7,30.1c2.3-5.4,17.2-31.2,30-43.6l2-1.9
			c3.1-2.9,6.3-6,8.9-6.5c0.3,0,0.6,0,0.9,0.6c0.1,2.3-0.7,4-1.7,5.9l-1.4,2.8c0,0,2-0.4,3.3-0.8c1.5-2.8,3.2-5.9,2.6-9.6
			c-0.2-1.2-1.1-2.1-2.3-2.3c-3.8-0.7-8,2.1-11.4,4.3c-17.4,13.2-31.8,32-44.4,57.7c-0.9,0.7-4.5,1.5-5.1,1.1
			c1.2-2.5,2.8-5.8,3.6-9.5c0.1-1,0.2-2.1,0.2-3.1c0-2.2-0.6-4.3-2.7-5.8c-2.5-1.2-5.5-0.6-7.5,0.3c-9.1,3.7-15.9,12.7-20.7,20.1
			c-2.6,4.7-5.2,9.8-5.9,15.5c-0.5,4.5,0.6,7.4,3.3,8.9c2.8,1.3,6.2-0.1,7.6-0.8c9.2-4.7,15.6-14.2,20.7-22.8c0.2,0,3-0.1,5.1-0.7
			l-1.1,3.5c-3.2,9.1-4.6,15.3-1.5,18.9c4.4,5.1,11.6-0.3,17.4-7.4c-1.2,8.5,3.4,9.8,6.9,9.1c4-1.1,8.4-5.2,10.5-7.3
			c-0.7,2.5-0.4,6.8,3.2,7.3c2.5,0.4,4.4-0.8,6.5-1.9c7.7-4.1,16.9-17.7,19.3-21.5l-3.2,0C271.4,73.1,267.1,79.7,261.6,82.8
			 M155.4,25.3l-8.7,0.1l-5,8.2l8.7-0.1L155.4,25.3z M66.1,38.3c0,0-1.8,4-1.8,4c-0.3,0.2-0.7,0.1-1.1,0l-0.8-0.1
			c-2.5-0.7-4.4-2.3-5.1-4.2c-0.8-3.7,2.5-6.7,3.9-7.7c1.4-1,3.6-1.5,4.9-0.5c0.8,0.9,1.1,2,1.1,3.2C67.3,34.6,66.7,36.5,66.1,38.3
			 M62.3,45.8l-0.1,0.3c0,0-4,6.4-4,6.4c-2.4,3.2-5.5,7.1-9.3,9c-1.1,0.4-2.7,0.6-3.5-0.4c-1.7-1.9-0.8-4.6-0.2-6.8l0.2-0.8
			c2-5.3,5.2-10,8.3-14.3c0.2,0,0.2,0,0.2,0c2,3.6,5.7,5.3,8.5,6C62.5,45.5,62.5,45.6,62.3,45.8 M113.2,41.2c1.8-2.4,7-8.9,8.3-10
			c4.3-3.7,6.1-2.1,6.2-1c-4,7-8.7,15-13.2,22.2l-1.4,2.1c-2,2.9-3.9,5.4-7.2,7.2c-0.5,0.1-1.2,0.2-1.7-0.2c-0.6-0.4-0.9-1-0.8-1.7
			C103.6,57.6,106,50.7,113.2,41.2 M68,25.8c-5.7-3.5-16.9,3.3-25.8,15c-8.2,10.4-11.7,22.5-7.7,28c5.8,6.5,16.5-3.1,21-8.2L56,60
			c3.1-3.2,5.4-7,7.7-10.8l2.2-3.5c1.3-0.2,2.9-0.6,4.7-1.1c0,0.1-5.9,9.6-6,16.5c0,1.5,0.1,7.7,6.3,9.5c8.2,1.3,14.8-4.9,20.6-10.4
			l1.5-1.4L92.7,60c-2.4,8.1,0.9,9.7,3,10.3c6.2,1.6,13.4-6.9,13.5-7c-0.2,2.7-0.7,4.9,2.3,6.7c2.8,0.9,5.6-0.5,7.8-1.9
			c7.7-5.3,13.9-13.6,18.9-20.6l-3.2,0c-0.1,0.1-7.9,11-13,13.4c0,0-0.9,0.4-1.5,0.1c-0.7-0.5-0.4-1.8,0-2.6L140,25.4l-9.4,0.1
			c0,0-1,1.7-1.1,1.8c-0.1-0.1-0.2-0.3-0.3-0.4c-5.9-7.6-18.9,4.3-28.7,18C96.8,50.2,92,56.1,87,60.5c0,0-7.4,6.6-10.6,1.9
			c-1.2-2-0.8-4.8-0.2-6.7c3.6-10.1,9.9-19.3,17.1-24.9c2-1.5,4.3-2,5.4-1.4c1.1,0.6,1.2,2.1,0.6,3.1c-1.7-0.1-3,0.5-4.1,1.5
			c-2.1,2.2-2.9,4.3-2.2,6.3c3.4,4.5,10-4.6,9.6-10c-0.1-2-1.2-3.8-2.9-4.7c-2.5-1.4-6.2-1-8.6,0.1c-3.2,1.2-8.3,5.3-11.3,8.5
			c-3.7,4-10.1,8.4-12.1,8C68.4,40.5,73.7,29.8,68,25.8 M115.4,83.1c-11.1-6.7-26-7.8-50.1-1.2c-25.7,6-34.2,9.8-45.5,2.4
			c-4.3-3.6-5.9-9.5-4.8-18c2.6-13.8,9.7-27.1,22.5-42C44.6,16.6,51.2,10,60,7.3c6.7-1.7,6.1,3.4,5.3,4.1c-0.9,0-2.3,0.2-3.4,0.9
			c-0.9,0.7-3.4,2.9-3.5,5.8c-0.2,4.5,4.7,3.5,6.7,1c2.2-2.8,5.5-8.1,2.9-13c-1.1-1.8-3-2.9-5.4-3.4C54.6,2.3,47.1,6,40.2,10.1
			C25.1,20.3,13.1,34.4,6.4,49.7C2.5,59-1,72.3,4.5,82.9c4.2,7.5,12.8,11.3,23.1,10.4c7.2-0.7,15.9-3.1,21.8-4.5
			c5.9-1.4,35.8-11.5,45.8,5.6c0,0,3.2-6.1,11.4-6.3c6.7-0.6,16.5,1.7,23.6,6.7C127.8,91.5,121,86.5,115.4,83.1"/>
	</g>
	<g>
		<defs>
			<rect id="SVGID_00000132769922862743442020000016261392711246635393_" x="1.7" y="0.9" width="295.3" height="125.6"/>
		</defs>
		<clipPath id="SVGID_00000078022319948869260970000017128634544184137656_">
			<use xlink:href="#SVGID_00000132769922862743442020000016261392711246635393_"  style="overflow:visible;"/>
		</clipPath>
		<path style="clip-path:url(#SVGID_00000078022319948869260970000017128634544184137656_);fill:#FFFFFF;" d="M116.4,105.2
			c-0.4-0.6-0.8-1.3-1.9-1.3c-0.4,0-0.9,0.2-0.9,0.5c-0.1,0.3,0.2,0.5,0.3,0.7c0.4,0.5,0.8,1.1,1.1,1.7c-0.7,0.2-1.6,0.5-2.3,0.7
			c-0.6,0.2-1.5,0.5-1.4,1.4c0.1,0.7,0.8,1,1.5,0.9c0.3-0.1,0.5-0.2,0.8-0.3c0.8-0.3,1.6-0.6,2.4-0.8c0.3,0.7,0.6,1.4,0.9,2.1
			c0.2,0.5,0.4,1.1,0.9,1.3c0.7,0.4,1.4,0,1.6-0.5c0.1-0.3,0-0.7-0.1-1c-0.3-0.9-0.8-1.8-1.1-2.5c0.6-0.1,1.3-0.3,2-0.4
			c0.2,0,0.5,0,0.7-0.1c0.2-0.1,0.3-0.4,0.2-0.7c-0.1-0.5-0.8-1-1.4-1c-0.4,0-0.9,0.1-1.3,0.2c-0.4,0.1-0.8,0.1-1.2,0.2
			C116.9,105.9,116.6,105.6,116.4,105.2"/>
		<path style="clip-path:url(#SVGID_00000078022319948869260970000017128634544184137656_);fill:#FFFFFF;" d="M122.6,112.4
			c-0.2,2-1.4,3.2-3.1,3.8c-0.5,0.2-1,0.2-1.6,0.2c-1.5-0.1-2.6-0.7-3.4-1.5c-0.2-0.2-0.3-0.4-0.6-0.4c-0.4-0.1-0.8-0.1-1.1,0.1
			c-0.5,0.3-1.1,1.2-0.6,2c0.1,0.3,0.5,0.5,0.7,0.7c1.3,1.1,3.2,2,5.4,1.8c0.9-0.1,1.7-0.3,2.3-0.6c1.3-0.6,2.3-1.6,3-3
			c0.3-0.6,0.5-1.5,0.6-2.4c0-0.5,0-0.9-0.2-1.3c-0.2-0.3-0.5-0.7-0.9-0.6C122.7,111.3,122.7,111.9,122.6,112.4"/>
		<path style="clip-path:url(#SVGID_00000078022319948869260970000017128634544184137656_);fill:#E41E2B;" d="M56.2,110.1
			c0-0.8,0.5-1.2,1.2-1.2c0.7,0,1.2,0.4,1.2,1.2v7.9h2.8c0.8,0,1.2,0.6,1.1,1.1c0,0.5-0.4,1-1.1,1h-3.9c-0.8,0-1.2-0.5-1.2-1.3
			V110.1z"/>
		<path style="clip-path:url(#SVGID_00000078022319948869260970000017128634544184137656_);fill:#E41E2B;" d="M66.8,110.1
			c0-0.8,0.5-1.2,1.2-1.2c0.7,0,1.2,0.4,1.2,1.2v8.9c0,0.8-0.5,1.2-1.2,1.2c-0.7,0-1.2-0.4-1.2-1.2V110.1z"/>
		<path style="clip-path:url(#SVGID_00000078022319948869260970000017128634544184137656_);fill:#E41E2B;" d="M73.5,110.6
			c-0.1-0.2-0.1-0.4-0.1-0.6c0-0.7,0.6-1.1,1.2-1.1c0.5,0,0.9,0.3,1.1,0.8l2.4,6.5l2.4-6.5c0.2-0.4,0.5-0.8,1.1-0.8
			c0.6,0,1.2,0.5,1.2,1.1c0,0.2,0,0.4-0.1,0.6l-3.4,8.8c-0.2,0.5-0.5,0.9-1.2,0.9s-1-0.4-1.2-0.9L73.5,110.6z"/>
		<path style="clip-path:url(#SVGID_00000078022319948869260970000017128634544184137656_);fill:#E41E2B;" d="M86.6,110.4
			c0-0.8,0.4-1.4,1.2-1.4h3.9c0.8,0,1.1,0.5,1.1,1.1c0,0.5-0.4,1.1-1.1,1.1H89v2.3h2.6c0.8,0,1.2,0.5,1.2,1.1c0,0.5-0.4,1.1-1.2,1.1
			H89v2.4h2.9c0.7,0,1.1,0.5,1.1,1.1c0,0.5-0.4,1.1-1.1,1.1h-4.1c-0.7,0-1.2-0.5-1.2-1.2V110.4z"/>
		<path style="clip-path:url(#SVGID_00000078022319948869260970000017128634544184137656_);fill:#E41E2B;" d="M138.1,114.4h1.6
			c1,0,1.6-0.7,1.6-1.7c0-0.9-0.6-1.7-1.6-1.7h-1.6V114.4z M135.8,110.2c0-0.7,0.4-1.2,1.2-1.2h2.8c2.3,0,4,1.5,4,3.8
			c0,2.3-1.8,3.7-3.9,3.7h-1.7v2.6c0,0.8-0.5,1.2-1.2,1.2c-0.7,0-1.2-0.4-1.2-1.2V110.2z"/>
		<path style="clip-path:url(#SVGID_00000078022319948869260970000017128634544184137656_);fill:#E41E2B;" d="M155.9,114.6
			c0-1.9-1-3.6-3-3.6c-2,0-3,1.7-3,3.6c0,1.9,1,3.6,3,3.6C155,118.2,155.9,116.5,155.9,114.6 M147.6,114.6c0-3.3,2.2-5.8,5.4-5.8
			c3.2,0,5.4,2.6,5.4,5.8c0,3.3-2.2,5.8-5.4,5.8C149.8,120.4,147.6,117.9,147.6,114.6"/>
		<path style="clip-path:url(#SVGID_00000078022319948869260970000017128634544184137656_);fill:#E41E2B;" d="M169.3,110.4
			c0,0.6-0.4,1.2-1.1,1.2c-0.6,0-1.1-0.5-2.1-0.5c-0.7,0-1.3,0.4-1.3,1c0,1.6,5.2,0.6,5.2,4.6c0,2.3-1.9,3.7-4,3.7
			c-1.2,0-3.8-0.3-3.8-1.8c0-0.6,0.4-1.1,1.1-1.1c0.7,0,1.6,0.6,2.6,0.6c1,0,1.6-0.6,1.6-1.3c0-1.9-5.3-0.7-5.3-4.4
			c0-2.2,1.8-3.6,3.9-3.6C167.1,108.8,169.3,109.1,169.3,110.4"/>
		<path style="clip-path:url(#SVGID_00000078022319948869260970000017128634544184137656_);fill:#E41E2B;" d="M175.1,110.1
			c0-0.8,0.5-1.2,1.2-1.2c0.7,0,1.2,0.4,1.2,1.2v8.9c0,0.8-0.5,1.2-1.2,1.2c-0.7,0-1.2-0.4-1.2-1.2V110.1z"/>
		<path style="clip-path:url(#SVGID_00000078022319948869260970000017128634544184137656_);fill:#E41E2B;" d="M184.7,111.2H183
			c-0.8,0-1.1-0.5-1.1-1.1c0-0.5,0.4-1.1,1.1-1.1h5.8c0.7,0,1.1,0.5,1.1,1.1c0,0.5-0.3,1.1-1.1,1.1h-1.7v7.9c0,0.8-0.5,1.2-1.2,1.2
			c-0.7,0-1.2-0.4-1.2-1.2V111.2z"/>
		<path style="clip-path:url(#SVGID_00000078022319948869260970000017128634544184137656_);fill:#E41E2B;" d="M194.4,110.1
			c0-0.8,0.5-1.2,1.2-1.2c0.7,0,1.2,0.4,1.2,1.2v8.9c0,0.8-0.5,1.2-1.2,1.2c-0.7,0-1.2-0.4-1.2-1.2V110.1z"/>
		<path style="clip-path:url(#SVGID_00000078022319948869260970000017128634544184137656_);fill:#E41E2B;" d="M201.3,110.6
			c-0.1-0.2-0.1-0.4-0.1-0.6c0-0.7,0.6-1.1,1.2-1.1c0.5,0,0.9,0.3,1.1,0.8l2.4,6.5l2.4-6.5c0.2-0.4,0.5-0.8,1.1-0.8
			c0.6,0,1.2,0.5,1.2,1.1c0,0.2,0,0.4-0.1,0.6l-3.5,8.8c-0.2,0.5-0.5,0.9-1.2,0.9c-0.7,0-1-0.4-1.2-0.9L201.3,110.6z"/>
		<path style="clip-path:url(#SVGID_00000078022319948869260970000017128634544184137656_);fill:#E41E2B;" d="M214.8,110.4
			c0-0.8,0.4-1.4,1.2-1.4h3.9c0.8,0,1.1,0.5,1.1,1.1c0,0.5-0.4,1.1-1.1,1.1h-2.8v2.3h2.6c0.8,0,1.2,0.5,1.2,1.1
			c0,0.5-0.4,1.1-1.2,1.1h-2.6v2.4h2.9c0.8,0,1.1,0.5,1.1,1.1c0,0.5-0.4,1.1-1.1,1.1H216c-0.7,0-1.2-0.5-1.2-1.2V110.4z"/>
		<path style="clip-path:url(#SVGID_00000078022319948869260970000017128634544184137656_);fill:#E41E2B;" d="M226,110.1
			c0-0.8,0.5-1.2,1.2-1.2c0.7,0,1.2,0.4,1.2,1.2v7.9h2.8c0.8,0,1.2,0.6,1.1,1.1c0,0.5-0.4,1-1.1,1h-3.9c-0.8,0-1.2-0.5-1.2-1.3
			V110.1z"/>
		<path style="clip-path:url(#SVGID_00000078022319948869260970000017128634544184137656_);fill:#E41E2B;" d="M237,114.9l-3-4.2
			c-0.1-0.2-0.2-0.5-0.2-0.7c0-0.6,0.5-1.2,1.1-1.2c0.4,0,0.8,0.2,1,0.5l2.3,3.3l2.3-3.3c0.2-0.3,0.6-0.5,1-0.5
			c0.7,0,1.1,0.5,1.1,1.2c0,0.2-0.1,0.5-0.2,0.7l-3,4.2v4.2c0,0.6-0.3,1.2-1.2,1.2c-0.8,0-1.2-0.6-1.2-1.2V114.9z"/>
	</g>
	<polygon class="st5" points="245,108.9 245,109.2 245.7,109.2 245.7,111.2 246,111.2 246,109.2 246.8,109.2 246.8,108.9 	"/>
	<polygon class="st5" points="249,108.9 248.3,110.7 248.3,110.7 247.6,108.9 247.1,108.9 247.1,111.2 247.4,111.2 247.4,109.3 
		247.4,109.3 248.2,111.2 248.4,111.2 249.2,109.3 249.2,109.3 249.2,111.2 249.5,111.2 249.5,108.9 	"/>
</g>
</svg>
