<?xml version="1.0" encoding="utf-8"?>
<!-- Generator: Adobe Illustrator 26.3.1, SVG Export Plug-In . SVG Version: 6.00 Build 0)  -->
<svg version="1.1" id="Layer_1" xmlns="http://www.w3.org/2000/svg" xmlns:xlink="http://www.w3.org/1999/xlink" x="0px" y="0px"
	 viewBox="0 0 400 325" style="enable-background:new 0 0 400 325;" xml:space="preserve">
<style type="text/css">
	.st0{fill:#415225;}
	.st1{clip-path:url(#SVGID_00000131354120115407768890000010597003583005437570_);fill:#FFFFFF;}
	.st2{clip-path:url(#SVGID_00000131354120115407768890000010597003583005437570_);fill:#415225;}
</style>
<g>
	<polygon class="st0" points="220.7,1.5 220.7,27.2 200.1,16.4 64.7,87.1 84.3,124.7 90.8,121.3 90.8,215.8 309.4,215.8 
		309.4,121.3 315.6,124.5 335.2,86.9 267.6,51.6 267.6,1.5 	"/>
	<g>
		<defs>
			<rect id="SVGID_1_" x="2" y="1.5" width="395.3" height="321.8"/>
		</defs>
		<clipPath id="SVGID_00000075131632864430316770000018206928303798114223_">
			<use xlink:href="#SVGID_1_"  style="overflow:visible;"/>
		</clipPath>
		<path style="clip-path:url(#SVGID_00000075131632864430316770000018206928303798114223_);fill:#FFFFFF;" d="M299.4,205.7H100.8
			V104.6l-12.3,6.5L78.2,91.3l121.9-63.6l30.6,16V33.4V11.5h26.9v35.9v10.3l64.1,33.4l-10.3,19.8l-11.9-6.3L299.4,205.7z M274,94.9
			l-16.6-8.6v87.3h-26.9v-9.7c-10.9,8.1-20.6,12.6-34.4,12.6c-15.5,0-28.4-4.9-38.6-14.8c-10.2-10.1-15.2-22.7-15.2-37.8
			c0-14.8,5.1-27.1,15.3-37c10.1-10,22.8-14.9,38.1-14.9c14.2,0,24.1,4.9,35,13.5v-13l-30.4-15.8l-73.9,38.5v85.4h147.7L274,94.9z
			 M223.4,146.7c5.8-5.9,8.8-13.4,8.8-22.5c0-9.1-2.9-16.6-8.8-22.5c-5.9-5.8-13.5-8.7-22.8-8.7c-8.8,0-16.2,2.9-22.2,8.8
			c-5.8,5.9-8.8,13.2-8.8,21.9c0,9.3,2.9,16.9,8.6,22.7c5.9,5.9,13.2,8.9,22.2,8.9C209.8,155.3,217.5,152.5,223.4,146.7"/>
		<path style="clip-path:url(#SVGID_00000075131632864430316770000018206928303798114223_);fill:#415225;" d="M223.4,146.7
			c5.8-5.9,8.8-13.4,8.8-22.5c0-9.1-2.9-16.6-8.8-22.5c-5.9-5.8-13.5-8.7-22.8-8.7c-8.8,0-16.2,2.9-22.2,8.8
			c-5.8,5.9-8.8,13.2-8.8,21.9c0,9.3,2.9,16.9,8.6,22.7c5.9,5.9,13.2,8.9,22.2,8.9C209.8,155.3,217.5,152.5,223.4,146.7"/>
		<path style="clip-path:url(#SVGID_00000075131632864430316770000018206928303798114223_);fill:#415225;" d="M274,94.9l-16.6-8.6
			v87.3h-26.9v-9.7c-10.9,8.1-20.6,12.6-34.4,12.6c-15.5,0-28.4-4.9-38.6-14.8c-10.2-10.1-15.2-22.7-15.2-37.8
			c0-14.8,5.1-27.1,15.3-37c10.1-10,22.8-14.9,38.1-14.9c14.2,0,24.1,4.9,35,13.5v-13l-30.4-15.8l-73.9,38.5v85.4h147.7L274,94.9z"
			/>
		<path style="clip-path:url(#SVGID_00000075131632864430316770000018206928303798114223_);fill:#415225;" d="M116.1,272.5h-12.4v27
			c0,6.6-3.2,12.6-11.3,12.6c-8.7,0-9.1-9.1-9.1-14.6v-25.1H70.9v31.3c0,10.1,4.7,19.5,18.1,19.5c8.3,0,12.9-4.2,15.2-9.2h0.2v7.9
			h11.8V272.5z"/>
		<path style="clip-path:url(#SVGID_00000075131632864430316770000018206928303798114223_);fill:#415225;" d="M132.2,322h12.4v-39
			H156v-10.5h-11.5v-9c0-5.5,1-10.2,7.9-10.2c1.8,0,3.4,0.3,5.2,0.7l0.8-10.5c-2.6-0.5-5.2-0.7-7.8-0.7c-15.4,0-18.5,9-18.5,22.7v7
			H122V283h10.2V322z"/>
		<path style="clip-path:url(#SVGID_00000075131632864430316770000018206928303798114223_);fill:#415225;" d="M161.7,322h12.4v-26.5
			c0-2.7,1.6-12.5,13.3-12.5c2,0,3.9,0.4,6,0.9v-12c-1.4-0.4-2.9-0.7-4.4-0.7c-6.5,0-12,3.4-14.6,9.1h-0.2v-7.8h-12.4V322z"/>
		<path style="clip-path:url(#SVGID_00000075131632864430316770000018206928303798114223_);fill:#415225;" d="M207.1,292.3
			c0.9-7.1,5.5-11.8,12.8-11.8c7.7,0,12.5,4.5,12.6,11.8H207.1z M244.8,301.6v-3.4c0-17.2-9.4-26.9-23.2-26.9
			c-15,0-26.9,10.4-26.9,26s12,26,26.9,26c7.8,0,15.2-2.8,20.9-9.9l-8.9-6.7c-3.1,3.8-7.1,6.7-13.3,6.7c-6.9,0-12.5-4.4-13.3-11.8
			H244.8z"/>
		<path style="clip-path:url(#SVGID_00000075131632864430316770000018206928303798114223_);fill:#415225;" d="M288.7,278.8
			c-4-5.5-11-7.5-17.6-7.5c-10,0-19.9,5-19.9,16c0,18.9,26.7,10.9,26.7,21.1c0,3.9-4.6,5.7-8.3,5.7c-5.3,0-8.6-2.6-11.8-6.1
			l-8.3,7.7c5.1,5.7,11.7,7.6,19.3,7.6c10.1,0,21.4-4.1,21.4-15.9c0-19.3-26.7-12.1-26.7-21c0-3.7,3.9-5.2,7.2-5.2
			c4.2,0,7.3,1.7,9.7,5L288.7,278.8z"/>
		<path style="clip-path:url(#SVGID_00000075131632864430316770000018206928303798114223_);fill:#415225;" d="M297.5,322h12.4v-27
			c0-6.6,3.2-12.6,11.4-12.6c8.7,0,9.1,9.1,9.1,14.6V322h12.4v-31.3c0-10.1-4.7-19.5-18.1-19.5c-8.3,0-12.9,4.2-15.2,9.2h-0.2v-7.9
			h-11.8V322z"/>
		<path style="clip-path:url(#SVGID_00000075131632864430316770000018206928303798114223_);fill:#415225;" d="M359.6,292.3
			c0.9-7.1,5.5-11.8,12.8-11.8c7.7,0,12.5,4.5,12.6,11.8H359.6z M397.3,301.6v-3.4c0-17.2-9.4-26.9-23.2-26.9
			c-15,0-26.9,10.4-26.9,26s12,26,26.9,26c7.8,0,15.2-2.8,20.9-9.9l-8.9-6.7c-3.1,3.8-7.1,6.7-13.3,6.7c-6.9,0-12.5-4.4-13.3-11.8
			H397.3z"/>
		<path style="clip-path:url(#SVGID_00000075131632864430316770000018206928303798114223_);fill:#415225;" d="M14.3,311v-46.8h11.2
			c15,0,25.9,6.6,25.9,23.4c0,16.8-12.6,23.4-28,23.4H14.3z M2,322.1h25.7c16.6,0,36.6-10.9,36.6-34.5c0-23.4-17-34.5-35.1-34.5H2
			V322.1z"/>
	</g>
</g>
</svg>
