<?xml version="1.0" encoding="utf-8"?>
<!-- Generator: Adobe Illustrator 26.3.1, SVG Export Plug-In . SVG Version: 6.00 Build 0)  -->
<svg version="1.1" id="Layer_1" xmlns="http://www.w3.org/2000/svg" xmlns:xlink="http://www.w3.org/1999/xlink" x="0px" y="0px"
	 viewBox="0 0 300 50" style="enable-background:new 0 0 300 50;" xml:space="preserve">
<style type="text/css">
	.st0{clip-path:url(#SVGID_00000088091034819888291360000005077592099802185377_);fill:#73C69E;}
	.st1{fill:#73C69E;}
	.st2{clip-path:url(#SVGID_00000047037489655675092070000005023964711022620569_);fill:#73C69E;}
	.st3{clip-path:url(#SVGID_00000183243978552027060580000006315370507701971341_);fill:#73C69E;}
</style>
<g>
	<g>
		<defs>
			<rect id="SVGID_1_" x="1" y="1.4" width="299" height="48.4"/>
		</defs>
		<clipPath id="SVGID_00000173144923902202732720000005339056348202699145_">
			<use xlink:href="#SVGID_1_"  style="overflow:visible;"/>
		</clipPath>
		<path style="clip-path:url(#SVGID_00000173144923902202732720000005339056348202699145_);fill:#73C69E;" d="M195.3,26.5l-1.5,22.7
			h13.7l1.5-23.1c0.7-10.5-6.8-11.3-11.7-11.8c-0.3,0-2.9-0.2-6.5-0.2c-0.9,0-1.9,0-2.9,0c-8.5,0.3-19,1.5-19.1,1.5l-0.2,0
			l-2.1,33.5h13.7l1.7-27.2c0,0,5.6-0.7,8.7-0.5c3.1,0.2,5,1.2,4.8,4.8"/>
		<path style="clip-path:url(#SVGID_00000173144923902202732720000005339056348202699145_);fill:#73C69E;" d="M41.5,1.4h-0.3l0,0.3
			L39.9,18H18.4l1.1-13.6c0-2.9-2.4-3-3.7-3h-1h0H5H4.7l0,0.3L1,48.7l0,0.3h0.3h14.4H16l0-0.3L17.6,28h21.5l-1.6,20.7l0,0.3h0.4
			h14.3h0.3l0-0.3l3.7-47.1l0-0.3h-0.3H41.5z"/>
	</g>
	<path class="st1" d="M58.1,49.1L58.1,49.1L58.1,49.1z M75.1,14.4h-14h-0.3l0,0.3l-2.6,34.4h0.3h14h0.3h0l2.6-34.4l0-0.4H75.1z"/>
	<g>
		<defs>
			<rect id="SVGID_00000021089471130869467080000006254744718662653372_" x="1" y="1.4" width="299" height="48.4"/>
		</defs>
		<clipPath id="SVGID_00000137107728777105028040000000117909997288836753_">
			<use xlink:href="#SVGID_00000021089471130869467080000006254744718662653372_"  style="overflow:visible;"/>
		</clipPath>
		<path style="clip-path:url(#SVGID_00000137107728777105028040000000117909997288836753_);fill:#73C69E;" d="M73.2,1.4H62.1h-0.3
			l0,0.3l-0.6,8.4l0,0.3h0.3h14h0.3l0-0.3c0,0,0.4-4.9,0.4-5.8C76.4,2.4,75.5,1.4,73.2,1.4"/>
	</g>
	<g>
		<defs>
			<rect id="SVGID_00000030484672427203987970000016327274478642757788_" x="1" y="1.4" width="299" height="48.4"/>
		</defs>
		<clipPath id="SVGID_00000042006368107699679560000000507380627557995395_">
			<use xlink:href="#SVGID_00000030484672427203987970000016327274478642757788_"  style="overflow:visible;"/>
		</clipPath>
		<path style="clip-path:url(#SVGID_00000042006368107699679560000000507380627557995395_);fill:#73C69E;" d="M105.3,28.4l-5.2-2.2
			c-3.7-1.5-6.4-2.6-6-4.1c0.3-0.9,2-1.4,7-1.4c4.5,0,9.6,0.6,15.4,1.6l0.3,0.1l0-0.3l0.6-6.6l0-0.3l-0.3-0.1
			c-2.3-0.4-8.4-1.5-15.9-1.6c-0.5,0-1,0-1.5,0c-2.9,0-5.6,0.2-8.1,0.5c-4.7,0.6-12.6,2.7-13,9.2c-0.4,6.7,7.6,9.6,12.5,11.6
			l4.1,1.6c4.6,1.9,6.8,2.5,6.7,3.9c-0.1,1.3-1.8,1.6-6,1.6c-0.5,0-1.1,0-1.6,0c-5.3-0.1-12.7-1.2-15.4-1.7l-0.3-0.1l0,0.3l-0.4,7.1
			l0,0.3l0.3,0c0.1,0,5.6,0.9,17.3,1.2c0.7,0,1.4,0,2.1,0c8.5,0,18.9-1.3,20.1-8.4C118.9,34.3,112,31.4,105.3,28.4"/>
		<path style="clip-path:url(#SVGID_00000042006368107699679560000000507380627557995395_);fill:#73C69E;" d="M134.3,27.9
			c0.7-3.7,3.5-7.4,9.5-7.4c8.7,0.1,8.1,7.4,8.1,7.4H134.3z M163.5,34.5c2.9-16.7-11.9-20-15.3-20.5c-1.3-0.2-2.7-0.3-4.2-0.3
			l-0.2,0c-14.7,0.3-20.5,7.8-22.8,13.4c-0.2,0.4-0.7,1.9-1,3.7c0,0.2-0.1,0.5-0.1,0.7l0,0.3c-0.3,5.1,1.1,13.7,13.5,16.7
			c0.7,0.2,1.4,0.3,2.1,0.4c2.6,0.4,4.5,0.8,9.5,0.8c8.4,0,13.8-1.2,16.1-1.9c0.2-1.6,0.7-4.7,1.1-7.2c-1.1,0.3-8,1.7-15.4,1.7
			c-0.2,0-0.5,0-0.7,0c-10.4-0.4-12.5-5.5-12.5-7.8l0-0.1H163.5z"/>
		<path style="clip-path:url(#SVGID_00000042006368107699679560000000507380627557995395_);fill:#73C69E;" d="M238.8,28.4l-5.3-2.2
			c-3.7-1.5-6.4-2.6-6-4.1c0.3-0.9,2-1.4,7-1.4c4.5,0,9.6,0.6,15.4,1.6l0.3,0.1l0-0.3l0.6-6.6l0-0.3l-0.3-0.1
			c-2.3-0.4-8.4-1.5-15.9-1.6c-0.5,0-1,0-1.5,0c-2.9,0-5.6,0.2-8.1,0.5c-4.7,0.6-12.6,2.7-13,9.2c-0.4,6.7,7.6,9.6,12.5,11.6l4,1.6
			c4.6,1.9,6.8,2.5,6.7,3.9c-0.1,1.3-1.8,1.6-6,1.6c-0.5,0-1.1,0-1.6,0c-5.2-0.1-12.7-1.2-15.4-1.7l-0.3-0.1l0,0.3l-0.4,7.1l0,0.3
			l0.3,0c0.1,0,5.6,0.9,17.3,1.2c0.7,0,1.4,0,2.1,0c8.5,0,18.9-1.3,20.1-8.4C252.4,34.3,245.5,31.4,238.8,28.4"/>
		<path style="clip-path:url(#SVGID_00000042006368107699679560000000507380627557995395_);fill:#73C69E;" d="M267.8,27.9
			c0.7-3.7,3.5-7.4,9.5-7.4c8.7,0.1,8.1,7.4,8.1,7.4H267.8z M297.1,34.5c2.9-16.7-11.9-20-15.3-20.5c-1.3-0.2-2.7-0.3-4.2-0.3
			l-0.2,0c-14.7,0.3-20.5,7.8-22.8,13.4c-0.2,0.4-0.7,1.9-1,3.7c0,0.2-0.1,0.5-0.1,0.7l0,0.3c-0.3,5.1,1.1,13.7,13.5,16.7
			c0.7,0.2,1.4,0.3,2.1,0.4c2.6,0.4,4.5,0.8,9.5,0.8c8.4,0,13.8-1.2,16.1-1.9c0.2-1.6,0.7-4.7,1.1-7.2c-1.1,0.3-8,1.7-15.4,1.7
			c-0.2,0-0.5,0-0.7,0c-10.4-0.4-12.5-5.5-12.5-7.8l0-0.1H297.1z"/>
	</g>
</g>
</svg>
