<?xml version="1.0" encoding="utf-8"?>
<!-- Generator: Adobe Illustrator 26.3.1, SVG Export Plug-In . SVG Version: 6.00 Build 0)  -->
<svg version="1.1" id="Layer_1" xmlns="http://www.w3.org/2000/svg" xmlns:xlink="http://www.w3.org/1999/xlink" x="0px" y="0px"
	 viewBox="0 0 300 302" style="enable-background:new 0 0 300 302;" xml:space="preserve">
<style type="text/css">
	.st0{fill-rule:evenodd;clip-rule:evenodd;}
	.st1{fill-rule:evenodd;clip-rule:evenodd;fill:#313D98;}
	.st2{fill-rule:evenodd;clip-rule:evenodd;fill:#FFFFFF;}
	.st3{fill-rule:evenodd;clip-rule:evenodd;fill:#D73655;}
</style>
<path class="st0" d="M290.3,288.5c1,0,1.7,0,2.3,0.2c1.2,0.4,1.7,1.5,1.7,2.3c0,1.7-1.5,2.2-1.9,2.3c0.6,0.3,1,0.5,1.2,1.9
	c0.2,1.2,0.3,2.1,0.8,3h-2.4c-0.3-0.6-0.4-1.3-0.5-2.1c-0.3-1.8-0.4-2.1-2.1-2.1H289v4.3h-2.1v-9.9H290.3L290.3,288.5L290.3,288.5z
	 M289,292.5h1.2c0.8,0,2,0,2-1.2c0-0.3-0.1-0.8-0.6-1c-0.3-0.1-0.5-0.1-1.7-0.1H289V292.5L289,292.5z"/>
<path class="st0" d="M281.9,293.5c0-4.7,3.8-8.4,8.6-8.4c4.7,0,8.5,3.7,8.5,8.4c0,4.7-3.8,8.5-8.5,8.5
	C285.7,302,281.9,298.2,281.9,293.5L281.9,293.5L281.9,293.5z M297.3,293.5c0-3.8-3-6.8-6.8-6.8c-3.8,0-6.9,3.1-6.9,6.8
	c0,3.8,3,6.9,6.9,6.9C294.2,300.4,297.3,297.3,297.3,293.5L297.3,293.5z"/>
<path class="st1" d="M298.8,109.4c0,58.5,0,114.5,0,172.9c-100.7-44.2-197,53-297.7,7c0-58.5,0-114.3,0-172.9
	C101.8,162.3,198.1,65.1,298.8,109.4L298.8,109.4z"/>
<path class="st2" d="M50.5,207.3c-5-7.1-8.8-12.6-10.6-16.1c-1.9-3-3.5-5.9-5.4-10.1c0,0-0.1,0-0.1,0c-0.2,4.1-0.8,8.4-1.2,11.3
	c-1.2,8.7-1.6,12.2-0.4,12.8c0,0.2,0,0.4,0,0.6c-1.5-0.3-5.5-1.3-8.8-2c-3.4-0.9-6.6-1.8-7.7-2.3c0-0.2,0-0.4,0-0.6
	c1.2,0,1.8-2,5.3-22.4c1.7-9.8,3.5-19.6,5.2-29.9c0.7,0.1,1.2,0.3,1.9,0.4c18.1,29.9,20.8,33.1,23.2,37.5c0,0,0.2,0,0.1,0
	c2.4-4.3,4.9-7.2,23.6-34.7c0.7,0,1.3-0.2,2-0.2c1.7,10.2,3.3,20.4,5,30.8c3.5,20.4,3.8,23.1,5,23.4c0,0.2,0,0.4,0,0.6
	c-1.2,0.1-4.5,0.4-8.3,0.9c-3.8,0.3-7.4,0.9-8.9,0.7c0-0.2,0-0.4,0-0.6c1.4-0.3,0.7-4-0.7-12.9c-0.5-3.2-1.1-7-1.2-11.4
	c0,0-0.1,0-0.1,0c-2.2,4.1-3.7,6.8-5.6,9.7c-1.9,3.1-5.5,8-10.3,14.4L50.5,207.3L50.5,207.3z"/>
<path class="st2" d="M109.1,194.6c-1.9,4.5-3.1,7.7-2.1,7.9c0,0.2,0,0.4,0,0.6c-2.9,0.7-5.9,1.2-8.6,1.6c-4.5,0.9-7.1,1.1-8.6,1.4
	c0-0.2,0-0.4,0-0.6c1.2-0.5,2.5-3.1,12.7-26.2c5.3-11.6,10.2-22.9,15.4-35c0.7-0.1,1.3-0.4,2.2-0.5c5.1,9.3,10.1,18.6,15.2,27.9
	c10.2,18.4,11.3,20.6,12.5,20.8c0,0.2,0,0.4,0,0.6c-1.9,0.5-4.2,1.1-8.5,2.2c-2.9,0.8-6.1,1.6-10,2.6c0-0.2,0-0.4,0-0.6
	c1-0.8-0.2-3.4-2-7C121.1,191.8,115.2,193.3,109.1,194.6L109.1,194.6z M123.3,181c0,0-0.5-0.5-0.5-0.5c-2.3-5.5-3.2-8.9-3.9-10.7
	c-0.1-0.4-0.3-1.6-0.4-1.9c0,0-0.1,0-0.1,0c-0.1,0.3-0.2,1.6-0.4,2.1c-0.7,2.1-2.1,6.2-4.6,12.6c0,0-0.2,0.5-0.4,0.7
	C116.4,182.8,120,181.9,123.3,181L123.3,181z"/>
<path class="st2" d="M151.5,160c0-19.5,0-21.5-1.4-22.1c0-0.2,0-0.4,0-0.6c2.7-0.9,7.6-2.2,11.3-3.3c3.1-0.6,6.4-1.6,10-2.3
	c4.5-0.7,9-0.8,12.9-0.1c5.8,1.9,10.4,5.6,10.4,13.3c0,3.8-1.2,7.1-2.7,10c-2.1,3.4-4.7,6.3-8,8.6c-2.4,1.7-5.1,3.2-8,4.5
	c-3.3,1.4-6.5,2.2-9.5,3.2c0,0.7,0,1.4,0,2.2c0,11.3,0,14,1.5,14.1c0,0.2,0,0.4,0,0.6c-3.1,0.9-6.4,1.6-9.5,2.4
	c-4.1,1.3-6.9,1.9-8.4,2.3c0-0.2,0-0.4,0-0.6c1.4-1.2,1.4-3.3,1.4-24.4C151.5,165.1,151.5,162.5,151.5,160L151.5,160z M179.3,148.4
	c0-2.8-1.4-4.5-3.8-5.4c-1.7-0.8-3.7-0.3-6.3,0.1c-0.7,0.3-1.7,0.4-2.7,0.8c0,5.5,0,10.8,0,16.3c0.5-0.2,2.3-0.5,3-0.8
	c2.2-0.7,4.2-1.8,5.7-2.9c1.2-0.9,2.2-2.3,3.1-3.5C178.9,151.3,179.3,150,179.3,148.4C179.3,148.5,179.3,148.4,179.3,148.4
	L179.3,148.4z"/>
<path class="st2" d="M200.8,148.2c0-19.5,0-21.8-1.6-22.2c0-0.2,0-0.4,0-0.7c1-0.2,5.3-1.1,9.7-1.7c4.1-0.6,8-1.2,9.1-1.3
	c0,0.2,0,0.4,0,0.7c-1.4,0.9-1.5,3.2-1.5,22.7c0,2.5,0,4.9,0,7.4c0,4.4,0,8.7,0,13.1c0,0.6,0.1,0.6,0.9,0.7
	c4.1-0.7,8.1-0.8,12.2-1.1c2.2-0.1,3.1-0.5,4.3-0.6c0.9-0.2,2.1-0.7,2.5-1c0.2-0.1,0.5,0.1,0.8,0c0,5.7-0.2,8.2-0.2,12.3
	c-5.3,0.3-11.4,0.4-17.5,1.2c-10.3,1-19,2.7-20.3,3.1c0-0.2,0-0.5,0-0.7c1.5-1,1.5-3.1,1.5-24.1
	C200.8,153.3,200.8,150.7,200.8,148.2L200.8,148.2z"/>
<path class="st2" d="M243.9,144.2c0-19.5,0-22.2-1.4-22.6c0-0.2,0-0.4,0-0.6c1.8,0.1,9.9,0,18.9,1.4c6.8,0.9,13.7,2.4,18.6,3.8
	c0,3.8-0.1,6.5-0.1,12.2c-0.2,0-0.5-0.3-0.7-0.2c-0.7-1.4-4.6-2.7-10.1-3.7c-3.1-0.6-6.2-1.3-9.4-1.5c0,3.8,0,7.4,0,11.2
	c3.3,0.2,6,1,9.3,1.5c5.5,1.1,7,1.3,7.6,1c0.2-0.1,0.5,0,0.7,0.2c0,2-0.1,4-0.1,5.9c0,2.2,0.1,4.3,0.1,6.4c-0.2-0.1-0.5,0-0.6-0.2
	c-0.7-0.6-2.2-1.4-7.5-2.4c-3.1-0.6-6.2-1.3-9.4-1.5c0,3.5,0,6.6,0,9.9c0,0.8,0.2,1.1,0.7,1.8c2.5,0.3,8.9,1.2,12.8,2.3
	c4,0.8,6.2,1.2,6.9,0.6c0.2,0.1,0.5,0.1,0.7,0.2c0,6-0.1,8.2-0.1,12.2c-5.6-1.6-11.7-2.9-17.5-3.8c-10.3-1.6-19-1.6-20.7-1.6
	c0-0.2,0-0.4,0-0.6c1.5-0.6,1.5-3,1.5-24C243.9,149.3,243.9,146.7,243.9,144.2L243.9,144.2z"/>
<path class="st2" d="M61.3,243.2c0-19.5,0-21.7-1.6-22.5c0-0.2,0-0.4,0-0.7c1,0.2,5.4,0.1,9.7-0.2c4.1,0,8-0.9,9.1-0.7
	c0,0.2,0,0.5,0,0.7c-1.5,1-1.5,3.2-1.5,22.6c0,2.5,0,4.9,0,7.4c0,4.4,0,8.7,0,13.1c0,0.6,0.1,0.9,0.9,0.7c4.1-0.5,8-0.7,12.2-1.5
	c2.1,0,3.1-0.7,4.3-1c0.9-0.3,2.2-1,2.5-1.3c0.3-0.1,0.5-0.1,0.8-0.1c-0.2,5.6-0.2,8.2-0.2,12.3c-5.1,0.8-11.5,1.6-17.5,2.4
	c-10.3,0.8-19,1.2-20.3,1c0-0.2,0-0.5,0-0.7c1.5-0.5,1.5-2.8,1.5-23.9C61.3,248.4,61.3,245.7,61.3,243.2L61.3,243.2z"/>
<path class="st2" d="M104.4,238.5c0-19.5,0.2-21.9-1.4-22.4c0-0.2,0-0.4,0-0.6c1.8-0.2,9.7-1.8,19-4.1c6.7-1.5,13.5-3.5,18.6-4.7
	c0,3.8-0.1,6.6-0.1,12.3c-0.2-0.1-0.5,0.2-0.7,0.2c-0.5-0.9-4.8-0.2-10.1,1.2c-3.3,0.9-6.4,1.7-9.4,2.3c0,3.8,0,7.4,0,11.2
	c3.1-0.6,6.2-1.3,9.3-2.3c5.5-1.5,7-1.8,7.6-2.6c0.2,0,0.4-0.2,0.7-0.2c0,2-0.1,4-0.1,5.9c0,2.2,0.1,4.3,0.1,6.4
	c-0.2,0-0.5,0.1-0.6,0.2c-0.8-0.4-2.3-0.1-7.5,1.2c-3.3,0.9-6.4,1.7-9.4,2.3c0,3.5,0,6.6,0,9.9c0,0.9,0,1.4,0.7,1.6
	c2.4-0.4,8.7-2.2,12.8-3.2c3.8-0.9,6.1-1.7,6.9-3c0.2,0,0.5-0.1,0.7-0.2c-0.2,6-0.1,8.5-0.1,12.2c-5.8,1.4-11.7,3.2-17.5,4.4
	c-10.3,2.6-19,4.3-20.7,4.6c0-0.2,0-0.4,0-0.6c1.4-0.6,1.5-3.3,1.5-24.3C104.4,243.7,104.4,241,104.4,238.5L104.4,238.5z"/>
<path class="st2" d="M164.3,247.8c-1.9,4.9-3.1,7.8-2.1,8c0,0.2,0,0.4,0,0.6c-2.7,0.6-5.9,1.5-8.6,2.2c-4.5,1.2-6.9,2.1-8.6,2.3
	c0-0.2,0-0.4,0-0.6c1.2-0.9,2.4-3.5,12.7-27.4c5.1-11.9,10.1-23.8,15.4-35.7c0.7-0.3,1.5-0.5,2.2-0.5c5.1,9.4,10.1,18.5,15.2,28.2
	c10,18.9,11.3,21.3,12.5,21.6c0,0.2,0,0.4,0,0.6c-1.9,0.3-4.2,0.9-8.5,1.6c-2.9,0.8-6.1,1.2-10,2.2c0-0.2,0-0.4,0-0.6
	c1-0.9-0.3-3.3-2-7C176.2,244.7,170.4,246.3,164.3,247.8L164.3,247.8z M178.5,233.9c-0.4-0.3-0.5-0.5-0.6-0.7
	c-2.3-5.5-3.2-8.6-3.8-10.4c-0.1-0.4-0.3-1.6-0.4-2c0,0-0.1,0-0.1,0c-0.1,0.3-0.2,1.6-0.3,2.1c-0.7,2.1-2,6.2-4.6,12.7
	c0,0-0.4,0.7-0.4,0.8C171.7,235.5,175.3,234.7,178.5,233.9L178.5,233.9z"/>
<path class="st2" d="M242.7,200.3c-0.7-1.1-4.7-1.3-10-1.2c-3.3,0.3-6.2,0.3-9.3,0.7c0,4.4,0,8.6,0,13c3.1-0.3,6.1-0.6,9.1-0.7
	c5.3-0.1,6.6-0.3,7.6-0.9c0.2-0.1,0.5,0,0.8,0c0,1.9-0.1,3.9-0.1,5.8c0,2.2,0.1,4.3,0.1,6.5c-0.3,0-0.7,0.2-0.8,0
	c-1-0.4-2.3-0.7-7.4-0.6c-3.3,0.3-6.2,0.3-9.3,0.7c0,1.1,0,2.1,0,3.4c0,13.6,0.1,15.9,1.5,16.7c0,0.2,0,0.4,0,0.6
	c-1.2,0.1-4.2,0.3-9.2,1c-5.3,0.7-8.2,1.5-9.5,1.4c0-0.3,0-0.5,0-0.7c1.4-0.6,1.5-3,1.5-24.1c0-2.5,0-5.2,0-7.7
	c0-19.5,0-21.8-1.4-22.1c0-0.3,0-0.6,0-0.8c1.3-0.5,9.6-1.8,18.8-2.4c6.7-0.6,13.5-0.9,18.7-0.7c-0.2,4-0.1,6.5-0.1,12.2
	C243.3,200.4,243,200.2,242.7,200.3L242.7,200.3z"/>
<path class="st3" d="M149.6,3.6c0,0-8.3,15.8-10.5,21c-2.2,5.6-3,8.2-6.5,5.6c-1.5-1.1-8.5-3.8-8.5-3.8c0,0,5.2,22.3,5.7,25.5
	c0.8,3.8,0.4,5.7-3.6,2.2c-2-2.2-10.9-8.1-10.9-8.1s-1.3,2.7-3.2,6.1c-1.4,2.6-0.6,3-3.4,2.6c-2.8-0.2-13.3-0.8-13.3-0.8
	s4.7,10.1,5.9,13.4c0.3,0.5,0.4,1,0.5,1.6c0.7,2.3,0.4,1.8-2.9,4.5C96.2,75.9,95,77,95,77c0,0,21,8.9,24.3,10.9
	c3.3,1.9,2.5,3,1.5,6.7c-1.2,4.2-2.6,9.6-2.6,9.6c9.8-3.8,19-7.9,28.8-12c-0.7,6.2-1.1,12-1.7,18c2.9-0.8,5.9-1.3,8.8-2.3
	c-0.5-5.8-1.1-11.3-1.7-17.1c9.8-0.9,19-1.8,28.8-2.7c0,0-1.4-3.3-2.4-6.8c-1-3.2-1.8-3.7,1.4-7.4c3.3-3.3,24.3-20.8,24.3-20.8
	s-1-0.7-3.9-2.3c-3.1-1.5-3.6-0.9-2.9-3.4c0.2-0.6,0.2-2.2,0.6-2.7c1.2-3.6,5.7-16.1,5.7-16.1c0,0-10.5,4.5-13.3,5.9
	c-2.8,1.7-2,0.7-3.4-1.2c-1.9-2.6-3.2-4.7-3.2-4.7c0,0-8.9,11.1-10.8,14.3c-3.3,5.2-4.6,3.5-4.1-0.3c0.3-3.8,6.1-29.3,6.1-29.3
	s-7,6.1-8.5,8.1c-3.7,4.4-4.2,2-6.5-2.3C158,14.9,149.7,3.6,149.6,3.6C149.7,3.6,149.6,3.6,149.6,3.6L149.6,3.6z"/>
<path class="st3" d="M291.4,84c-0.2-0.1-0.4-0.5-0.4-0.9c0-0.5,0.2-0.8,0.4-0.9l-0.4-0.2c-26.6-12.5-51-14.7-77.9-13.2
	c0-0.4,0-0.8,0-1.3c26.9-6,51.4-7.7,77.9,0.1l0.4,0.1c-0.2-0.1-0.4-0.5-0.4-0.9c0-0.5,0.2-0.8,0.4-0.9l-0.4-0.1
	c-26.6-12.5-51-14.5-77.9-13.2c0-0.4,0-0.8,0-1.3c26.9-6,51.4-7.7,77.9,0.1l0.4,0.1c-0.2-0.1-0.4-0.5-0.4-0.9c0-0.5,0.2-0.8,0.4-0.9
	l-0.4-0.2c-26.6-12.5-51-14.7-77.9-13.2c0-0.4,0-0.8,0-1.3c26.9-6.2,51.4-7.6,77.9,0.1l0.4,0.1c-0.2-0.1-0.4-0.5-0.4-1
	c0-0.5,0.2-0.8,0.4-0.9l-0.4-0.1c-26.6-12.6-51-14.7-77.9-13.2c0-0.4,0-0.9,0-1.3c26.9-6,51.4-7.7,77.9,0.1l0.4,0.1
	c-0.2-0.1-0.4-0.5-0.4-0.9c0-0.5,0.2-0.8,0.4-0.9l-0.4-0.2c-26.6-12.5-51-14.5-77.9-13.2c0-0.4,0-0.8,0-1.3
	c29.6-4.3,56.4-3.7,85.7,9.4c0,3.2,0,80.1,0,82.8c-29.4-13.2-56.3-13.9-85.7-9.6c0-0.4,0-0.8,0-1.3c26.9-6.2,51.4-7.6,77.9,0.1
	L291.4,84L291.4,84z"/>
<path class="st3" d="M8.5,97.1c0.2-0.1,0.4-0.4,0.4-0.9c0-0.4-0.2-0.9-0.4-1l0.3,0.1c26,7.8,49.9,7.1,76.1,1.4c0-0.4,0-0.8,0-1.3
	c-26.1,1.1-50.1-2-76.1-14.5l-0.3-0.2c0.2-0.1,0.4-0.4,0.4-0.9c0-0.5-0.2-0.9-0.4-0.9l0.3,0.1c26,7.8,49.9,7.2,76.1,1.4
	c0-0.4,0-0.8,0-1.3c-26.1,1.1-50.1-2-76.1-14.5l-0.3-0.2c0.2-0.1,0.4-0.4,0.4-0.9c0-0.5-0.2-0.8-0.4-0.9l0.3,0.1
	c26,7.8,49.9,7.1,76.1,1.4c0-0.4,0-0.8,0-1.3c-26.1,1-50.1-1.9-76.1-14.4l-0.3-0.2c0.2-0.1,0.4-0.4,0.4-0.9c0-0.5-0.2-0.9-0.4-1
	l0.3,0.1c26,7.8,49.9,7.1,76.1,1.4c0-0.4,0-0.8,0-1.3c-26.1,1.1-50.1-2-76.1-14.5L8.5,32c0.2-0.1,0.4-0.4,0.4-0.9
	c0-0.5-0.2-0.9-0.4-0.9l0.3,0.1c26,7.8,49.9,7.2,76.1,1.4c0-0.4,0-0.8,0-1.3C56.2,34,29.8,32.1,1,18.7c0,3.2,0,80.1,0,82.8
	c28.7,13.4,55.1,15.1,83.9,11.5c0-0.4,0-0.8,0-1.3c-26.1,1-50.1-1.9-76.1-14.4L8.5,97.1L8.5,97.1z"/>
</svg>
