<?xml version="1.0" encoding="utf-8"?>
<!-- Generator: Adobe Illustrator 26.3.1, SVG Export Plug-In . SVG Version: 6.00 Build 0)  -->
<svg version="1.1" id="Layer_1" xmlns="http://www.w3.org/2000/svg" xmlns:xlink="http://www.w3.org/1999/xlink" x="0px" y="0px"
	 viewBox="0 0 400 200" style="enable-background:new 0 0 400 200;" xml:space="preserve">
<style type="text/css">
	.st0{fill:#006A51;}
</style>
<g>
	<g>
		<path class="st0" d="M178.5,2.3h-6.9v12.2h-2.4V2.3h-6.9V0.1h16.1V2.3z"/>
		<path class="st0" d="M207.9,14.5h-2.4V8.1H194v6.4h-2.4V0.1h2.4V6h11.5V0.1h2.4V14.5z"/>
		<path class="st0" d="M237.9,14.5h-15V0.1h14.5v2.2h-12.1V6h8.4v2.2h-8.4v4.2h12.6V14.5z"/>
	</g>
	<path class="st0" d="M57.1,106.9c-0.7,1.7-0.9,2.7-2.2,8.8c0,0-8.1,38.4-9.3,43.7c-1.2,0-11.9,0-12.9,0
		c-0.4-1.1-13.1-33.6-13.1-33.6l-4.5,23.4c0,0-0.4,2-0.4,2l-0.4,1.8c-0.7,3.3-0.9,4.7-0.9,6.5c-1.3,0-10.5,0-12.5,0
		c0.7-1.7,1-2.9,2.3-9.1l0.2-0.7c0,0,12.4-58.6,12.4-58.8c0,0,22.1,50.8,22.1,50.8l5-24.5c0,0,0.2-1.3,0.2-1.3l0.5-2.4
		c0.6-3.1,0.9-5,0.9-6.5c0,0,0,0,0,0C46,106.9,55.1,106.9,57.1,106.9z"/>
	<path class="st0" d="M97.5,132.6c0,7.6-2.8,15.8-7,20.6c-4.1,4.7-9.7,7-16.9,7c-10.3,0-16.1-6.2-16.1-17.5c0-7.4,2.5-15,6.7-19.8
		c4-4.7,10.2-7.2,17.4-7.2C91.6,115.5,97.5,121.8,97.5,132.6z M72.7,128.5c-2.2,3.8-3.9,10.4-3.9,15.7c0,5.2,2,8.1,5.8,8.1
		c3.7,0,6.5-2.3,8.6-7c1.6-3.6,2.9-9.6,2.9-13.6c0-5.2-2-8.1-5.7-8.1C77.2,123.4,74.7,125.1,72.7,128.5z"/>
	<path class="st0" d="M113.6,150.9c-0.7,3-1.3,6.9-1.3,7.8v0.7H99.8c0.9-2.1,1-2.2,2.4-8.5l5.6-25.2c1.1-4.9,1.4-6.7,1.4-7.8v-0.7
		h15.3c5.7,0,9,0.7,11,2.3c2,1.6,3.2,4.1,3.2,6.8c0,6.4-4,10.8-10.9,12c3.4,0.4,5.8,2.1,6.2,6.1l1.1,8.3c0.5,4.6,0.5,5.1,1.1,6.7
		h-12.6c0.1-0.6,0.1-0.8,0.1-1.4c0-0.6-0.1-2.6-0.3-3.7l-0.6-6.3c-0.5-4.8-2.1-5.8-5.4-5.8h-1.8L113.6,150.9z M119.5,134.5
		c3.3,0,5.8-0.5,7.1-2.1c1.3-1.3,1.5-3.8,1.5-5c0-1.8-1.7-3.2-3.4-3.5c-1-0.2-2.8-0.3-5.2-0.3l-2.4,10.9H119.5z"/>
	<path class="st0" d="M179.1,117.2l-1.7,8c-2.2-0.1-4.4-0.2-7.3-0.2H166l-5.4,25.8c-1.3,6.2-1.3,5.9-1.4,8.5h-12.3
		c0.9-2.1,0.9-2.1,2.3-8.5l5.5-25.8h-4.4c-2.8,0-6.3,0.1-7.6,0.2l1.7-8H179.1z"/>
	<path class="st0" d="M399.1,117.2l-1.7,8c-2.2-0.1-4.4-0.2-7.3-0.2H386l-5.4,25.8c-1.3,6.2-1.3,5.9-1.4,8.5h-12.3
		c0.9-2.1,0.9-2.1,2.3-8.5l5.5-25.8h-4.4c-2.8,0-6.3,0.1-7.6,0.2l1.7-8H399.1z"/>
	<path class="st0" d="M188.4,150.9c-0.5,2.5-1.1,6.4-1.2,7.8v0.7h-12.3c0.6-1.3,0.9-2.2,1-3c0.8-3.5,0.4-1.6,1.3-5.5l5.4-25.2
		c1.1-5.2,1.3-6.5,1.3-8.5h12.2c-0.4,1-0.6,1.5-1,3c-0.6,2.1-1,4.1-1.3,5.5l-1.5,7.3c0.8-0.1,0.5-0.1,2.6-0.1h1h2.5h2.5
		c2.7,0.1,2.8,0.1,3.7,0.1l1.6-7.3c0.3-1.5,0.3-1.7,0.9-4.6c0.3-2,0.4-2.5,0.4-3.2c0-0.1,0-0.4-0.1-0.7h12.3c-0.8,2-1.1,3-2.3,8.5
		l-5.4,25.2c-0.5,2.6-1.2,6.9-1.2,7.8v0.7h-12.3c0.4-1,0.6-1.5,1-3c0.6-2.1,1-4,1.3-5.5l2.1-10.1c-1.3-0.1-3.9-0.1-6.1-0.1
		c-2.3,0-4.8,0.1-6.2,0.1L188.4,150.9z"/>
	<path class="st0" d="M305.3,151.2h10.8c3.9,0,5.5-0.1,6.8-0.2l-1.9,8.3h-29.7c0.5-1.1,0.7-1.8,1.1-3c0.3-1,0.3-0.9,1.3-5.5
		l5.6-25.2c1.1-5.2,1.3-6.5,1.4-8.5h28.8l-1.8,8.1c-1.8-0.1-4.8-0.2-6.6-0.2h-10.1l-1.9,8.5h9.9h2.5c1.2-0.1,1.6-0.1,3-0.1l-1.8,8.2
		c-1.7-0.1-3.3-0.2-5.5-0.2h-9.9L305.3,151.2z"/>
	<path class="st0" d="M329.2,150.5c3.2,1.1,8.3,2,11.2,2c4.2,0,6.9-2,6.9-5.1c0-1.9-1-3.2-4.9-6.1c-4.6-3.5-5.3-4.2-6.6-5.9
		c-1.1-1.6-1.7-3.5-1.7-5.8c0-3.5,2.1-7.5,5.3-10c2.8-2.2,7.3-3.5,12.1-3.5c3.1,0,6.3,0.5,9.9,1.5l-1.8,7.9c-3.6-1.1-5.8-1.7-8-1.7
		c-3.5,0-5.7,1.6-5.7,4.2c0,1.1,0.4,2.1,1.4,3.1c1,0.9,0.9,0.9,4.8,4.1c3.9,3.2,3.9,3.3,5,4.8c1.3,1.7,1.8,3.3,1.8,5.4
		c0,8.7-7.8,15-18.6,15c-4.1,0-8.9-0.6-12.7-1.7C327.5,158.6,329.2,150.5,329.2,150.5z"/>
	<path class="st0" d="M84.9,183.7l-3,1.1c-2-2.2-4.8-3.2-8.5-3.2c-2.8,0-5,0.7-6.7,2.1c-1.7,1.4-2.6,3.2-2.6,5.4
		c0,2.3,0.9,4.1,2.6,5.5c1.7,1.4,4,2.1,7,2.1c3.5,0,6.3-1.1,8.3-3.3l2.8,1.6c-1.4,1.7-3,2.9-4.8,3.6c-1.8,0.7-4,1.1-6.5,1.1
		c-3.5,0-6.4-0.9-8.8-2.6c-2.7-2-4-4.7-4-7.9c0-3.2,1.3-5.8,4-7.9c2.3-1.8,5.2-2.7,8.7-2.7C78.5,178.6,82.3,180.3,84.9,183.7z"/>
	<path class="st0" d="M129.8,189.1c0,3.3-1.3,5.9-4,7.9c-2.3,1.8-5.2,2.6-8.7,2.6c-3.5,0-6.4-0.9-8.8-2.7c-2.7-2-4-4.6-4-7.9
		c0-3.2,1.4-5.8,4.1-7.9c2.4-1.8,5.3-2.7,8.7-2.7c3.5,0,6.4,0.9,8.7,2.7C128.5,183.3,129.8,185.9,129.8,189.1z M126.4,189.1
		c0-2.3-1-4.2-3-5.7c-1.7-1.3-3.8-1.9-6.4-1.9c-2.8,0-5,0.7-6.8,2.1c-1.7,1.4-2.6,3.2-2.6,5.4c0,2.3,0.9,4.1,2.6,5.5
		c1.7,1.4,4,2.1,6.8,2.1c2.8,0,5.1-0.7,6.8-2.1C125.6,193.2,126.4,191.4,126.4,189.1z"/>
	<path class="st0" d="M176,199.1h-3.3v-16.3h-0.1l-10.3,13l-10.2-13h-0.1v16.3h-3.3v-19.9h4.1l9.6,12l9.6-12h4.1V199.1z"/>
	<path class="st0" d="M213.4,179.2c2,0,3.6,0.6,4.8,1.7c1.2,1.1,1.8,2.6,1.8,4.5c0,2-0.6,3.5-1.9,4.5c-1.2,1-3,1.6-5.4,1.6h-11.9
		v7.6h-3.3v-19.9H213.4z M212.8,188.6c2.6,0,3.8-1,3.8-3.1c0-2.2-1.3-3.3-4-3.3h-11.7v6.4H212.8z"/>
	<path class="st0" d="M258.1,199.1h-3.6l-2.3-4.5h-13.4l-2.3,4.5h-3.6l10.5-19.9h4.1L258.1,199.1z M250.5,191.7l-5-9.7l-5.2,9.7
		H250.5z"/>
	<path class="st0" d="M298.4,199.1h-4.1l-15.2-16.4v16.4h-3.3v-19.9h4.1l15.2,16.3v-16.3h3.3V199.1z"/>
	<path class="st0" d="M339.2,179.2l-10.9,12v7.9h-3.3v-7.9l-10.9-12h4.1l8.4,9.2l8.4-9.2H339.2z"/>
	<path class="st0" d="M231.8,106.7H245c0,0-0.2,1.8,0,4.7l2.3,31.3c0,0,10.8-22.4,11.4-24.9c0.6-2.4,1-3.8,1-4.7
		c-0.1-1.4-0.6-6.4-0.6-6.4l10.6,0l3,35.2c0,0,10.7-22.2,11.9-25.3c1.6-4,2-4.9,2.2-7.1c0.1-1.6-0.8-2.8-0.8-2.8h13.5
		c0,0-3.5,6.7-11.8,24.2c-0.5,1-13.5,28.4-13.5,28.4h-9.9l-3.2-31.1l-13,31.1h-10.2c0,0-5-45.8-5.3-47.4
		C232.4,110.3,232.1,107.9,231.8,106.7z"/>
	<g>
		<path class="st0" d="M155.7,63l0.2,0.3c0,0,0.8,0.5,0.9,0.7c0.1,0.2,0.1,0.5,0.3,0.6c0.2,0.1,0.3,0.4,0.7,0.4
			c0.4,0,0.6,1.1,0.6,1.1s0.8,0.5,0.9,0.6c0.1,0.1,0.5,0.8,0.5,0.8l0.9,0.9l0.4,0.1l0.1,1.2l0,0.1c-21.4-0.1-41.1-0.5-48.7-0.8
			c0,0-0.2-0.4,0.6-0.9c0.8-0.5,3.1-0.8,3.2-0.9c0.2-0.2-0.1-0.2,0-0.5c0.2-0.3,2.1-0.8,2.1-0.8l0.1-0.4l0.8-0.6l4.5-2.9
			c0,0,0.8-0.9,1-1c0.2,0,1.5,0,1.5,0s0.1-0.1,0.3-0.1s1.4,0.8,1.4,0.8h0.4c0,0,0.8,0.9,1.3,0.6c0.5-0.2,0.5-0.8,0.5-1
			c0-0.3-0.4-0.5-0.5-1.9c-0.1-1.4,0.1-2.4,0.3-2.8c0.1-0.4,0.2-1.2,0.9-2c0.7-0.8,1.6-1.4,1.6-1.4s0.4-2.5,1.1-3.1
			c0.6-0.5,0.9-0.8,1.2-1.2c0.2-0.3-0.2-0.4,0.4-1.1c0.6-0.7,1.3-1.2,1.6-1.4c0.3-0.2,1.3-0.9,1.6-1c0.9-0.3,1.7-0.1,1.7-0.1
			s-0.5-0.2-0.7-0.6c-0.1-0.4,0-0.6-0.2-0.8c-0.1-0.1-0.1-0.5-0.3-0.6c-0.2,0-0.7-0.5-0.7-0.5s0.3-0.4,0.6-0.4
			c0.3,0,0.7,0.4,0.7,0.4s0.4,0,0.6,0.1c0.1,0,0.2-0.2,0.7-0.1c0.4,0.1,0.7,0.3,0.9,0.4c0.3,0.2,0.4-0.3,0.7-0.2
			c0.7,0.2,1.3-0.6,1.3-0.6s-2.5,0-2.6-0.5c-0.2-0.5-0.5-0.6-0.7-0.6c-0.2,0-0.4,0.2-1-0.1c-0.6-0.2-1,0.1-1.3,0.3
			c-0.3,0.2-0.7,0.2-0.9,0.2c-0.2,0-0.4-0.3-0.9-0.2c-0.4,0-0.4-0.5-0.4-0.5s0-0.6,0.7-0.5c0.7,0,1.2-0.1,1.2-0.1s0.8-0.2,0.5-0.7
			c-0.1-0.3-0.3-0.6-0.1-0.8c0.2-0.1-0.1-0.6,0.6-0.7c0.7-0.2,2.1,0.6,1.9-0.1c-0.1-0.7-0.8-0.8-1-1c-0.2-0.2-0.1-0.4-0.1-0.4
			s0.9-0.4,1.5-0.2c0.7,0.2,0.6,0.4,0.8,0.4c0.2,0,0.6,0,0.8,0.1c0.2,0.1,0.5-0.4,1,0.6c0.6,0.1,0.7-1,0.7-1s-0.1-1.6,2.3-2.5
			c1.1-0.2,2.3-0.3,2.8-0.2c0.5,0,1.4,0.3,1.6,0.5c0.2,0.1,0.9,0,1.4,0.7c0.4,0.5,0.2,0.9,0.2,0.9s0.4,0.1,0.5,0.5
			c0.1,0.6,0,0.8,0,1c0.1,0.2,0.2,1,0.2,1s0.3,0.3,0.4,0.7c0.2,0.7-0.1,1.1-0.2,1.5c-0.1,0.4-0.4,1.2-0.4,1.2s-0.1,0.8-0.2,1.2
			c-0.1,0.4-0.1,0.7-0.5,0.9c-0.4,0.1-2.2,0.1-2.5,0.1c-0.3,0-1.3,0.7-1.3,0.7s0.1,0.3,0.1,0.6c0,0.3-0.3,1.1-0.4,1.3
			c-0.3,0.9-0.1,1.3-0.1,1.3c0.1-0.1-0.1-0.4,0.4-1.1c0.3-0.3,0.4-0.6,0.4-0.8l0.1-0.1c0.6,0,1.4-0.1,1.8-0.2
			c0.5-0.2,2.1-0.8,2.6-0.5c0.4,0.2,0.5,0.3,0.5,0.3s1.1-0.9,2.4-0.9c1.2,0,3.5-0.8,3.5-0.8s0.3-0.6,0.6-0.6c0.4,0,1.2,0,1.6-0.2
			c0.4-0.2,1.5-1.5,2.2-1.8c0.7-0.3,1.4-0.2,1.9-0.2c0.5,0,0.7-0.1,1.4,0.1c0.6,0.2,0.9,0.5,1.3,0.7c0.3,0.3-0.1,0.8-0.1,0.8
			s0.2,0.2,0.2,0.5c0,0.2,0,0.3-0.1,0.5c-0.1,0.2-0.7,0.8-0.5,1c0.1,0.2-0.4,1-0.5,1.1c-0.1,0-0.3,0.1-0.3,0.1s0.3,0.8-0.5,1
			c-0.6,0.2-1.7,0.3-2.4,0.4l0,0.1L155.7,63L155.7,63z M154.6,61.4l7.8-14.1l0-0.1c-0.1,0-0.3,0-0.4,0c-0.5,0.1-2.1,1-2.9,1.4
			c-0.8,0.4-3.3,2.3-3.8,1.9c-0.4-0.4,0,0.2-0.1,0.5c-0.1,0.2-0.4,0.4-0.4,0.4s-0.2,0.5-0.5,0.7c-0.3,0.2-1.4,0.6-2.4,0.9
			c-1,0.4-1.4,0.4-1.4,0.4l-3.5,3.4c0,0-0.2,1.3-0.2,2c0,0.7-0.2,1.6-0.2,1.6l1.1,0.8c0,0,2.9-1.5,4.7-1.1
			C153.2,60.2,154,60.8,154.6,61.4L154.6,61.4z"/>
		<path class="st0" d="M197.7,87.3L197.7,87.3c1.7-1.9,2.9-3.7,3.4-5.9c0.4-2.1,0.7-4.4,0.7-4.6c0,0,2.4-4.4,2.4-4.4
			c38,0,72.2-0.3,81.3-1c0.2,0,15-1.2,22.6-4.4l0-0.1c0.2-0.7,0.3-1.2,0.5-1.6c0.8-2,0.8-2,1.5-4.7l0.1-4.3l0-0.2
			c-0.1-0.1-0.3-0.2-0.6-0.4c-0.8-0.5-1-1.1-1-1.1l-0.3-0.4l-0.9-0.5c0,0,0.2,0.1-1,0c-1.2-0.1-2.2-0.9-3.1-1
			c-0.9-0.2-2.7-0.8-2.9-0.8s0-0.1-0.9-0.1c-1.3,0-2.6-1-3.1-1.1c-0.3-0.1-0.8-2-0.8-2L295,51l-0.1,0.1c-0.8,0.2-2.7,0.6-6.7-0.3
			c0,0,2.2,1.1,6.5,1.4l0,0c0,0,0.4,0.8,0.6,1.3c0.3,1.3,1,1.8,0.9,2.3c-0.2,1.6,0.4,2,0.4,2s0,0.8,0.1,1.1c0.2,0.3,0.6,1,0.6,1
			s1.7-0.2,2.4,0.1c0.7,0.3,3.6,1.6,3.6,1.6s0.5,0,0.6,0.2c0,0.1,0.6,1.8,1.3,3.5l0,0.1c-7.5,2.5-19.7,3.5-19.8,3.5
			c-8.9,0.6-43.3,1-79.8,1l-0.1,0c1.4-2.5,3-5.4,4.6-8.3l0.1-0.2c0,0,2.4-3.1,3.1-3.4c0.7-0.3,1,0.1,1.4,0c0.5-0.1,2.3-0.6,2.4-0.6
			c0.2,0,0.6,0.5,0.6,0.5l2.1,0.1l0.4-0.5h2.2c0,0,1.8,0.7,1.9,0.9c0.2,0.1,0.9,0.9,0.9,0.9s0.3,0.1,0.7,0c0.2-0.1,0.7,0.4,1.1,0.3
			l0.2,0.1c3.3,1.7,5.3,2,5.3,2c-2.6-1-4.1-2.2-4.9-2.8l-0.1-0.1c0.1-0.3,0.1-0.6,0-1.5c-0.1-1.3,0.9-2.8,1.1-3.1
			c0.3-0.3,0.7-0.9,0.7-1.2c0-0.3-0.5,0.1-0.3-1.1c0.1-0.4,0.4-1.7,0.6-2c0.2-0.3,2-4,2.7-5.3c0.8-1.3,1.5-0.4,1.4-2
			c-0.1-0.8,0.3-1.1,0.5-1.4c0.2-0.3,1-0.8,1.3-1.1c0.2-0.2,0.5-1,1-1.1c0.5,0,1.7-1,1.9-1.2c0.2-0.2-0.3-1.5,0-1.9
			c0.3-0.5,2.7-1.9,2.7-1.9s0.4-0.5,0.7-0.5c0.3,0,1,0.4,1.1,0.5c0.1,0.1,0.9,0.5,0.9,0.5s-0.1-0.5,0.1-0.8c0.2-0.2,0.1-0.6,0.1-0.6
			l-0.5-1.1c0,0-0.9,0.2-1.3,0.2c-0.4,0-1.2-0.7-1.2-0.7s-0.3-0.1-0.7-0.1c-0.4,0-0.4-0.4-0.7-0.5c-1.6-0.9-0.3-2,0.1-2.3
			c1.1-0.9,2.6-1.2,2.6-1.2l0-0.3c0,0-1.7-0.1-2.2-0.2c-1.6-0.4-2.7-1.1-2.7-2c0-0.4,1.1,0.3,3.2,0.6c1.1,0.2,1.8-0.2,1.8-0.2
			s0-0.5,0.2-1.2c0.1-0.7,0.9-1.2,3-1.7c2.1-0.5,3.7-0.4,4.1-0.2c0.4,0.3,1.2,1.5,1.3,1.7c0.1,0.2,0.3,0.8,0.3,0.8s1.9-0.1,2.3,0
			c0.4,0,1.1,0,1.3,0.4c0.2,0.4,0,0.5-0.6,0.9c-0.6,0.4-2.3,1.3-2.3,1.3s0.3,0.6,0.5,1.5c0.1,0.9,0.6,2.4,0.3,2.9
			c-0.3,0.6-1.9,1.2-2.3,1.2c-0.4,0-0.5,1.3-0.5,1.3s1.2-0.1,1.4-0.1c0.1,0,0.4-0.6,1.6-0.7c1.1-0.1,1.7,0.3,1.7,0.3
			s0.3-0.6,0.7-0.9c0.5-0.3,2-0.1,2-0.1s1.5-0.7,1.9-0.6c0.4,0,0.6,0.2,0.6,0.2l0.4,0.5c0,0,0.8-0.4,1.8-0.5c1-0.1,8-0.6,8-0.6
			s3-3.2,3.6-3.1c0.6,0.1,0.5,0.5,0.8,0.5c0.3,0-0.1-0.7,1.1-0.9c0.4-0.1,1.1,0,1.3,0.4c0.1,0.4,0.7,1,0.7,1s0.4,0.5,0.4,0.6
			c0,0.2-0.1,0.5-0.1,0.5s0.4,0.7,0.2,1.1c-0.2,0.5-1,1.7-1,1.7s-0.4,0.7-0.6,0.8c-0.2,0.1-1,0.4-1,0.4s-0.4,0.5-0.7,0.5
			c-0.3,0-0.4-0.1-0.5-0.1c0,0-0.2,0-0.3,0l0,0.1l-10.8,19.5l0,0.1c0.7,0.5-0.3,2.2-0.3,2.4c0,0.2-0.4,1.2-0.4,1.2s-1.1,1-2.2,1.6
			l0,0.1l-2,3.6c0,0-0.1,0.4-0.2,1.1l0,0c0.2-0.1,0.7-0.4,1.5-0.4c1-0.1,1-1.2,1.5-1.5c0.5-0.3,0.8-1,1-1.2c0.2-0.2,0.9-0.4,1-0.6
			c0-0.2,0.7-0.9,0.8-1c0.1-0.1,0.5,0,0.7-0.2c0.2-0.3,0.3-1,0.5-0.9c0.2,0.1,1.2-0.5,1.4-0.5c0.3,0,1-0.3,1.2-0.4
			c0.1,0,0.5,0.2,0.6,0.4c0.1,0.2,0.7,0,0.9,0c0.2,0,0.8-0.2,0.8-0.2s0.1-0.8,0.6-0.8c0.5,0,1,0.2,2,0.4c1,0.1,1.7,0,2.2,0.2
			c0.4,0.1,0.9,0.4,0.9,0.6c0,0.2,0.5,0.8,0.8,1.2c0.3,0.4,0.5,1,0.6,1.2c0,0.2,0.1,1,0.4,1.1c0.3,0.1,0.4-0.1,0.4-0.1
			s0-7.4,2.4-10.9c0.8-1.1,1.2-1.5,1.4-1.7c0.1-0.1,0.3,0,0.3-0.3c0-0.3,0.7-3.1,0.7-3.1l-0.8-0.6l-0.1-0.6c0,0-0.8-0.5-1-1
			c-0.1-0.5-0.3,0.1-0.5-2.2c-0.1-2.3,0.6-2.9,0.7-3.6c0.1-0.8,0.6-3,0.9-3.7c0.3-0.7,0.6-1.5,1.7-3.4c1.1-1.9,2-2.1,2-2.1
			s1.3-0.7,1.1-1.6c-0.2-0.9,1.4,0,1.4,0s0.8,0.1,1.1-0.2c0.2-0.3,0.8-1.4,0.6-1.6c-0.2-0.2-1.5,0.8-2.1,0c-0.1-0.2,0.1-1.2-0.9-0.9
			c-1,0.3-1.1-0.2-1.3-0.5c-0.2-0.3-0.2-0.5,0-0.5c0.2,0,0.2-0.3,1,0c0.8,0.3,1.2-0.8,1.2-0.8s-0.6-0.1-0.8-0.3
			c-0.2-0.2,1.1-0.6,0.8-0.9c-0.3-0.3-1.1-0.5-0.7-1c0.4-0.5-0.8-0.7-0.5-0.9c0.3-0.2,0.5,0,0.5,0s1.1-0.4,1.5,0
			c0.4,0.4,0.6,0.8,0.6-1c0-1.8,2.5-2.4,2.5-2.4s2.3-0.9,3.6-0.6c1.3,0.3,2.4,1.2,2.8,1.5c0.4,0.2,1.2,0.6,1.5,1.4
			c0.5,1.3,0.4,2.1,0.4,2.1c-0.4,1.5-0.4,1.4-0.6,1.8c-0.2,0.4-0.2,0.9-0.2,1.3c-0.1,1.1-0.1,1.4-0.8,1.4c-0.6,0-1.5,1.2-1.5,1.2
			s-0.4,0.8-0.8,0.8c-0.4,0-0.9-0.4-1.2-0.3c-0.2,0.1-0.4,1.5-0.4,1.5s0.3-0.1,0.4,0.1c0.2,0.2-0.1,0.6,0.5,0.7c0.5,0.1,0,0,0.1,0
			c0.1,0-0.2-0.2,0.7-0.5c0.4-0.2,2-1.7,2.6-1.8c0.6-0.1,0.3-0.1,0.3-0.1s0-0.2,0.9-1.4c1-1.2,2-1.9,2-1.9s-0.1-0.2,0.3-0.5
			c0.4-0.2,0.5-0.2,0.5-0.2s4.2-6.4,4.5-7c0.3-0.6,0.1-0.9,0.1-1.3c0-0.4-0.2-0.9-0.2-0.9S307,13,307,12.8c0-0.2-0.4-1.1-0.1-1.6
			c0.3-0.5,0.6-0.3,0.6-0.3s0-0.6,0.2-0.7c0.1,0,0.1-0.2,0.5-0.3c0.4-0.2,0.5,0,0.5,0s0.1-0.7,0.9-0.9c0.9-0.2,0.9,0,0.9,0
			s1.3-0.2,2,0.2c0.7,0.4,1.1,0.8,1.4,1.5c0.3,0.6,0.1,1,0.1,1s0.6,0.5,0.4,1.4c-0.2,0.9-0.2,1.1-0.6,1.5c-0.4,0.4-1.1,0.6-1.1,0.6
			l-0.1,0l0,0l-0.5,34.5l0,0.1c0.2,0.1,0.5,0.2,1,0.4c1.1,0.6,0.6,1.4,0.6,1.4l0.4,0.7c0,0,0.7,1.1,0.1,1.9
			c-0.4,0.6-0.6,0.8-0.6,0.8s-0.3,0.2-0.5,0.4c-0.2,0.2-0.8,0.7-1,0.8l0,0.2l-0.1,3.9c0,0,0.7,2.7,1.5,4.8c0.5,1.3,0.9,3.9,0.8,10.3
			l-0.4,12.2l0.7,0c0,0,1.2-9.1,1.3-12.3c0.2-3.2-0.3-8.6-1-10.3c-0.3-0.7-0.5-1.5-1-2.2l0,0c3.2-3.1,5.5-7,6.7-9.2l0.1-0.1l1.5,1.2
			c-0.4,1.1-1.2,3.1-3,5.9c3.3-3.8,4.2-6.6,4.2-6.6c1.8-1,5.6-2.3,9.8-0.1c6.6,3.5,8.4,11.7,7.5,18.4c-0.6,4.5-1.8,8.3-3.3,11.2
			c0,0-1.7,2.6-3.3,4.3c0,0,1.2-0.7,2.8-1.9l27.1,0c0,0-18.9,4.2-34.5,4.2c-15.6,0-52.2-2.1-52.2-2.1s-30.1,2.1-47.7,2.1
			c-17.5,0-48-2.1-48-2.1s-30.9,2.1-46.3,2.1c-15.4,0-33.2-2.3-33.2-2.3s-24.9,1.8-39.6,1.8c-14.7,0-27.1-3.6-27.1-3.6l26.9,0
			c1.1,0.8,2.6,1.6,2.6,1.6c-0.9-1.1-1.4-1.8-2.2-3.1c-1.7-3-3.4-7.4-4.2-12.1c-1.2-6.6,0.9-14.8,7.5-18.4c4.2-2.3,8-0.9,9.8,0.1
			l0,0c1.8,3.9,4.1,6.6,4.1,6.6c-1.8-2.8-3-5.9-3-5.9l1.4-1l0,0c1.8,2.9,6.1,8.9,11.6,11.6c3.8,1.8,9.8,3.4,14.7,4.4l0.1-0.1
			c0.6-0.7,1-1.2,1.4-1.5c1.7-1.4,3.5-3.5,3.5-3.5l3.1-5.6l0-0.1c-0.2-0.1-0.3-0.1-0.3-0.1s-0.5,0-0.9-0.3c-0.5-0.3-0.5-0.6-0.5-0.6
			s-0.4-0.2-0.7-0.3c-0.3-0.1-2.5-1.2-3.4-1.6c-0.7-0.3-1.2-1-1.4-0.9c-0.1,0.1-0.4,1.3-1.2,1.3c-0.1,0-0.7,1.1-1,1.7l0,0.1
			c-5.9-1.3-7.2-2.3-7.3-2.4c0,0,1.4,2.2,7.2,3.3l0,0.1c0.1,0.1,0.3,0.1,0.4,0.4c0.1,0.3-0.1,0.4,0,0.6c0.1,0.2,0.2,0.1,0.2,0.4
			c0,0.2,0,0.9,0.1,1.1c0.1,0.2,0.4,0.8,0.5,1c0.1,0.3,0.4,1.5,0.2,2.2c-0.1,0.7,0.6,1,0.7,1.5c0,0.1,0,0.6,0,1.1l0,0
			c-4.7-1-10.7-2.6-14.3-4.3c-2.5-1.2-4.7-3.1-6.5-5.2l0,0c1.2-1.3,2.3-2.5,2.6-2.8c0.7-0.7,1.8-1.3,1.8-1.3s0.2-0.3,0.6-0.2
			c0.3,0.1,0.6,0,0.9-0.1c0.2-0.1,1.3-1.9,1.3-1.9s-0.6-0.2-0.6-0.5C91,51,91,50.6,91.3,50.6c0.3-0.1-0.2-0.6,0.1-0.7
			c0.3-0.1,0.3,0.2,0.3-0.3c-0.1-0.3-0.1-0.4,0-0.7c0.1-0.2,0.3-0.1,0.4-0.1c0.1-0.1-0.3-0.4-0.1-0.7c0.2-0.4,0.8-1.4,1.4-2.3
			c0.6-0.9,0.9-1.2,0.9-1.5c0,0-0.4-1-0.6-1.9c-0.1-0.6-0.4-1-0.1-2c0.2-1,2.2-3.6,2.8-3.9c0.7-0.4,2.3-0.3,2.3-0.3
			s-0.2-0.2-0.3-0.6c-0.1-0.4-0.1-1,0.1-1.3c0.1-0.3,0.5-0.5,0.7-0.5c0.2,0,0.1,0.4,0.5,0.6c0.4,0.2,1,0.9,1.4,0.9
			c0.4,0.1,0.9-0.1,1-0.1c0.2,0.1,0.1,0.2,0.3,0.2c0.2,0,1-0.5,1-0.5l0.2-0.6c0,0-0.8,0.3-1.2,0.3c-0.4,0-1.1,0-1.3,0
			c-0.2-0.1-0.4-0.4-0.3-0.5c0.1-0.1,0.7-0.3,0.9-0.4c0.2,0,0.6-0.3,0.7-0.3c0.1-0.1,1.1-1,1.1-1s-2.1,1.4-2,0.7
			c0.2-1.1-0.9-0.8-1.2-1.1c-0.5-0.5,1.5-1.1,0.2-1.5c-1.2-0.3,1.4-1.4,1.7-1.9c0.3-0.5-0.1-1.6,0-2c0.2-0.6,0.4-1.2,0.9-1.7
			c0.5-0.6,1.4-1,2.8-1.3c1.6-0.3,3,0.4,3.4,0.6c0.4,0.2,1.9,0.6,1.6,1.5c-0.2,0.7,0.1,0.7,0.1,1.8c0,0.5,0,1.8,0,2
			c-0.1,0.2-0.3,0.4-0.3,0.4s0.2,0.2,0.1,0.9c0,0.7-0.2,0.9-0.4,1.1c-0.2,0.2-0.9,1.8-2,1.9c-0.1,0,0,0.6,0.2,0.6
			c1-0.1,1.9-1,2.2-1.1c0.7-0.3,3.3-0.9,4.6-1.1c0.2,0,0.1,0.5,0.3,0.4c1.1-0.1,8.7-0.8,9.3-0.9c0.6,0,0.5-0.4,1.5-0.8
			c1-0.3,1.4-0.3,2-0.5c1-0.3,1.2-0.4,2.4,0c0.1,0,0.5,0.1,0.5,0.1c0.4,0.1,0.4,0,0.6,0.3c0.2,0.3,0.3,0.6,0.1,0.9
			c-0.2,0.8-0.2,0.9-0.3,1c-0.1,0.3-0.2,0.5-0.2,0.6c0,0.1-0.1,0.5-0.2,0.6c-0.1,0.2-0.1,0.5-0.3,0.7c-0.2,0.2-0.9,0.4-1.1,0.6
			c-0.2,0.1-1,0.4-1.2,0.4c-0.1,0-0.5,0-0.9,0l0,0L117,55.5l0,0.1c0.1,0.1,0.2,0.3,0.2,0.3s0.3,0.2,0.4,0.5c0.1,0.3,0.3,0.4,0.2,0.9
			c-0.1,0.5-0.7,1.5-1.2,2c-0.5,0.5-0.8,0.5-1.2,0.5c-0.1,0-0.3,0-0.5-0.1l0,0.1l-3.2,5.9c0,0-0.6,2.7-0.9,4.9
			c-0.2,1.4-1,3.9-4.1,9.5l-2.3,4.1l-1,1.7l-0.3,0.5c0,0,0.7,0,0.7,0c0.7-0.7,0.9-0.8,1.9-2.2c0.8-1,1.6-2.3,2.6-3.9
			c3.1-5.4,4.3-8.9,4.3-8.9c9.5,0.7,49.6,1,88.8,1l1.2-2.3c-13.5,0-27.1,0-39.6-0.1l0,0c-0.1-0.3-0.1-0.6-0.2-0.7
			c-0.4-0.6-0.8-1.9-0.3-2c0.5-0.1,1.2-1.1,1.6-1.5c0.4-0.4,0.3-1.6,0.7-1.9c0.4-0.3,3-1.6,3-1.6l0.6-0.2c0,0,1.3,0.1,1.6-0.9
			c0.3-1,0.2-0.2,0.3-1.4c0.1-1.2,1.2-1.4,1.2-1.4l-0.1-0.3l-0.5-0.7c0,0-0.5-1.1,0.5-1.4c0.9-0.3,0.6-0.6,1.1-1.1
			c0.4-0.5,1.5-2,1.9-2.8c0.4-0.8,2-2.9,2.6-3.3c0.6-0.5,1.1-0.8,1.1-0.8s1.8-1.6,2.5-2.5c0.7-0.9,1.9-1,1.9-1s0.4-0.1,0.5-0.3
			c0.1-0.2,0.2-0.9,1.1-1.2c0.8-0.3,3.5-1.3,3.5-1.3s0.1-0.3,0.4-0.3c0.4,0,1.1,0.4,1.1,0.4l0.3-0.1c0,0-0.5-0.7-0.2-0.9
			c0.6-0.5,1.5,0.1,1.5,0.1s0.6-1.9,0.4-2.8c-0.2-0.6-0.6-1.8-0.6-1.8s-0.1-2.7,3.2-3.4c3.5-0.7,4.4-0.3,4.9,0
			c0.6,0.4,1.2,2.5,1.2,2.5s2.9,0,3.2,0.5c0.3,0.5-0.8,1-0.8,1l-2,0.9c0,0-0.1,0.6,0.4,1.4c0.4,0.7-0.2,0.8-0.5,1.2
			c-0.1,0.2,0,1.2-0.1,1.3c-0.2,0.4-1.1,0.7-1.1,0.9c0.1,0.6,2.2-0.7,2.2-0.7l2.5-0.5c0,0,0.9-0.6,1.3-0.1c0.1,0.1,0.2,0.5,0.2,0.5
			l9.1,0.7l0.7,0c0,0,0.2-0.5,0.4-0.7c0.1-0.2,0.4-0.4,0.4-0.4l0.6-0.2c0,0,0.9-0.5,1.2-0.5c0.3,0.1,0.2,0.3,0.2,0.3s0.2,0,0.5,0
			c0.3,0.1,0.7,0.3,0.7,0.3l0,0.2c0,0,0-0.1,0.5,0c0.5,0.1,1.5,1.1,1.5,1.1s0.2,0.1,0.4,0.2c0.2,0.1,0.1,0.7,0.1,0.9
			c0,0.2-0.6,0.8-0.6,0.8s0.4,0.8-0.1,1.3c-0.5,0.5-1.8,0.7-2.9,0.6l-0.1,0.1l-16.6,30c0,0-0.6,2.7-0.9,4.9
			C199.6,82.6,199.2,84.2,197.7,87.3 M215.3,46.4l-0.9-0.5l-7.4,0.9l-0.4,0.2c0,0,0,0.8-0.2,0.9c-0.3,0.1-0.6,0-0.6,0l-0.1,0.2
			c0,0-2.1,0.7-2.7,0.6c-0.6,0-0.9-0.5-0.9-0.5l-1,0.1c0,0-0.5,0.6-0.8,0.7c-0.2,0.1-0.7,0.6-0.9,0.6c-0.3,0-0.9,0.1-0.9,0.1
			l-2.3,1.6c0,0-0.5,0.5-0.9,0.7c-0.1,0.1-0.5,0.2-0.8,0.4l0,0.1c0,0.2,0.1,0.4,0.1,0.4s1.1,1.3,1.2,1.6c0.1,0.3,0,1,0,1l0.1,0.3
			c0,0,0.4,0,0.7,0.1c0.3,0.2,5.3,3.2,5.8,3.4c0.4,0.2,0.5,0.6,0.5,0.6s0.5-0.2,0.7-0.2c0.2,0,0.5,0.1,0.5,0.1l0.5,0.5
			c0,0,0.3-0.1,1.1-0.3c0.7-0.1,0.9-0.2,1.8,0.3l0.1-0.1l7.7-13.8L215.3,46.4z M126,35.4c-0.6-0.2-1.3-0.3-1.5-0.2
			c-0.5,0.1-1.6,0.7-2,0.9c-0.4,0.1-4.1,1.8-4.5,1.9c-0.4,0.1,0.3,0.6,0,0.8c-0.3,0.2-0.6,0.3-0.6,0.3s-0.3,0.4-0.6,0.5
			c-0.3,0.1-1.7,0.7-2,0.8c-0.3,0.2-0.6,0.6-1,0.8c-0.4,0.2-0.9,1.1-1,1.3c-0.1,0.2-0.6,1.9-0.9,2.4c-0.9,1.5-2.5,3.2-2.9,3.7
			c-0.4,0.5-1.1,1.7-1.1,1.7s0.3,0.5,0.6,1.1c0.3,0.6,2.1,2.1,2.8,2.6c0.5,0.3,0.9,1,1,1c0.1,0,0.3-0.1,1-0.3c0.7-0.2,1.2-0.1,1.4,0
			c0.1,0.1,0.3,0.1,0.6,0c0.1,0,0.1,0,0.2,0l0.1-0.1L126,35.4L126,35.4z M310.3,50l0.5-32.8l0,0l-0.9,1.8c0,0-2.4,4.2-2,4.7
			c0.4,0.5-0.9,2.1-0.9,2.1s0,0.8-0.4,1.4c-0.4,0.6-0.8,1-0.8,1l-0.2,0.5l-0.2,0.7l-0.6,1.4L303,33c0,0,0.2,0.3,0,0.5
			c-0.3,0.2-1.2,2-1.4,2.1c-0.2,0.1-1.5,0.7-1.5,0.7l-0.7-0.2l-0.2,0.1c0,0-1.2,1.9-1.1,2c0,0.1,0,0.6,0,0.6l-0.3,0.2
			c0,0,0.7,1.2,1,1.4c0.3,0.3,1,1.5,1.1,1.7c0,0.2,0.1,0.5,0.1,0.5s1.1,1.3,1.2,1.6c0.1,0.3,0,1,0,1l-0.4,0.6l0.1,0.4
			c0,0,0.4,0,0.7,0.1c0.3,0.2,5.3,3.2,5.8,3.4c0.4,0.2,0.5,0.6,0.5,0.6s0.5-0.2,0.7-0.2c0.2,0,0.4,0.1,0.4,0.1l0.8-0.2
			c0,0,0.1,0,0.4-0.1V50z M261.4,54.5l10.9-19.8l0,0l-0.1,0l-1.3-0.1c0,0-0.8,0.5-1.1,0.5c-0.4,0-2.4,0.4-2.4,0.4l-5.7,2.8
			c0,0,0.6,0.5,0.2,1c-0.4,0.5-5.4,2.6-5.4,2.6s-0.2,0.5-0.9,0.4c-0.7-0.1-0.3-0.2-0.3-0.2h-0.6l-2.7,2.2c0,0-0.6,0.9-0.5,1.2
			c0,0.2,0.5,0.1,0.6,0.2c0.1,0.2,0.4,1,0.2,2c-0.1,0.3-0.2,0.8-0.2,0.8l-0.3,0.7l0.1,0.5c0,0,0.5,0.1,1,0.4
			c0.5,0.2,1.1,0.7,1.4,0.9c0.2,0.1,1.5,1.5,1.5,1.5s0.9,0.2,1.5,0.7c0.6,0.5,1.5,1.4,1.5,1.4s0.4,0.2,0.7,0.3
			c0.3,0.1,0.8-0.1,0.9-0.1C260.4,54.7,260.9,54.6,261.4,54.5L261.4,54.5z M247.5,55.6c0,0.1,0.1,0.3-0.3,0.4
			c-0.6,0.3-0.8,0.1-0.8,0.3c0,0.1-0.4,0.7-0.6,0.8c-0.2,0.1-0.9,0.3-0.9,0.3s-0.5,0.6-0.4,0.8c0.1,0.2,0.5,0.4,0.5,0.4l0.3,1l0.8,0
			l0.6,0.4c0,0,0.7,0.2,0.7,0.4c0,0.1,0.1,0.6,0.1,0.6l0.7,0c0,0,1,1,1.8,1.2c0.8,0.2,1.4,0.5,1.4,0.5l1.3,0.8c0,0-0.4-0.4,0.4-0.4
			c0.8,0-0.4,0.4,1,0.4c1.4,0,1.6,0.2,1.6,0.2s0,0.2,0.1,0.3l0,0c0.6-0.6,1-1.1,1-1.1l1.7-3l0.1-0.2c0-0.1-0.7-0.1-1.1-0.4
			c-1-0.8-0.8-1.8-1-1.8c-0.2,0-0.9-0.5-0.9-0.5s-1.9-0.2-2.7-0.4c-0.9-0.2-4.3-0.7-4.8-1.2c-0.1-0.1-0.2-0.2-0.3-0.2l-0.1,0
			c-2.4-1.2-2.7-1.7-2.7-1.7C244.9,53.3,244.4,54.3,247.5,55.6L247.5,55.6z M193.1,60.2c0,0-0.4,0.9-0.4,1.2c0,0.3-0.8,1.3-0.8,1.3
			s0.8,0.1,1,0.1c0.2,0,1.5-0.3,2.5-0.4c1-0.2,1.9-0.1,1.9-0.1l2-0.2c0,0-0.1-0.3-0.6-0.4c-0.5-0.1-1.4-0.4-1.2-0.4
			c-1.6-0.6-1.5-0.4-2.3-0.7c-0.5-0.2-1-0.6-1.3-0.7l-0.2,0c-1.5-0.8-1.4-1.1-1.9-1.3c-0.7-0.2-1,0.3-1,0.3
			C191.6,59.4,192.4,59.8,193.1,60.2L193.1,60.2z"/>
	</g>
</g>
</svg>
