<?xml version="1.0" encoding="utf-8"?>
<!-- Generator: Adobe Illustrator 26.3.1, SVG Export Plug-In . SVG Version: 6.00 Build 0)  -->
<svg version="1.1" id="Layer_1" xmlns="http://www.w3.org/2000/svg" xmlns:xlink="http://www.w3.org/1999/xlink" x="0px" y="0px"
	 viewBox="0 0 300 150" style="enable-background:new 0 0 300 150;" xml:space="preserve">
<style type="text/css">
	.st0{fill:#006A51;}
</style>
<g>
	<g>
		<path class="st0" d="M133.9,2.3h-5.1v9.1H127V2.3h-5.1V0.7h12V2.3z"/>
		<path class="st0" d="M155.9,11.5h-1.8V6.7h-8.6v4.8h-1.8V0.7h1.8v4.4h8.6V0.7h1.8V11.5z"/>
		<path class="st0" d="M178.3,11.5h-11.2V0.7h10.8v1.6h-9v2.7h6.3v1.6h-6.3v3.2h9.5V11.5z"/>
	</g>
	<path class="st0" d="M43.2,80.5c-0.5,1.3-0.7,2-1.7,6.6c0,0-6.1,28.7-6.9,32.6c-0.9,0-8.9,0-9.7,0c-0.3-0.8-9.8-25.1-9.8-25.1
		l-3.4,17.5c0,0-0.3,1.5-0.3,1.5l-0.3,1.3c-0.5,2.5-0.6,3.5-0.7,4.8c-1,0-7.9,0-9.3,0c0.5-1.3,0.7-2.2,1.7-6.8l0.1-0.6
		c0,0,9.3-43.8,9.3-43.9c0,0,16.5,38,16.5,38l3.7-18.3c0,0,0.2-1,0.2-1l0.4-1.8c0.5-2.3,0.7-3.7,0.7-4.8c0,0,0,0,0,0
		C34.8,80.5,41.7,80.5,43.2,80.5z"/>
	<path class="st0" d="M73.4,99.7c0,5.7-2.1,11.8-5.3,15.4c-3.1,3.5-7.3,5.2-12.6,5.2c-7.7,0-12-4.6-12-13.1c0-5.5,1.9-11.2,5-14.8
		c3-3.5,7.6-5.4,13-5.4C68.9,87,73.4,91.7,73.4,99.7z M54.9,96.7c-1.7,2.8-2.9,7.8-2.9,11.7c0,3.9,1.5,6,4.3,6
		c2.8,0,4.9-1.8,6.5-5.3c1.2-2.7,2.1-7.2,2.1-10.2c0-3.9-1.5-6.1-4.2-6.1C58.2,92.9,56.3,94.1,54.9,96.7z"/>
	<path class="st0" d="M85.4,113.4c-0.5,2.2-1,5.1-1,5.8v0.5h-9.3c0.7-1.6,0.7-1.6,1.8-6.3l4.2-18.8c0.8-3.6,1-5,1-5.8v-0.5h11.4
		c4.3,0,6.7,0.5,8.2,1.7c1.5,1.2,2.4,3.1,2.4,5.1c0,4.8-3,8.1-8.2,9c2.6,0.3,4.3,1.6,4.7,4.5l0.8,6.2c0.3,3.4,0.4,3.8,0.8,5h-9.4
		c0-0.5,0-0.6,0-1c0-0.5-0.1-1.9-0.2-2.8l-0.5-4.7c-0.4-3.6-1.6-4.3-4.1-4.3h-1.3L85.4,113.4z M89.8,101.1c2.5,0,4.3-0.4,5.3-1.5
		c1-1,1.1-2.8,1.1-3.7c0-1.3-1.3-2.4-2.5-2.6C93,93.1,91.6,93,89.9,93l-1.8,8.1H89.8z"/>
	<path class="st0" d="M134.4,88.2l-1.3,6c-1.7-0.1-3.3-0.1-5.4-0.1h-3.1l-4.1,19.3c-1,4.6-0.9,4.4-1,6.3h-9.2
		c0.7-1.6,0.7-1.6,1.7-6.3l4.1-19.3h-3.3c-2.1,0-4.7,0-5.6,0.1l1.3-6H134.4z"/>
	<path class="st0" d="M298.8,88.2l-1.3,6c-1.7-0.1-3.3-0.1-5.4-0.1H289l-4.1,19.3c-1,4.6-0.9,4.4-1,6.3h-9.2
		c0.7-1.6,0.7-1.6,1.7-6.3l4.1-19.3h-3.3c-2.1,0-4.7,0-5.6,0.1l1.3-6H298.8z"/>
	<path class="st0" d="M141.3,113.4c-0.4,1.9-0.8,4.8-0.9,5.8v0.5h-9.2c0.4-1,0.7-1.6,0.8-2.2c0.6-2.6,0.3-1.2,0.9-4.1l4-18.8
		c0.8-3.9,0.9-4.9,1-6.3h9.1c-0.3,0.8-0.5,1.1-0.8,2.2c-0.4,1.6-0.8,3.1-1,4.1l-1.1,5.4c0.6,0,0.4,0,2-0.1h0.8h1.8h1.8
		c2,0,2.1,0,2.7,0.1l1.2-5.4c0.2-1.1,0.2-1.3,0.7-3.4c0.2-1.5,0.3-1.8,0.3-2.4c0-0.1,0-0.3,0-0.5h9.2c-0.6,1.5-0.8,2.3-1.7,6.3
		l-4,18.8c-0.4,2-0.9,5.1-0.9,5.8v0.5h-9.2c0.3-0.8,0.5-1.1,0.8-2.2c0.4-1.6,0.8-3,1-4.1l1.6-7.6c-1,0-2.9-0.1-4.6-0.1
		c-1.7,0-3.6,0-4.6,0.1L141.3,113.4z"/>
	<path class="st0" d="M228.7,113.6h8c2.9,0,4.1,0,5.1-0.1l-1.4,6.2h-22.2c0.4-0.8,0.5-1.4,0.8-2.2c0.2-0.8,0.2-0.7,1-4.1l4.2-18.8
		c0.8-3.9,1-4.9,1-6.3h21.5l-1.3,6c-1.3-0.1-3.6-0.2-4.9-0.2H233l-1.4,6.3h7.4h1.9c0.9,0,1.2,0,2.2-0.1l-1.3,6.1
		c-1.2-0.1-2.4-0.1-4.1-0.1h-7.4L228.7,113.6z"/>
	<path class="st0" d="M246.6,113.1c2.4,0.9,6.2,1.5,8.4,1.5c3.1,0,5.2-1.5,5.2-3.8c0-1.4-0.8-2.4-3.6-4.5c-3.4-2.6-4-3.1-4.9-4.4
		c-0.8-1.2-1.3-2.6-1.3-4.3c0-2.6,1.6-5.6,4-7.5c2.1-1.7,5.5-2.6,9-2.6c2.3,0,4.7,0.4,7.4,1.1l-1.3,5.9c-2.7-0.8-4.4-1.3-6-1.3
		c-2.6,0-4.3,1.2-4.3,3.2c0,0.9,0.3,1.6,1.1,2.3c0.8,0.7,0.7,0.7,3.6,3.1c2.9,2.4,2.9,2.5,3.8,3.6c0.9,1.3,1.3,2.5,1.3,4.1
		c0,6.5-5.9,11.2-13.9,11.2c-3.1,0-6.6-0.5-9.5-1.3C245.3,119.1,246.6,113.1,246.6,113.1z"/>
	<path class="st0" d="M64,138l-2.2,0.8c-1.5-1.6-3.6-2.4-6.3-2.4c-2.1,0-3.7,0.5-5,1.6c-1.3,1.1-1.9,2.4-1.9,4c0,1.7,0.6,3,1.9,4.1
		c1.3,1,3,1.6,5.2,1.6c2.6,0,4.7-0.8,6.2-2.4l2.1,1.2c-1.1,1.2-2.3,2.1-3.6,2.7c-1.4,0.6-3,0.8-4.8,0.8c-2.6,0-4.8-0.7-6.5-2
		c-2-1.5-3-3.5-3-5.9c0-2.4,1-4.4,3-5.9c1.8-1.3,3.9-2,6.5-2C59.1,134.1,62,135.4,64,138z"/>
	<path class="st0" d="M97.5,142c0,2.4-1,4.4-3,5.9c-1.7,1.3-3.9,2-6.5,2c-2.6,0-4.8-0.7-6.6-2c-2-1.5-3-3.5-3-5.9c0-2.4,1-4.3,3-5.9
		c1.8-1.3,4-2,6.5-2c2.6,0,4.7,0.7,6.5,2C96.5,137.6,97.5,139.6,97.5,142z M95,142c0-1.7-0.7-3.2-2.2-4.2c-1.3-0.9-2.9-1.4-4.8-1.4
		c-2.1,0-3.8,0.5-5.1,1.6c-1.3,1.1-2,2.4-2,4.1c0,1.7,0.6,3.1,1.9,4.1c1.3,1,3,1.6,5.1,1.6c2.1,0,3.8-0.5,5.1-1.6
		C94.4,145,95,143.7,95,142z"/>
	<path class="st0" d="M132,149.4h-2.4v-12.2h-0.1l-7.7,9.7l-7.7-9.7H114v12.2h-2.4v-14.9h3l7.1,9l7.2-9h3.1V149.4z"/>
	<path class="st0" d="M160,134.6c1.5,0,2.7,0.4,3.6,1.3c0.9,0.8,1.3,2,1.3,3.4c0,1.5-0.5,2.6-1.4,3.4c-0.9,0.8-2.3,1.2-4,1.2h-8.9
		v5.6h-2.4v-14.9H160z M159.6,141.6c1.9,0,2.9-0.8,2.9-2.3c0-1.7-1-2.5-3-2.5h-8.8v4.8H159.6z"/>
	<path class="st0" d="M193.4,149.4h-2.7l-1.7-3.3h-10l-1.7,3.3h-2.7l7.9-14.9h3.1L193.4,149.4z M187.8,143.9l-3.8-7.2l-3.9,7.2
		H187.8z"/>
	<path class="st0" d="M223.5,149.4h-3l-11.4-12.2v12.2h-2.4v-14.9h3.1l11.4,12.2v-12.2h2.4V149.4z"/>
	<path class="st0" d="M254,134.6l-8.1,9v5.9h-2.4v-5.9l-8.1-9h3.1l6.3,6.9l6.3-6.9H254z"/>
	<path class="st0" d="M173.7,80.4h9.8c0,0-0.2,1.3,0,3.5l1.7,23.4c0,0,8.1-16.8,8.5-18.6c0.5-1.8,0.8-2.8,0.7-3.5
		c-0.1-1-0.4-4.8-0.4-4.8l7.9,0l2.3,26.3c0,0,8-16.6,8.9-18.9c1.2-3,1.5-3.6,1.6-5.3c0.1-1.2-0.6-2.1-0.6-2.1h10.1
		c0,0-2.6,5-8.8,18.1c-0.4,0.8-10.1,21.2-10.1,21.2H198l-2.4-23.3l-9.7,23.3h-7.6c0,0-3.7-34.2-4-35.5
		C174.2,83.1,174,81.3,173.7,80.4z"/>
	<g>
		<path class="st0" d="M116.9,47.7l0.2,0.3c0,0,0.6,0.4,0.6,0.5c0.1,0.1,0.1,0.3,0.2,0.4c0.1,0.1,0.2,0.3,0.5,0.3
			c0.3,0,0.4,0.8,0.4,0.8s0.6,0.4,0.7,0.5c0.1,0.1,0.3,0.6,0.3,0.6l0.6,0.7l0.3,0.1l0.1,0.9l0,0.1c-16-0.1-30.7-0.3-36.4-0.6
			c0,0-0.2-0.3,0.4-0.7c0.6-0.3,2.3-0.6,2.4-0.7c0.1-0.1-0.1-0.1,0-0.4c0.1-0.3,1.6-0.6,1.6-0.6l0.1-0.3l0.6-0.4l3.4-2.1
			c0,0,0.6-0.7,0.8-0.7c0.2,0,1.2,0,1.2,0s0.1-0.1,0.2-0.1s1,0.6,1,0.6h0.3c0,0,0.6,0.6,1,0.5c0.4-0.2,0.4-0.6,0.4-0.8
			c0-0.2-0.3-0.4-0.4-1.4c-0.1-1,0.1-1.8,0.2-2.1c0.1-0.3,0.2-0.9,0.6-1.5c0.5-0.6,1.2-1,1.2-1s0.3-1.8,0.9-2.3
			c0.4-0.4,0.7-0.6,0.9-0.9c0.1-0.2-0.2-0.3,0.3-0.9c0.4-0.5,0.9-0.9,1.2-1c0.2-0.1,1-0.7,1.2-0.8c0.6-0.2,1.3-0.1,1.3-0.1
			s-0.4-0.2-0.5-0.5c-0.1-0.3,0-0.5-0.1-0.6c-0.1-0.1-0.1-0.4-0.2-0.4c-0.2,0-0.5-0.4-0.5-0.4s0.2-0.3,0.4-0.3
			c0.2,0,0.5,0.3,0.5,0.3s0.3,0,0.4,0.1c0.1,0,0.2-0.1,0.5,0c0.3,0.1,0.6,0.2,0.7,0.3c0.2,0.1,0.3-0.2,0.5-0.2c0.5,0.1,1-0.4,1-0.4
			s-1.9,0-2-0.4c-0.1-0.3-0.4-0.5-0.5-0.5c-0.1,0-0.3,0.1-0.8-0.1c-0.5-0.2-0.8,0.1-1,0.2c-0.2,0.1-0.5,0.2-0.7,0.2
			c-0.2,0-0.3-0.2-0.6-0.2c-0.3,0-0.3-0.4-0.3-0.4s0-0.4,0.5-0.4c0.5,0,0.9-0.1,0.9-0.1s0.6-0.2,0.4-0.5c0-0.2-0.2-0.5-0.1-0.6
			c0.1-0.1-0.1-0.4,0.5-0.5c0.6-0.1,1.5,0.5,1.5-0.1c-0.1-0.5-0.6-0.6-0.7-0.7c-0.1-0.1-0.1-0.3-0.1-0.3s0.7-0.3,1.1-0.2
			c0.5,0.1,0.4,0.3,0.6,0.3c0.1,0,0.5,0,0.6,0.1c0.1,0.1,0.4-0.3,0.7,0.4c0.4,0.1,0.5-0.7,0.5-0.7s0-1.2,1.7-1.8
			c0.8-0.1,1.7-0.2,2.1-0.2c0.3,0,1,0.2,1.2,0.3c0.2,0.1,0.7,0,1.1,0.6c0.3,0.4,0.1,0.7,0.1,0.7s0.3,0,0.3,0.3c0.1,0.5,0,0.6,0,0.7
			c0.1,0.1,0.1,0.7,0.1,0.7s0.2,0.2,0.3,0.5c0.1,0.5-0.1,0.8-0.1,1.1c-0.1,0.3-0.3,0.9-0.3,0.9s-0.1,0.6-0.1,0.9
			c-0.1,0.3-0.1,0.5-0.4,0.6c-0.3,0.1-1.7,0.1-1.9,0.1c-0.2,0-1,0.5-1,0.5s0.1,0.2,0.1,0.5c0,0.2-0.2,0.8-0.3,1c-0.2,0.7,0,1,0,1
			c0.1-0.1-0.1-0.3,0.3-0.8c0.2-0.2,0.3-0.4,0.3-0.6l0-0.1c0.4,0,1.1-0.1,1.3-0.2c0.4-0.1,1.6-0.6,1.9-0.4c0.3,0.2,0.4,0.2,0.4,0.2
			s0.8-0.7,1.8-0.6c0.9,0,2.6-0.6,2.6-0.6s0.2-0.4,0.5-0.4c0.3,0,0.9,0,1.2-0.1c0.3-0.2,1.1-1.1,1.6-1.3c0.5-0.2,1.1-0.2,1.4-0.2
			c0.3,0,0.5-0.1,1,0.1c0.5,0.2,0.7,0.3,0.9,0.5c0.2,0.2-0.1,0.6-0.1,0.6s0.2,0.2,0.2,0.3c0,0.2,0,0.2-0.1,0.4
			c-0.1,0.1-0.5,0.6-0.4,0.7c0.1,0.1-0.3,0.8-0.4,0.8c-0.1,0-0.2,0.1-0.2,0.1s0.2,0.6-0.4,0.7c-0.4,0.1-1.3,0.2-1.8,0.3l0,0
			L116.9,47.7L116.9,47.7z M116,46.5l5.8-10.5l0-0.1c-0.1,0-0.2,0-0.3,0c-0.4,0-1.6,0.7-2.2,1c-0.6,0.3-2.5,1.7-2.8,1.5
			c-0.3-0.3,0,0.2-0.1,0.3c-0.1,0.2-0.3,0.3-0.3,0.3s-0.2,0.4-0.4,0.5c-0.2,0.1-1,0.4-1.8,0.7c-0.8,0.3-1,0.3-1,0.3l-2.6,2.5
			c0,0-0.1,1-0.2,1.5c0,0.5-0.2,1.2-0.2,1.2l0.8,0.6c0,0,2.1-1.1,3.5-0.8C115,45.6,115.6,46.1,116,46.5L116,46.5z"/>
		<path class="st0" d="M148.3,65.9L148.3,65.9c1.3-1.4,2.2-2.8,2.5-4.4c0.3-1.5,0.5-3.3,0.5-3.5c0,0,1.8-3.3,1.8-3.3
			c28.4,0,53.9-0.3,60.8-0.8c0.1,0,11.2-0.9,16.9-3.3l0-0.1c0.1-0.5,0.2-0.9,0.4-1.2c0.6-1.5,0.6-1.5,1.1-3.5l0-3.2l0-0.1
			c-0.1-0.1-0.2-0.1-0.4-0.3c-0.6-0.4-0.8-0.8-0.8-0.8l-0.2-0.3l-0.6-0.4c0,0,0.1,0.1-0.7,0c-0.9-0.1-1.6-0.6-2.3-0.8
			c-0.7-0.1-2-0.6-2.1-0.6c-0.1,0,0-0.1-0.7-0.1c-1,0-2-0.7-2.3-0.8c-0.2-0.1-0.6-1.5-0.6-1.5l-0.4,1.8l-0.1,0.1
			c-0.6,0.1-2,0.4-5-0.2c0,0,1.7,0.8,4.9,1.1l0,0c0,0,0.3,0.6,0.4,1c0.2,1,0.8,1.4,0.7,1.7c-0.2,1.2,0.3,1.5,0.3,1.5s0,0.6,0.1,0.9
			c0.1,0.2,0.4,0.8,0.4,0.8s1.3-0.2,1.8,0.1c0.5,0.2,2.7,1.2,2.7,1.2s0.4,0,0.4,0.2c0,0.1,0.5,1.3,0.9,2.6l0,0
			c-5.6,1.8-14.7,2.6-14.8,2.6c-6.7,0.5-32.4,0.7-59.7,0.8l-0.1,0c1-1.9,2.3-4,3.4-6.2l0.1-0.1c0,0,1.8-2.3,2.3-2.5
			c0.5-0.2,0.7,0.1,1,0c0.3-0.1,1.7-0.4,1.8-0.4c0.1,0,0.5,0.4,0.5,0.4l1.6,0.1l0.3-0.3h1.7c0,0,1.3,0.5,1.5,0.6
			c0.1,0.1,0.7,0.6,0.7,0.6s0.2,0.1,0.5,0c0.2-0.1,0.5,0.3,0.8,0.2l0.1,0.1c2.4,1.3,3.9,1.5,3.9,1.5c-1.9-0.8-3-1.6-3.7-2.1
			l-0.1-0.1c0.1-0.3,0.1-0.5,0-1.1c0-0.9,0.6-2.1,0.8-2.3c0.2-0.2,0.5-0.7,0.5-0.9c0-0.2-0.4,0.1-0.3-0.8c0-0.3,0.3-1.3,0.5-1.5
			c0.2-0.2,1.5-3,2-3.9c0.6-0.9,1.1-0.3,1-1.5c0-0.6,0.2-0.8,0.4-1c0.1-0.2,0.8-0.6,0.9-0.8c0.2-0.2,0.4-0.8,0.7-0.8
			c0.4,0,1.3-0.7,1.4-0.9c0.2-0.1-0.2-1.1,0-1.4c0.2-0.3,2-1.4,2-1.4s0.3-0.3,0.5-0.3c0.2,0,0.7,0.3,0.8,0.3
			c0.1,0.1,0.6,0.4,0.6,0.4s-0.1-0.4,0.1-0.6c0.1-0.2,0.1-0.5,0.1-0.5l-0.4-0.8c0,0-0.7,0.1-1,0.1c-0.3,0-0.9-0.5-0.9-0.5
			s-0.2-0.1-0.5-0.1c-0.3,0-0.3-0.3-0.5-0.4c-1.2-0.7-0.2-1.5,0.1-1.7c0.8-0.7,1.9-0.9,1.9-0.9l0-0.2c0,0-1.3-0.1-1.6-0.2
			c-1.2-0.3-2-0.8-2-1.5c0-0.3,0.8,0.2,2.4,0.5c0.8,0.1,1.3-0.2,1.3-0.2s0-0.4,0.1-0.9c0.1-0.5,0.7-0.9,2.3-1.3
			c1.6-0.4,2.8-0.3,3.1-0.1c0.3,0.2,0.9,1.1,1,1.3c0.1,0.1,0.2,0.6,0.2,0.6s1.5-0.1,1.7,0c0.3,0,0.8,0,0.9,0.3
			c0.2,0.3,0,0.4-0.4,0.7c-0.4,0.3-1.7,0.9-1.7,0.9s0.2,0.5,0.3,1.1c0.1,0.6,0.5,1.8,0.2,2.2c-0.3,0.4-1.4,0.9-1.7,0.9
			c-0.3,0-0.4,0.9-0.4,0.9s0.9-0.1,1-0.1c0.1,0,0.3-0.4,1.2-0.5c0.9-0.1,1.3,0.2,1.3,0.2s0.2-0.5,0.6-0.7c0.4-0.2,1.5-0.1,1.5-0.1
			s1.1-0.5,1.4-0.5c0.3,0,0.4,0.1,0.4,0.1l0.3,0.3c0,0,0.6-0.3,1.4-0.4c0.7-0.1,6-0.5,6-0.5s2.3-2.4,2.7-2.3
			c0.4,0.1,0.4,0.4,0.6,0.4c0.2,0-0.1-0.5,0.8-0.7c0.3,0,0.8,0,0.9,0.3c0.1,0.3,0.5,0.8,0.5,0.8s0.3,0.3,0.3,0.5
			c0,0.1-0.1,0.4-0.1,0.4s0.3,0.5,0.1,0.8c-0.1,0.3-0.8,1.3-0.8,1.3s-0.3,0.5-0.4,0.6c-0.2,0.1-0.7,0.3-0.7,0.3s-0.3,0.4-0.5,0.4
			c-0.2,0-0.3-0.1-0.4-0.1c0,0-0.1,0-0.3,0l0,0l-8,14.6l0,0.1c0.5,0.4-0.2,1.6-0.2,1.8c0,0.2-0.3,0.9-0.3,0.9s-0.9,0.7-1.6,1.2
			l0,0.1l-1.5,2.7c0,0-0.1,0.3-0.2,0.8l0,0c0.2-0.1,0.5-0.3,1.1-0.3c0.7-0.1,0.7-0.9,1.1-1.2c0.4-0.2,0.6-0.7,0.7-0.9
			c0.1-0.2,0.7-0.3,0.7-0.5c0-0.1,0.5-0.7,0.6-0.8c0.1-0.1,0.4,0,0.5-0.2c0.2-0.2,0.2-0.7,0.4-0.6c0.1,0.1,0.9-0.4,1.1-0.4
			c0.2,0,0.8-0.2,0.9-0.3c0.1,0,0.4,0.1,0.4,0.3c0.1,0.2,0.5,0,0.7,0c0.1,0,0.6-0.2,0.6-0.2s0.1-0.6,0.5-0.6c0.4,0,0.8,0.2,1.5,0.3
			c0.7,0.1,1.3,0,1.6,0.1c0.3,0.1,0.7,0.3,0.7,0.5c0,0.2,0.4,0.6,0.6,0.9c0.2,0.3,0.4,0.7,0.4,0.9c0,0.2,0.1,0.7,0.3,0.8
			c0.2,0.1,0.3-0.1,0.3-0.1s0-5.5,1.8-8.2c0.6-0.8,0.9-1.1,1-1.3c0.1-0.1,0.2,0,0.2-0.3c0-0.2,0.5-2.3,0.5-2.3l-0.6-0.4l0-0.4
			c0,0-0.6-0.4-0.7-0.7c-0.1-0.3-0.2,0.1-0.3-1.6c-0.1-1.7,0.4-2.1,0.5-2.7c0.1-0.6,0.4-2.3,0.6-2.8c0.2-0.5,0.4-1.1,1.3-2.5
			c0.9-1.4,1.5-1.6,1.5-1.6s1-0.6,0.8-1.2c-0.2-0.7,1,0,1,0s0.6,0.1,0.8-0.2c0.2-0.2,0.6-1,0.4-1.2c-0.1-0.2-1.1,0.6-1.6,0
			c-0.1-0.1,0.1-0.9-0.6-0.6c-0.7,0.2-0.8-0.1-0.9-0.4c-0.1-0.2-0.2-0.4,0-0.4c0.2,0,0.2-0.3,0.7,0c0.6,0.2,0.9-0.6,0.9-0.6
			s-0.4-0.1-0.6-0.2c-0.1-0.1,0.8-0.5,0.6-0.7c-0.2-0.2-0.8-0.4-0.5-0.7c0.3-0.3-0.6-0.5-0.4-0.7c0.2-0.2,0.4,0,0.4,0s0.8-0.3,1.1,0
			c0.3,0.3,0.5,0.6,0.4-0.8c0-1.4,1.9-1.8,1.9-1.8s1.7-0.7,2.7-0.4c1,0.2,1.8,0.9,2.1,1.1c0.3,0.2,0.9,0.4,1.1,1
			c0.4,1,0.3,1.6,0.3,1.6c-0.3,1.1-0.3,1-0.5,1.3c-0.1,0.3-0.2,0.7-0.2,0.9c-0.1,0.9,0,1-0.6,1c-0.5,0-1.1,0.9-1.1,0.9
			s-0.3,0.6-0.6,0.6s-0.7-0.3-0.9-0.3c-0.2,0.1-0.3,1.1-0.3,1.1s0.2-0.1,0.3,0.1c0.1,0.1-0.1,0.4,0.3,0.5c0.4,0.1,0,0,0.1,0
			c0.1,0-0.1-0.2,0.5-0.4c0.3-0.1,1.5-1.3,2-1.3c0.5,0,0.2-0.1,0.2-0.1s0-0.2,0.7-1.1c0.7-0.9,1.5-1.4,1.5-1.4s-0.1-0.2,0.2-0.3
			c0.3-0.2,0.4-0.1,0.4-0.1s3.1-4.8,3.4-5.2c0.2-0.4,0.1-0.7,0.1-1c0-0.3-0.2-0.7-0.2-0.7s-0.4-0.3-0.4-0.4c0-0.2-0.3-0.8-0.1-1.2
			c0.2-0.4,0.4-0.2,0.4-0.2s0-0.5,0.1-0.5c0.1,0,0.1-0.1,0.4-0.2c0.3-0.1,0.4,0,0.4,0s0.1-0.5,0.7-0.7c0.6-0.1,0.7,0,0.7,0
			s0.9-0.2,1.5,0.1c0.5,0.3,0.8,0.6,1,1.1c0.2,0.5,0.1,0.7,0.1,0.7s0.5,0.4,0.3,1c-0.2,0.6-0.2,0.8-0.5,1.2
			c-0.3,0.3-0.8,0.4-0.8,0.4l0,0l0,0l-0.4,25.8l0,0.1c0.2,0.1,0.4,0.2,0.7,0.3c0.8,0.4,0.4,1,0.4,1l0.3,0.5c0,0,0.5,0.8,0.1,1.5
			c-0.3,0.4-0.4,0.6-0.4,0.6s-0.2,0.2-0.4,0.3c-0.1,0.1-0.6,0.5-0.8,0.6l0,0.1l0,2.9c0,0,0.5,2,1.1,3.6c0.4,1,0.7,2.9,0.6,7.7
			l-0.3,9.1l0.5,0c0,0,0.9-6.8,1-9.2c0.1-2.4-0.2-6.4-0.7-7.7c-0.2-0.6-0.4-1.1-0.7-1.6l0,0c2.4-2.3,4.1-5.2,5-6.9l0.1-0.1l1.1,0.9
			c-0.3,0.8-0.9,2.3-2.2,4.4c2.4-2.8,3.1-4.9,3.1-4.9c1.4-0.7,4.2-1.7,7.3-0.1c5,2.6,6.3,8.7,5.6,13.7c-0.4,3.4-1.4,6.2-2.5,8.4
			c0,0-1.3,2-2.5,3.2c0,0,0.9-0.5,2.1-1.4l20.2,0c0,0-14.1,3.1-25.7,3.1c-11.7,0-39-1.6-39-1.6s-22.5,1.6-35.6,1.6
			c-13.1,0-35.9-1.6-35.9-1.6s-23.1,1.6-34.6,1.6c-11.5,0-24.8-1.8-24.8-1.8s-18.6,1.3-29.6,1.3c-11,0-20.3-2.7-20.3-2.7l20.1,0
			c0.8,0.6,1.9,1.2,1.9,1.2c-0.7-0.8-1.1-1.4-1.6-2.3c-1.3-2.2-2.5-5.5-3.2-9.1c-0.9-4.9,0.7-11.1,5.6-13.7c3.2-1.7,6-0.7,7.3,0.1
			l0,0c1.4,2.9,3.1,4.9,3.1,4.9c-1.3-2.1-2.2-4.4-2.2-4.4l1-0.8l0,0c1.4,2.2,4.5,6.7,8.7,8.7c2.8,1.3,7.3,2.5,11,3.3l0.1-0.1
			c0.4-0.5,0.8-0.9,1.1-1.1c1.3-1.1,2.6-2.6,2.6-2.6l2.3-4.2l0,0c-0.1,0-0.2-0.1-0.2-0.1s-0.3,0-0.7-0.2c-0.4-0.2-0.4-0.4-0.4-0.4
			s-0.3-0.1-0.5-0.2c-0.2-0.1-1.8-0.9-2.6-1.2c-0.5-0.2-0.9-0.7-1-0.6c-0.1,0.1-0.3,1-0.9,1c-0.1,0-0.5,0.8-0.8,1.2l0,0
			c-4.4-1-5.4-1.7-5.4-1.8c0,0,1.1,1.6,5.4,2.4l0,0c0,0.1,0.2,0.1,0.3,0.3c0,0.2-0.1,0.3,0,0.5c0.1,0.1,0.1,0.1,0.2,0.3
			c0,0.2,0,0.7,0.1,0.8c0.1,0.2,0.3,0.6,0.4,0.8c0.1,0.2,0.3,1.2,0.2,1.7c-0.1,0.5,0.4,0.7,0.5,1.1c0,0.1,0,0.5,0,0.8l0,0
			c-3.5-0.8-8-1.9-10.7-3.2c-1.8-0.9-3.5-2.3-4.9-3.9l0,0c0.9-0.9,1.7-1.8,1.9-2.1c0.5-0.5,1.3-1,1.3-1s0.2-0.2,0.4-0.2
			c0.2,0.1,0.5,0,0.6-0.1c0.2-0.1,1-1.4,1-1.4s-0.4-0.1-0.5-0.4c0-0.3,0-0.5,0.2-0.6c0.2,0-0.1-0.5,0.1-0.6C69,37.8,69,38,69,37.7
			c0-0.2-0.1-0.3,0-0.5c0.1-0.2,0.2,0,0.3-0.1c0.1,0-0.2-0.3-0.1-0.5c0.2-0.3,0.6-1.1,1-1.7c0.4-0.7,0.7-0.9,0.7-1.1
			c0,0-0.3-0.8-0.5-1.4c-0.1-0.4-0.3-0.8-0.1-1.5c0.2-0.7,1.7-2.7,2.1-2.9c0.5-0.3,1.7-0.2,1.7-0.2s-0.2-0.1-0.2-0.5
			c-0.1-0.3,0-0.8,0.1-1c0.1-0.2,0.4-0.4,0.5-0.4c0.1,0,0.1,0.3,0.4,0.4c0.3,0.2,0.7,0.6,1,0.7c0.3,0.1,0.6-0.1,0.8,0
			c0.1,0.1,0.1,0.1,0.2,0.2c0.1,0,0.7-0.4,0.7-0.4l0.2-0.4c0,0-0.6,0.2-0.9,0.2c-0.3,0-0.8,0-1,0c-0.2,0-0.3-0.3-0.2-0.4
			c0.1-0.1,0.5-0.2,0.7-0.3c0.2,0,0.4-0.2,0.5-0.3c0.1-0.1,0.8-0.7,0.8-0.7s-1.6,1-1.5,0.5c0.1-0.8-0.7-0.6-0.9-0.8
			c-0.3-0.4,1.2-0.8,0.1-1.1c-0.9-0.2,1.1-1,1.3-1.4c0.2-0.4-0.1-1.2,0-1.5c0.1-0.4,0.3-0.9,0.7-1.2c0.4-0.4,1-0.8,2.1-1
			c1.2-0.2,2.3,0.3,2.5,0.5c0.3,0.2,1.4,0.4,1.2,1.1c-0.1,0.5,0,0.5,0.1,1.3c0,0.4,0,1.4,0,1.5c0,0.2-0.2,0.3-0.2,0.3
			s0.1,0.2,0.1,0.7c0,0.5-0.1,0.6-0.3,0.8c-0.2,0.2-0.7,1.3-1.5,1.4c-0.1,0,0,0.5,0.2,0.4c0.7-0.1,1.4-0.7,1.7-0.8
			c0.5-0.2,2.4-0.7,3.4-0.8c0.2,0,0.1,0.3,0.2,0.3c0.8,0,6.5-0.6,7-0.6c0.5,0,0.4-0.3,1.2-0.6c0.8-0.2,1-0.2,1.5-0.4
			c0.8-0.2,0.9-0.3,1.8,0c0.1,0,0.3,0.1,0.4,0.1c0.3,0.1,0.3,0,0.5,0.2c0.2,0.3,0.2,0.4,0.1,0.7C99,25,99,25.1,99,25.2
			c-0.1,0.2-0.2,0.4-0.2,0.5c0,0.1-0.1,0.3-0.1,0.5c-0.1,0.1,0,0.4-0.2,0.5c-0.2,0.1-0.7,0.3-0.8,0.4c-0.2,0.1-0.8,0.3-0.9,0.3
			c-0.1,0-0.4,0-0.7,0l0,0l-8.2,14.8l0,0c0.1,0.1,0.1,0.2,0.1,0.2s0.2,0.2,0.3,0.4c0.1,0.2,0.2,0.3,0.1,0.7
			c-0.1,0.4-0.5,1.1-0.9,1.5c-0.4,0.4-0.6,0.4-0.9,0.4c-0.1,0-0.2,0-0.4-0.1l0,0.1l-2.4,4.4c0,0-0.5,2-0.7,3.7c-0.1,1-0.7,2.9-3,7.1
			l-1.7,3.1l-0.7,1.3l-0.2,0.4c0,0,0.5,0,0.5,0c0.5-0.5,0.6-0.6,1.4-1.6c0.6-0.7,1.2-1.7,1.9-2.9c2.3-4.1,3.2-6.7,3.2-6.7
			c7.1,0.5,37,0.8,66.4,0.8l0.9-1.7c-10.1,0-20.3,0-29.6-0.1l0,0c-0.1-0.2-0.1-0.4-0.2-0.5c-0.3-0.4-0.6-1.4-0.2-1.5
			c0.4-0.1,0.9-0.8,1.2-1.1c0.3-0.3,0.2-1.2,0.5-1.4c0.3-0.2,2.2-1.2,2.2-1.2l0.4-0.1c0,0,0.9,0.1,1.2-0.7c0.2-0.7,0.2-0.2,0.2-1
			c0.1-0.9,0.9-1,0.9-1l-0.1-0.2l-0.4-0.5c0,0-0.4-0.9,0.3-1c0.7-0.2,0.4-0.4,0.8-0.8c0.3-0.4,1.1-1.5,1.4-2.1
			c0.3-0.6,1.5-2.1,1.9-2.5c0.4-0.4,0.8-0.6,0.8-0.6s1.3-1.2,1.9-1.9c0.5-0.7,1.5-0.7,1.5-0.7s0.3-0.1,0.4-0.2
			c0.1-0.1,0.2-0.7,0.8-0.9c0.6-0.2,2.6-1,2.6-1s0-0.2,0.3-0.2s0.8,0.3,0.8,0.3l0.2,0c0,0-0.3-0.5-0.1-0.7c0.5-0.4,1.2,0.1,1.2,0.1
			s0.4-1.4,0.3-2.1c-0.2-0.5-0.4-1.4-0.4-1.4s-0.1-2,2.4-2.5c2.6-0.5,3.3-0.2,3.7,0c0.4,0.3,0.9,1.9,0.9,1.9s2.2,0,2.4,0.4
			c0.2,0.4-0.6,0.8-0.6,0.8l-1.5,0.7c0,0-0.1,0.4,0.3,1.1c0.3,0.5-0.1,0.6-0.4,0.9c-0.1,0.1,0,0.9-0.1,1c-0.2,0.3-0.9,0.6-0.8,0.6
			c0,0.4,1.6-0.5,1.6-0.5l1.9-0.3c0,0,0.7-0.4,1-0.1c0.1,0.1,0.1,0.4,0.1,0.4l6.8,0.5l0.5,0c0,0,0.2-0.4,0.3-0.5
			c0.1-0.1,0.3-0.3,0.3-0.3l0.4-0.2c0,0,0.7-0.4,0.9-0.3c0.2,0.1,0.2,0.2,0.2,0.2s0.2,0,0.4,0c0.2,0,0.5,0.2,0.5,0.2l0,0.2
			c0,0,0-0.1,0.3,0c0.3,0.1,1.1,0.8,1.1,0.8s0.2,0.1,0.3,0.1c0.1,0.1,0.1,0.5,0.1,0.6c0,0.1-0.4,0.6-0.4,0.6s0.3,0.6-0.1,1
			c-0.4,0.4-1.4,0.5-2.1,0.5l0,0.1l-12.4,22.4c0,0-0.5,2-0.7,3.7C149.7,62.4,149.3,63.5,148.3,65.9 M161.4,35.3l-0.6-0.4l-5.5,0.7
			l-0.3,0.1c0,0,0,0.6-0.2,0.7c-0.2,0.1-0.4,0-0.4,0l-0.1,0.1c0,0-1.6,0.5-2,0.5c-0.4,0-0.7-0.4-0.7-0.4l-0.8,0.1
			c0,0-0.4,0.5-0.6,0.5c-0.2,0.1-0.5,0.4-0.7,0.4c-0.2,0-0.7,0.1-0.7,0.1l-1.7,1.2c0,0-0.4,0.4-0.6,0.5c-0.1,0.1-0.3,0.2-0.6,0.3
			l0,0.1c0,0.1,0.1,0.3,0.1,0.3s0.8,0.9,0.9,1.2c0.1,0.2,0,0.8,0,0.8l0.1,0.2c0,0,0.3,0,0.5,0.1c0.2,0.1,4,2.4,4.3,2.5
			c0.3,0.2,0.4,0.4,0.4,0.4s0.4-0.2,0.5-0.1c0.2,0,0.3,0.1,0.3,0.1l0.4,0.4c0,0,0.2-0.1,0.8-0.2c0.5-0.1,0.7-0.1,1.3,0.2l0.1-0.1
			L161.4,35.3L161.4,35.3z M94.7,27.1c-0.5-0.1-0.9-0.2-1.1-0.2c-0.4,0.1-1.2,0.6-1.5,0.7c-0.3,0.1-3.1,1.3-3.4,1.4
			c-0.3,0.1,0.2,0.4,0,0.6c-0.2,0.2-0.5,0.2-0.5,0.2s-0.2,0.3-0.4,0.4c-0.2,0.1-1.3,0.5-1.5,0.6c-0.2,0.1-0.5,0.4-0.8,0.6
			c-0.3,0.2-0.7,0.8-0.8,1c-0.1,0.2-0.5,1.4-0.7,1.8c-0.7,1.1-1.9,2.4-2.2,2.7c-0.3,0.4-0.8,1.3-0.8,1.3s0.2,0.4,0.5,0.8
			c0.2,0.4,1.6,1.6,2.1,1.9c0.3,0.2,0.7,0.8,0.8,0.8c0.1,0,0.2-0.1,0.7-0.2c0.5-0.1,0.9-0.1,1,0c0.1,0,0.2,0,0.5,0c0,0,0.1,0,0.1,0
			l0-0.1L94.7,27.1L94.7,27.1z M232.4,38l0.4-24.5l0,0l-0.6,1.4c0,0-1.8,3.1-1.5,3.5c0.3,0.4-0.7,1.6-0.7,1.6s0,0.6-0.3,1.1
			c-0.3,0.5-0.6,0.7-0.6,0.7l-0.1,0.3l-0.2,0.5l-0.4,1l-1.4,1.6c0,0,0.2,0.2,0,0.4c-0.2,0.2-0.9,1.5-1,1.6c-0.1,0.1-1.1,0.5-1.1,0.5
			l-0.5-0.1l-0.2,0c0,0-0.9,1.4-0.8,1.5c0,0.1,0,0.5,0,0.5l-0.2,0.2c0,0,0.5,0.9,0.7,1.1c0.2,0.2,0.8,1.2,0.8,1.3
			c0,0.1,0.1,0.4,0.1,0.4s0.8,0.9,0.9,1.2c0.1,0.2,0,0.8,0,0.8l-0.3,0.5l0.1,0.3c0,0,0.3,0,0.5,0.1c0.2,0.1,4,2.4,4.3,2.5
			c0.3,0.2,0.4,0.4,0.4,0.4s0.4-0.2,0.5-0.1c0.2,0,0.3,0.1,0.3,0.1l0.6-0.1C232.1,38.2,232.2,38.2,232.4,38L232.4,38z M195.9,41.4
			l8.1-14.8l0,0l-0.1,0l-0.9-0.1c0,0-0.6,0.4-0.8,0.4c-0.3,0-1.8,0.3-1.8,0.3l-4.3,2.1c0,0,0.4,0.4,0.1,0.7
			c-0.3,0.3-4.1,1.9-4.1,1.9s-0.2,0.4-0.7,0.3c-0.6-0.1-0.2-0.1-0.2-0.1h-0.4l-2,1.7c0,0-0.4,0.7-0.4,0.9c0,0.2,0.4,0.1,0.4,0.2
			c0.1,0.1,0.3,0.8,0.1,1.5c-0.1,0.2-0.1,0.6-0.1,0.6l-0.2,0.5l0.1,0.4c0,0,0.4,0.1,0.7,0.3c0.3,0.2,0.8,0.5,1,0.6
			c0.2,0.1,1.2,1.1,1.2,1.1s0.7,0.2,1.2,0.5c0.5,0.3,1.1,1,1.1,1s0.3,0.2,0.5,0.2c0.2,0,0.6-0.1,0.7-0.1
			C195.1,41.5,195.5,41.5,195.9,41.4L195.9,41.4z M185.5,42.2c0,0.1,0.1,0.2-0.2,0.3c-0.4,0.2-0.6,0.1-0.6,0.2
			c0,0.1-0.3,0.5-0.4,0.6c-0.1,0.1-0.7,0.2-0.7,0.2s-0.4,0.4-0.3,0.6c0.1,0.1,0.3,0.3,0.3,0.3l0.2,0.7l0.6,0l0.4,0.3
			c0,0,0.5,0.2,0.5,0.3c0,0.1,0.1,0.5,0.1,0.5l0.5,0c0,0,0.8,0.7,1.4,0.9c0.6,0.2,1,0.4,1,0.4l1,0.6c0,0-0.3-0.3,0.3-0.3
			c0.6,0-0.3,0.3,0.7,0.3c1,0,1.2,0.1,1.2,0.1s0,0.1,0.1,0.3l0,0c0.5-0.5,0.8-0.8,0.8-0.8l1.3-2.3l0-0.1c0,0-0.5-0.1-0.8-0.3
			c-0.7-0.6-0.6-1.3-0.8-1.4c-0.2,0-0.7-0.4-0.7-0.4s-1.4-0.1-2-0.3c-0.6-0.1-3.2-0.5-3.6-0.9c-0.1-0.1-0.2-0.1-0.2-0.1l-0.1,0
			c-1.8-0.9-2-1.2-2-1.3C183.6,40.5,183.2,41.2,185.5,42.2L185.5,42.2z M144.8,45.6c0,0-0.3,0.6-0.3,0.9c0,0.2-0.6,0.9-0.6,0.9
			s0.6,0.1,0.7,0.1c0.2,0,1.1-0.2,1.8-0.3c0.7-0.1,1.4,0,1.4,0l1.5-0.1c0,0-0.1-0.2-0.5-0.3c-0.4-0.1-1-0.3-0.9-0.3
			c-1.2-0.5-1.1-0.3-1.7-0.6c-0.4-0.2-0.8-0.4-1-0.5l-0.1,0c-1.1-0.6-1.1-0.8-1.4-1c-0.5-0.2-0.7,0.2-0.7,0.2
			C143.7,45,144.3,45.3,144.8,45.6L144.8,45.6z"/>
	</g>
</g>
</svg>
