<?xml version="1.0" encoding="utf-8"?>
<!-- Generator: Adobe Illustrator 26.3.1, SVG Export Plug-In . SVG Version: 6.00 Build 0)  -->
<svg version="1.1" id="Layer_1" xmlns="http://www.w3.org/2000/svg" xmlns:xlink="http://www.w3.org/1999/xlink" x="0px" y="0px"
	 viewBox="0 0 300 151" style="enable-background:new 0 0 300 151;" xml:space="preserve">
<style type="text/css">
	.st0{clip-path:url(#SVGID_00000062908326372317031450000007193646105194737058_);fill:#FFFFFF;}
	.st1{clip-path:url(#SVGID_00000062908326372317031450000007193646105194737058_);fill:#9C4422;}
	.st2{clip-path:url(#SVGID_00000062908326372317031450000007193646105194737058_);fill:#F68B28;}
	.st3{clip-path:url(#SVGID_00000113353930512461637660000003084879080702289046_);}
	.st4{clip-path:url(#SVGID_00000085211836812099253290000016194784997254255249_);fill:#9C4422;}
	.st5{clip-path:url(#SVGID_00000085211836812099253290000016194784997254255249_);fill:#FFFFFF;}
	.st6{clip-path:url(#SVGID_00000085211836812099253290000016194784997254255249_);fill:#F68B28;}
</style>
<g>
	<g>
		<defs>
			<rect id="SVGID_1_" x="0.6" y="0.5" width="297.9" height="150.6"/>
		</defs>
		<clipPath id="SVGID_00000160180810692444134420000005434249269534984882_">
			<use xlink:href="#SVGID_1_"  style="overflow:visible;"/>
		</clipPath>
		<path style="clip-path:url(#SVGID_00000160180810692444134420000005434249269534984882_);fill:#FFFFFF;" d="M281.9,70.6l0.4,4.4
			c4.3,0.6,8.6,1.1,12.9,1.6c1.3,0.1,2.3,0.8,2.9,1.9c0.6,1.1,0.6,2.3,0,3.5l-6.1,11.3l-5.1,9.4l5.2,10.5l6,12
			c0.6,1.2,0.5,2.6-0.2,3.7c-0.8,1.1-2,1.7-3.4,1.6c-9.7-0.9-19.4-2.2-29-3.6c-2.6-0.4-5.2-0.7-7.8-1l2.9,21.1
			c0.2,1.2-0.2,2.2-1,3.1c-0.8,0.8-1.9,1.2-3,1.1l-67.3-7.5c-21.5-1.1-42.9-1.6-64.4-0.6c-19.6,0.9-39.1,2.9-58.6,5.2l-5.6,0.6
			c-1,0.1-2-0.2-2.8-0.9c-0.8-0.7-1.2-1.6-1.3-2.6c-0.2-4.7-0.2-9.4-0.4-14l-7.2-6.4c-5.1,0.5-10.1,1.1-15.2,1.9
			c-9.6,1.4-19.3,2.8-29,3.7c-1.4,0.1-2.6-0.4-3.4-1.6c-0.8-1.1-0.9-2.5-0.3-3.7l6-12l5.2-10.5L7,93.2L1,82c-0.6-1.1-0.6-2.3,0-3.4
			c0.6-1.1,1.6-1.8,2.8-1.9c4.3-0.5,8.7-1,13-1.6L19,50.7c0.1-1.7,1.4-3.1,3.1-3.3c3.2-0.5,6.3-1,9.5-1.5l2.9-10.6L40.5,13
			c0.4-1.5,1.6-2.5,3.1-2.7L111,1.6c0.2-0.1,0.5-0.1,0.7-0.1l10.5-0.6c0.3,0,0.6,0,0.8,0c16.8-0.6,33.6-0.5,50.4,0
			c0.3,0,0.6-0.1,0.8,0l10.5,0.5c0.3,0,0.6,0.1,0.9,0.2c16.3,1.3,32.6,3.1,48.8,5.4l4.6,0.7c1.5,0.2,2.7,1.3,3,2.7l2.5,9.8l8.4,1.4
			c1.1,0.2,2,0.8,2.5,1.7l9.6,16l5.2-2.1c1.3-0.5,2.7-0.3,3.7,0.6l18.3,15.3c0.8,0.7,1.2,1.5,1.3,2.5c0.1,1-0.2,1.9-0.9,2.7
			L281.9,70.6z"/>
		<path style="clip-path:url(#SVGID_00000160180810692444134420000005434249269534984882_);fill:#9C4422;" d="M237,73.3
			c9.6,0.6,19.3,1.7,28.9,3.1c9.6,1.4,19.2,2.8,28.9,3.9c-2,3.8-4,7.5-6,11.3c-2,3.7-4,7.4-6,11.1c2,4.1,4,8.2,6,12.2c2,4,4,8,6,12
			c-9.6-0.9-19.3-2.2-28.9-3.6c-9.6-1.4-19.3-2.3-28.9-2.9V96.8V73.3z"/>
		<path style="clip-path:url(#SVGID_00000160180810692444134420000005434249269534984882_);fill:#F68B28;" d="M282,116.5
			c-12.2,1.3-24.5,2.7-36.7,4.4c2.2-4,4.4-8,6.7-12C262,111.4,272,113.9,282,116.5"/>
		<path style="clip-path:url(#SVGID_00000160180810692444134420000005434249269534984882_);fill:#9C4422;" d="M62,73.2
			c-9.6,0.6-19.3,1.7-28.9,3.2c-9.6,1.4-19.2,2.9-28.8,4c2,3.8,4,7.5,6,11.2c2,3.7,4,7.4,6,11c-2,4.1-4,8.2-6,12.2c-2,4-4,8-6,12
			c9.6-1,19.2-2.3,28.8-3.7c9.6-1.4,19.3-2.4,28.9-3V96.6V73.2z"/>
		<path style="clip-path:url(#SVGID_00000160180810692444134420000005434249269534984882_);fill:#F68B28;" d="M17,116.4
			c13.2,1.4,23.4,2.2,36.6,3.9c-2.4-4.3-7.7-9.8-12.7-12.5C30,110.5,27.8,113.5,17,116.4"/>
		<path style="clip-path:url(#SVGID_00000160180810692444134420000005434249269534984882_);fill:#9C4422;" d="M174.1,4.6L174.1,4.6
			c1.7,0,3.4,0.1,5.2,0.2c1.8,0.1,3.5,0.1,5.3,0.2l0,0.1c16.4,1.3,32.9,3.1,49.4,5.4c1.5,0.2,3.1,0.5,4.6,0.7
			c0.4,1.5,0.8,3.1,1.2,4.6c0.6,2.5,1.3,5,1.9,7.6c2.5,0.4,5,0.9,7.6,1.3c1,0.2,2.1,0.4,3.2,0.5c0.6,1,1.1,1.9,1.7,2.9
			c2.6,4.4,5.2,8.7,7.9,13.1c0.3,0.5,0.6,0.9,0.8,1.4c0,0.5,0.1,1,0.1,1.5c1.8-0.7,3.6-1.5,5.3-2.2c1.1-0.5,2.3-0.9,3.4-1.4
			c1,0.9,2.1,1.7,3.2,2.6c3.2,2.6,6.4,5.3,9.6,8c1.9,1.6,3.7,3.1,5.6,4.7c-1.5,1.6-2.9,3.1-4.3,4.7c-6.2,6.8-12.4,13.6-18.5,20.6
			c-5.6,6.4-11.2,12.8-16.8,19.4c0.8,6.1,1.7,12.1,2.5,18.2c1,7,1.9,13.9,2.9,20.9c0.3,2.6,0.7,5.2,1.1,7.8
			c-2.6-0.4-5.1-0.7-7.7-1.1c-19.3-2.7-38.7-4.7-58-6.3c-0.6,0-1.1-0.1-1.7-0.1l-0.5,0c-13.7-0.7-27.4-1.1-41.1-1.2
			c-13.6,0.2-27.2,0.7-40.8,1.5c-0.8,0.1-1.6,0.2-2.4,0.2c-13,1.1-26,2.5-39,4.1c-1.9,0.2-3.8,0.4-5.6,0.6
			c-0.4-8.2-0.2-10.9-0.5-15.6h0c-1-0.9-2-1.8-3-2.7c-2.9-2.6-5.8-5.1-8.7-7.7c-4.2-3.7-8.3-7.3-12.5-10.8c-0.6-0.5-1.1-1-1.7-1.4
			c-0.1-0.8-0.2-1.5-0.3-2.3c-0.1-1-0.2-2-0.3-3c-2.5-1.7-5.1-3.5-7.6-5.2c-1.1-0.8-2.1-1.5-3.2-2.2c0.3-1.4,0.7-2.8,1.1-4.1
			c1.6-5.9,3.2-11.9,4.8-17.8c1.6-5.9,3.2-11.9,4.8-17.9c1.6-6,3.2-11.9,4.8-17.9c1.6-6,3.3-11.9,4.9-17.9c0.4-1.5,0.8-3,1.2-4.4
			c1.5-0.3,2.9-0.5,4.4-0.8c11.1-2,22.3-3.7,33.4-5.2c10-1.2,20-2.1,30-2.9v0c1.2-0.1,2.5-0.1,3.7-0.2c2.2-0.1,4.5-0.3,6.7-0.4v0.1
			C139.6,4,156.8,4,174.1,4.6"/>
	</g>
	<g>
		<defs>
			<path id="SVGID_00000049201351643603862290000001990928451813079961_" d="M183.5,41.9c0.8,10.2,1.8,20.4,2.6,30.6
				c0.9,10.2,1.7,20.4,2.6,30.6c0.8,10.2,1.7,20.4,2.6,30.6c19.4,1.5,38.8,3.7,58.2,6.3c-1-6.9-1.9-13.9-2.9-20.9
				c-0.9-7-1.9-14-2.9-21c6.2-7.3,12.3-14.4,18.5-21.5c6.1-7,12.3-13.9,18.5-20.7c-3.2-2.7-6.4-5.3-9.6-7.9c-2.5,1-5,2-7.4,3.1
				c-2.2-0.3-4.3-0.7-6.5-1c-0.2-2-0.4-4-0.6-6c-2.6-4.4-5.3-8.7-7.9-13.1c-4-0.7-8.1-1.4-12.1-2c-1-4-2.1-8-3.1-12.1
				c-17.6-2.4-35.1-4.3-52.7-5.6C181.8,21.5,182.7,31.7,183.5,41.9 M82.2,14.3C71.1,15.7,60,17.4,49,19.4c-1.6,6-3.3,11.9-4.9,17.9
				c-1.6,5.9-3.2,11.9-4.8,17.9C37.6,61.1,36,67,34.4,73c-1.6,5.9-3.2,11.9-4.8,17.8v0c3.2,2.2,6.4,4.5,9.6,6.6
				c0.2,1.9,0.4,3.8,0.6,5.6c4.2,3.6,8.3,7.3,12.5,10.9c2.9,2.6,5.8,5.2,8.7,7.8c1,0.9,2,1.8,3,2.8c0.4,0.4,1,0.9,1.4,1.4v12.2
				c13-1.7,26.1-3.1,39.1-4.1c0.9-10.2,1.8-20.5,2.7-30.7c0.9-10.2,1.9-20.5,2.8-30.7c0.9-10.2,1.8-20.4,2.7-30.7
				c0.9-10.2,1.8-20.5,2.8-30.7C104.3,12.1,93.2,13,82.2,14.3 M117.7,11.2c-0.9,10.2-1.9,20.5-2.8,30.7c-0.9,10.2-1.8,20.4-2.7,30.7
				c-0.9,10.2-1.9,20.4-2.8,30.7c-0.9,10.2-1.8,20.5-2.7,30.7c13.7-0.8,27.5-1.5,41.2-1.6c13.7-0.1,27.5,0.5,41.2,1.2
				c-0.9-10.2-1.8-20.4-2.6-30.6c-0.9-10.2-1.7-20.4-2.6-30.6c-0.9-10.2-1.7-20.4-2.6-30.6c-0.8-10.2-1.7-20.4-2.6-30.6
				c-10.2-0.4-20.4-0.6-30.7-0.6C137.9,10.6,127.8,10.8,117.7,11.2"/>
		</defs>
		<clipPath id="SVGID_00000059993203764712511140000015898477049063540882_">
			<use xlink:href="#SVGID_00000049201351643603862290000001990928451813079961_"  style="overflow:visible;"/>
		</clipPath>
		<g style="clip-path:url(#SVGID_00000059993203764712511140000015898477049063540882_);">
			<defs>
				<rect id="SVGID_00000180367676543838764870000003359278830927635096_" x="29.5" y="10.3" width="251.5" height="130.2"/>
			</defs>
			<clipPath id="SVGID_00000147178004131326360430000015929615294326519681_">
				<use xlink:href="#SVGID_00000180367676543838764870000003359278830927635096_"  style="overflow:visible;"/>
			</clipPath>
			<g style="clip-path:url(#SVGID_00000147178004131326360430000015929615294326519681_);">
				
					<image style="overflow:visible;" width="334" height="173" xlink:href="4E317924EB8676F.jpg"  transform="matrix(0.753 0 0 0.7526 29.4763 10.2694)">
				</image>
			</g>
		</g>
	</g>
	<g>
		<defs>
			<rect id="SVGID_00000033366363597583155590000011759834844940083117_" x="0.6" y="0.5" width="297.9" height="150.6"/>
		</defs>
		<clipPath id="SVGID_00000156548172697761802220000005644582524798075834_">
			<use xlink:href="#SVGID_00000033366363597583155590000011759834844940083117_"  style="overflow:visible;"/>
		</clipPath>
		<path style="clip-path:url(#SVGID_00000156548172697761802220000005644582524798075834_);fill:#9C4422;" d="M22.6,51
			c21.2-3.3,42.3-6.3,63.5-8.2c21.1-1.9,42.3-2.9,63.4-2.9c21.1,0,42.3,1.1,63.4,3c21.2,1.9,42.4,4.9,63.6,8.2
			c0.9,10.9,1.8,21.8,2.8,32.7c0.9,10.9,1.8,21.8,2.7,32.7c-22.2-3.5-44.3-6.7-66.4-8.8c-22.1-2-44.2-3.2-66.2-3.3
			c-22,0-44.1,1.1-66.2,3.1c-22.1,2-44.2,5.2-66.3,8.8c1-10.9,1.9-21.8,2.8-32.7C20.7,72.8,21.7,61.9,22.6,51"/>
		<path style="clip-path:url(#SVGID_00000156548172697761802220000005644582524798075834_);fill:#FFFFFF;" d="M28.4,56.6
			c20.2-3,40.4-5.8,60.7-7.5c20.2-1.7,40.4-2.7,60.6-2.6c20.2,0,40.4,1,60.5,2.8c20.2,1.7,40.4,4.5,60.7,7.5
			c0.7,8.7,1.4,17.3,2.1,26s1.3,17.3,2,26c-21-3.2-41.9-6-62.8-7.9c-20.9-1.8-41.8-2.9-62.6-3c-20.9,0-41.8,1-62.7,2.8
			c-20.9,1.8-41.8,4.7-62.8,8c0.7-8.7,1.5-17.3,2.1-26C26.9,74,27.7,65.3,28.4,56.6"/>
		<path style="clip-path:url(#SVGID_00000156548172697761802220000005644582524798075834_);fill:#F68B28;" d="M30.1,58.3
			c19.9-3,39.8-5.6,59.8-7.3c19.9-1.7,39.8-2.6,59.7-2.6c19.9,0,39.8,1,59.7,2.7c19.9,1.7,39.9,4.4,59.8,7.3c0.6,8,1.2,16,1.8,24
			c0.6,8,1.2,16,1.9,24c-20.6-3.1-41.2-5.8-61.7-7.6c-20.5-1.8-41-2.8-61.5-2.9c-20.5,0-41.1,0.9-61.6,2.7
			c-20.6,1.8-41.1,4.6-61.7,7.7c0.7-8,1.3-16,1.9-24C28.8,74.3,29.5,66.3,30.1,58.3"/>
		<path style="clip-path:url(#SVGID_00000156548172697761802220000005644582524798075834_);fill:#9C4422;" d="M45.4,64.5
			c2.4-0.3,4.3,0.2,5.7,1.6c1.3,1.4,1.8,3.2,1.7,5.6c-0.1,1.7-0.2,3.4-0.3,5c-0.2,2.3-1,4.4-2.7,6.2c-1.7,1.8-3.6,2.9-5.8,3.2
			c-1,0.1-2,0.3-2.9,0.4c-0.4,4.4-0.7,8.7-1,13.1c-1.7,0.3-3.4,0.6-5.1,0.8c0.5-5.8,0.9-11.6,1.3-17.4c0.4-5.8,0.9-11.6,1.3-17.4
			C40.2,65.3,42.8,64.9,45.4,64.5 M267.2,92.1c0.2,2.4-0.3,4.4-1.4,5.9c-0.8,1-1.9,1.7-3.3,1.9c-0.8,0.1-1.8,0.1-2.8-0.1
			c-2-0.3-3.7-1-5.1-2.2c-1.1-1-2.1-2.2-2.8-3.8c-0.7-1.5-1.2-3.2-1.4-5.1c1.6,0.1,3.2,0.2,4.8,0.3c0.4,2,1,3.6,1.9,4.6
			c0.7,0.8,1.4,1.2,2.2,1.3c1.1,0.1,1.9-0.3,2.6-1.3c0.3-0.5,0.4-1.2,0.4-2.2c-0.1-1.5-0.8-3-2.3-4.6c-1.1-1.2-2.7-2.8-4.8-5.1
			c-1.8-1.9-3.1-3.6-3.9-5c-0.9-1.6-1.3-3.3-1.4-5c-0.2-3.2,0.7-5.4,2.6-6.8c1.2-0.8,2.7-1.1,4.6-0.8c1.8,0.3,3.4,0.9,4.7,1.9
			c1.1,0.8,2,1.8,2.6,3.1c0.7,1.2,1.2,2.7,1.4,4.2c-1.6,0-3.2,0.1-4.9,0.1c-0.2-1.5-0.7-2.6-1.4-3.5c-0.5-0.6-1.2-1-2.1-1.1
			c-0.9-0.1-1.6,0.2-2.1,1c-0.4,0.6-0.4,1.4-0.4,2.5c0.1,1.6,0.9,3.3,2.3,5.1c0.5,0.7,1.3,1.6,2.4,2.5c1.3,1.2,2.1,2,2.6,2.5
			c1.3,1.5,2.4,2.9,3.2,4.3c0.4,0.7,0.6,1.2,0.9,1.8C266.8,89.9,267.1,91.1,267.2,92.1 M246.1,89.3c0.1,2.3-0.6,4.1-2.1,5.6
			c-1.5,1.4-3.3,2-5.5,1.7c-2.7-0.3-5.4-0.6-8.1-0.9c-0.3-5.8-0.6-11.5-0.8-17.3c-0.3-5.8-0.6-11.6-0.8-17.3
			c2.6,0.3,5.3,0.6,7.9,0.9c2.2,0.2,4.1,1.3,5.7,3.1c1.6,1.8,2.5,3.9,2.7,6.2c0.2,3,0.4,6,0.6,9.1C245.7,83.3,245.9,86.3,246.1,89.3
			 M235.2,91.1c1,0.1,2.1,0.2,3.1,0.4c0.8,0.1,1.5-0.1,2-0.7c0.5-0.5,0.7-1.2,0.7-2c-0.2-3-0.3-6-0.5-9.1c-0.2-3-0.4-6.1-0.5-9.1
			c0-0.8-0.4-1.6-1-2.2c-0.6-0.7-1.3-1.1-2.1-1.1c-1-0.1-2.1-0.2-3.1-0.3c0.2,4,0.4,8,0.6,12.1C234.8,83.1,235,87.1,235.2,91.1
			 M216.2,59.4c2.2,0.2,4.1,1.2,5.8,3c1.6,1.8,2.5,3.8,2.6,6.1c0.2,3.1,0.3,6.3,0.4,9.5c0.1,3.1,0.3,6.3,0.4,9.4
			c0.1,2.3-0.6,4.2-2.2,5.6c-1.5,1.5-3.4,2.1-5.7,1.9c-2.2-0.2-4.2-1.2-5.8-2.9c-1.6-1.7-2.5-3.8-2.6-6c-0.1-3.1-0.2-6.3-0.3-9.4
			c-0.1-3.1-0.2-6.3-0.3-9.4c-0.1-2.3,0.6-4.2,2.1-5.7C212.2,59.9,214,59.2,216.2,59.4 M219.3,67.9c0-0.8-0.3-1.6-0.9-2.2
			c-0.6-0.6-1.3-1-2.1-1c-0.8-0.1-1.5,0.2-2,0.7c-0.5,0.5-0.8,1.2-0.8,2c0.1,3.2,0.3,6.3,0.4,9.5c0.1,3.1,0.3,6.3,0.4,9.4
			c0,0.8,0.3,1.5,0.9,2.2c0.6,0.6,1.2,1,2.1,1c0.8,0.1,1.5-0.2,2-0.7c0.6-0.5,0.8-1.2,0.8-2c-0.1-3.1-0.3-6.3-0.4-9.4
			C219.6,74.2,219.4,71,219.3,67.9 M195.9,57.9c2.2,0.1,4.1,1.1,5.7,2.8c1.6,1.7,2.5,3.7,2.6,6c0.1,3.1,0.2,6.3,0.3,9.4
			c0.1,3.1,0.2,6.3,0.3,9.4c0.1,2.3-0.6,4.2-2.2,5.7c-1.5,1.5-3.4,2.2-5.7,2.1c-2.3-0.1-4.2-1.1-5.8-2.8c-1.6-1.7-2.5-3.7-2.5-6
			c0-3.1-0.1-6.3-0.2-9.4c-0.1-3.1-0.1-6.3-0.2-9.4c-0.1-2.3,0.7-4.2,2.2-5.7C191.9,58.5,193.8,57.8,195.9,57.9 M198.9,66.2
			c0-0.8-0.3-1.6-0.8-2.2c-0.6-0.6-1.3-0.9-2.1-1s-1.5,0.2-2,0.8c-0.6,0.6-0.9,1.2-0.9,2c0.1,3.2,0.2,6.3,0.3,9.5
			c0.1,3.1,0.2,6.3,0.3,9.4c0,0.8,0.3,1.5,0.9,2.2c0.6,0.6,1.3,0.9,2.1,1c0.8,0,1.5-0.2,2.1-0.7c0.6-0.5,0.8-1.2,0.8-2.1
			c-0.1-3.1-0.2-6.3-0.3-9.4C199.1,72.5,199,69.4,198.9,66.2 M175.8,91.8c-1.7-0.1-3.4-0.1-5.1-0.2c-0.1-5.7-0.1-11.5-0.2-17.3
			c-0.1-5.7-0.1-11.5-0.2-17.2c4.8,0.2,9.5,0.3,14.3,0.5c0,1.7,0.1,3.5,0.1,5.2c-3.1-0.1-6.2-0.3-9.3-0.3c0.1,3.1,0.1,6.3,0.1,9.4
			c2.3,0.1,4.5,0.1,6.8,0.2c0.1,1.8,0.1,3.5,0.1,5.2c-2.3-0.1-4.6-0.2-6.9-0.3C175.7,82,175.7,86.9,175.8,91.8 M143.6,91.4
			c0.1-5.8,0.1-11.5,0.1-17.3c0-5.7,0.1-11.5,0.1-17.2c4.8-0.1,9.6,0,14.3,0v5.2c-3.1-0.1-6.2-0.1-9.3-0.1c0,3.1,0,6.3,0,9.4
			c2.3,0,4.6,0,6.9,0.1v5.2c-2.3,0-4.6,0-6.9,0c0,3.1,0,6.3,0,9.4c3.1,0,6.3,0,9.5,0.1c0,1.7,0,3.5,0,5.2
			C153.4,91.3,148.5,91.3,143.6,91.4 M127.7,57.2c1,3.8,2,7.6,3.1,11.5c1.1,3.8,2.1,7.6,3.3,11.5c0-3.8,0.1-7.7,0.1-11.5
			c0-3.9,0.1-7.7,0.1-11.6c1.7,0,3.3,0,5.1-0.1c-0.1,5.7-0.2,11.5-0.2,17.2c0,5.7-0.1,11.5-0.1,17.3c-1.8,0-3.7,0-5.5,0.1
			c-1.1-3.6-2.3-7.3-3.4-10.9c-1.1-3.6-2.2-7.3-3.3-10.9c0,3.7-0.1,7.4-0.1,11c-0.1,3.7-0.1,7.4-0.2,11c-1.7,0.1-3.4,0.1-5.1,0.2
			c0.1-5.8,0.2-11.5,0.3-17.3c0.1-5.7,0.3-11.5,0.4-17.3C124,57.3,125.8,57.2,127.7,57.2 M116.8,92c-1.7,0.1-3.4,0.2-5.1,0.3
			c0.1-5.7,0.3-11.5,0.4-17.2c0.1-5.7,0.3-11.5,0.5-17.2c1.7-0.1,3.3-0.2,5-0.2c-0.2,5.7-0.3,11.5-0.4,17.2
			C117,80.6,116.9,86.3,116.8,92 M98.6,93.1c-1.7,0.1-3.4,0.2-5.1,0.4c0.2-5.7,0.4-11.5,0.6-17.2c0.2-5.8,0.5-11.5,0.7-17.3
			c4.8-0.3,9.6-0.7,14.3-0.9c-0.1,1.7-0.1,3.5-0.1,5.2c-3.1,0.2-6.2,0.4-9.4,0.6c-0.1,3.1-0.2,6.3-0.3,9.4c2.3-0.2,4.6-0.3,6.9-0.5
			c0,1.7-0.1,3.5-0.2,5.2c-2.3,0.1-4.6,0.3-6.9,0.4C99,83.4,98.8,88.3,98.6,93.1 M79.3,89.6c1.7-0.1,3.4-0.3,5.1-0.5
			c-0.1,1.7-0.1,3.5-0.2,5.2c-1.7,0.2-3.4,0.3-5.1,0.5C79.2,93.1,79.3,91.3,79.3,89.6 M64,88.5c-0.6,2.7-1.1,5.4-1.7,8.1
			c-1.8,0.2-3.6,0.4-5.4,0.7c1.3-5.9,2.7-11.8,3.9-17.7c1.3-5.9,2.6-11.8,3.9-17.6c2.3-0.3,4.6-0.5,6.9-0.8c0.6,5.7,1.2,11.3,1.9,17
			c0.7,5.6,1.3,11.3,2,17c-1.8,0.2-3.6,0.4-5.4,0.6c-0.2-2.6-0.5-5.2-0.8-7.8C67.6,88.1,65.8,88.3,64,88.5 M67.8,69.5
			c-0.9,4.6-1.8,9.2-2.7,13.8c1.3-0.1,2.5-0.3,3.8-0.5C68.5,78.4,68.1,74,67.8,69.5 M48.6,93.3c1.7-0.2,3.4-0.5,5.1-0.7
			c-0.1,1.7-0.2,3.5-0.3,5.2c-1.7,0.3-3.5,0.5-5.1,0.7C48.4,96.8,48.5,95,48.6,93.3 M47.8,72.5c0.1-0.9-0.1-1.6-0.6-2.1
			c-0.5-0.5-1.2-0.7-2.1-0.5c-1,0.1-2,0.3-3,0.4c-0.3,3.7-0.6,7.4-0.8,11.1c1-0.1,2-0.3,3.1-0.5c0.8-0.1,1.5-0.5,2.1-1.2
			c0.6-0.7,0.9-1.4,1-2.2C47.6,75.9,47.7,74.2,47.8,72.5"/>
		<path style="clip-path:url(#SVGID_00000156548172697761802220000005644582524798075834_);fill:#FFFFFF;" d="M43.9,63
			c2.4-0.3,4.3,0.2,5.7,1.6c1.3,1.4,1.8,3.2,1.7,5.6c-0.1,1.7-0.2,3.4-0.3,5c-0.2,2.3-1,4.4-2.7,6.2c-1.7,1.8-3.6,2.9-5.8,3.2
			c-1,0.1-2,0.3-2.9,0.4c-0.4,4.4-0.7,8.7-1,13.1c-1.7,0.3-3.4,0.6-5.1,0.8c0.5-5.8,0.9-11.6,1.3-17.4c0.4-5.8,0.9-11.6,1.3-17.4
			C38.6,63.8,41.3,63.4,43.9,63 M265.7,90.6c0.2,2.4-0.3,4.4-1.4,5.9c-0.8,1-1.9,1.7-3.3,1.9c-0.8,0.1-1.8,0.1-2.8-0.1
			c-2-0.3-3.7-1-5.1-2.2c-1.1-1-2.1-2.2-2.8-3.8c-0.7-1.5-1.2-3.2-1.4-5.1c1.6,0.1,3.2,0.2,4.9,0.3c0.3,2,1,3.6,1.9,4.6
			c0.7,0.8,1.4,1.2,2.2,1.3c1.1,0.1,1.9-0.3,2.6-1.3c0.3-0.5,0.4-1.2,0.4-2.2c-0.1-1.5-0.8-3-2.3-4.6c-1.1-1.2-2.7-2.8-4.8-5.1
			c-1.8-1.9-3.1-3.6-3.9-5c-0.9-1.6-1.3-3.3-1.4-5c-0.2-3.2,0.7-5.4,2.6-6.7c1.2-0.8,2.7-1.1,4.6-0.8c1.8,0.3,3.4,0.9,4.7,1.9
			c1.1,0.8,2,1.8,2.6,3.1c0.7,1.2,1.2,2.7,1.4,4.2c-1.6,0-3.2,0.1-4.9,0.1c-0.2-1.4-0.7-2.6-1.4-3.5c-0.5-0.6-1.2-1-2.1-1.1
			c-0.9-0.1-1.6,0.2-2.1,1c-0.4,0.6-0.4,1.4-0.4,2.5c0.1,1.6,0.9,3.3,2.3,5.1c0.5,0.7,1.3,1.5,2.4,2.5c1.3,1.2,2.1,2,2.6,2.5
			c1.3,1.5,2.4,2.9,3.2,4.3c0.4,0.7,0.6,1.2,0.9,1.8C265.2,88.4,265.5,89.6,265.7,90.6 M244.5,87.8c0.1,2.3-0.6,4.1-2.1,5.6
			c-1.5,1.4-3.3,2-5.5,1.7c-2.7-0.3-5.4-0.6-8.1-0.9c-0.3-5.8-0.6-11.5-0.8-17.3s-0.6-11.6-0.8-17.3c2.6,0.3,5.3,0.6,7.9,0.9
			c2.2,0.2,4.1,1.3,5.7,3.1c1.6,1.8,2.5,3.9,2.7,6.2c0.2,3,0.4,6,0.6,9.1C244.2,81.8,244.3,84.8,244.5,87.8 M233.7,89.6
			c1,0.1,2.1,0.2,3.1,0.4c0.8,0.1,1.5-0.1,2-0.6c0.5-0.5,0.7-1.2,0.7-2c-0.2-3-0.3-6-0.5-9.1c-0.2-3-0.4-6.1-0.5-9.1
			c0-0.8-0.4-1.6-1-2.2c-0.6-0.7-1.3-1.1-2.1-1.1c-1-0.1-2.1-0.2-3-0.3c0.2,4,0.4,8,0.6,12.1C233.3,81.6,233.5,85.6,233.7,89.6
			 M214.7,57.9c2.2,0.2,4.1,1.2,5.8,3c1.6,1.8,2.5,3.8,2.6,6.1c0.2,3.1,0.3,6.3,0.4,9.5c0.1,3.1,0.3,6.3,0.4,9.4
			c0.1,2.3-0.6,4.2-2.2,5.6c-1.5,1.5-3.4,2.1-5.7,1.9c-2.2-0.2-4.2-1.2-5.8-2.9c-1.6-1.7-2.5-3.8-2.6-6c-0.1-3.1-0.2-6.3-0.3-9.4
			c-0.1-3.1-0.2-6.3-0.3-9.4c-0.1-2.3,0.6-4.2,2.1-5.7C210.7,58.4,212.5,57.7,214.7,57.9 M217.7,66.4c0-0.8-0.3-1.6-0.9-2.2
			c-0.6-0.6-1.3-1-2.1-1c-0.8-0.1-1.5,0.2-2,0.7c-0.5,0.5-0.8,1.2-0.8,2c0.1,3.2,0.3,6.3,0.4,9.5c0.1,3.1,0.3,6.3,0.4,9.4
			c0,0.8,0.3,1.5,0.9,2.2c0.6,0.6,1.2,1,2.1,1c0.8,0.1,1.5-0.2,2-0.7c0.6-0.5,0.8-1.2,0.8-2c-0.1-3.1-0.3-6.3-0.4-9.4
			C218,72.7,217.9,69.5,217.7,66.4 M194.4,56.4c2.2,0.1,4.1,1.1,5.7,2.8c1.6,1.7,2.5,3.7,2.6,6c0.1,3.1,0.2,6.3,0.3,9.4
			c0.1,3.1,0.2,6.3,0.3,9.4c0.1,2.3-0.6,4.2-2.2,5.7c-1.5,1.5-3.4,2.2-5.7,2.1c-2.3-0.1-4.2-1.1-5.8-2.8c-1.6-1.7-2.5-3.7-2.5-6
			c0-3.1-0.1-6.3-0.2-9.4c-0.1-3.1-0.1-6.3-0.2-9.4c-0.1-2.3,0.7-4.2,2.2-5.7C190.4,57,192.3,56.2,194.4,56.4 M197.4,64.7
			c0-0.8-0.3-1.6-0.8-2.2c-0.6-0.6-1.3-0.9-2.1-1c-0.8,0-1.5,0.2-2,0.8c-0.6,0.6-0.9,1.2-0.9,2c0.1,3.2,0.2,6.3,0.3,9.5
			c0.1,3.1,0.2,6.3,0.3,9.4c0,0.8,0.3,1.5,0.9,2.2c0.6,0.6,1.3,0.9,2.1,1c0.8,0,1.5-0.2,2.1-0.7c0.6-0.5,0.8-1.2,0.8-2.1
			c-0.1-3.1-0.2-6.3-0.3-9.4C197.6,71,197.5,67.9,197.4,64.7 M174.3,90.3c-1.7-0.1-3.4-0.1-5.1-0.2c-0.1-5.7-0.1-11.5-0.2-17.3
			c-0.1-5.7-0.1-11.5-0.2-17.2c4.8,0.2,9.5,0.3,14.3,0.5c0,1.7,0.1,3.5,0.1,5.2c-3.1-0.1-6.2-0.3-9.3-0.3c0.1,3.1,0.1,6.3,0.1,9.4
			c2.3,0.1,4.5,0.1,6.8,0.2c0.1,1.8,0.1,3.5,0.1,5.2c-2.3-0.1-4.6-0.2-6.9-0.3C174.2,80.5,174.2,85.4,174.3,90.3 M142.1,89.9
			c0.1-5.8,0.1-11.5,0.1-17.3c0-5.7,0.1-11.5,0.1-17.2c4.8-0.1,9.6,0,14.3,0v5.2c-3.1-0.1-6.2-0.1-9.3-0.1c0,3.1,0,6.3,0,9.4
			c2.3,0,4.6,0,6.9,0.1v5.2c-2.3,0-4.6,0-6.9,0c0,3.1,0,6.3,0,9.4c3.1,0,6.3,0,9.5,0.1c0,1.7,0,3.5,0,5.2
			C151.9,89.8,147,89.8,142.1,89.9 M126.2,55.7c1,3.8,2,7.6,3.1,11.5c1.1,3.8,2.1,7.6,3.3,11.5c0-3.8,0.1-7.7,0.1-11.6
			c0-3.9,0.1-7.7,0.1-11.6c1.7,0,3.3,0,5.1-0.1c-0.1,5.7-0.2,11.5-0.2,17.2c0,5.7-0.1,11.5-0.1,17.3c-1.8,0-3.7,0-5.5,0.1
			c-1.1-3.6-2.3-7.3-3.4-10.9c-1.1-3.6-2.2-7.3-3.3-10.9c0,3.7-0.1,7.4-0.1,11.1c-0.1,3.7-0.1,7.4-0.2,11c-1.7,0.1-3.4,0.1-5.1,0.2
			c0.1-5.8,0.2-11.5,0.3-17.3c0.1-5.7,0.3-11.5,0.4-17.3C122.4,55.8,124.3,55.7,126.2,55.7 M115.2,90.5c-1.7,0.1-3.4,0.2-5.1,0.3
			c0.1-5.7,0.3-11.5,0.4-17.2c0.1-5.7,0.3-11.5,0.5-17.2c1.7-0.1,3.3-0.2,5-0.2c-0.2,5.7-0.3,11.5-0.4,17.2
			C115.5,79.1,115.4,84.8,115.2,90.5 M97.1,91.6c-1.7,0.1-3.4,0.2-5.1,0.4c0.2-5.7,0.4-11.5,0.6-17.3c0.2-5.8,0.5-11.5,0.7-17.3
			c4.8-0.3,9.6-0.7,14.3-0.9c-0.1,1.7-0.1,3.5-0.1,5.2c-3.1,0.2-6.2,0.4-9.4,0.6c-0.1,3.1-0.2,6.3-0.3,9.4c2.3-0.2,4.6-0.3,6.9-0.5
			c0,1.7-0.1,3.5-0.2,5.2c-2.3,0.1-4.6,0.3-6.9,0.4C97.4,81.9,97.2,86.8,97.1,91.6 M77.8,88.1c1.7-0.1,3.4-0.3,5.1-0.5
			c-0.1,1.7-0.1,3.5-0.2,5.2c-1.7,0.2-3.4,0.3-5.1,0.5C77.6,91.6,77.7,89.8,77.8,88.1 M62.5,87c-0.6,2.7-1.1,5.4-1.7,8.1
			c-1.8,0.2-3.6,0.4-5.4,0.7c1.3-5.9,2.7-11.8,4-17.7c1.3-5.9,2.6-11.8,3.9-17.7c2.3-0.3,4.6-0.5,6.9-0.8c0.6,5.7,1.2,11.3,1.9,17
			c0.7,5.6,1.3,11.3,2,17c-1.8,0.2-3.6,0.4-5.4,0.6c-0.2-2.6-0.5-5.2-0.8-7.8C66.1,86.6,64.3,86.8,62.5,87 M66.2,68
			c-0.9,4.6-1.8,9.2-2.7,13.8c1.3-0.1,2.5-0.3,3.8-0.5C67,76.9,66.6,72.5,66.2,68 M47.1,91.8c1.7-0.2,3.4-0.5,5.1-0.7
			c-0.1,1.7-0.2,3.5-0.4,5.2c-1.7,0.3-3.5,0.5-5.1,0.7C46.9,95.3,46.9,93.5,47.1,91.8 M46.3,71c0.1-0.9-0.1-1.6-0.6-2.1
			c-0.5-0.5-1.2-0.7-2.1-0.5c-1,0.1-2,0.3-3,0.4c-0.3,3.7-0.6,7.4-0.8,11.1c1-0.1,2-0.3,3.1-0.5c0.8-0.1,1.5-0.5,2.1-1.2
			c0.6-0.7,0.9-1.4,1-2.2C46.1,74.4,46.2,72.7,46.3,71"/>
		<path style="clip-path:url(#SVGID_00000156548172697761802220000005644582524798075834_);fill:#FFFFFF;" d="M97.1,125.4
			c-0.3,0.9-0.8,1.8-1.5,2.5c-1,1-2.2,1.6-3.6,1.8c-1.3,0.1-2.7,0.3-4,0.4l-1.4,0.2l0.1-1.4c0.2-2.8,0.3-5.5,0.5-8.3
			c0.2-2.8,0.4-5.5,0.5-8.3l0.1-1l1-0.1c1.3-0.1,2.7-0.3,4-0.4c1.4-0.1,2.6,0.3,3.6,1.3c0.7,0.7,1.1,1.5,1.3,2.3c0.1-1,0.1-2,0.2-3
			l0.1-1l1-0.1c0.8-0.1,1.7-0.1,2.5-0.2l1.3-0.1l-0.1,1.3c-0.1,2.7-0.3,5.5-0.4,8.2c0,0.8-0.1,1.7-0.1,2.5l0.7-0.1
			c0.8-0.1,1.6-0.2,2.4-0.3l1.2-0.2c-0.5-0.4-1-0.9-1.5-1.3c-0.7-0.7-1.5-1.5-1.9-2.3c-0.5-0.9-0.6-1.9-0.6-2.9
			c0.1-1.7,0.8-3.3,2.1-4.4c0.9-0.7,1.9-1,3-1.1c1-0.1,2,0.1,2.9,0.6c0.7,0.4,1.2,1,1.6,1.7l0.2,0.4c0-0.6,0.1-1.1,0.1-1.7l0-1.1
			l1.1-0.1c2.6-0.1,5.2-0.3,7.8-0.4l0.9,0v0l0.4,0l0.7,0c1.3,0,2.6-0.1,4-0.1c1.5-0.1,2.9,0.3,4,1.4c0.9,1,1.1,2.2,1.1,3.5
			c0,0.8,0,1.6-0.1,2.4c0,1.3-0.5,2.4-1.3,3.3c0.2,1,0.4,1.9,0.7,2.9c0.2,1,0.5,2,0.7,3c0.1-2.5,0.1-5,0.2-7.4
			c0.1-2.7,0.1-5.4,0.2-8.1l0-1.1l1.1,0c0.8,0,1.7,0,2.5-0.1l1.1,0v0l1.1,0c1.2,0,2.5-0.1,3.7-0.1c1.2,0,2.3,0.3,3.3,0.9
			c1,0.6,1.6,1.6,1.9,2.6c0.2,0.7,0.3,1.4,0.3,2.1c0,1.2-0.3,2.3-1.1,3.2c0.2,0.2,0.3,0.4,0.5,0.6c0.3,0.5,0.5,1.1,0.6,1.7
			c0-1.3,0-2.5,0.1-3.8c0-2.1,0-4.2,0.1-6.3l0-1.1l1.1,0c0.8,0,1.6,0,2.4,0l1.2,0l0,1.2c0,2.1-0.1,4.2-0.1,6.2c0,2.1,0,4.2,0,6.2
			l0,0.1l0.2,0.1l0.2-0.1l0.1-0.1c0-2.1,0-4.2,0-6.2c0-2.1,0-4.2,0.1-6.2l0-1.2l1.2,0c0.9,0,1.7,0,2.6,0l2,0c2.6,0,5.2,0.1,7.8,0.2
			l1.1,0v1.1v1.3c0.2-0.4,0.5-0.8,0.9-1.1c1-0.9,2.2-1.4,3.6-1.4c1.4,0.1,2.6,0.6,3.6,1.6c0.7,0.7,1.2,1.5,1.4,2.4
			c0-0.8,0-1.6,0-2.4l0-1.2l1.2,0.1c1.3,0.1,2.7,0.1,4,0.2c1.5,0.1,2.9,0.6,3.9,1.7c0.6,0.7,0.9,1.4,1.1,2.2
			c0.2-1.1,0.8-2.1,1.8-2.8c0.9-0.6,2-0.8,3.1-0.8c1,0.1,2,0.4,2.9,0.9c0.7,0.4,1.2,1,1.6,1.7c0.4,0.7,0.7,1.5,0.8,2.4l0.1,1.2
			l-1.2,0.1c-0.8,0.1-1.6,0.2-2.4,0.2l-1.1,0.1c0.3,0.3,0.6,0.6,1,0.9c0.4,0.4,0.9,0.7,1.3,1.1c0.6,0.6,1.2,1.4,1.7,2.1
			c0.2,0.3,0.3,0.6,0.5,0.9c0.3,0.6,0.5,1.3,0.5,2c0.1,1.3-0.3,2.6-1.1,3.6c-0.6,0.8-1.4,1.2-2.4,1.4c-0.6,0.1-1.2,0.1-1.7,0.1
			c-1.1-0.1-2.2-0.4-3.1-1.1c-0.7-0.5-1.3-1.2-1.6-2c0.1,0.4,0.2,0.7,0.3,1.1l0.5,1.6l-1.7-0.1c-0.9-0.1-1.8-0.1-2.7-0.2l-0.8-0.1
			l-0.2-0.8c-0.3-1-0.6-2.1-0.8-3.1c-0.1-0.2-0.1-0.4-0.2-0.6l0,0.1c0,1,0,2,0,3l0,1.3l-1.3-0.1c-0.8,0-1.7-0.1-2.5-0.1l-1.1,0
			l0-1.1c0-0.9,0-1.8,0-2.7c-0.2,1-0.7,1.8-1.4,2.5c-1,0.9-2.3,1.4-3.7,1.3c-1.4-0.1-2.6-0.6-3.6-1.6c-1-1-1.5-2.2-1.5-3.6
			c0-1.5,0-2.9,0-4.4c0-1.5,0-2.9,0-4.4v-0.1l-0.6,0c-0.5,0-1,0-1.5,0c0,1.9,0,3.8,0,5.6c0,2.3,0,4.6,0,6.9v1.2l-1.2,0
			c-0.8,0-1.7,0-2.5-0.1l-1.1,0v-1.1v-6.9c0-1.9,0-3.8,0-5.7c-0.5,0-1,0-1.5,0l-0.8,0c0,0.9,0,1.8,0,2.6c0,2.1,0,4.2,0,6.2
			c0,1.4-0.5,2.6-1.6,3.6c-1,0.9-2.3,1.4-3.6,1.4c-1.4,0-2.6-0.5-3.7-1.4c-0.8-0.8-1.3-1.8-1.4-2.9c-0.1,0.6-0.3,1.2-0.6,1.7
			c-0.4,0.7-1,1.3-1.8,1.8c-0.8,0.4-1.6,0.7-2.5,0.7c-1.6,0-3.1,0.1-4.7,0.1l-1.2,0v0l-1.1,0c-0.8,0-1.7,0-2.5,0.1l-1.2,0v0l-0.9,0
			c-0.9,0-1.8,0.1-2.7,0.1l-1,0l-0.2-0.9c-0.3-1-0.5-2-0.7-3.1l-0.1-0.6l0,0.5c0,1-0.1,2-0.1,3l0,1.1l-1.1,0c-0.8,0-1.7,0.1-2.5,0.1
			l-1.3,0.1l0-1.3c0.1-2.7,0.2-5.4,0.3-8.1c0-1.5,0.1-2.9,0.2-4.4l-0.7,0c-0.5,0-1.1,0.1-1.6,0.1c-0.1,1.9-0.2,3.9-0.2,5.8
			c-0.1,2.3-0.1,4.6-0.2,6.9l0,1.1l-1.1,0.1c-0.8,0.1-1.7,0.1-2.5,0.2l-1.3,0.1l0.1-1.3c0.1-2.3,0.2-4.6,0.3-6.9
			c0.1-1.9,0.1-3.8,0.2-5.7c-0.5,0-0.9,0.1-1.4,0.1l-0.8,0l0,0.9l-0.9,0.2c-0.8,0.2-1.6,0.4-2.4,0.6l-1.4,0.3l-0.1-1.4
			c0-0.2-0.1-0.6-0.1-0.7h-0.1l-0.2,0.1c-0.1,0.2-0.2,0.4-0.2,0.6c0,0.5,0.3,1,0.6,1.4c0.3,0.3,0.6,0.6,0.9,0.8
			c0.4,0.3,0.9,0.7,1.2,1c0.6,0.6,1.1,1.2,1.6,1.9c0.2,0.3,0.3,0.6,0.4,0.9c0.2,0.6,0.4,1.3,0.4,2c0,1.4-0.5,2.6-1.3,3.7
			c-0.6,0.8-1.4,1.3-2.3,1.7c-0.6,0.2-1.1,0.3-1.7,0.4c-1.1,0.1-2.3-0.1-3.2-0.7c-0.7-0.5-1.3-1.2-1.6-2c-0.2-0.4-0.3-0.8-0.4-1.2
			c-0.1,1.1-0.1,2.1-0.2,3.2l-0.1,1l-1,0.1c-0.8,0.1-1.7,0.2-2.5,0.2l-1.3,0.1l0.1-1.3C97,127.1,97.1,126.3,97.1,125.4 M187.7,122.5
			l0-0.2l-0.1-1.2l1.2,0c0.8,0,1.6,0,2.4,0l0.8,0c-0.5-0.5-1-0.9-1.5-1.4c-0.7-0.7-1.5-1.6-2-2.5c-0.2-0.3-0.3-0.7-0.4-1l0,0.4
			c0,1.2-0.4,2.3-1.2,3.2C187.2,120.7,187.4,121.6,187.7,122.5 M192.8,113.9l-0.1,0.5c0,0.6,0.4,1.1,0.7,1.6l-0.1-1
			c0-0.3-0.2-0.7-0.4-1L192.8,113.9z M192.3,121.3l0.1,0.8c0.1,0.5,0.2,1.1,0.5,1.5l0.2,0.2l0.3-0.2l0-0.4c0-0.5-0.3-1-0.7-1.3
			L192.3,121.3z M106.6,121.5l0.1,1.2c0,0.3,0.1,1,0.4,1.3c0.2,0,0.4-0.2,0.5-0.4l0.1-0.5c0-0.4-0.2-0.8-0.5-1.1
			C107,121.8,106.8,121.6,106.6,121.5 M212.5,129.8L212.5,129.8l-1.3-0.1c-2.3-0.2-4.6-0.4-6.9-0.6l-1-0.1l0-1
			c-0.1-2.7-0.2-5.4-0.3-8.2c-0.1-2.7-0.2-5.4-0.3-8.2l0-1.3l1.3,0.1c0.8,0.1,1.7,0.1,2.5,0.2l1,0.1l0,1c0.1,2.3,0.2,4.6,0.2,6.9
			c0.1,2,0.1,3.9,0.2,5.9c1.1,0.1,2.2,0.2,3.4,0.3l0.6,0.1c0-1-0.1-2.1-0.1-3.1c-0.1-2-0.2-4-0.2-5.9c-0.6-0.1-1.1-0.1-1.6-0.1
			l-1-0.1l0-1c0-0.8-0.1-1.7-0.1-2.5l-0.1-1.3l1.3,0.1c2.6,0.2,5.2,0.5,7.9,0.8l0.7,0.1v0l1.3,0.1c1.3,0.1,2.6,0.3,4,0.4
			c1.4,0.2,2.6,0.8,3.6,1.8c1,1,1.6,2.3,1.6,3.7c0.1,1.4,0.2,2.9,0.2,4.3c0.1,1.4,0.2,2.9,0.2,4.3l0,0.5l0.8,0.1
			c0.9,0.1,1.7,0.2,2.6,0.3l1,0.1l0.1,1c0,0.8,0.1,1.7,0.1,2.5l0.1,1.4l-1.4-0.2c-0.9-0.1-1.7-0.2-2.6-0.3l-1-0.1l-0.1-1
			c0-0.7-0.1-1.3-0.1-2c-0.2,0.4-0.5,0.8-0.9,1.2c-1,0.9-2.3,1.3-3.7,1.1c-1.3-0.2-2.7-0.3-4-0.5l-1-0.1l-0.1-1
			c-0.1-2.7-0.3-5.5-0.4-8.2c-0.1-1.6-0.2-3.1-0.2-4.7l-1-0.1c-0.4,0-0.9-0.1-1.3-0.1c0.1,1.9,0.1,3.7,0.2,5.6
			c0.1,2.3,0.2,4.6,0.3,7l0.1,1.4l-1.4-0.1c-0.8-0.1-1.7-0.2-2.5-0.3L212.5,129.8z M81,126.1l1.3-0.2l-0.1,1.4
			c0,0.8-0.1,1.6-0.2,2.4l-0.1,0.9l-0.9,0.1c-1.1,0.1-2.1-0.1-3-0.6c-0.9,0.8-2.1,1.5-3.3,1.7c-1.7,0.2-3.2-0.3-4.1-1.8
			c-0.6-0.9-0.7-1.9-0.6-3c0.1-1.1,0.4-2.2,0.9-3.2c0.2-0.5,0.6-1,0.9-1.4c0.1-0.2,0.3-0.4,0.4-0.7l-0.2-0.5
			c-0.2-0.4-0.3-0.8-0.4-1.2c-0.1-0.4-0.3-0.9-0.3-1.4c-0.1-0.5-0.1-1,0-1.4c0.1-0.9,0.4-1.8,0.8-2.6c0.5-0.9,1.1-1.6,2-2.1
			c0.7-0.4,1.4-0.7,2.2-0.8c0.9-0.1,1.7,0,2.5,0.4c0.8,0.4,1.4,1,1.7,1.8c0.3,0.7,0.4,1.4,0.3,2.1c-0.1,1.4-0.7,2.6-1.5,3.6
			c-0.2,0.2-0.4,0.5-0.6,0.7l0.5,0.1c0.8,0.1,1.5,0.2,2.3,0.2l1.4,0.1l-0.4,1.4c-0.3,0.9-0.6,1.8-0.9,2.6
			C81.4,125.3,81.2,125.7,81,126.1 M77.9,121.5l-0.3,0.4l0.1,0.3C77.8,121.9,77.8,121.7,77.9,121.5 M75.9,116.6l0.1-0.3L75.9,116.6z
			 M74.7,126.7l0,0.2l0,0.2l0.3-0.1L74.7,126.7z M224.1,126.3c0.2,0,0.4,0,0.6,0.1l0.1,0c-0.1-1.4-0.2-2.9-0.2-4.3
			c-0.1-1.4-0.2-2.9-0.2-4.3l-0.1-0.3l-0.3-0.2l-0.2,0c0.1,1.5,0.1,2.9,0.2,4.4C223.9,123.1,224,124.7,224.1,126.3 M182.6,113.8
			c0,0.4,0,0.9,0,1.3c0,0.5,0,1,0,1.5l0.5,0l0.1,0l0.1-0.1c0-0.8,0-1.6,0-2.4l0-0.3l-0.3-0.1L182.6,113.8z M172.9,113.4l-0.1-0.2
			l-0.2-0.1l-0.2,0.1l-0.1,0.1c0,1.5,0,3,0,4.4c0,1.5,0,2.9,0,4.4l0.1,0.2l0.3,0.1l0.2-0.2c0-1.5,0-3-0.1-4.4
			C173,116.4,172.9,114.9,172.9,113.4 M142.4,122c0.3-0.1,0.4-0.2,0.6-0.5l0.1-0.6c0-0.3,0-0.9-0.2-1.2l-0.4-0.1c0,0.4,0,0.9,0,1.3
			C142.4,121.2,142.4,121.6,142.4,122 M142.5,114.8c0.2,0,0.3-0.1,0.4-0.4l0.1-0.6l-0.1-0.7l-0.2-0.1
			C142.6,113.6,142.6,114.2,142.5,114.8 M127.7,113.5l-0.2,0l-0.4,0c0,0.5,0,1,0,1.5c0,0.5,0,0.9,0,1.4l0.3,0l0.2-0.1l0.1-0.2
			c0-0.8,0-1.6,0.1-2.4L127.7,113.5z M91.9,124.9l0.2,0l0.3-0.2l0.1-0.3c0.1-1.4,0.2-2.9,0.3-4.3c0.1-1.4,0.2-2.9,0.2-4.4l-0.5,0
			c-0.1,1.6-0.2,3.2-0.3,4.8C92,122,92,123.4,91.9,124.9"/>
		<path style="clip-path:url(#SVGID_00000156548172697761802220000005644582524798075834_);fill:#9C4422;" d="M81.4,121.9
			c-0.3,0.9-0.6,1.8-0.9,2.5c-0.3,0.8-0.7,1.5-1.1,2.2c0.6,0.5,1.2,0.7,1.7,0.7c0,0.8-0.1,1.6-0.2,2.3c-1,0.1-2-0.2-3-0.9
			c-1.1,1.2-2.2,1.8-3.3,2c-1.3,0.2-2.4-0.2-3-1.2c-0.4-0.6-0.5-1.4-0.5-2.3c0.1-0.9,0.3-1.8,0.8-2.8c0.1-0.2,0.4-0.6,0.8-1.3
			c0.3-0.4,0.5-0.8,0.8-1.1c-0.2-0.4-0.3-0.8-0.4-1.1c-0.2-0.5-0.4-0.9-0.4-1.1c-0.1-0.4-0.2-0.8-0.3-1.2c-0.1-0.4,0-0.8,0-1.2
			c0.1-0.8,0.3-1.5,0.7-2.1c0.4-0.7,0.9-1.3,1.6-1.7c0.5-0.3,1.1-0.5,1.7-0.6c0.7-0.1,1.3,0,1.8,0.3c0.6,0.3,1,0.7,1.2,1.3
			c0.2,0.5,0.3,1,0.2,1.6c-0.1,1-0.5,2-1.2,3c-0.2,0.3-0.4,0.5-0.6,0.8c-0.6,0.7-1.1,1.4-1.5,2c0.5,1.1,1.1,2.1,1.7,3
			c0.5-1,0.9-2.1,1.1-3.2C79.8,121.7,80.6,121.8,81.4,121.9 M230.2,128.2c0.9,0.1,1.7,0.2,2.6,0.3c0,0.8,0.1,1.7,0.1,2.5
			c-0.9-0.1-1.7-0.2-2.6-0.3C230.2,129.9,230.2,129,230.2,128.2 M228.3,126.5c0.1,1.1-0.3,2-1,2.7c-0.7,0.7-1.7,0.9-2.8,0.8
			c-1.3-0.2-2.7-0.3-4-0.5c-0.1-2.7-0.2-5.5-0.4-8.2c-0.1-2.7-0.3-5.5-0.4-8.2c1.3,0.1,2.6,0.3,4,0.4c1.1,0.1,2.1,0.6,2.9,1.5
			c0.8,0.9,1.3,1.8,1.3,2.9c0.1,1.4,0.2,2.9,0.2,4.3C228.2,123.6,228.2,125.1,228.3,126.5 M222.9,127.3c0.5,0.1,1,0.1,1.5,0.2
			c0.4,0,0.8-0.1,1-0.3c0.3-0.2,0.4-0.6,0.4-1c-0.1-1.4-0.2-2.9-0.2-4.3c-0.1-1.4-0.2-2.9-0.2-4.3c0-0.4-0.2-0.8-0.5-1.1
			c-0.3-0.3-0.6-0.5-1.1-0.5c-0.5-0.1-1-0.1-1.5-0.2c0.1,1.9,0.2,3.8,0.3,5.8C222.7,123.5,222.8,125.4,222.9,127.3 M212.7,114.8
			c-0.9-0.1-1.8-0.2-2.7-0.2c0-0.8-0.1-1.7-0.1-2.5c2.6,0.2,5.2,0.5,7.9,0.8c0,0.8,0.1,1.7,0.1,2.5c-0.9-0.1-1.8-0.2-2.7-0.3
			c0.1,2.3,0.2,4.6,0.3,7c0.1,2.3,0.2,4.6,0.3,7c-0.9-0.1-1.7-0.2-2.5-0.3c-0.1-2.3-0.2-4.6-0.3-6.9
			C212.8,119.4,212.7,117.1,212.7,114.8 M211.2,128.5c-2.3-0.2-4.6-0.4-6.9-0.6c-0.1-2.7-0.2-5.4-0.3-8.2c-0.1-2.7-0.2-5.4-0.3-8.2
			c0.8,0.1,1.7,0.1,2.5,0.2c0.1,2.3,0.2,4.6,0.2,6.9c0.1,2.3,0.1,4.6,0.2,6.9c1.5,0.1,2.9,0.3,4.4,0.4
			C211.2,126.8,211.2,127.7,211.2,128.5 M197.2,123.2c0.1,1.1-0.2,2.1-0.8,2.8c-0.4,0.5-1,0.9-1.7,1c-0.4,0.1-0.9,0.1-1.4,0.1
			c-1-0.1-1.8-0.4-2.5-0.9c-0.6-0.4-1-1-1.3-1.7c-0.3-0.7-0.6-1.5-0.6-2.3c0.8,0,1.6,0,2.4,0c0.1,1,0.4,1.7,0.8,2.1
			c0.3,0.3,0.7,0.5,1,0.5c0.6,0,1-0.2,1.3-0.7c0.2-0.2,0.2-0.6,0.2-1.1c0-0.7-0.3-1.4-1-2.1c-0.5-0.5-1.3-1.2-2.3-2.2
			c-0.8-0.8-1.5-1.6-1.8-2.2c-0.4-0.7-0.6-1.5-0.6-2.3c0-1.5,0.5-2.6,1.4-3.3c0.6-0.4,1.4-0.6,2.3-0.5c0.9,0.1,1.7,0.3,2.3,0.7
			c0.5,0.3,0.9,0.8,1.2,1.4c0.3,0.6,0.5,1.2,0.6,1.9c-0.8,0.1-1.6,0.2-2.4,0.3c-0.1-0.7-0.3-1.2-0.6-1.6c-0.2-0.3-0.6-0.4-1-0.5
			c-0.5,0-0.8,0.1-1,0.5c-0.2,0.3-0.3,0.7-0.3,1.2c0,0.7,0.4,1.5,1,2.3c0.3,0.3,0.6,0.7,1.1,1.1c0.6,0.5,1,0.9,1.2,1.1
			c0.6,0.7,1.1,1.3,1.5,1.9c0.2,0.3,0.3,0.6,0.4,0.8C197,122.2,197.2,122.8,197.2,123.2 M182.9,110.2c1.4,0.1,2.4,0.5,3.1,1.3
			c0.6,0.7,0.9,1.6,0.9,2.8c0,0.8,0,1.6,0,2.4c0,1.2-0.4,2.1-1.3,2.8c0.3,1.2,0.7,2.4,1,3.6c0.3,1.2,0.7,2.4,1,3.6
			c-0.9-0.1-1.8-0.1-2.7-0.2c-0.3-1-0.6-2.1-0.8-3.1c-0.3-1-0.5-2.1-0.8-3.1l-0.2,0c-0.5,0-1-0.1-1.5-0.1c0,1,0,2,0,3c0,1,0,2,0,3.1
			c-0.9,0-1.7-0.1-2.5-0.1c-0.1-2.7-0.1-5.4-0.1-8.1c0-2.7-0.1-5.4-0.1-8.1C180.2,110,181.5,110.1,182.9,110.2 M184.4,114.1
			c0-0.9-0.5-1.4-1.5-1.5c-0.5,0-1-0.1-1.5-0.1c0,0.9,0,1.7,0,2.6c0,0.9,0,1.7,0,2.6c0.5,0,1,0.1,1.5,0.1c0.4,0,0.7-0.1,1-0.4
			c0.3-0.3,0.4-0.6,0.4-1C184.4,115.7,184.4,114.9,184.4,114.1 M172.7,109.5c1.1,0,2,0.5,2.8,1.2c0.8,0.8,1.2,1.7,1.2,2.8
			c0,1.5,0,2.9,0,4.4s0,2.9,0,4.4c0,1.1-0.4,2-1.1,2.7c-0.8,0.7-1.7,1.1-2.8,1c-1.1,0-2.1-0.4-2.9-1.2c-0.8-0.8-1.2-1.7-1.2-2.8
			c0-1.5,0-2.9,0-4.4c0-1.5,0-2.9,0-4.4c0-1.1,0.4-2,1.2-2.7C170.7,109.9,171.7,109.5,172.7,109.5 M174.1,113.4c0-0.4-0.1-0.7-0.4-1
			c-0.3-0.3-0.6-0.4-1-0.4c-0.4,0-0.7,0.1-1,0.4c-0.3,0.3-0.4,0.6-0.4,1c0,1.5,0,2.9,0,4.4c0,1.5,0,2.9,0,4.4c0,0.4,0.1,0.7,0.4,1
			c0.3,0.3,0.6,0.4,1,0.4c0.4,0,0.7-0.1,1-0.4c0.3-0.3,0.4-0.6,0.4-1c0-1.5,0-2.9,0-4.4C174.1,116.4,174.1,114.9,174.1,113.4
			 M161.9,111.9c-0.9,0-1.8,0-2.7,0v-2.4c2.6,0,5.2,0.1,7.8,0.2v2.4c-0.9,0-1.8,0-2.7-0.1c0,2.3,0,4.6,0,6.9c0,2.3,0,4.6,0,6.9
			c-0.8,0-1.7,0-2.5-0.1v-6.9C161.9,116.5,161.9,114.2,161.9,111.9 M153.2,125.7c-1.1,0-2.1-0.4-2.9-1.1c-0.8-0.7-1.1-1.7-1.1-2.7
			c0-2.1,0.1-4.2,0.1-6.3c0-2.1,0.1-4.2,0.1-6.3c0.8,0,1.6,0,2.4,0c0,2.1-0.1,4.2-0.1,6.2c0,2.1,0,4.2,0,6.2c0,0.4,0.1,0.7,0.4,1
			c0.3,0.3,0.6,0.4,1,0.4c0.4,0,0.7-0.1,1-0.4c0.3-0.3,0.4-0.6,0.4-1c0-2.1,0-4.2,0-6.2c0-2.1,0-4.2,0.1-6.2c0.9,0,1.7,0,2.6,0
			c0,2.1,0,4.2,0,6.3c0,2.1,0,4.2-0.1,6.2c0,1.1-0.4,2-1.2,2.7C155.2,125.4,154.2,125.7,153.2,125.7 M138.4,125.7
			c0-2.7,0.1-5.4,0.2-8.1c0.1-2.7,0.1-5.4,0.2-8.1c1.2,0,2.5-0.1,3.7-0.1c1,0,1.9,0.2,2.7,0.7c0.7,0.4,1.1,1.1,1.4,2
			c0.2,0.5,0.2,1.1,0.2,1.7c0,1.1-0.3,2-0.9,2.6c-0.2,0.3-0.5,0.5-0.9,0.6c0.6,0.2,1,0.6,1.4,1.2c0.2,0.4,0.4,0.9,0.5,1.6
			c0.1,0.3,0.1,0.7,0.1,1.1c0,1-0.2,1.9-0.6,2.6c-0.3,0.6-0.8,1-1.3,1.4c-0.6,0.4-1.3,0.6-1.9,0.6
			C141.6,125.6,140,125.7,138.4,125.7 M141.2,123.2c0.3,0,0.7,0,1,0c0.9,0,1.5-0.4,1.8-1.3c0.1-0.3,0.2-0.6,0.2-1
			c0-0.9-0.1-1.6-0.5-2c-0.3-0.4-0.8-0.6-1.4-0.6c-0.4,0-0.7,0-1,0c0,0.8,0,1.6,0,2.4C141.3,121.6,141.2,122.4,141.2,123.2
			 M141.3,116c0.3,0,0.7,0,1.1,0c0.8,0,1.3-0.4,1.6-1.1c0.1-0.3,0.1-0.6,0.1-1c0-0.7-0.1-1.2-0.5-1.5c-0.3-0.3-0.7-0.5-1.2-0.5
			c-0.4,0-0.7,0-1,0C141.4,113.3,141.4,114.7,141.3,116 M136.2,125.8c-0.8,0-1.7,0-2.5,0.1c0.1-2.7,0.1-5.4,0.2-8.1
			c0.1-2.7,0.1-5.4,0.2-8.1c0.8,0,1.7,0,2.5-0.1c-0.1,2.7-0.1,5.4-0.2,8.1C136.3,120.4,136.2,123.1,136.2,125.8 M127.5,109.8
			c1.4-0.1,2.4,0.3,3,1c0.6,0.6,0.8,1.5,0.8,2.7c0,0.8,0,1.6-0.1,2.4c0,1.1-0.5,2.1-1.4,3c0.3,1.2,0.5,2.3,0.8,3.5
			c0.3,1.2,0.6,2.3,0.9,3.5c-0.9,0-1.8,0.1-2.7,0.1c-0.3-1-0.5-2-0.7-3c-0.2-1-0.4-2-0.7-3l-0.2,0c-0.5,0-1,0-1.5,0.1
			c0,1-0.1,2-0.1,3.1c0,1-0.1,2-0.1,3.1c-0.8,0-1.7,0.1-2.5,0.1c0.1-2.7,0.2-5.4,0.3-8.1c0.1-2.7,0.2-5.4,0.3-8.1
			C124.8,109.9,126.1,109.9,127.5,109.8 M128.8,113.7c0-0.9-0.4-1.4-1.4-1.4c-0.5,0-1,0-1.5,0.1c0,0.9,0,1.7-0.1,2.6
			c0,0.9,0,1.7-0.1,2.6c0.5,0,1,0,1.5-0.1c0.4,0,0.7-0.2,1-0.5c0.3-0.3,0.4-0.6,0.5-1C128.8,115.3,128.8,114.5,128.8,113.7
			 M116.3,112.8c-0.9,0-1.8,0.1-2.7,0.1c0-0.8,0.1-1.7,0.1-2.5c2.6-0.1,5.2-0.3,7.8-0.4c0,0.8-0.1,1.6-0.1,2.5
			c-0.9,0-1.8,0.1-2.7,0.1c-0.1,2.3-0.2,4.6-0.3,6.9c-0.1,2.3-0.1,4.6-0.2,6.9c-0.9,0.1-1.7,0.1-2.5,0.2c0.1-2.3,0.2-4.6,0.3-6.9
			C116.1,117.4,116.2,115.1,116.3,112.8 M111.4,122.8c0,1.1-0.4,2.1-1,3c-0.5,0.6-1.1,1-1.8,1.3c-0.4,0.2-0.9,0.2-1.4,0.3
			c-1,0.1-1.8-0.1-2.5-0.5c-0.5-0.3-0.9-0.9-1.2-1.5c-0.3-0.7-0.5-1.4-0.5-2.3c0.8-0.1,1.6-0.2,2.4-0.3c0.1,1,0.3,1.6,0.7,2
			c0.3,0.3,0.6,0.4,1,0.4c0.6-0.1,1-0.4,1.4-0.9c0.2-0.3,0.3-0.6,0.3-1.1c0-0.7-0.3-1.3-0.9-2c-0.5-0.4-1.2-1.1-2.1-1.9
			c-0.8-0.7-1.3-1.4-1.7-2c-0.3-0.7-0.5-1.4-0.4-2.3c0.1-1.5,0.6-2.7,1.7-3.5c0.6-0.5,1.4-0.8,2.4-0.9c0.9-0.1,1.6,0.1,2.3,0.4
			c0.5,0.3,0.8,0.7,1.1,1.2c0.3,0.5,0.5,1.1,0.5,1.9c-0.8,0.2-1.6,0.4-2.4,0.6c0-0.7-0.2-1.2-0.5-1.5c-0.2-0.3-0.6-0.4-1-0.3
			c-0.5,0-0.8,0.3-1.1,0.7c-0.2,0.3-0.3,0.7-0.4,1.2c0,0.7,0.3,1.5,0.9,2.2c0.2,0.3,0.6,0.6,1.1,1c0.6,0.4,0.9,0.7,1.1,0.9
			c0.6,0.6,1,1.1,1.4,1.7c0.2,0.3,0.3,0.5,0.4,0.7C111.4,121.9,111.4,122.4,111.4,122.8 M100.7,127.7c-0.9,0.1-1.7,0.2-2.5,0.2
			c0.1-2.7,0.3-5.5,0.4-8.2c0.1-2.7,0.3-5.5,0.5-8.2c0.8-0.1,1.7-0.1,2.5-0.2c-0.1,2.7-0.3,5.5-0.4,8.2
			C101,122.2,100.9,125,100.7,127.7 M96.1,124.2c-0.1,1.1-0.5,2.1-1.3,2.9c-0.8,0.8-1.8,1.3-2.9,1.4c-1.4,0.1-2.7,0.3-4,0.4
			c0.2-2.8,0.3-5.5,0.5-8.3c0.2-2.8,0.4-5.5,0.5-8.3c1.3-0.1,2.6-0.3,4-0.4c1.1-0.1,2,0.2,2.7,0.9c0.7,0.7,1,1.6,1,2.7
			c-0.1,1.4-0.1,2.9-0.2,4.3C96.3,121.3,96.2,122.8,96.1,124.2 M90.6,126.2c0.5-0.1,1-0.1,1.5-0.2c0.4,0,0.8-0.2,1.1-0.5
			c0.3-0.3,0.4-0.7,0.5-1c0.1-1.4,0.2-2.9,0.3-4.3c0.1-1.4,0.2-2.9,0.3-4.3c0-0.4-0.1-0.7-0.4-1c-0.3-0.3-0.6-0.4-1-0.3
			c-0.5,0-1,0.1-1.5,0.1c-0.1,1.9-0.2,3.9-0.3,5.8C90.8,122.4,90.7,124.3,90.6,126.2 M74.7,117c0,0.5,0.1,1.3,0.5,2.5l0.4-0.4
			l0.4-0.5c0.2-0.3,0.4-0.5,0.6-0.8c0.4-0.6,0.7-1.1,0.7-1.5c0-0.3,0-0.6-0.1-0.7c-0.2-0.5-0.5-0.8-1-0.7c-0.4,0.1-0.8,0.3-1.1,0.8
			C74.8,116,74.7,116.5,74.7,117 M74.7,128.3c0.5-0.1,1.1-0.5,1.7-1.2c-0.6-0.8-1.2-1.8-1.9-3c-0.2,0.3-0.4,0.6-0.5,0.9
			c-0.3,0.7-0.5,1.2-0.5,1.8c0,0.5,0,0.8,0.2,1.1C73.9,128.2,74.2,128.4,74.7,128.3"/>
	</g>
</g>
</svg>
