<?xml version="1.0" encoding="utf-8"?>
<!-- Generator: Adobe Illustrator 26.3.1, SVG Export Plug-In . SVG Version: 6.00 Build 0)  -->
<svg version="1.1" id="Layer_1" xmlns="http://www.w3.org/2000/svg" xmlns:xlink="http://www.w3.org/1999/xlink" x="0px" y="0px"
	 viewBox="0 0 400 110" style="enable-background:new 0 0 400 110;" xml:space="preserve">
<style type="text/css">
	.st0{clip-path:url(#SVGID_00000026860570401863944200000003945699411167172789_);fill:#00529B;}
	.st1{fill:#00529B;}
	.st2{clip-path:url(#SVGID_00000001641746181731755890000003811906502537245062_);fill:#00529B;}
	.st3{clip-path:url(#SVGID_00000053542547252608514960000008954532555030682559_);fill:#00529B;}
	.st4{clip-path:url(#SVGID_00000053542547252608514960000008954532555030682559_);fill:#0099D8;}
	.st5{clip-path:url(#SVGID_00000053542547252608514960000008954532555030682559_);fill:#F47937;}
	.st6{clip-path:url(#SVGID_00000053542547252608514960000008954532555030682559_);fill:#009D57;}
</style>
<g>
	<g>
		<defs>
			<rect id="SVGID_1_" x="1.5" y="1.9" width="395.5" height="107.1"/>
		</defs>
		<clipPath id="SVGID_00000168810031577001542960000017931571202511103130_">
			<use xlink:href="#SVGID_1_"  style="overflow:visible;"/>
		</clipPath>
		<path style="clip-path:url(#SVGID_00000168810031577001542960000017931571202511103130_);fill:#00529B;" d="M103,61.2h9.1
			c3.6,0,4.9,1.2,4.9,4.2c0,2.9-1.4,4.1-4.9,4.1H103V61.2z M88.9,91.8H103V79.4h15.2c10.1,0,13.7-5.9,13.7-13.6
			c0-8.9-3.7-13.9-13.8-13.9H88.9V91.8z"/>
	</g>
	<polygon class="st1" points="136.6,51.9 174.7,51.9 174.7,61.6 150.8,61.6 150.8,67 173,67 173,76.7 150.8,76.7 150.8,82 174.7,82 
		174.7,91.8 136.6,91.8 	"/>
	<g>
		<defs>
			<rect id="SVGID_00000032648971350668643580000012494328280559406265_" x="1.5" y="1.9" width="395.5" height="107.1"/>
		</defs>
		<clipPath id="SVGID_00000107584153527145397790000012135355361933398463_">
			<use xlink:href="#SVGID_00000032648971350668643580000012494328280559406265_"  style="overflow:visible;"/>
		</clipPath>
		<path style="clip-path:url(#SVGID_00000107584153527145397790000012135355361933398463_);fill:#00529B;" d="M194.9,61.2h9.2
			c3.6,0,4.9,1.2,4.9,4.2c0,2.9-1.4,4.1-4.9,4.1h-9.2V61.2z M180.7,91.8h14.2V79.4H210c10.1,0,13.7-5.9,13.7-13.6
			c0-8.9-3.7-13.9-13.8-13.9h-29.3V91.8z"/>
		<path style="clip-path:url(#SVGID_00000107584153527145397790000012135355361933398463_);fill:#00529B;" d="M237.4,74.8
			c-6.9-1.2-9.8-5.6-9.8-11.2c0-10.3,9.1-13.1,20.8-13.1c16,0,22.6,4.6,23.1,13.1H255c0-1.6-0.9-2.6-2.2-3.2
			c-1.3-0.6-2.9-0.8-4.4-0.8c-4.2,0-5.7,1.2-5.7,2.8c0,1.1,0.5,1.8,1.9,2.1l16.9,2.8c7.1,1.2,11.6,4.9,11.6,11.6
			c0,9.7-7.1,14.3-23.1,14.3c-10.9,0-22.8-1.7-22.9-13.4h17.1c0,1.3,0.5,2.2,1.5,2.8c1.1,0.6,2.6,0.8,4.8,0.8c4.4,0,5.6-1.3,5.6-3.2
			c0-1.2-0.7-2.3-2.6-2.7L237.4,74.8z"/>
	</g>
	<rect x="277.7" y="51.9" class="st1" width="14.2" height="39.9"/>
	<g>
		<defs>
			<rect id="SVGID_00000103971186530286002070000004098457666016397727_" x="1.5" y="1.9" width="395.5" height="107.1"/>
		</defs>
		<clipPath id="SVGID_00000049910999072353222160000007131081133606257598_">
			<use xlink:href="#SVGID_00000103971186530286002070000004098457666016397727_"  style="overflow:visible;"/>
		</clipPath>
		<path style="clip-path:url(#SVGID_00000049910999072353222160000007131081133606257598_);fill:#00529B;" d="M344.5,76.2
			c-0.9,5.3-2.5,9.5-6,12.4c-3.5,2.9-8.9,4.5-17.6,4.5c-8.6,0-24.5-0.7-24.5-21.3c0-20.7,15.9-21.3,24.5-21.3
			c8.5,0,21.7,1.2,23.6,17h-16c-0.4-2.8-2.1-7-7.6-7c-5.8,0-9.5,3.2-9.5,11.3c0,8.1,3.6,11.3,8.7,11.3c4.5,0,7.1-2.1,8.3-6.9H344.5z
			"/>
		<path style="clip-path:url(#SVGID_00000049910999072353222160000007131081133606257598_);fill:#00529B;" d="M363,71.8
			c0-8.1,3.7-11.3,9.5-11.3c5.8,0,9.5,3.2,9.5,11.3c0,8.1-3.7,11.3-9.5,11.3C366.7,83.1,363,79.9,363,71.8 M347.9,71.8
			c0,20.7,15.9,21.3,24.5,21.3c8.6,0,24.5-0.7,24.5-21.3c0-20.7-15.9-21.3-24.5-21.3C363.9,50.5,347.9,51.1,347.9,71.8"/>
		<path style="clip-path:url(#SVGID_00000049910999072353222160000007131081133606257598_);fill:#00529B;" d="M67.4,52.3
			c0.9-19.1-15.6-40.7-38.1-43.4l0-0.3c22.2,0,39.2,20.5,39.2,36.7c0,3.4-0.3,5.5-0.8,7L67.4,52.3z M66.1,54.7
			c-1.5,1.8-3.3,3.6-5.5,5.3c-4-23-20.9-43.1-32.9-49l-0.3,0.2c12,9.9,26.4,29,32,49.7c-2.7,2-5.8,3.8-9.2,5.2
			C38.9,53.2,28.3,28.3,24.9,12.5l-0.3,0.1c0.1,15.4,11,41.5,24.3,54.2c-3,1.2-6.1,2.1-9.5,2.6c-12.8-5-21.8-21.2-21.8-37.8
			c0-10.8,3.3-17.5,3.9-18.9l-0.3-0.1c-0.8,1.2-5.6,7.9-5.6,19.5c0,18.7,9.2,33.1,21.5,37.6c-4.2,0.5-8.6,0.3-13.2-0.6l-0.1,0.3
			c1.3,0.5,5.8,2.4,12.6,2.4c15.4,0,25.8-9.5,30-16.8L66.1,54.7z"/>
		<path style="clip-path:url(#SVGID_00000049910999072353222160000007131081133606257598_);fill:#0099D8;" d="M34.9,1.9
			C23.3,1.9,9.6,10.3,9.6,18c0,3,2.7,5.5,8.3,5.5c13.1,0,25.2-9,25.2-16C43.2,3.8,39.6,1.9,34.9,1.9 M39.6,7.3
			c0,5.9-11.3,13.1-20.8,13.1c-4.2,0-6.4-1.6-6.4-4.4c0-6,11.4-13,20.3-13C38.5,3,39.6,5.9,39.6,7.3"/>
		<path style="clip-path:url(#SVGID_00000049910999072353222160000007131081133606257598_);fill:#F47937;" d="M4.9,21.5
			c-0.3,0.6-1.6,3.1-1.6,5.8c0,4.9,4.9,9.4,14,9.4c17.5,0,37.6-12.8,37.6-24.8c0-5.4-5.1-8.3-8.6-8.9l-0.1,0.2
			c1.1,0.3,5.1,2.2,5.1,7c0,9.5-17.8,22.4-35.5,22.4c-6.8,0-11.1-3.3-11.1-8.2c0-1.5,0.3-2.6,0.4-2.9L4.9,21.5z"/>
		<path style="clip-path:url(#SVGID_00000049910999072353222160000007131081133606257598_);fill:#009D57;" d="M62.1,12.8
			c0.5,0.4,3.4,2.8,3.4,7.3c0,15.4-24.2,30.6-45.6,30.6c-12.8,0-18.6-6.3-18.3-11.9h0.2C2.3,41.8,6.4,47,17.6,47
			C39,47,62.9,31.2,62.9,17.5c0-2.4-0.6-3.8-1-4.5L62.1,12.8z"/>
		<path style="clip-path:url(#SVGID_00000049910999072353222160000007131081133606257598_);fill:#00529B;" d="M312.4,103.2
			c-0.6-0.5-1.2-1-2-1c-1,0-1.9,0.8-1.9,1.8c0,1,0.9,1.8,1.9,1.8c0.8,0,1.4-0.3,2-0.9l-0.1,3.5c-0.6,0.3-1.8,0.4-2.4,0.4
			c-2.7,0-4.8-2.1-4.8-4.8c0-2.8,2.2-5,4.9-5c0.8,0,1.6,0.1,2.3,0.4L312.4,103.2z"/>
		<path style="clip-path:url(#SVGID_00000049910999072353222160000007131081133606257598_);fill:#00529B;" d="M325,105.4l-0.4-1.7
			c-0.1-0.4-0.2-0.8-0.2-1.2h-0.1l-0.6,2.9H325z M322.7,108.8h-3.6l3.3-9.5h3.8l3.4,9.5h-3.6l-0.3-1.2H323L322.7,108.8z"/>
		<path style="clip-path:url(#SVGID_00000049910999072353222160000007131081133606257598_);fill:#00529B;" d="M336.5,99.4h3.3
			l3.1,5.2h0.1c-0.1-0.8-0.3-1.6-0.3-2.4v-2.8h3.3v9.5h-3.3l-3-5h-0.1c0.1,0.7,0.2,1.3,0.2,1.9v3.1h-3.3V99.4z"/>
		<path style="clip-path:url(#SVGID_00000049910999072353222160000007131081133606257598_);fill:#00529B;" d="M358.7,105.4l-0.4-1.7
			c-0.1-0.4-0.2-0.8-0.2-1.2H358l-0.6,2.9H358.7z M356.5,108.8h-3.6l3.3-9.5h3.8l3.4,9.5h-3.6l-0.3-1.2h-2.6L356.5,108.8z"/>
		<path style="clip-path:url(#SVGID_00000049910999072353222160000007131081133606257598_);fill:#00529B;" d="M373.7,106h0.2
			c1.1,0,2-0.5,2-1.8c0-1.3-0.8-1.9-2-1.9h-0.2V106z M370.3,99.4h3.5c3.2,0,5.6,1.4,5.6,4.9c0,2.8-2,4.6-4.7,4.6h-4.3V99.4z"/>
		<path style="clip-path:url(#SVGID_00000049910999072353222160000007131081133606257598_);fill:#00529B;" d="M392,105.4l-0.4-1.7
			c-0.1-0.4-0.2-0.8-0.2-1.2h-0.1l-0.6,2.9H392z M389.7,108.8h-3.6l3.3-9.5h3.8l3.4,9.5h-3.6l-0.3-1.2H390L389.7,108.8z"/>
	</g>
</g>
</svg>
