<?xml version="1.0" encoding="utf-8"?>
<!-- Generator: Adobe Illustrator 26.3.1, SVG Export Plug-In . SVG Version: 6.00 Build 0)  -->
<svg version="1.1" id="Layer_1" xmlns="http://www.w3.org/2000/svg" xmlns:xlink="http://www.w3.org/1999/xlink" x="0px" y="0px"
	 viewBox="0 0 480 85" style="enable-background:new 0 0 480 85;" xml:space="preserve">
<style type="text/css">
	.st0{fill:#7A303F;}
</style>
<g>
	<polygon class="st0" points="87,0.3 83.7,7.2 56.7,7.2 60,0.3 	"/>
	<polygon class="st0" points="47.5,7.2 10.8,7.2 7.5,0.3 50.8,0.3 	"/>
	<polygon class="st0" points="3.5,11.9 2.5,9.6 82.6,9.6 79.3,16.6 52.4,16.6 54.6,11.9 45.3,11.9 43.2,16.6 15.2,16.6 12.9,11.9 	
		"/>
	<polygon class="st0" points="17.4,21.2 7.9,21.2 6.8,19 78.2,19 74.9,25.9 47.9,25.9 50.2,21.2 41,21.2 38.7,25.9 19.5,25.9 	"/>
	<polygon class="st0" points="21.7,30.6 12.3,30.6 11.3,28.3 73.8,28.3 70.5,35.3 43.5,35.3 45.8,30.6 36.6,30.6 34.3,35.3 24,35.3 
			"/>
	<polygon class="st0" points="69.4,37.7 66.1,44.6 39.2,44.6 41.4,39.9 32.1,39.9 29.1,46.3 26.1,39.9 16.7,39.9 15.6,37.7 	"/>
	<polygon class="st0" points="61.7,54 34.7,54 37,49.3 21.2,49.3 20,47 65,47 	"/>
	<polygon class="st0" points="34.9,58.6 25.5,58.6 24.4,56.4 60.6,56.4 57.3,63.3 37.2,63.3 	"/>
	<polygon class="st0" points="39.4,68 30,68 28.8,65.7 56.2,65.7 52.9,72.7 41.6,72.7 	"/>
	<polygon class="st0" points="43.7,77.3 34.3,77.3 33.3,75.1 51.7,75.1 47.2,84.7 	"/>
</g>
<g>
	<path class="st0" d="M126.1,51.2h-13.4l-5.5-35.7H121l2.2,19.3l0.4,3.5l2-3.4l11.3-19.5h10.8L126.1,51.2z"/>
	<path class="st0" d="M154.3,51.2h-13.2l8.3-35.7h13.2L154.3,51.2z"/>
	<path class="st0" d="M197.6,38.2c-2.7,8.2-11.2,13.5-21,13.5c-12.9,0-17.8-7.8-15.4-17.9C163.5,23.5,171.5,15,185,15
		c10.9,0,15.9,5.4,14.7,14.3l-12.4,0.5c0.8-3,0.3-6.8-4.1-6.8c-5.8,0-7.8,7.4-8.6,10.8c-0.8,3.6-2,9.7,3.9,9.7c4.1,0,6.3-3,7.2-5.9
		L197.6,38.2z"/>
	<path class="st0" d="M216.8,51.2h-12.5l6.3-27.1h-9l2-8.6H234l-2,8.6h-8.8L216.8,51.2z"/>
	<path class="st0" d="M271,33.4c-2.4,10.1-11.8,18.3-24.7,18.3c-13,0-18.6-8.1-16.2-18.3c2.5-10.7,11.7-18.5,24.8-18.5
		C267.9,15,273.5,22.8,271,33.4z M244.1,33.5c-0.8,3.4-1.9,10,4.1,10c6,0,8-6.6,8.8-10c0.8-3.5,1.8-10.5-4-10.5
		C247.1,23,244.9,30,244.1,33.5z"/>
	<path class="st0" d="M293,51.2L290,37.6h-4.1l-3.2,13.6h-13.3l8.3-35.7h21.8c3.7,0,7.8,0.4,10.5,2.2c3.1,1.9,4.1,5,3.3,8.5
		c-1.1,4.7-4.2,7.5-9.8,9.4l4.1,15.6H293z M292.4,29.9c2.9,0,6.4-0.4,7.1-3.4c0.3-1.2-0.2-2.3-1.4-2.9c-1-0.5-2.4-0.5-3.6-0.5h-5.3
		l-1.6,6.8H292.4z"/>
	<path class="st0" d="M323.6,51.2h-13.2l8.3-35.7h13.2L323.6,51.2z"/>
	<path class="st0" d="M351.8,44.2h-11.4l-4.3,7h-10.7l21.6-35.7h13.9l5.1,35.7h-13.4L351.8,44.2z M351.4,36.4L350.3,26l-5.9,10.4
		H351.4z"/>
	<path class="st0" d="M369.9,50.3c3-0.5,4-0.7,5-4l7.6-24c0.4-1.1,0.7-2.4,0.7-3.4c0-1.9-1.7-2.1-4.3-2.3v-0.9h15.3v0.9
		c-3,0.5-4,0.6-5.1,4l-7.6,24c-0.4,1.1-0.7,2.2-0.7,3.5c0,1.7,1.5,1.9,4.2,2.2v0.9h-15.1V50.3z"/>
	<path class="st0" d="M435.9,16.7c-4,0.8-4.3,1.5-6.4,8.1L420.6,52h-1.1l-14.1-29.5h-0.2l-6.9,22.6c-0.4,1.4-0.6,2.4-0.6,2.8
		c0,2.2,2.5,2.3,4.3,2.4v0.9h-12.2v-0.9c3.4-0.4,4.1-1,6.4-8l7.4-22.6c-1-2-2.3-2.9-5.3-3v-0.9h9.9l12.7,26.8h0.2l6.2-20.4
		c0.2-0.8,0.7-1.8,0.7-2.7c0-2.1-0.9-2.7-4.3-2.9v-0.9h12.3V16.7z"/>
	<path class="st0" d="M477.1,16.7c-4,0.8-4.3,1.5-6.4,8.1L461.8,52h-1.1l-14.1-29.5h-0.2l-6.9,22.6c-0.4,1.4-0.6,2.4-0.6,2.8
		c0,2.2,2.5,2.3,4.3,2.4v0.9H431v-0.9c3.4-0.4,4.1-1,6.4-8l7.4-22.6c-1.1-2-2.3-2.9-5.3-3v-0.9h9.9l12.7,26.8h0.2l6.2-20.4
		c0.2-0.8,0.7-1.8,0.7-2.7c0-2.1-0.9-2.7-4.3-2.9v-0.9h12.3V16.7z"/>
</g>
<g>
	<path class="st0" d="M122.6,63.7c-0.7-0.6-1.7-0.2-1.7-0.8c0-0.2,0.2-0.4,0.5-0.4c0.4,0,1.2,0.2,2.5,0.2c1.6,0,2.5-0.2,2.8-0.2
		c0.2,0,0.4,0.1,0.4,0.4c0,0.5-0.6,0.3-1.1,0.8c-0.5,0.4-0.5,1-0.5,1.8c0,0.1,0,0.1,0,0.2v2.2c0,0.4,0.2,0.6,0.6,0.6h5.5
		c0.4,0,0.6-0.2,0.6-0.6v-2c0-1,0-1.5-0.5-2c-0.7-0.6-1.7-0.2-1.7-0.8c0-0.2,0.2-0.4,0.5-0.4c0.4,0,1.2,0.2,2.5,0.2
		c1.6,0,2.5-0.2,2.8-0.2c0.2,0,0.4,0.1,0.4,0.4c0,0.5-0.6,0.3-1.1,0.8c-0.5,0.5-0.5,1-0.5,1.9v7.8c0,1,0.3,1.6,0.9,2
		c0.5,0.2,1.2,0.1,1.2,0.6c0,0.3-0.2,0.4-0.5,0.4c-0.4,0-1.3-0.2-2.5-0.2c-1.3,0-2.2,0.2-2.7,0.2c-0.3,0-0.5-0.1-0.5-0.4
		c0-0.4,0.4-0.5,0.9-0.8c0.5-0.4,0.8-0.9,0.8-1.8v-3.4c0-0.4-0.2-0.6-0.6-0.6h-5.5c-0.4,0-0.6,0.2-0.6,0.6v3.3c0,1,0.3,1.7,1,2
		c0.6,0.2,1.3,0.1,1.3,0.6c0,0.3-0.2,0.4-0.5,0.4c-0.5,0-1.5-0.2-2.7-0.2c-1.3,0-2.2,0.2-2.7,0.2c-0.3,0-0.5-0.1-0.5-0.4
		c0-0.4,0.4-0.5,0.9-0.8c0.5-0.4,0.8-0.9,0.8-1.8v-7.6C123.2,64.7,123.1,64.1,122.6,63.7z"/>
	<path class="st0" d="M145.7,62.2c4.2,0,7.1,3,7.1,7c0,4.1-3.1,7.3-7.6,7.3c-4.1,0-7-3-7-7C138.2,65.4,141.3,62.2,145.7,62.2z
		 M145.8,75.6c2.7,0,4.6-1.9,4.6-5.3c0-4.3-2.2-7.2-5.1-7.2c-2.8,0-4.5,1.9-4.5,5.5C140.7,72.7,142.7,75.6,145.8,75.6z"/>
	<path class="st0" d="M158.6,63.6c-1.6,0-2.5,0.1-2.9,1c-0.5,1.1-0.3,1.6-0.9,1.6c-0.2,0-0.3-0.1-0.3-0.4c0-0.2,0.2-1.1,0.3-2.6
		c0-0.6,0.1-0.8,0.6-0.8c0.5,0,1.6,0.1,3.2,0.1h4.6c1.7,0,2.8-0.1,3.4-0.1c0.5,0,0.7,0,0.7,0.6l0.2,2c0,0,0,0.1,0,0.2
		c0,0.4,0,0.4-0.3,0.4c-0.5,0-0.4-0.4-0.7-1.1c-0.4-0.8-1.1-0.9-2.7-0.9c-0.1,0-0.1,0-0.2,0c-1.2,0-1.5,0-1.5,0.9v8.7
		c0,1,0.3,1.6,1.1,2c0.6,0.3,1.3,0.1,1.3,0.6c0,0.3-0.2,0.4-0.5,0.4c-0.5,0-1.4-0.2-2.8-0.2c-1.4,0-2.5,0.2-3.1,0.2
		c-0.4,0-0.5-0.2-0.5-0.4c0-0.5,0.5-0.4,1.2-0.6c0.8-0.3,1.1-0.9,1.1-1.9v-8.8C159.9,63.7,159.8,63.6,158.6,63.6z"/>
	<path class="st0" d="M170.5,63.7c-0.7-0.6-1.7-0.2-1.7-0.8c0-0.3,0.2-0.4,0.5-0.4c0.2,0,1.3,0.2,3.4,0.2c2.8,0,4.7-0.2,5.5-0.2
		c0.7,0,0.8,0.1,0.8,0.7c0,0,0,0.2,0,0.4c0,1,0,1.5,0,1.7c0,0.3,0,0.4-0.3,0.4c-0.5,0-0.2-0.5-0.5-1.1c-0.4-0.8-1.3-1.1-3.3-1.1
		c-1.2,0-1.6,0.3-1.6,1.1v3c0,0.6,0.2,0.8,0.8,0.8h0.6c0.8,0,1.3-0.2,1.7-0.7c0.4-0.5,0.4-1.1,0.8-1.1c0.2,0,0.3,0.1,0.3,0.4
		c0,0.1-0.1,0.6-0.1,1.5c0,1.5,0.2,2.3,0.2,2.5c0,0.3-0.1,0.4-0.3,0.4c-0.5,0-0.3-0.5-0.5-1.1c-0.3-0.8-0.8-1-2-1h-0.8
		c-0.7,0-0.8,0.3-0.8,1.1v3c0,1.4,0.1,1.8,1.6,1.8c1.3,0,2.7-0.4,3.5-1.1c0.8-0.7,0.8-1.4,1.2-1.4c0.2,0,0.3,0.2,0.3,0.4
		c0,0.4-0.3,1.4-0.8,2.1c-0.5,0.8-1.4,1.1-2.6,1.1c-0.9,0-2.2-0.2-3.6-0.2c-1.7,0-2.7,0.2-3.1,0.2c-0.3,0-0.5-0.1-0.5-0.4
		c0-0.4,0.4-0.5,0.9-0.8c0.5-0.4,0.8-0.9,0.8-1.8v-7.6C171.1,64.7,171,64.1,170.5,63.7z"/>
	<path class="st0" d="M183,63.7c-0.7-0.6-1.7-0.2-1.7-0.8c0-0.2,0.2-0.4,0.5-0.4c0.4,0,1.2,0.2,2.5,0.2c1.6,0,2.5-0.2,2.8-0.2
		c0.2,0,0.4,0.1,0.4,0.4c0,0.5-0.6,0.3-1.1,0.8c-0.5,0.5-0.5,1-0.5,1.9v7.9c0,1.3,0,1.8,1.5,1.8c1.3,0,2.7-0.4,3.5-1.1
		c0.8-0.7,0.8-1.4,1.2-1.4c0.2,0,0.3,0.2,0.3,0.4c0,0.4-0.3,1.4-0.8,2.1c-0.5,0.8-1.4,1.1-2.6,1.1c-0.9,0-2.1-0.2-3.6-0.2
		c-1.7,0-2.7,0.2-3.1,0.2c-0.3,0-0.5-0.1-0.5-0.4c0-0.4,0.4-0.5,0.9-0.8c0.5-0.4,0.8-0.9,0.8-1.8v-7.6
		C183.5,64.7,183.5,64.1,183,63.7z"/>
	<path class="st0" d="M206.3,76.4c-3.6,0-5.9-2.1-5.9-4.7c0-1.9,1.2-3.7,3-4.4c-0.3-0.6-0.4-1.2-0.4-1.9c0-1.8,1.3-3.1,3.1-3.1
		c1.4,0,2.3,0.7,2.9,0.7c0.3,0,0.5-0.2,0.6-0.2c0.1,0,0.2,0.1,0.2,0.3c0,0.2,0,0.4,0,0.6c0,1.5,0.3,2.3,0.3,2.5
		c0,0.2-0.1,0.3-0.3,0.3c-0.4,0-0.2-0.4-0.6-1.3c-0.6-1.3-1.8-2.1-2.9-2.1c-0.8,0-1.4,0.6-1.4,1.3c0,1.8,2.2,4.9,6.9,8.4
		c0.5-0.6,0.7-1.2,0.7-2c0-1-0.3-1.5-0.9-1.7c-0.8-0.2-1.3-0.1-1.3-0.5c0-0.2,0.2-0.3,0.6-0.3c0.7,0,1.3,0.1,1.9,0.1
		c0.5,0,1-0.1,1.5-0.1c0.3,0,0.3,0,0.3,0.3c0,0.5-0.7,0.1-0.8,1c-0.1,0.9-0.1,2.1-1.3,3.6c1.3,1.1,2.1,1.7,2.8,1.7
		c0.4,0,0.6-0.2,0.9-0.2c0.2,0,0.3,0.1,0.3,0.3c0,0.5-1.1,1.3-2.4,1.3c-0.9,0-1.8-0.6-3-1.5C209.7,75.9,208,76.4,206.3,76.4z
		 M205.5,70.2c-1.2-1.4-1.5-2.3-1.9-2.3c-0.5,0-1.4,0.7-1.4,2c0,1.1,0.6,2.4,1.8,3.5c1.2,1.2,2.6,1.8,3.9,1.8c0.9,0,1.7-0.2,2.4-0.8
		C208.4,73,206.7,71.7,205.5,70.2z"/>
	<path class="st0" d="M225.6,64.5c1.3-1.5,3-2.3,5-2.3c2.5,0,4,1.2,4.3,1.2c0.4,0,0.3-0.6,0.7-0.6c0.4,0,0.3,0.3,0.4,0.9
		c0.1,1.8,0.3,2.9,0.3,3.2c0,0.3-0.1,0.4-0.3,0.4c-0.4,0-0.4-0.5-1.2-1.7c-1.1-1.6-2.8-2.5-4.5-2.5c-2.3,0-4.1,2.1-4.1,5.6
		c0,1.4,0.4,2.9,1.1,4c1,1.6,2.3,2.5,4,2.5c1.3,0,2.6-0.5,3.7-1.5c0.6-0.5,0.8-1.1,1.2-1.1c0.2,0,0.3,0.1,0.3,0.3
		c0,0.3-0.4,1-1.3,1.8c-1.3,1.3-3,1.9-4.9,1.9c-3.8,0-6.4-2.8-6.4-6.8C223.7,67.8,224.4,65.9,225.6,64.5z"/>
	<path class="st0" d="M246.2,62.2c4.2,0,7.1,3,7.1,7c0,4.1-3.1,7.3-7.6,7.3c-4.1,0-7-3-7-7C238.7,65.4,241.8,62.2,246.2,62.2z
		 M246.2,75.6c2.7,0,4.6-1.9,4.6-5.3c0-4.3-2.2-7.2-5.1-7.2c-2.8,0-4.5,1.9-4.5,5.5C241.2,72.7,243.2,75.6,246.2,75.6z"/>
	<path class="st0" d="M257.1,66.1c0-1.2-0.2-2-0.6-2.4c-0.8-0.8-1.5-0.2-1.5-0.9c0-0.3,0.1-0.4,0.4-0.4c0.4,0,0.7,0.1,1.2,0.1
		c0.6,0,1.2-0.1,1.7-0.1c0.5,0,0.7,0.2,1.2,0.8l6.7,8.1c0.4,0.4,0.6,0.6,0.8,0.6c0.2,0,0.3-0.3,0.3-0.9v-5c0-1.2-0.1-2-0.8-2.4
		c-0.9-0.6-1.7-0.3-1.7-0.8c0-0.2,0.1-0.4,0.4-0.4c0.5,0,1.1,0.1,1.9,0.1c1.1,0,1.9-0.2,2.4-0.2c0.3,0,0.4,0.1,0.4,0.4
		c0,0.5-0.5,0.3-1,0.7c-0.6,0.5-0.6,1.1-0.7,2.2l-0.1,9.9c0,0.5-0.1,0.8-0.3,0.8c-0.4,0-0.6-0.4-1.1-0.9l-8-9.5
		c-0.2-0.2-0.4-0.4-0.5-0.4c-0.2,0-0.2,0.3-0.2,0.8V71c0,2,0,3.3,0.6,4c0.6,0.6,1.7,0.2,1.7,0.9c0,0.4-0.1,0.4-0.5,0.4
		c-0.3,0-1-0.2-2-0.2c-1.1,0-1.9,0.2-2.2,0.2c-0.3,0-0.4-0.2-0.4-0.5c0-0.4,0.8-0.3,1.3-0.8c0.4-0.4,0.6-1.8,0.6-4V66.1z"/>
	<path class="st0" d="M273.3,64.6c-0.3-0.6-0.5-1-1.1-1.2c-0.5-0.2-0.9-0.2-0.9-0.6c0-0.3,0.1-0.4,0.4-0.4c0.5,0,1.4,0.2,2.8,0.2
		c1.4,0,2.2-0.2,2.4-0.2c0.2,0,0.4,0.2,0.4,0.4c0,0.3-0.3,0.4-0.7,0.6c-0.5,0.2-0.7,0.5-0.7,1.1c0,0.4,0.1,0.7,0.3,1.1l2.9,6.9
		c0.1,0.3,0.2,0.4,0.3,0.4c0.1,0,0.2-0.1,0.3-0.3l2.8-6.3c0.3-0.6,0.4-1.2,0.4-1.5c0-0.7-0.4-1.2-1.1-1.4c-0.5-0.1-1-0.1-1-0.5
		c0-0.3,0.1-0.4,0.4-0.4c0.5,0,1.3,0.2,2.3,0.2c0.8,0,1.4-0.2,1.6-0.2c0.3,0,0.4,0.1,0.4,0.3c0,0.4-0.2,0.4-0.6,0.6
		c-0.2,0.1-0.4,0.5-0.8,1.2L279,76.3c-0.1,0.2-0.1,0.3-0.3,0.3c-0.2,0-0.3-0.1-0.4-0.3L273.3,64.6z"/>
	<path class="st0" d="M288.8,63.7c-0.7-0.6-1.7-0.2-1.7-0.8c0-0.3,0.2-0.4,0.5-0.4c0.2,0,1.3,0.2,3.4,0.2c2.8,0,4.7-0.2,5.5-0.2
		c0.7,0,0.8,0.1,0.8,0.7c0,0,0,0.2,0,0.4c0,1,0,1.5,0,1.7c0,0.3,0,0.4-0.3,0.4c-0.5,0-0.2-0.5-0.5-1.1c-0.4-0.8-1.3-1.1-3.3-1.1
		c-1.2,0-1.6,0.3-1.6,1.1v3c0,0.6,0.2,0.8,0.8,0.8h0.6c0.8,0,1.3-0.2,1.7-0.7c0.4-0.5,0.4-1.1,0.8-1.1c0.2,0,0.3,0.1,0.3,0.4
		c0,0.1-0.1,0.6-0.1,1.5c0,1.5,0.2,2.3,0.2,2.5c0,0.3-0.1,0.4-0.3,0.4c-0.5,0-0.3-0.5-0.5-1.1c-0.3-0.8-0.8-1-2-1h-0.8
		c-0.7,0-0.8,0.3-0.8,1.1v3c0,1.4,0.1,1.8,1.6,1.8c1.3,0,2.7-0.4,3.5-1.1c0.8-0.7,0.8-1.4,1.2-1.4c0.2,0,0.3,0.2,0.3,0.4
		c0,0.4-0.3,1.4-0.8,2.1c-0.5,0.8-1.4,1.1-2.6,1.1c-0.9,0-2.2-0.2-3.6-0.2c-1.7,0-2.7,0.2-3.1,0.2c-0.3,0-0.5-0.1-0.5-0.4
		c0-0.4,0.4-0.5,0.9-0.8c0.5-0.4,0.8-0.9,0.8-1.8v-7.6C289.3,64.7,289.3,64.1,288.8,63.7z"/>
	<path class="st0" d="M301.8,66.1c0-1.2-0.2-2-0.6-2.4c-0.8-0.8-1.5-0.2-1.5-0.9c0-0.3,0.1-0.4,0.4-0.4c0.4,0,0.7,0.1,1.2,0.1
		c0.6,0,1.2-0.1,1.7-0.1c0.5,0,0.7,0.2,1.2,0.8l6.7,8.1c0.4,0.4,0.6,0.6,0.8,0.6c0.2,0,0.3-0.3,0.3-0.9v-5c0-1.2-0.1-2-0.8-2.4
		c-0.9-0.6-1.7-0.3-1.7-0.8c0-0.2,0.1-0.4,0.4-0.4c0.5,0,1.1,0.1,1.9,0.1c1.1,0,1.9-0.2,2.4-0.2c0.3,0,0.4,0.1,0.4,0.4
		c0,0.5-0.5,0.3-1,0.7c-0.6,0.5-0.6,1.1-0.7,2.2l-0.1,9.9c0,0.5-0.1,0.8-0.3,0.8c-0.4,0-0.6-0.4-1.1-0.9l-8-9.5
		c-0.2-0.2-0.4-0.4-0.5-0.4c-0.2,0-0.2,0.3-0.2,0.8V71c0,2,0,3.3,0.6,4c0.6,0.6,1.7,0.2,1.7,0.9c0,0.4-0.1,0.4-0.5,0.4
		c-0.3,0-1-0.2-2-0.2c-1.1,0-1.9,0.2-2.2,0.2c-0.3,0-0.4-0.2-0.4-0.5c0-0.4,0.8-0.3,1.3-0.8c0.4-0.4,0.6-1.8,0.6-4V66.1z"/>
	<path class="st0" d="M320.3,63.6c-1.6,0-2.5,0.1-2.9,1c-0.5,1.1-0.3,1.6-0.9,1.6c-0.2,0-0.3-0.1-0.3-0.4c0-0.2,0.2-1.1,0.3-2.6
		c0-0.6,0.1-0.8,0.6-0.8c0.5,0,1.6,0.1,3.2,0.1h4.6c1.7,0,2.8-0.1,3.4-0.1c0.5,0,0.7,0,0.7,0.6l0.2,2c0,0,0,0.1,0,0.2
		c0,0.4,0,0.4-0.3,0.4c-0.5,0-0.4-0.4-0.7-1.1c-0.4-0.8-1.1-0.9-2.7-0.9c-0.1,0-0.1,0-0.2,0c-1.2,0-1.5,0-1.5,0.9v8.7
		c0,1,0.3,1.6,1.1,2c0.6,0.3,1.3,0.1,1.3,0.6c0,0.3-0.2,0.4-0.5,0.4c-0.5,0-1.4-0.2-2.8-0.2c-1.4,0-2.5,0.2-3.1,0.2
		c-0.4,0-0.5-0.2-0.5-0.4c0-0.5,0.5-0.4,1.2-0.6c0.8-0.3,1.1-0.9,1.1-1.9v-8.8C321.6,63.7,321.5,63.6,320.3,63.6z"/>
	<path class="st0" d="M332.3,63.6c-0.7-0.5-1.7-0.1-1.7-0.8c0-0.2,0.2-0.4,0.5-0.4c0.2,0,0.8,0.1,1.9,0.1c2.2,0,3.3-0.2,3.4-0.2
		c0.3,0,0.4,0.1,0.4,0.4c0,0.5-0.7,0.3-1.2,0.8c-0.4,0.4-0.4,1-0.4,2v7.8c0,1.1,0.3,1.7,1,2c0.6,0.2,1.3,0.1,1.3,0.6
		c0,0.3-0.2,0.4-0.5,0.4c-0.6,0-1.5-0.2-2.7-0.2c-1.2,0-2.1,0.2-2.6,0.2c-0.3,0-0.5-0.2-0.5-0.4c0-0.4,0.4-0.5,1-0.8
		c0.4-0.2,0.7-0.9,0.7-1.8v-7.6C332.8,64.6,332.8,64,332.3,63.6z"/>
	<path class="st0" d="M346.5,62.2c4.2,0,7.1,3,7.1,7c0,4.1-3.1,7.3-7.6,7.3c-4.1,0-7-3-7-7C339,65.4,342.1,62.2,346.5,62.2z
		 M346.5,75.6c2.7,0,4.6-1.9,4.6-5.3c0-4.3-2.2-7.2-5.1-7.2c-2.8,0-4.5,1.9-4.5,5.5C341.5,72.7,343.5,75.6,346.5,75.6z"/>
	<path class="st0" d="M357.4,66.1c0-1.2-0.2-2-0.6-2.4c-0.8-0.8-1.5-0.2-1.5-0.9c0-0.3,0.1-0.4,0.4-0.4c0.4,0,0.7,0.1,1.2,0.1
		c0.6,0,1.2-0.1,1.7-0.1c0.5,0,0.7,0.2,1.2,0.8l6.7,8.1c0.4,0.4,0.6,0.6,0.8,0.6c0.2,0,0.3-0.3,0.3-0.9v-5c0-1.2-0.1-2-0.8-2.4
		c-0.9-0.6-1.7-0.3-1.7-0.8c0-0.2,0.1-0.4,0.4-0.4c0.5,0,1.1,0.1,1.9,0.1c1.1,0,1.9-0.2,2.4-0.2c0.3,0,0.4,0.1,0.4,0.4
		c0,0.5-0.5,0.3-1,0.7c-0.6,0.5-0.6,1.1-0.7,2.2l-0.1,9.9c0,0.5-0.1,0.8-0.3,0.8c-0.4,0-0.6-0.4-1.1-0.9l-8-9.5
		c-0.2-0.2-0.4-0.4-0.5-0.4c-0.2,0-0.2,0.3-0.2,0.8V71c0,2,0,3.3,0.6,4c0.6,0.6,1.7,0.2,1.7,0.9c0,0.4-0.1,0.4-0.5,0.4
		c-0.3,0-1-0.2-2-0.2c-1.1,0-1.9,0.2-2.2,0.2c-0.3,0-0.4-0.2-0.4-0.5c0-0.4,0.8-0.3,1.3-0.8c0.4-0.4,0.6-1.8,0.6-4V66.1z"/>
	<path class="st0" d="M380.2,64.5c1.3-1.5,3-2.3,5-2.3c2.5,0,4,1.2,4.3,1.2c0.4,0,0.3-0.6,0.7-0.6c0.4,0,0.3,0.3,0.4,0.9
		c0.1,1.8,0.3,2.9,0.3,3.2c0,0.3-0.1,0.4-0.3,0.4c-0.4,0-0.4-0.5-1.2-1.7c-1.1-1.6-2.8-2.5-4.5-2.5c-2.3,0-4.1,2.1-4.1,5.6
		c0,1.4,0.4,2.9,1.1,4c1,1.6,2.3,2.5,4,2.5c1.3,0,2.6-0.5,3.7-1.5c0.6-0.5,0.8-1.1,1.2-1.1c0.2,0,0.3,0.1,0.3,0.3
		c0,0.3-0.4,1-1.3,1.8c-1.3,1.3-3,1.9-4.9,1.9c-3.8,0-6.4-2.8-6.4-6.8C378.4,67.8,379.1,65.9,380.2,64.5z"/>
	<path class="st0" d="M394.5,63.7c-0.7-0.6-1.7-0.2-1.7-0.8c0-0.3,0.2-0.4,0.5-0.4c0.2,0,1.3,0.2,3.4,0.2c2.8,0,4.7-0.2,5.5-0.2
		c0.7,0,0.8,0.1,0.8,0.7c0,0,0,0.2,0,0.4c0,1,0,1.5,0,1.7c0,0.3,0,0.4-0.3,0.4c-0.5,0-0.2-0.5-0.5-1.1c-0.4-0.8-1.3-1.1-3.3-1.1
		c-1.2,0-1.6,0.3-1.6,1.1v3c0,0.6,0.2,0.8,0.8,0.8h0.6c0.8,0,1.3-0.2,1.7-0.7c0.4-0.5,0.4-1.1,0.8-1.1c0.2,0,0.3,0.1,0.3,0.4
		c0,0.1-0.1,0.6-0.1,1.5c0,1.5,0.2,2.3,0.2,2.5c0,0.3-0.1,0.4-0.3,0.4c-0.5,0-0.3-0.5-0.5-1.1c-0.3-0.8-0.8-1-2-1h-0.8
		c-0.7,0-0.8,0.3-0.8,1.1v3c0,1.4,0.1,1.8,1.6,1.8c1.3,0,2.7-0.4,3.5-1.1c0.8-0.7,0.8-1.4,1.2-1.4c0.2,0,0.3,0.2,0.3,0.4
		c0,0.4-0.3,1.4-0.8,2.1c-0.5,0.8-1.4,1.1-2.6,1.1c-0.9,0-2.2-0.2-3.6-0.2c-1.7,0-2.7,0.2-3.1,0.2c-0.3,0-0.5-0.1-0.5-0.4
		c0-0.4,0.4-0.5,0.9-0.8c0.5-0.4,0.8-0.9,0.8-1.8v-7.6C395,64.7,395,64.1,394.5,63.7z"/>
	<path class="st0" d="M407.5,66.1c0-1.2-0.2-2-0.6-2.4c-0.8-0.8-1.5-0.2-1.5-0.9c0-0.3,0.1-0.4,0.4-0.4c0.4,0,0.7,0.1,1.2,0.1
		c0.6,0,1.2-0.1,1.7-0.1c0.5,0,0.7,0.2,1.2,0.8l6.7,8.1c0.4,0.4,0.6,0.6,0.8,0.6c0.2,0,0.3-0.3,0.3-0.9v-5c0-1.2-0.1-2-0.8-2.4
		c-0.9-0.6-1.7-0.3-1.7-0.8c0-0.2,0.1-0.4,0.4-0.4c0.5,0,1.1,0.1,1.9,0.1c1.1,0,1.9-0.2,2.4-0.2c0.3,0,0.4,0.1,0.4,0.4
		c0,0.5-0.5,0.3-1,0.7c-0.6,0.5-0.6,1.1-0.7,2.2l-0.1,9.9c0,0.5-0.1,0.8-0.3,0.8c-0.4,0-0.6-0.4-1.1-0.9l-8-9.5
		c-0.2-0.2-0.4-0.4-0.5-0.4c-0.2,0-0.2,0.3-0.2,0.8V71c0,2,0,3.3,0.6,4c0.6,0.6,1.7,0.2,1.7,0.9c0,0.4-0.1,0.4-0.5,0.4
		c-0.3,0-1-0.2-2-0.2c-1.1,0-1.9,0.2-2.2,0.2c-0.3,0-0.4-0.2-0.4-0.5c0-0.4,0.8-0.3,1.3-0.8c0.4-0.4,0.6-1.8,0.6-4V66.1z"/>
	<path class="st0" d="M426,63.6c-1.6,0-2.5,0.1-2.9,1c-0.5,1.1-0.3,1.6-0.9,1.6c-0.2,0-0.3-0.1-0.3-0.4c0-0.2,0.2-1.1,0.3-2.6
		c0-0.6,0.1-0.8,0.6-0.8c0.5,0,1.6,0.1,3.2,0.1h4.6c1.7,0,2.8-0.1,3.4-0.1c0.5,0,0.7,0,0.7,0.6l0.2,2c0,0,0,0.1,0,0.2
		c0,0.4,0,0.4-0.3,0.4c-0.5,0-0.4-0.4-0.7-1.1c-0.4-0.8-1.1-0.9-2.7-0.9c-0.1,0-0.1,0-0.2,0c-1.2,0-1.5,0-1.5,0.9v8.7
		c0,1,0.3,1.6,1.1,2c0.6,0.3,1.3,0.1,1.3,0.6c0,0.3-0.2,0.4-0.5,0.4c-0.5,0-1.4-0.2-2.8-0.2c-1.4,0-2.5,0.2-3.1,0.2
		c-0.4,0-0.5-0.2-0.5-0.4c0-0.5,0.5-0.4,1.2-0.6c0.8-0.3,1.1-0.9,1.1-1.9v-8.8C427.3,63.7,427.2,63.6,426,63.6z"/>
	<path class="st0" d="M438,63.7c-0.6-0.6-1.5-0.2-1.5-0.8c0-0.3,0.2-0.4,0.5-0.4c0.3,0,1.1,0.1,2.5,0.1c1.1,0,2.3-0.2,3.6-0.2
		c3,0,4.6,1.3,4.6,3.7c0,1.6-0.8,2.6-2.5,3.1c0.3,0.2,0.5,0.4,0.7,0.8l2,3.6c0.5,0.9,0.8,1.3,1.4,1.3c0.2,0,0.4,0,0.5,0
		c0.2,0,0.3,0.1,0.3,0.3c0,0.5-1,1-2.1,1c-1.3,0-2.1-1.1-3.3-3.5c-0.7-1.5-1.1-2.4-1.5-2.7c-0.4-0.3-0.8-0.3-1.4-0.3
		c-0.6,0-0.8,0.1-0.8,0.7v2.9c0,1,0.3,1.6,0.9,2c0.5,0.2,1.1,0.1,1.1,0.6c0,0.3-0.1,0.4-0.5,0.4c-0.4,0-1.2-0.2-2.3-0.2
		c-1.3,0-2.2,0.2-2.7,0.2c-0.3,0-0.5-0.1-0.5-0.4c0-0.4,0.4-0.5,0.9-0.8c0.5-0.4,0.8-0.9,0.8-1.8v-7.6
		C438.5,64.7,438.4,64.1,438,63.7z M442.4,68.8c1.9,0,2.9-0.5,2.9-2.3c0-2-1.2-3.3-3.2-3.3c-1,0-1.2,0.5-1.2,1.6v3.1
		C440.9,68.7,441,68.8,442.4,68.8z"/>
	<path class="st0" d="M452.6,63.7c-0.7-0.6-1.7-0.2-1.7-0.8c0-0.3,0.2-0.4,0.5-0.4c0.2,0,1.3,0.2,3.4,0.2c2.8,0,4.7-0.2,5.5-0.2
		c0.7,0,0.8,0.1,0.8,0.7c0,0,0,0.2,0,0.4c0,1,0,1.5,0,1.7c0,0.3,0,0.4-0.3,0.4c-0.5,0-0.2-0.5-0.5-1.1c-0.4-0.8-1.3-1.1-3.3-1.1
		c-1.2,0-1.6,0.3-1.6,1.1v3c0,0.6,0.2,0.8,0.8,0.8h0.6c0.8,0,1.3-0.2,1.7-0.7c0.4-0.5,0.4-1.1,0.8-1.1c0.2,0,0.3,0.1,0.3,0.4
		c0,0.1-0.1,0.6-0.1,1.5c0,1.5,0.2,2.3,0.2,2.5c0,0.3-0.1,0.4-0.3,0.4c-0.5,0-0.3-0.5-0.5-1.1c-0.3-0.8-0.8-1-2-1h-0.8
		c-0.7,0-0.8,0.3-0.8,1.1v3c0,1.4,0.1,1.8,1.6,1.8c1.3,0,2.7-0.4,3.5-1.1c0.8-0.7,0.8-1.4,1.2-1.4c0.2,0,0.3,0.2,0.3,0.4
		c0,0.4-0.3,1.4-0.8,2.1c-0.5,0.8-1.4,1.1-2.6,1.1c-0.9,0-2.2-0.2-3.6-0.2c-1.7,0-2.7,0.2-3.1,0.2c-0.3,0-0.5-0.1-0.5-0.4
		c0-0.4,0.4-0.5,0.9-0.8c0.5-0.4,0.8-0.9,0.8-1.8v-7.6C453.1,64.7,453.1,64.1,452.6,63.7z"/>
</g>
</svg>
