<?xml version="1.0" encoding="utf-8"?>
<!-- Generator: Adobe Illustrator 26.3.1, SVG Export Plug-In . SVG Version: 6.00 Build 0)  -->
<svg version="1.1" id="Layer_1" xmlns="http://www.w3.org/2000/svg" xmlns:xlink="http://www.w3.org/1999/xlink" x="0px" y="0px"
	 viewBox="0 0 300 115" style="enable-background:new 0 0 300 115;" xml:space="preserve">
<style type="text/css">
	.st0{fill:#006450;}
	.st1{fill:#7DC242;}
	.st2{fill:#BE1E2D;}
	.st3{fill:#005CAB;}
	.st4{fill:#FFDC32;}
	.st5{fill:#ED1C24;}
</style>
<path class="st0" d="M107.3,84.2c-0.4,0.9-0.5,1.5-1.2,4.9c0,0-4.5,21.3-5.1,24.2c-0.6,0-6.6,0-7.2,0c-0.2-0.6-7.2-18.6-7.2-18.6
	l-2.5,13c0,0-0.2,1.1-0.2,1.1l-0.2,1c-0.4,1.8-0.5,2.6-0.5,3.6c-0.7,0-5.8,0-6.9,0c0.4-1,0.5-1.6,1.3-5.1l0.1-0.4
	c0,0,6.9-32.5,6.9-32.6c0,0,12.3,28.2,12.3,28.2l2.8-13.6c0,0,0.1-0.7,0.1-0.7l0.3-1.3c0.4-1.7,0.5-2.8,0.5-3.6c0,0,0,0,0,0
	C101.1,84.2,106.2,84.2,107.3,84.2z"/>
<path class="st0" d="M129.7,98.5c0,4.2-1.5,8.8-3.9,11.4c-2.3,2.6-5.4,3.9-9.4,3.9c-5.7,0-8.9-3.4-8.9-9.7c0-4.1,1.4-8.3,3.7-11
	c2.2-2.6,5.6-4,9.6-4C126.4,89,129.7,92.5,129.7,98.5z M116,96.2c-1.2,2.1-2.1,5.8-2.1,8.7c0,2.9,1.1,4.5,3.2,4.5
	c2,0,3.6-1.3,4.8-3.9c0.9-2,1.6-5.4,1.6-7.6c0-2.9-1.1-4.5-3.1-4.5C118.5,93.4,117.1,94.3,116,96.2z"/>
<path class="st0" d="M138.6,108.6c-0.4,1.6-0.7,3.8-0.7,4.3v0.4H131c0.5-1.2,0.5-1.2,1.3-4.7l3.1-14c0.6-2.7,0.8-3.7,0.8-4.3v-0.4
	h8.5c3.2,0,5,0.4,6.1,1.3c1.1,0.9,1.8,2.3,1.8,3.8c0,3.5-2.2,6-6.1,6.7c1.9,0.3,3.2,1.2,3.5,3.4l0.6,4.6c0.3,2.6,0.3,2.8,0.6,3.7h-7
	c0-0.3,0-0.5,0-0.8c0-0.3-0.1-1.4-0.1-2.1l-0.3-3.5c-0.3-2.7-1.2-3.2-3-3.2h-1L138.6,108.6z M141.9,99.5c1.8,0,3.2-0.3,3.9-1.1
	c0.7-0.7,0.8-2.1,0.8-2.8c0-1-1-1.8-1.9-2c-0.6-0.1-1.6-0.2-2.9-0.2l-1.3,6H141.9z"/>
<path class="st0" d="M175,89.9l-0.9,4.5c-1.2-0.1-2.4-0.1-4-0.1h-2.3l-3,14.3c-0.7,3.4-0.7,3.3-0.8,4.7h-6.8
	c0.5-1.2,0.5-1.2,1.3-4.7l3-14.3H159c-1.5,0-3.5,0-4.2,0.1l0.9-4.5H175z"/>
<path class="st0" d="M297,89.9l-0.9,4.5c-1.2-0.1-2.4-0.1-4-0.1h-2.3l-3,14.3c-0.7,3.4-0.7,3.3-0.8,4.7h-6.8
	c0.5-1.2,0.5-1.2,1.3-4.7l3-14.3H281c-1.5,0-3.5,0-4.2,0.1l0.9-4.5H297z"/>
<path class="st0" d="M180.2,108.6c-0.3,1.4-0.6,3.6-0.7,4.3v0.4h-6.8c0.3-0.7,0.5-1.2,0.6-1.6c0.4-1.9,0.2-0.9,0.7-3l3-14
	c0.6-2.9,0.7-3.6,0.7-4.7h6.8c-0.2,0.6-0.4,0.8-0.6,1.6c-0.3,1.2-0.6,2.3-0.7,3l-0.8,4c0.4,0,0.3,0,1.5-0.1h0.6h1.4h1.4
	c1.5,0,1.6,0,2,0.1l0.9-4c0.2-0.8,0.2-0.9,0.5-2.6c0.2-1.1,0.2-1.4,0.2-1.8c0-0.1,0-0.2,0-0.4h6.8c-0.5,1.1-0.6,1.7-1.3,4.7l-3,14
	c-0.3,1.5-0.7,3.8-0.7,4.3v0.4h-6.8c0.2-0.6,0.4-0.8,0.6-1.6c0.3-1.2,0.6-2.2,0.7-3l1.2-5.6c-0.7,0-2.1-0.1-3.4-0.1
	c-1.3,0-2.7,0-3.4,0.1L180.2,108.6z"/>
<path class="st0" d="M245,108.8h6c2.2,0,3.1,0,3.8-0.1l-1,4.6h-16.5c0.3-0.6,0.4-1,0.6-1.6c0.2-0.6,0.1-0.5,0.7-3l3.1-14
	c0.6-2.9,0.7-3.6,0.8-4.7h16l-1,4.5c-1-0.1-2.7-0.1-3.6-0.1h-5.6l-1,4.7h5.5h1.4c0.7,0,0.9,0,1.7-0.1l-1,4.5
	c-0.9-0.1-1.8-0.1-3.1-0.1h-5.5L245,108.8z"/>
<path class="st0" d="M258.3,108.4c1.8,0.6,4.6,1.1,6.2,1.1c2.3,0,3.8-1.1,3.8-2.8c0-1.1-0.6-1.8-2.7-3.4c-2.6-2-2.9-2.3-3.6-3.3
	c-0.6-0.9-0.9-2-0.9-3.2c0-2,1.2-4.1,2.9-5.6c1.6-1.2,4.1-2,6.7-2c1.7,0,3.5,0.3,5.5,0.8l-1,4.4c-2-0.6-3.2-0.9-4.5-0.9
	c-2,0-3.2,0.9-3.2,2.3c0,0.6,0.2,1.2,0.8,1.7c0.6,0.5,0.5,0.5,2.7,2.3c2.2,1.8,2.2,1.8,2.8,2.7c0.7,0.9,1,1.8,1,3
	c0,4.8-4.3,8.3-10.3,8.3c-2.3,0-4.9-0.3-7-1C257.3,112.9,258.3,108.4,258.3,108.4z"/>
<path class="st0" d="M204.2,84.1h7.3c0,0-0.1,1,0,2.6l1.3,17.4c0,0,6-12.5,6.3-13.8c0.4-1.3,0.6-2.1,0.5-2.6
	c-0.1-0.8-0.3-3.6-0.3-3.6l5.9,0l1.7,19.5c0,0,5.9-12.3,6.6-14c0.9-2.2,1.1-2.7,1.2-3.9c0.1-0.9-0.4-1.6-0.4-1.6h7.5
	c0,0-1.9,3.7-6.5,13.4c-0.3,0.6-7.5,15.7-7.5,15.7h-5.5L220.4,96l-7.2,17.3h-5.6c0,0-2.8-25.4-2.9-26.3
	C204.6,86.1,204.4,84.8,204.2,84.1z"/>
<g>
	<path class="st0" d="M15.8,113.3h-3.2l-1.1-8.7l-3.9,8.7H4.5L3,100l3.8-0.6l0.5,8.6l3.7-8.5h3.3l1,8.5l3.2-8.5h3.2L15.8,113.3z"/>
	<path class="st0" d="M31.1,102.2h-4.9l-0.4,2.5h3.6v2.8h-4.1l-0.5,3h5l-0.4,2.7h-8.3l2.2-13.8h8.2L31.1,102.2z"/>
	<path class="st0" d="M43.8,113.4l-0.4-3H39l-1.3,2.9h-3.3l6.9-13.8h3.5l2.4,13.4L43.8,113.4z M42.3,103.1l-2.1,4.7H43L42.3,103.1z"
		/>
	<path class="st0" d="M56.9,107.7l2.3,5.2l-3.5,0.6l-2.1-5h-0.8l-0.8,4.9h-3.3l2.2-13.8h4c3.1,0,5,1.2,5,3.9
		C59.8,105.6,58.7,107,56.9,107.7z M54.5,102h-0.8l-0.6,4.1h0.7c1.8,0,2.8-0.8,2.8-2.4C56.6,102.5,55.8,102,54.5,102z"/>
	<path class="st0" d="M70.5,102.2h-4.9l-0.4,2.5h3.6v2.8h-4.1l-0.5,3h5l-0.4,2.7h-8.3l2.2-13.8H71L70.5,102.2z"/>
</g>
<path class="st1" d="M201.6,30.8c12.8-6.6,22-16.1,22.4-25.8c-3.1,9.7-13.4,17.3-26.6,22.7c-13,5.6-27.8,9.8-43.3,13
	c-20.4,4.5-41.7,6.4-63.6,6.5l-1.9,9.1c24.3-0.4,48.4-3.2,69.8-9.1C174.2,43,189.1,37.7,201.6,30.8z"/>
<path class="st2" d="M229.5,9.1c-4.1,20.1-31.8,34.5-61.4,42.9c-24.8,7.3-52.2,9.9-80.9,10.8l-2,9.4c30.7-1,62-4.6,88.3-13.9
	C204.1,47.9,230.9,29.6,229.5,9.1z"/>
<path class="st3" d="M189.7,22.4c6.5-2.7,12.7-5.7,17.6-9.4c5.1-3.7,7.8-7.9,11.6-11.8c-15.5,16-46.2,22.5-75.3,27.1
	c-16.1,2.1-32.9,3.2-49.7,3l-1.9,8.8c18.8-0.1,37.3-2,54.6-5.2C162.2,32,176.6,27.6,189.7,22.4z"/>
<path class="st4" d="M225.2,43c10.2-9.3,11.4-20.6,9.5-30.6c1.5,21.3-24.2,38-53.4,48.6c-25.2,9.4-54.2,14.2-84.8,17.6l55.9-0.1
	c12.5-3.1,24.4-6.9,35.3-11.7C202.9,60.3,216,52.3,225.2,43z"/>
<path class="st5" d="M237.5,48.5c7.6-10.1,9.1-21.8,2.8-31.6c7.6,21.1-16.2,40.5-43.5,52.9c-7,3.2-14.4,6-22,8.5l23.1,0
	c2.1-1,4.2-2,6.3-3.1C218.4,67.8,230.2,58.6,237.5,48.5z"/>
</svg>
