<?xml version="1.0" encoding="utf-8"?>
<!-- Generator: Adobe Illustrator 26.3.1, SVG Export Plug-In . SVG Version: 6.00 Build 0)  -->
<svg version="1.1" id="Layer_1" xmlns="http://www.w3.org/2000/svg" xmlns:xlink="http://www.w3.org/1999/xlink" x="0px" y="0px"
	 viewBox="0 0 400 262" style="enable-background:new 0 0 400 262;" xml:space="preserve">
<style type="text/css">
	.st0{clip-path:url(#SVGID_00000083075353274811800300000005035330362152102078_);fill:#E52431;}
	
		.st1{clip-path:url(#SVGID_00000083075353274811800300000005035330362152102078_);fill:none;stroke:#B76C29;stroke-width:1.469;stroke-miterlimit:3.864;}
	.st2{clip-path:url(#SVGID_00000018956345881480436140000014265178617095111330_);fill:#FBAC43;}
	.st3{clip-path:url(#SVGID_00000003077861461657680280000014199604130184553655_);fill:none;stroke:#B76C29;stroke-width:1.469;}
	.st4{clip-path:url(#SVGID_00000003077861461657680280000014199604130184553655_);fill:#FBAC43;}
	.st5{clip-path:url(#SVGID_00000003077861461657680280000014199604130184553655_);fill:#B76C29;}
	.st6{clip-path:url(#SVGID_00000003077861461657680280000014199604130184553655_);fill:none;stroke:#B76C29;stroke-width:0.122;}
	.st7{clip-path:url(#SVGID_00000003077861461657680280000014199604130184553655_);fill:none;stroke:#B76C29;stroke-width:0.22;}
	
		.st8{clip-path:url(#SVGID_00000003077861461657680280000014199604130184553655_);fill:none;stroke:#B76C29;stroke-width:0.571;stroke-linecap:round;stroke-linejoin:round;}
	.st9{clip-path:url(#SVGID_00000003077861461657680280000014199604130184553655_);fill:none;stroke:#FBAC43;stroke-width:0.204;}
	.st10{clip-path:url(#SVGID_00000003077861461657680280000014199604130184553655_);fill:#232E67;}
	.st11{clip-path:url(#SVGID_00000003077861461657680280000014199604130184553655_);fill:none;stroke:#B76C29;stroke-width:1.586;}
	.st12{clip-path:url(#SVGID_00000003077861461657680280000014199604130184553655_);fill:none;stroke:#B76C29;stroke-width:2.056;}
	.st13{clip-path:url(#SVGID_00000003077861461657680280000014199604130184553655_);fill:#FFFFFF;}
	.st14{clip-path:url(#SVGID_00000003077861461657680280000014199604130184553655_);fill:none;stroke:#FFFFFF;stroke-width:0.294;}
	.st15{fill:none;stroke:#B76C29;stroke-width:0.587;}
	.st16{clip-path:url(#SVGID_00000121987731326135396340000006013143787410064287_);fill:#FBAC43;}
</style>
<g>
	<g>
		<defs>
			<rect id="SVGID_1_" x="1.6" y="1" width="397.9" height="260.3"/>
		</defs>
		<clipPath id="SVGID_00000159454833967603310590000001982568310078077864_">
			<use xlink:href="#SVGID_1_"  style="overflow:visible;"/>
		</clipPath>
		<path style="clip-path:url(#SVGID_00000159454833967603310590000001982568310078077864_);fill:#E52431;" d="M20.3,131.1
			C20.3,60.3,100.1,3,198.6,3s178.3,57.4,178.3,128.2c0,70.8-79.8,128.2-178.3,128.2S20.3,201.9,20.3,131.1"/>
		
			<path style="clip-path:url(#SVGID_00000159454833967603310590000001982568310078077864_);fill:none;stroke:#B76C29;stroke-width:1.469;stroke-miterlimit:3.864;" d="
			M20.3,131.1C20.3,60.3,100.1,3,198.6,3s178.3,57.4,178.3,128.2c0,70.8-79.8,128.2-178.3,128.2S20.3,201.9,20.3,131.1z"/>
	</g>
	<g>
		<defs>
			<path id="SVGID_00000155828292139228527330000016536053615760950656_" d="M66.8,130.5c0,48.2,58.8,87.2,131.4,87.2
				c72.6,0,131.4-39,131.4-87.2s-58.8-87.2-131.4-87.2C125.6,43.3,66.8,82.3,66.8,130.5"/>
		</defs>
		<clipPath id="SVGID_00000104701799132521812220000015291750675521074050_">
			<use xlink:href="#SVGID_00000155828292139228527330000016536053615760950656_"  style="overflow:visible;"/>
		</clipPath>
		
			<rect x="71.8" y="28.5" style="clip-path:url(#SVGID_00000104701799132521812220000015291750675521074050_);fill:#FBAC43;" width="259.6" height="197.9"/>
	</g>
	<g>
		<defs>
			<rect id="SVGID_00000035521011379589694280000001516301924973009559_" x="1.6" y="1" width="397.9" height="260.3"/>
		</defs>
		<clipPath id="SVGID_00000134958360164538964500000012324113747814596483_">
			<use xlink:href="#SVGID_00000035521011379589694280000001516301924973009559_"  style="overflow:visible;"/>
		</clipPath>
		
			<ellipse style="clip-path:url(#SVGID_00000134958360164538964500000012324113747814596483_);fill:none;stroke:#B76C29;stroke-width:1.469;" cx="198.2" cy="130.5" rx="131.2" ry="87"/>
		<path style="clip-path:url(#SVGID_00000134958360164538964500000012324113747814596483_);fill:#FBAC43;" d="M277,68.5
			c0,0-4.4-1.8-8.7-1.2c-2.4,0.4-7.5,1.6-9.8,2.3c-2.3,0.7-5.1,1.1-7.2,1.3c-2.1,0.1-7.4,0.6-9.8,1.6c-2.3,1-3.7,0.7-5.8,1.2
			c-2.1,0.5-4.9,0.1-9.2,2.6c-4.3,2.4-8.1,2.9-10.2,3.4c-2.1,0.5-12.7,3.2-12.7,3.2c5.1-3.5,9.9-6.8,14.9-10.4c0,0,4.5-1.2,7.6-2.6
			c3-1.4,5.5-1.4,7.8-2.1c2.3-0.7,5.5-2.1,8.3-2.6c2.8-0.5,7.7,0.1,9.8-0.4c2.1-0.5,5.7-1.9,8-2.9c2.3-1,8.5-1.2,10.4-0.8
			c1.9,0.4,5.8,1.4,5.8,1.4c0.2,1.4,0.6,2.1,0.8,3.5C277.1,66.8,277.1,67.6,277,68.5"/>
		<path style="clip-path:url(#SVGID_00000134958360164538964500000012324113747814596483_);fill:#B76C29;" d="M217.3,74.3
			c4.5-1.8,8.7-3.5,13.3-4.7c-1.5,0.2-2.9,0.4-4.3,0.7c5.2-1.3,10.3-2,15.1-4.3c4.6-1.4,10,0.5,14.4-1.4c5.2-2.6,10.9-3.8,17.4-3.2
			c-9.2-2.3-17.2,3.4-25.8,3.4c-2.1,0.2-2.5,0.1-4.4,0.4c-1.5,0.8-3,1.6-4.5,2.4c-1.2,0.5-2.3,0.9-3.5,1.2c0.8-0.1,1.7-0.2,2.5-0.3
			c2.8-1.1,5.5-2.1,8.7-2.3c6.8,1.2,12.5-2.2,18.8-3.8c3.9-0.9,7.8-0.1,11.4,1c0,0.3,0.6,0.2,0.5,0.6c-2.2-0.9-4.3-1.2-6.6-1.3
			c1.5,0.1,2.9,0.4,4.5,1c0.8,0.5,2.1,0.6,2.3,1.6c-3-1.6-6.6-2.1-10.1-1.4c3.5-0.3,7.1,0.4,10.2,2.1c-0.6,0.3-1.3-0.4-2.1-0.6
			c-1.7-0.3-3.3-0.7-4.9-0.7c2.4,0.1,4.9,1.2,7,2.5c0,0.1,0.1,0.3-0.1,0.4c-2.8-2-5.7-1.8-8.9-1.7c3.2,0.3,6.6,0.2,9,2.5
			c0,0.1,0,0.3,0,0.4c-7.1-4.8-14.7-0.4-21.4,1.6c-4.2,0.8-9.8-0.4-13.5,1.5c-3.4,1.4-7,2.4-10.9,2.4c-5.4,1.5-10.1,4.9-15.7,5.4
			c-3.5,0.5-6.7,1.5-10.1,2.7c0.6-0.4,1.1-0.9,1.7-1.3c8.5-1.5,15.9-4.7,23.8-7.5c3.9-0.4,7.6-0.9,11-2.5c1.5-0.5,2.8-1.2,4.4-1.4
			c-4.3,0.1-8.2,3.3-12.9,3.4c-7.5-0.1-12.6,5.5-19.8,5.8c-1.8,0.7-3.6,0.7-5.4,1.2c0.3-0.2,0.6-0.4,0.9-0.6
			c8.8-1.7,16.2-5.9,24.9-7.4c4.3-0.5,8-2.6,12.2-3.4c-5.1-0.1-8.5,3.2-13.4,3.5c-6.1-0.3-10.1,4-15.7,4.9c-2.3,0.6-4.5,1-6.8,1.6
			c0.3-0.2,0.5-0.4,0.8-0.6c0.7-0.2,1.4-0.4,2.1-0.6c6.8-1.3,12.3-5,19.2-6.2c-7.6-0.1-12.4,5.6-19.8,5.7c0.2-0.1,0.4-0.3,0.6-0.4
			c6.7-1.8,12.5-4.9,19.3-6.5c-5.6,0.1-9.8,3.6-15.3,4.5C217.3,74.4,217.3,74.3,217.3,74.3 M182.5,96.7c-4.2-9.1,9.4-7,22.4-13.6
			c2.3-1,4.5-1.7,6.9-2.1c9.1-0.9,16.9-6.4,26.6-6.6c4-1,7.5-2.9,12.2-2.5c8.4,0.2,13.2-5.5,21.9-3.9c0,0,2.4,0.6,2,2.8
			c-0.6,2.4-5.6,2.7-10.2,1.6c3.5,2,8,1.7,11.3,0c1.4-0.6,1.8-1.7,2.3-3.4c0-2,0.6-4.5-0.4-6.4c-6.9-4.5-15.6-2-22.1,1
			c-2.4,0.7-3.2,0.4-5.9,0.2c-2.3,0.2-4.5,0.4-6.8,0.7c-2.7,0.8-5.3,1.6-8,2.4c-1,0.7-5.1,1.2-7.6,2.3c-1.6,0.6-3.1,1.2-4.6,1.8
			c-2.5,1-4.8,1.9-7.3,2.8c-2,1.1-3.9,2.1-5.9,3.1c-0.6,0.5-3.1,2.4-3.7,2.9c-1.1,0.6-2.1,1.2-3.1,1.8c-0.7,0.5-2,1-2.6,1.5
			c-1.7,0.7-3.4,1.4-5.1,2c-8.2,2.1-18,7.1-15.5,10.9C180.4,96.3,181.4,96.5,182.5,96.7"/>
		
			<path style="clip-path:url(#SVGID_00000134958360164538964500000012324113747814596483_);fill:none;stroke:#B76C29;stroke-width:0.122;" d="
			M217.3,74.3c4.5-1.8,8.7-3.5,13.3-4.7c-1.5,0.2-2.9,0.4-4.3,0.7c5.2-1.3,10.3-2,15.1-4.3c4.6-1.4,10,0.5,14.4-1.4
			c5.2-2.6,10.9-3.8,17.4-3.2c-9.2-2.3-17.2,3.3-25.8,3.4c-2.1,0.2-2.5,0.1-4.4,0.4c-1.5,0.8-3,1.6-4.5,2.4
			c-1.2,0.5-2.3,0.9-3.5,1.2c0.8-0.1,1.7-0.2,2.5-0.3c2.8-1.1,5.5-2.1,8.7-2.3c6.8,1.2,12.5-2.2,18.8-3.8c3.9-0.9,7.8-0.1,11.4,1
			c0,0.3,0.6,0.2,0.5,0.6c-2.2-0.9-4.3-1.2-6.6-1.3c1.5,0.1,2.9,0.4,4.5,1c0.8,0.5,2.1,0.6,2.3,1.6c-3-1.6-6.6-2.1-10.1-1.4
			c3.5-0.3,7.1,0.4,10.2,2.1c-0.6,0.3-1.3-0.4-2.1-0.6c-1.7-0.3-3.3-0.7-4.9-0.7c2.4,0.1,4.8,1.2,7,2.4c-0.1,0.1,0.1,0.3-0.1,0.4
			c-2.8-2-5.7-1.8-8.9-1.7c3.2,0.3,6.6,0.2,9,2.5c0,0.1,0,0.3,0,0.4c-7.1-4.8-14.7-0.4-21.4,1.6c-4.2,0.8-9.8-0.4-13.5,1.5
			c-3.4,1.4-7,2.4-10.9,2.4c-5.4,1.5-10,4.9-15.7,5.4c-3.5,0.5-6.7,1.5-10.1,2.7c0.6-0.4,1.1-0.9,1.7-1.3c8.5-1.5,15.9-4.7,23.8-7.5
			c3.9-0.4,7.6-0.9,11-2.5c1.5-0.5,2.8-1.2,4.4-1.4c-4.3,0.1-8.2,3.3-12.9,3.4c-7.4-0.1-12.6,5.5-19.8,5.8c-1.8,0.7-3.6,0.7-5.4,1.2
			c0.3-0.2,0.6-0.4,0.9-0.6c8.8-1.7,16.2-5.9,24.9-7.3c4.3-0.5,8-2.6,12.2-3.4c-5.1-0.1-8.5,3.2-13.4,3.5c-6.1-0.3-10.1,4-15.7,4.9
			c-2.3,0.5-4.5,1-6.8,1.6c0.3-0.2,0.5-0.4,0.8-0.6c0.7-0.2,1.4-0.4,2.1-0.6c6.8-1.3,12.3-5,19.1-6.2c-7.6-0.1-12.4,5.6-19.8,5.7
			c0.2-0.1,0.4-0.3,0.6-0.4c6.7-1.8,12.5-4.9,19.3-6.5c-5.6,0.1-9.8,3.6-15.2,4.5C217.3,74.4,217.3,74.3,217.3,74.3z M182.6,96.7
			c-4.2-9,9.4-7,22.4-13.6c2.3-1,4.5-1.7,6.9-2.1c9.1-0.9,16.9-6.4,26.6-6.6c4-1,7.5-2.9,12.2-2.5c8.4,0.2,13.2-5.5,21.9-3.9
			c0,0,2.4,0.6,2,2.8c-0.6,2.4-5.6,2.7-10.2,1.6c3.5,2,8,1.7,11.3,0c1.4-0.6,1.8-1.7,2.3-3.4c0-2,0.6-4.5-0.4-6.4
			c-6.9-4.5-15.6-2-22.1,1c-2.4,0.7-3.2,0.4-5.9,0.2c-2.3,0.2-4.5,0.4-6.8,0.7c-2.7,0.8-5.3,1.6-8,2.4c-1,0.7-5.1,1.2-7.6,2.2
			c-1.6,0.6-3.1,1.2-4.6,1.8c-2.4,1-4.8,1.9-7.3,2.8c-2,1.1-3.9,2.1-5.9,3.1c-0.6,0.5-3.1,2.4-3.7,2.9c-1.1,0.6-2.1,1.2-3.1,1.8
			c-0.7,0.5-2,1-2.6,1.5c-1.7,0.7-3.4,1.3-5.1,2c-8.2,2.1-18,7-15.5,10.8C180.4,96.3,181.5,96.5,182.6,96.7z"/>
		<path style="clip-path:url(#SVGID_00000134958360164538964500000012324113747814596483_);fill:#B76C29;" d="M249.5,69.8
			c5.2,0.5,9.4-2.7,14.1-3C258.9,68,254.4,70.6,249.5,69.8"/>
		<path style="clip-path:url(#SVGID_00000134958360164538964500000012324113747814596483_);fill:#B76C29;" d="M266.1,67.2
			c-5.3,1.4-10,4.5-16.1,3.5C256.2,71.1,260.5,67.9,266.1,67.2"/>
		
			<path style="clip-path:url(#SVGID_00000134958360164538964500000012324113747814596483_);fill:none;stroke:#B76C29;stroke-width:0.22;" d="
			M266.1,67.2c-5.3,1.4-10,4.5-16.1,3.5C256.2,71.1,260.5,67.9,266.1,67.2z"/>
		<path style="clip-path:url(#SVGID_00000134958360164538964500000012324113747814596483_);fill:#B76C29;" d="M246.3,68.2
			c1.6-0.1,3.2-0.2,4.8-0.4c4.2-1.6,8.9-3.2,13.8-3.5C258.4,65,253,69.3,246.3,68.2"/>
		<path style="clip-path:url(#SVGID_00000134958360164538964500000012324113747814596483_);fill:#B76C29;" d="M247.6,69.3
			c5.7,0.2,10.5-3.1,15-3.4C257.6,67.2,253.1,70,247.6,69.3"/>
		<path style="clip-path:url(#SVGID_00000134958360164538964500000012324113747814596483_);fill:#FBAC43;" d="M174,47
			c0,0-2.8,5.8-7.7,9c-2.8,1.8-9,5.1-11.9,6.5c-2.9,1.4-6.1,3.4-8.3,5.1c-2.2,1.7-8,6.1-11.3,7.1c-3.2,1-4.3,2.7-6.9,4
			c-2.5,1.4-5,4.3-11.5,5.7c-6.5,1.4-10.7,4.3-13.3,5.7c-2.6,1.4-15.6,8.2-15.6,8.2c8.3-1.1,16.1-2.1,24.3-2.9c0,0,5.6-2.9,9.9-4.2
			c4.3-1.3,6.8-3.5,9.7-4.9c2.9-1.3,7.4-2.9,10.7-4.8c3.3-2,7.7-7,10.2-8.4c2.6-1.3,7.4-3.2,10.7-4.2c3.2-1,9.7-6.4,11.2-8.5
			c1.6-2.2,4.5-6.7,4.5-6.7c-1-1.5-1.3-2.6-2.3-4.2C175.6,48.7,174.8,47.8,174,47"/>
		<path style="clip-path:url(#SVGID_00000134958360164538964500000012324113747814596483_);fill:#B76C29;" d="M108.6,94.6
			c6.2-4,13.6-4.3,19.4-9.2c-8.2,4.5-16.8,6.6-25.2,10.8c-0.3,0-0.6,0.1-1,0.1c7.6-6.5,17.6-5.1,25-12c-7.9,5-16.8,6.1-24.8,11
			c-0.9,0.4-1.8,0.8-2.7,1.3c-0.5,0-0.9,0.1-1.4,0.1c2.8-1.6,5.5-3.1,8.3-4.5c6.4-4.2,14.3-3.4,20.2-9.2c5.2-4.2,11.6-3.9,16.6-8.6
			c-5,3-10.6,4.2-15.4,7.5c-10,6.3-21.3,8.8-31.6,15c-0.5,0-1,0.1-1.4,0.1c2.4-1.1,4.1-2.7,6.6-3.6c7.5-6.2,17.7-5.2,25.1-12
			c4.8-4.1,11.6-4.3,16-8.1c-1.8,1.3-3.8,1.7-5.7,2.6c-4.9,1.6-9,4.4-13.3,7.4c-10.5,4.3-20.8,7.8-30.7,13.8c-1,0.1-2,0.1-2.9,0.2
			c4.4-1.8,8.5-3.7,12.5-6.3c6.2-4.5,13.9-5.3,20.7-8.6c3.9-3.5,8.4-5.7,13.1-7.4c5.4-1.4,10-7.7,14.9-10.6c8.6-4,20.2-6.4,23-17.5
			c0.1,0.2,0.2,0.3,0.4,0.5c-0.3,4.5-3.9,7.4-6.8,10.5c3.4-2.8,6.5-5.2,7.4-9.7c0.2-0.1,0.3,0.2,0.4,0.3c-1,3.2-2.5,6.4-4.8,8.7
			c1.6-1.5,2.9-3.3,4.3-5.2c0.6-0.8,0.7-2.2,1.5-2.5c-1.5,4.5-4.6,8.5-8.4,11.3c4.2-2.5,7.4-6.2,8.9-10.5c0.7,1.2-0.6,2.5-0.9,3.7
			c-1,2-2.2,3.6-3.6,5c2.3-2.1,4.1-4.4,5.5-7.2c0.4,0.3-0.3,0.7,0,1.1c-2.6,4.3-5.8,8.6-10.5,11.3c-7.7,4-16.5,5.7-22.3,13
			c-3.4,2.7-7.1,4-10.8,5.5c-0.9,0.7-1.9,1.3-2.8,1.9c1.5-0.8,3-1.4,4.7-1.9c2.3-0.6,4.4-1.1,6.7-1.7c2.2-1.4,2.5-1.9,4.7-3.5
			c8.6-7.6,21.7-9.1,28.9-19.7c-5.9,6.4-12.7,10.4-20.3,12.4c-6.2,2.1-9.9,8.8-15.8,11.5c-6.9,1.9-12.6,5.9-19,9.2
			c1.7-1.1,3.2-2.1,4.9-3.2c-5.7,2.9-11.5,5-17.6,7.2C108.8,94.7,108.7,94.7,108.6,94.6 M51.1,106.9c0.9,6.1,15.2,2.3,25.3-3
			c2.4-0.9,4.6-1.7,7-2.6c1.1-0.1,2.8-0.8,4-0.8c1.6-0.3,3.2-0.7,4.8-1c1-0.1,5.2-0.3,6.3-0.4c3-0.7,5.8-1.4,8.7-2.1
			c3.3-1.3,6.5-2.4,9.8-3.7c2-0.7,4-1.5,6.2-2.3c3.5-1.2,8-4.4,9.7-4.6c3.4-1.6,6.7-3.2,10.2-4.8c2.5-1.8,4.9-3.6,7.4-5.4
			c2.5-2.5,3.1-3.6,6.1-5c9.3-2.8,20.2-8.1,23.1-18.8c-0.7-2.9-3.5-4.9-5.3-6.8c-2.1-1.3-3.5-2-5.4-1.3c-4.9,1.2-9.6,4.9-11.3,10.1
			c3.7-5.2,9-9.4,11.7-7.5c2.4,1.9,0.5,4.6,0.5,4.6c-7.4,9.4-17.7,9-26,16.8c-4.3,4.7-9.5,5.9-14.4,8.4c-9.9,8.5-22.2,8.9-32.2,16.2
			c-2.8,1.7-5.7,3-8.8,4c-19,5.1-30.8,19.4-34.7,6.5C52.9,104.6,52,105.7,51.1,106.9"/>
		<path style="clip-path:url(#SVGID_00000134958360164538964500000012324113747814596483_);fill:#B76C29;" d="M144.9,70.8
			c5.2-5.7,12.8-6.2,18.3-10.4C156.9,63.5,149.4,65,144.9,70.8"/>
		<path style="clip-path:url(#SVGID_00000134958360164538964500000012324113747814596483_);fill:#B76C29;" d="M142.9,75.6
			c1.9-1.5,3.7-2.8,5.6-4.3c6.1-2.4,12.8-5.3,18.4-9.6C159.3,67.3,149.2,67.9,142.9,75.6"/>
		<path style="clip-path:url(#SVGID_00000134958360164538964500000012324113747814596483_);fill:#B76C29;" d="M143.3,73.1
			c6-5.8,14.4-6.7,19.7-10.9C156.3,65.7,148.6,67.1,143.3,73.1"/>
		<path style="clip-path:url(#SVGID_00000134958360164538964500000012324113747814596483_);fill:#FBAC43;" d="M143.6,52.6
			c0,0-0.1,4.8-2.4,8.6c-1.3,2.1-4.5,6.3-6,8.2c-1.5,1.9-3.1,4.2-4,6.1c-1,1.9-3.5,6.7-5.4,8.4c-1.9,1.7-2.1,3.2-3.4,4.9
			c-1.3,1.8-2.6,4-6,7.5c-4,3-5.9,6.4-7.2,8.1c-1.3,1.7-8,10.5-8,10.5c5.3-3.4,10.3-6.5,15.6-9.7c0,0,2.9-3.8,5.4-6
			c2.5-2.3,3.5-4.6,5-6.4c1.6-1.8,4.1-4.3,5.7-6.7c1.6-2.4,3-7.2,4.3-9c1.3-1.7,3.6-4.6,5.5-6.3c1.9-1.7,5-7.3,5.4-9.3
			c0.4-2,1-6,1-6c-1.2-0.7-1.7-1.4-2.9-2.1C145.2,53.3,144.4,52.9,143.6,52.6"/>
		<path style="clip-path:url(#SVGID_00000134958360164538964500000012324113747814596483_);fill:#B76C29;" d="M131,87.8
			c-3.8,4.1-5.9,7-9.2,11.2c0.8-1.3,1.5-2.5,2.3-3.7c-3,3.8-6.2,7-9.7,10.5c-0.1,0-0.1,0-0.2-0.1c3-4.7,7.9-7.3,10.2-12.4
			c-4.1,5.7-9.3,9.9-13.7,15.3c-0.2,0.1-0.4,0.2-0.6,0.4c3.1-6.8,10.3-9.1,13.2-16.1c-3.8,5.9-9.5,9.5-13.4,15.3
			c-0.5,0.5-1,1.1-1.4,1.7c-0.3,0.2-0.6,0.3-0.9,0.5c1.4-1.9,2.8-3.8,4.2-5.7c3.1-4.9,8.7-6.8,10.8-12.7c2.2-4.5,6.6-6.4,8.6-11.1
			c-2.5,3.6-5.9,6.2-8,10c-4.8,7.5-11.7,12.7-16.7,20.2c-0.3,0.2-0.6,0.4-0.9,0.5c1.3-1.5,1.9-3.1,3.3-4.6
			c3.1-6.6,10.4-9.1,13.3-16.1c1.9-4.3,6.5-6.6,8.3-10.6c-0.8,1.5-2,2.4-3.1,3.6c-2.8,2.6-4.8,5.8-6.7,9.3
			c-5.8,6.2-11.6,11.9-16.4,19.1c-0.7,0.4-1.3,0.7-1.9,1.1c2.5-2.6,4.6-5.2,6.5-8.3c2.8-5,7.6-8.3,11.2-12.7
			c2.1-3.3,4.1-6.2,6.8-8.9c3.3-2.7,4.3-8.4,6.8-11.9c4.6-5.4,11.7-10.8,10-19.2c0.1,0.1,0.3,0.1,0.4,0.2c1.2,3.1-0.3,6.3-1.3,9.3
			c1.4-3,2.8-5.6,2-9c0.1-0.1,0.3,0.1,0.4,0.1c0.3,2.5,0.3,5.2-0.5,7.5c0.6-1.5,0.9-3.2,1.3-4.9c0.1-0.8-0.2-1.7,0.3-2.2
			c0.4,3.6-0.4,7.2-2.1,10.3c2-3,3.1-6.5,2.7-10c0.8,0.6,0.4,1.9,0.6,2.8c-0.1,1.7-0.4,3.2-0.9,4.5c0.9-2.2,1.4-4.3,1.5-6.6
			c0.4,0.1,0,0.6,0.4,0.7c-0.4,3.8-1.2,7.7-3.6,11c-0.6,0.8-10.6,14.2-11,15.9c-1.5,2.9-3.5,5-5.6,7.2c-0.4,0.8-0.9,1.5-1.3,2.2
			c0.8-1,1.6-1.9,2.5-2.8c1-1.2,2.4-2.9,4.3-4.7L131,87.8z M79.1,132.4c2.5,3.9,11-3.3,16.2-10c1.3-1.4,2.6-2.6,3.9-4
			c0.7-0.4,1.7-1.4,2.5-1.8c1-0.7,1.9-1.4,2.9-2.2c0.7-0.4,3.4-1.9,4.2-2.3c1.8-1.4,3.5-2.8,5.3-4.2c1.9-1.9,3.7-3.7,5.5-5.6
			c1.1-1.1,2.2-2.3,3.5-3.5c2-1.9,4.1-5.5,5.1-6.2c1.8-2.2,3.6-4.3,5.4-6.5c0.8-1.4,1.8-2.9,3.3-5.6c1.1-2.4,2.4-4.3,4-6.3
			c5.4-4.9,9.7-11.4,8.3-19.6c-1.4-1.7-3.9-2.2-5.8-3c-1.8-0.2-3-0.2-4.1,0.8c-2.9,2.4-5,6.4-4.5,10.5c0.8-4.7,3.1-9.3,5.6-8.8
			c2.2,0.5,1.8,3,1.8,3c-2,8.8-9.2,11.7-12.3,19.6c-1.4,4.6-4.6,7-7.1,10.3c-5.3,8.5-12.2,13.1-16.8,21.2c-1.4,2.1-2.9,3.8-4.7,5.5
			c-11.3,9.5-14.8,22.9-21.5,15.4C79.5,130.2,79.3,131.3,79.1,132.4"/>
		
			<path style="clip-path:url(#SVGID_00000134958360164538964500000012324113747814596483_);fill:none;stroke:#B76C29;stroke-width:0.122;" d="
			M131,87.8c-3.8,4.1-5.9,7-9.2,11.2c0.8-1.3,1.5-2.5,2.3-3.7c-3,3.8-6.2,7-9.7,10.5c-0.1,0-0.1,0-0.2-0.1c3-4.7,7.9-7.2,10.2-12.4
			c-4.1,5.7-9.3,9.8-13.7,15.3c-0.2,0.1-0.4,0.2-0.6,0.4c3.1-6.8,10.3-9,13.2-16.1c-3.8,5.9-9.5,9.5-13.3,15.3
			c-0.5,0.5-1,1.1-1.4,1.7c-0.3,0.2-0.6,0.3-0.9,0.5c1.4-1.9,2.7-3.8,4.2-5.7c3.1-4.9,8.7-6.8,10.8-12.7c2.2-4.5,6.6-6.4,8.6-11.1
			c-2.5,3.6-5.9,6.2-8,10c-4.8,7.5-11.7,12.7-16.7,20.2c-0.3,0.2-0.6,0.4-0.9,0.5c1.3-1.5,1.9-3.1,3.3-4.5
			c3.1-6.6,10.4-9.1,13.3-16.1c1.9-4.3,6.5-6.6,8.3-10.6c-0.8,1.5-2,2.4-3.1,3.6c-2.8,2.6-4.8,5.8-6.7,9.3
			c-5.8,6.2-11.6,11.9-16.4,19.1c-0.7,0.4-1.3,0.7-1.9,1.1c2.5-2.6,4.6-5.2,6.5-8.3c2.8-5,7.6-8.3,11.1-12.7
			c2.1-3.3,4.1-6.2,6.8-8.9c3.3-2.7,4.3-8.4,6.8-11.9c4.5-5.4,11.7-10.7,10-19.2c0.1,0.1,0.3,0.1,0.4,0.2c1.2,3.1-0.3,6.3-1.3,9.3
			c1.4-3,2.8-5.6,2-9c0.1-0.1,0.3,0.1,0.4,0.1c0.3,2.5,0.3,5.2-0.5,7.5c0.6-1.5,0.9-3.2,1.3-4.9c0.1-0.8-0.2-1.7,0.3-2.2
			c0.4,3.6-0.4,7.2-2.1,10.3c2-3,3.1-6.5,2.7-10c0.8,0.6,0.4,1.9,0.6,2.8c-0.1,1.7-0.4,3.2-0.9,4.5c0.9-2.2,1.4-4.3,1.5-6.6
			c0.4,0.1,0,0.6,0.4,0.7c-0.4,3.8-1.2,7.7-3.6,11c-0.6,0.8-10.6,14.2-11,15.9c-1.5,2.9-3.5,5-5.6,7.2c-0.4,0.8-0.9,1.5-1.3,2.2
			c0.8-1,1.6-1.9,2.5-2.8c1-1.2,2.4-2.9,4.3-4.7L131,87.8z M79.1,132.4c2.5,3.9,11-3.3,16.2-10c1.3-1.4,2.6-2.6,3.9-4
			c0.7-0.4,1.7-1.4,2.5-1.8c1-0.7,1.9-1.4,2.9-2.2c0.7-0.4,3.4-1.9,4.1-2.3c1.8-1.4,3.5-2.8,5.3-4.2c1.9-1.9,3.7-3.7,5.5-5.6
			c1.1-1.1,2.2-2.3,3.5-3.5c2-1.9,4.1-5.5,5.1-6.2c1.8-2.2,3.6-4.3,5.4-6.5c0.8-1.4,1.8-2.9,3.3-5.6c1.1-2.4,2.4-4.3,4-6.3
			c5.4-4.9,9.6-11.4,8.3-19.6c-1.4-1.7-3.9-2.2-5.8-3c-1.8-0.2-3-0.2-4.1,0.8c-2.9,2.4-5,6.4-4.5,10.5c0.8-4.7,3.1-9.3,5.6-8.8
			c2.2,0.5,1.8,3,1.8,3c-2,8.8-9.2,11.7-12.3,19.6c-1.4,4.6-4.6,7-7.1,10.3c-5.3,8.5-12.2,13.1-16.7,21.2c-1.4,2.1-2.9,3.8-4.7,5.5
			c-11.3,9.5-14.8,22.9-21.5,15.4C79.6,130.2,79.3,131.2,79.1,132.4z"/>
		<path style="clip-path:url(#SVGID_00000134958360164538964500000012324113747814596483_);fill:#B76C29;" d="M131.8,81.4
			c0.8-1.6,1.6-3.1,2.4-4.7c3.4-3.6,7-7.6,9.5-12.3C140.3,70.5,133.7,74.2,131.8,81.4"/>
		<path style="clip-path:url(#SVGID_00000134958360164538964500000012324113747814596483_);fill:#B76C29;" d="M131.3,79.6
			c2-5.4,7.4-8.6,9.9-13.6C137.8,70.4,133,73.8,131.3,79.6"/>
		<path style="clip-path:url(#SVGID_00000134958360164538964500000012324113747814596483_);fill:#B76C29;" d="M218.7,57.1
			c0.8-0.9,2.2-2.3,2.8-3.3c7.3-4,17.8-7.4,23.8-10.1c-2.7,0.9-20.3,8.2-22.9,9.2c-2.8,1.4-2.6,0.5-6,1.3c-0.9,0.4-2.5,1.3-3.2,1.5
			c1.6-3,25.2-12,27.9-13.3c-6.1,2.2-11.9,4.5-17.9,6.9c-7,3.4-12.6,6-15.9,9.2c1.7-3.1,15.9-11.8,19.5-13.6
			c0.4-0.2,0.7-0.4,1.1-0.6c-4.4,1.6-19.9,12.7-24.2,14.7c-0.7,0.5-1.2,1.1-2,1.5c0.4-4.4,13.9-13.7,22.6-18.6
			c-3.5,1.5-18.9,12.4-21.3,14.9c-2.1,3-6,2.8-7.9,6.1c0-0.8,0.1-1.5,0.1-2.2c1.5-2.9,16.3-14.5,20.6-17.3c0.1,0,0.3,0,0.4,0
			c-5.7,2.9-21.4,16.6-26.2,20.4c-0.7,0.7-1.3,1.5-1.9,2c0-0.9,0.5-2.3,1.2-3.9c5.2-6.3,25-13.3,29.8-15.6c-5.4,2.3-27.2,12-30,15
			c-2.3,1.9-6.2,4.5-7.8,7.1c0.3-4.8,13.2-16.5,17.2-19.5c-3.9,2.5-11,10.2-13.9,13.2c-2.5,2.6-8.6,6.2-9.8,9.6
			c0-6.4,12.1-12.3,26.1-21.8c-3.8,2.6-24.5,14.9-26.4,18.2c-1.8,1.6-3.4,3.2-5.2,4.9c0.1-4.9,6.5-8.6,19.3-18.4
			c0.9-0.6-17.7,13.3-18.5,14c-2.9,2.1-5.6,4-6.7,7.1c-0.3,2.6-1.5,2.2-2.5,3.9c-2,1.4-4,2.7-6,4.1c2-0.4,4.6-2.1,8-4.3
			c1.3-0.8,1.1-0.2,3.6-1.2c0.2,0.4,0.6,0.7,0.6,1.1c-0.8,0.3-2,1-2.8,0.9c1-0.4,2-0.7,3-1.1c-1.2,0.6-3.7,1.3-4.7,1.5
			c-1.3,0.6-2.5,1.2-3.7,1.8c3.2-1,6.3-1.9,9.5-2.9c0.5,0.1,0.9,0.2,1.4,0.3c7.8-0.5,11.3-1,17.5-2.5c6.2-1.6,14.2-4.2,31.7-7.8
			c-11.4,2.3-22.2,4.9-33.4,8c-2.7,0-6,0.5-8.2-0.4c2-0.3,3.6-1.1,5.6-1.3c3-0.5,30.2-1.9,40.8-2.7c-4.2,0-14.2,0.5-23.3,1
			c-9.2,0.6-16.8,1.2-16.8,0.3c1.4-0.3,2.7-0.6,4.1-0.8c3.7-0.7,35.6-5.8,39.9-6.7c-3.7,0.5-36.2,6.4-37.9,5.1
			c2.5-0.4,4.3-1.1,6.7-1.5c3.4-0.8,35.1-9.6,38.9-10.8c-9.4,2.5-18.2,5.1-27.5,8.1c-3.3,0.5-8.2,2.3-11,1.3
			c1.2-0.5,2.6-0.3,3.9-0.7c7.1-1,20.8-2.8,33-5.7c-6,1-26.4,5.4-30.7,4c0.8-0.2,1.7-0.2,2.5-0.5c5.1-1.4,33.4-9.2,39.1-11
			c-6.2,1.4-12,2.8-18.1,4.3c-8.6,2.3-16.5,6.1-18,4.1c1.1-0.3,0.1,0.7,6.7-1.3c5.6-2.8,16.1-5.1,28.2-10.3
			c-8.7,3.3-23,8.2-27.2,9.1c2.5-1.5,2.7-2.6,4.7-3.6c7.7-2.9,18.4-8,22.5-10.9C238.6,49.1,222.7,57.2,218.7,57.1"/>
		
			<path style="clip-path:url(#SVGID_00000134958360164538964500000012324113747814596483_);fill:none;stroke:#B76C29;stroke-width:0.571;stroke-linecap:round;stroke-linejoin:round;" d="
			M218.7,57.1c0.8-0.9,2.2-2.3,2.8-3.3c7.3-4,17.8-7.4,23.8-10.1c-2.7,0.9-20.3,8.2-22.9,9.2c-2.8,1.4-2.6,0.5-6,1.3
			c-0.9,0.4-2.5,1.3-3.2,1.5c1.6-3,25.2-12,27.9-13.3c-6.1,2.2-11.9,4.5-17.9,6.9c-7,3.4-12.6,6-15.9,9.2
			c1.7-3.1,15.9-11.8,19.5-13.6c0.4-0.2,0.7-0.4,1.1-0.6c-4.4,1.6-19.9,12.7-24.2,14.7c-0.7,0.5-1.2,1.1-2,1.5
			c0.4-4.4,13.9-13.7,22.6-18.6c-3.5,1.5-18.9,12.4-21.3,14.9c-2.1,3-6,2.8-7.9,6.1c0-0.8,0.1-1.5,0.1-2.2
			c1.5-2.9,16.3-14.5,20.6-17.3c0.1,0,0.3,0,0.4,0c-5.7,2.9-21.4,16.6-26.2,20.4c-0.7,0.7-1.3,1.5-1.9,2c0-0.9,0.5-2.3,1.2-3.9
			c5.2-6.3,25-13.3,29.8-15.6c-5.4,2.3-27.2,12-30,15c-2.3,1.9-6.2,4.5-7.8,7.1c0.3-4.8,13.2-16.5,17.2-19.5
			c-3.9,2.5-11,10.2-13.9,13.2c-2.5,2.6-8.6,6.2-9.8,9.6c0-6.4,12.1-12.3,26.1-21.8c-3.8,2.6-24.5,14.9-26.4,18.2
			c-1.8,1.6-3.4,3.2-5.2,4.9c0.1-4.9,6.5-8.6,19.3-18.4c0.9-0.6-17.7,13.3-18.5,14c-2.9,2.1-5.6,4-6.7,7.1c-0.3,2.6-1.5,2.2-2.5,3.9
			c-2,1.4-4,2.7-6,4.1c2-0.4,4.6-2.1,8-4.3c1.3-0.8,1.1-0.2,3.6-1.2c0.2,0.4,0.6,0.7,0.6,1.1c-0.8,0.3-2,1-2.8,0.9
			c1-0.4,2-0.7,3-1.1c-1.2,0.6-3.7,1.3-4.7,1.5c-1.3,0.6-2.5,1.2-3.7,1.8c3.2-1,6.3-1.9,9.5-2.9c0.5,0.1,0.9,0.2,1.4,0.3
			c7.8-0.5,11.3-1,17.5-2.5c6.2-1.6,14.2-4.2,31.7-7.8c-11.4,2.3-22.2,4.9-33.4,8c-2.7,0-6,0.5-8.2-0.4c2-0.3,3.6-1.1,5.6-1.3
			c3-0.5,30.2-1.9,40.8-2.7c-4.2,0-14.2,0.5-23.3,1c-9.2,0.6-16.8,1.2-16.8,0.3c1.4-0.3,2.7-0.6,4.1-0.8c3.7-0.7,35.6-5.8,39.9-6.7
			c-3.7,0.5-36.2,6.4-37.9,5.1c2.5-0.4,4.3-1.1,6.7-1.5c3.4-0.8,35.1-9.6,38.9-10.8c-9.4,2.5-18.2,5.1-27.5,8.1
			c-3.3,0.5-8.2,2.3-11,1.3c1.2-0.5,2.6-0.3,3.9-0.7c7.1-1,20.8-2.8,33-5.7c-6,1-26.4,5.4-30.7,4c0.8-0.2,1.7-0.2,2.5-0.5
			c5.1-1.4,33.4-9.2,39.1-11c-6.2,1.4-12,2.8-18.1,4.3c-8.6,2.3-16.5,6.1-18,4.1c1.1-0.3,0.1,0.7,6.7-1.3
			c5.6-2.8,16.1-5.1,28.2-10.3c-8.7,3.3-23,8.2-27.2,9.1c2.5-1.5,2.7-2.6,4.7-3.6c7.7-2.9,18.4-8,22.5-10.9
			C238.6,49.1,222.7,57.2,218.7,57.1z"/>
		<path style="clip-path:url(#SVGID_00000134958360164538964500000012324113747814596483_);fill:#FBAC43;" d="M166,73.4
			c0.8,0.6,1,1.5,1.2,2.2c-0.7,0-0.4-0.8-1.1-0.8c-0.2,0.7,0.9,1,0.4,1.7c-0.4-0.3-0.7-0.8-1.1-0.9c0,0.5,0.3,1,0.6,1.6
			c-0.6,0-0.7-0.8-1.2-0.7c0.1,0.5,0.2,0.9,0.2,1.3c-0.6,0.2-0.6-0.4-0.9-0.7c-0.4-0.9,0.6-1.2,0.4-2.1c1,0,0-1.3,1.2-1
			C165.6,73.9,165.8,73.7,166,73.4"/>
		
			<path style="clip-path:url(#SVGID_00000134958360164538964500000012324113747814596483_);fill:none;stroke:#FBAC43;stroke-width:0.204;" d="
			M166,73.4c0.8,0.6,1,1.5,1.2,2.2c-0.7,0-0.4-0.8-1.1-0.8c-0.2,0.7,0.9,1,0.4,1.7c-0.4-0.3-0.7-0.8-1.1-0.9c0,0.5,0.3,1,0.6,1.6
			c-0.6,0-0.7-0.8-1.2-0.7c0.1,0.5,0.2,0.9,0.2,1.3c-0.6,0.2-0.6-0.4-0.9-0.7c-0.4-0.9,0.6-1.2,0.4-2.1c1,0,0-1.3,1.2-1
			C165.6,73.9,165.8,73.7,166,73.4z"/>
		<path style="clip-path:url(#SVGID_00000134958360164538964500000012324113747814596483_);fill:#FBAC43;" d="M166.7,72.8
			c0.4,0.5,1,1.1,0.9,1.7C167.3,74.1,166.2,73.6,166.7,72.8"/>
		
			<path style="clip-path:url(#SVGID_00000134958360164538964500000012324113747814596483_);fill:none;stroke:#FBAC43;stroke-width:0.204;" d="
			M166.7,72.8c0.4,0.5,1,1.1,0.9,1.7C167.3,74.1,166.2,73.6,166.7,72.8z"/>
		<path style="clip-path:url(#SVGID_00000134958360164538964500000012324113747814596483_);fill:#FBAC43;" d="M167.5,72.2
			c0.4,0.1,0.3,0.7,0.3,1c-0.1,0.1-0.1,0.1-0.2,0.2c-0.2-0.3-0.5-0.6-0.5-0.9C167.2,72.3,167.3,72.1,167.5,72.2"/>
		<path style="clip-path:url(#SVGID_00000134958360164538964500000012324113747814596483_);fill:#FBAC43;" d="M169.9,72.9
			c0.1,0.1,0.2,0.2,0.4,0.1c-0.2-0.5,0.3-1,0.8-0.7c-0.1-0.2,0-0.4,0.1-0.5c0.1,0.1,0.4,0.1,0.3,0.3c0.1,0,0.2,0,0.4-0.1
			c-0.2-0.4-0.4-0.6,0.1-0.9c0.1,0,0.3,0,0.4,0c0.1-0.2-0.1-0.4,0.2-0.5c0.4,0.3,0.8,1.1,0.7,1.7c-0.3-0.4-0.6-0.8-0.9-1.2
			c-0.2,0.6,0.8,1.5,0.4,2.1c-0.2-0.4-0.6-0.8-1-1c0.2,0.6,0.4,1.1,0.6,1.7c-0.4-0.3-0.7-0.6-1.1-0.9c-0.2,0.7,0.7,1.1,0.4,1.7
			c-0.5-0.3-0.4-0.9-1.1-1c0.1,0.5,0.2,1,0.3,1.5c-0.1-0.3-0.7-0.4-0.7-0.8c0,0-0.1,0-0.1,0c0,0.3,0,0.6,0,0.9
			c-0.3-0.1-0.4-0.5-0.8-0.3c0,0.3,0,0.5,0.1,0.7c-0.7-0.1-0.5-0.7-0.5-1.2c0.4-0.3,0.6-1,0.9-1.4C169.8,73,169.9,72.9,169.9,72.9"
			/>
		
			<path style="clip-path:url(#SVGID_00000134958360164538964500000012324113747814596483_);fill:none;stroke:#FBAC43;stroke-width:0.204;" d="
			M169.9,72.9c0.1,0.1,0.2,0.2,0.4,0.1c-0.2-0.5,0.3-1,0.8-0.7c-0.1-0.2,0-0.4,0.1-0.5c0.1,0.1,0.4,0.1,0.3,0.3c0.1,0,0.2,0,0.4-0.1
			c-0.2-0.4-0.4-0.6,0.1-0.9c0.1,0,0.3,0,0.4,0c0.1-0.2-0.1-0.4,0.2-0.5c0.4,0.3,0.8,1.1,0.7,1.7c-0.3-0.4-0.6-0.8-0.9-1.2
			c-0.2,0.6,0.8,1.5,0.4,2.1c-0.2-0.4-0.6-0.8-1-1c0.2,0.6,0.4,1.1,0.6,1.7c-0.4-0.3-0.7-0.6-1.1-0.9c-0.2,0.7,0.7,1.1,0.4,1.7
			c-0.5-0.3-0.4-0.9-1.1-1c0.1,0.5,0.2,1,0.3,1.5c-0.1-0.3-0.7-0.4-0.7-0.8c0,0-0.1,0-0.1,0c0,0.3,0,0.6,0,0.9
			c-0.3-0.1-0.4-0.5-0.8-0.3c0,0.3,0,0.5,0.1,0.7c-0.7-0.1-0.5-0.7-0.5-1.2c0.4-0.3,0.6-1,0.9-1.4C169.8,73,169.9,72.9,169.9,72.9z"
			/>
		<path style="clip-path:url(#SVGID_00000134958360164538964500000012324113747814596483_);fill:#FBAC43;" d="M173.1,69.9
			c0.5,0.1,0.2,0.7,0.2,0.9C173.1,70.6,172.8,70.2,173.1,69.9"/>
		<path style="clip-path:url(#SVGID_00000134958360164538964500000012324113747814596483_);fill:#FBAC43;" d="M168,77.4
			c0.2-0.2,0.3-0.3,0.5-0.5c0.8,0.2,1.1-0.3,1.7,0.3c0-0.2,0-0.4,0-0.6c1,0.4,1.2,1.4,1.6,2.3c-0.7-0.3-0.8-1.2-1.5-1.5
			c0.2,0.6,0.3,1.1,0.5,1.7c-0.7-0.2-0.7-1.3-1.5-1.4c-0.1,0.4,0.1,1,0.4,1.3c-0.6,0-0.6-1.6-1.4-0.9c0.1,0.3,0.2,0.5,0.3,0.8
			c-0.3-0.2-0.2-0.8-0.8-0.6c0,0.1,0,0.3-0.1,0.4c-0.5-0.5-0.5-1-0.1-1.4c0.1-0.1,0.1-0.1,0.1-0.2C167.7,77.3,167.8,77.3,168,77.4"
			/>
		
			<path style="clip-path:url(#SVGID_00000134958360164538964500000012324113747814596483_);fill:none;stroke:#FBAC43;stroke-width:0.204;" d="
			M168,77.4c0.2-0.2,0.3-0.3,0.5-0.5c0.8,0.2,1.1-0.3,1.7,0.3c0-0.2,0-0.4,0-0.6c1,0.4,1.2,1.4,1.6,2.3c-0.7-0.3-0.8-1.2-1.5-1.5
			c0.2,0.6,0.3,1.1,0.5,1.7c-0.7-0.2-0.7-1.3-1.5-1.4c-0.1,0.4,0.1,1,0.4,1.3c-0.6,0-0.6-1.6-1.4-0.9c0.1,0.3,0.2,0.5,0.3,0.8
			c-0.3-0.2-0.2-0.8-0.8-0.6c0,0.1,0,0.3-0.1,0.4c-0.5-0.5-0.5-1-0.1-1.4c0.1-0.1,0.1-0.1,0.1-0.2C167.7,77.3,167.8,77.3,168,77.4z"
			/>
		<path style="clip-path:url(#SVGID_00000134958360164538964500000012324113747814596483_);fill:#FBAC43;" d="M177.4,68.8
			c0.6,0.6,1.4,1.7,1.2,2.7c-0.2-0.6-0.6-1.1-1-1.4c-0.2,0.8,0.8,1.2,0.5,1.9c-0.4-0.3-0.3-1-1-0.9c0,0.5,0.5,1,0.5,1.5
			c-0.4-0.1-0.5-0.7-1-0.8c-0.1,0.5,0.7,0.8,0.2,1.3c-0.5-0.1-0.2-0.6-0.7-0.6c-0.2,0.2-0.1,0.5,0,0.6c-0.5,0.1-0.8-0.1-1-0.5
			c0.1-1,0.5-1.6,1.1-2.4c0.7,0,0.3-1.2,1-0.9C177.1,69.1,177.2,68.9,177.4,68.8"/>
		
			<path style="clip-path:url(#SVGID_00000134958360164538964500000012324113747814596483_);fill:none;stroke:#FBAC43;stroke-width:0.204;" d="
			M177.4,68.8c0.6,0.6,1.4,1.7,1.2,2.7c-0.2-0.6-0.6-1.1-1-1.4c-0.2,0.8,0.8,1.2,0.5,1.9c-0.4-0.3-0.3-1-1-0.9c0,0.5,0.5,1,0.5,1.5
			c-0.4-0.1-0.5-0.7-1-0.8c-0.1,0.5,0.7,0.8,0.2,1.3c-0.5-0.1-0.2-0.6-0.7-0.6c-0.2,0.2-0.1,0.5,0,0.6c-0.5,0.1-0.8-0.1-1-0.5
			c0.1-1,0.5-1.6,1.1-2.4c0.7,0,0.3-1.2,1-0.9C177.1,69.1,177.2,68.9,177.4,68.8z"/>
		<path style="clip-path:url(#SVGID_00000134958360164538964500000012324113747814596483_);fill:#FBAC43;" d="M178.1,68.1
			c0.3,0.2,0.2,0.6,0.6,0.7c0.3-0.1-0.2-0.5-0.3-0.7c0.1-0.1,0.2-0.3,0.3-0.4c0.1,0.1,0.2,0.1,0.3,0.2c0.4,0-0.2-0.5,0.4-0.5
			c0,0.5,1,0.6,0.5,1.2c-0.2-0.1-0.4-0.3-0.6-0.4c-0.1,0.5,0.7,0.8,0.4,1.4c-0.4-0.1-0.3-0.5-0.7-0.6c-0.1,0.4,0.8,1.1,0.2,1.7
			C178.8,69.8,177.7,69.1,178.1,68.1"/>
		<path style="clip-path:url(#SVGID_00000134958360164538964500000012324113747814596483_);fill:#FBAC43;" d="M172.8,78.7
			c-0.1,0.1-0.1,0.1-0.2,0.2c-0.5-0.7-0.9-1.4-1.4-2.1C172.5,76.5,172.2,78.1,172.8,78.7"/>
		<path style="clip-path:url(#SVGID_00000134958360164538964500000012324113747814596483_);fill:#FBAC43;" d="M180,66.8
			c0,0.2,0.1,0.5,0.1,0.7c-0.1-0.2-0.3-0.3-0.4-0.5C179.8,67.1,179.9,66.9,180,66.8"/>
		<path style="clip-path:url(#SVGID_00000134958360164538964500000012324113747814596483_);fill:#FBAC43;" d="M174.4,74.6
			c-0.1-0.1,0.1-0.2,0.2-0.4c0.5,0.5,0.7-0.3,1.2-0.1c0.4,0.7,1.2,1.2,1.2,2.2c-0.8,0-0.5-1.3-1.6-1.2c0.1,0.5,0.5,0.8,0.7,1.2
			c0,0,0,0.1-0.1,0.1c-0.6-0.2-0.7-1-1.2-1.2c-0.4,0.5,0.4,0.8,0.1,1.3c-0.7-0.2-0.2-1.2-1.1-1c0,0.1,0,0.3,0,0.4
			c-0.1,0.1-0.6-0.2-0.8-0.5c-0.4-0.8,0.8-0.3,0.7-1C174,74.5,174.2,74.6,174.4,74.6"/>
		
			<path style="clip-path:url(#SVGID_00000134958360164538964500000012324113747814596483_);fill:none;stroke:#FBAC43;stroke-width:0.204;" d="
			M174.4,74.6c-0.1-0.1,0.1-0.2,0.2-0.4c0.5,0.5,0.7-0.3,1.2-0.1c0.4,0.7,1.2,1.2,1.2,2.2c-0.8,0-0.5-1.3-1.6-1.2
			c0.1,0.5,0.5,0.8,0.7,1.2c0,0,0,0.1-0.1,0.1c-0.6-0.2-0.7-1-1.2-1.2c-0.4,0.5,0.4,0.8,0.1,1.3c-0.7-0.2-0.2-1.2-1.1-1
			c0,0.1,0,0.3,0,0.4c-0.1,0.1-0.6-0.2-0.8-0.5c-0.4-0.8,0.8-0.3,0.7-1C174,74.5,174.2,74.6,174.4,74.6z"/>
		<path style="clip-path:url(#SVGID_00000134958360164538964500000012324113747814596483_);fill:#FBAC43;" d="M172.6,76.8
			c0.9,0.2,0.9,1.2,1.3,1.8C173.2,78.4,172.8,77.5,172.6,76.8"/>
		<path style="clip-path:url(#SVGID_00000134958360164538964500000012324113747814596483_);fill:#FBAC43;" d="M174.7,78.1
			c0,0.2,0.1,0.3-0.1,0.4c-0.3-0.4-0.7-0.8-1-1.3C174.3,76.9,174.5,77.8,174.7,78.1"/>
		<path style="clip-path:url(#SVGID_00000134958360164538964500000012324113747814596483_);fill:#FBAC43;" d="M176.8,74
			c0.7,0.7,0.8,1.6,1.1,2.3c-0.4-0.7-1.4-1.4-1.4-2.3C176.6,74.1,176.7,74,176.8,74"/>
		<path style="clip-path:url(#SVGID_00000134958360164538964500000012324113747814596483_);fill:#FBAC43;" d="M183.1,67.4
			c-0.1-0.3,0.1-0.6,0.3-0.8c0,0,0.1,0,0.1,0.1c0.2-0.2,0.4-0.5,0.6-0.7c0.1,0,0.1,0.1,0.1,0.1c0.2-0.2,0.5-0.4,0.7-0.6
			c0.1,0,0.1,0.1,0.2,0.1c0.2-0.2,0.3-0.4,0.5-0.6c0.4,0.8,1.1,1.5,0.8,2.4c-0.3-0.4-0.2-1-0.9-1.2c-0.2,0.7,0.8,1.4,0.4,2.1
			c-0.3-0.5-0.7-1.1-1.2-1.4c-0.1,0.7,0.6,1.4,0.4,2.1c-0.4-0.4-0.4-1.1-1.1-1.3c-0.4,0.7,0.5,1.4,0.3,2.1c-0.5-0.4-0.3-1.4-1.1-1.3
			c0.1,0.6,0.2,1.1,0.3,1.7c-0.4-0.3-0.3-1.2-1.1-1c0.1,0.3,0.2,0.6,0.3,0.9c-0.5-0.2-0.7-1-0.9-1.6c0,0,0.1-0.1,0.1-0.1
			c0.1,0.1,0.3,0,0.4,0C182.4,67.9,182.5,67.2,183.1,67.4"/>
		
			<path style="clip-path:url(#SVGID_00000134958360164538964500000012324113747814596483_);fill:none;stroke:#FBAC43;stroke-width:0.204;" d="
			M183.1,67.4c-0.1-0.3,0.1-0.6,0.3-0.8c0,0,0.1,0,0.1,0.1c0.2-0.2,0.4-0.5,0.6-0.7c0.1,0,0.1,0.1,0.1,0.1c0.2-0.2,0.5-0.4,0.7-0.6
			c0.1,0,0.1,0.1,0.2,0.1c0.2-0.2,0.3-0.4,0.5-0.6c0.4,0.8,1.1,1.5,0.8,2.4c-0.3-0.4-0.2-1-0.9-1.2c-0.2,0.7,0.8,1.4,0.4,2.1
			c-0.3-0.5-0.7-1.1-1.2-1.4c-0.1,0.7,0.6,1.4,0.4,2.1c-0.4-0.4-0.4-1.1-1.1-1.3c-0.4,0.7,0.5,1.4,0.3,2.1c-0.5-0.4-0.3-1.4-1.1-1.3
			c0.1,0.6,0.2,1.1,0.3,1.7c-0.4-0.3-0.3-1.2-1.1-1c0.1,0.3,0.2,0.6,0.3,0.9c-0.5-0.2-0.7-1-0.9-1.6c0,0,0.1-0.1,0.1-0.1
			c0.1,0.1,0.3,0,0.4,0C182.4,67.9,182.5,67.2,183.1,67.4z"/>
		<path style="clip-path:url(#SVGID_00000134958360164538964500000012324113747814596483_);fill:#FBAC43;" d="M181.8,69.1
			c0.3,0.2,0.2,0.6,0.3,0.8C181.7,70,181.4,69.3,181.8,69.1"/>
		<path style="clip-path:url(#SVGID_00000134958360164538964500000012324113747814596483_);fill:#FBAC43;" d="M177.8,74.2
			c0.2,0.7,0.8,0,1.3,0.3c0.1,0.6,0.4,0.9,0.6,1.3c-0.1,0.1-0.1,0.1-0.2,0.2c-0.4-0.5-0.7-0.9-1.1-1.4c-0.1,0.3,0.2,1,0.3,1.5
			c-0.5-0.3-1.1-1.2-1.2-1.9C177.6,74.2,177.7,74.2,177.8,74.2"/>
		<path style="clip-path:url(#SVGID_00000134958360164538964500000012324113747814596483_);fill:#FBAC43;" d="M180,71.8
			c0.3-0.3,1.3,0,1.5-0.7c0.6,0.3,1.3-0.4,1.5,0.4c0.1,0.7,0.3,1.5,0.4,2.2c-0.1,0-0.2,0.1-0.3,0.1c-0.1-0.7-0.2-1.5-0.9-1.8
			c0,0.6,0.1,1.2,0.1,1.8c-0.4-0.3-0.4-1.2-1-1.4c0,0.5,0,0.9,0,1.4c-0.4-0.3-0.4-0.9-0.8-1.1c-0.1,0.3-0.1,0.6-0.2,1
			c-0.2-0.2-0.3-0.4-0.5-0.6c-0.2,0-0.2,0.2-0.4,0.3c-0.6-0.1-0.2-0.6-0.3-0.9C179.7,72.5,179.7,72.1,180,71.8"/>
		
			<path style="clip-path:url(#SVGID_00000134958360164538964500000012324113747814596483_);fill:none;stroke:#FBAC43;stroke-width:0.204;" d="
			M180,71.8c0.3-0.3,1.3,0,1.5-0.7c0.6,0.3,1.3-0.4,1.5,0.4c0.1,0.7,0.3,1.5,0.4,2.2c-0.1,0-0.2,0.1-0.3,0.1
			c-0.1-0.7-0.2-1.5-0.9-1.8c0,0.6,0.1,1.2,0.1,1.8c-0.4-0.3-0.4-1.2-1-1.4c0,0.5,0,0.9,0,1.4c-0.4-0.3-0.4-0.9-0.8-1.1
			c-0.1,0.3-0.1,0.6-0.2,1c-0.2-0.2-0.3-0.4-0.5-0.6c-0.2,0-0.2,0.2-0.4,0.3c-0.6-0.1-0.2-0.6-0.3-0.9
			C179.7,72.5,179.7,72.1,180,71.8z"/>
		<path style="clip-path:url(#SVGID_00000134958360164538964500000012324113747814596483_);fill:#FBAC43;" d="M186.3,64.4
			c0.3,0.4,0.8,1.1,0.6,1.7c-0.3-0.5-0.5-1.1-0.8-1.6C186.1,64.5,186.2,64.5,186.3,64.4"/>
		<path style="clip-path:url(#SVGID_00000134958360164538964500000012324113747814596483_);fill:#FBAC43;" d="M175.6,78
			c-0.2-0.1-0.4-0.3-0.7-0.4c0.2,0.1,0.4,0.1,0.6,0.2C175.6,77.9,175.6,77.9,175.6,78"/>
		<path style="clip-path:url(#SVGID_00000134958360164538964500000012324113747814596483_);fill:#FBAC43;" d="M186.9,63.8
			c0.2,0.2,0.1,0.5,0,0.6C186.4,64.3,186.7,64,186.9,63.8"/>
		<path style="clip-path:url(#SVGID_00000134958360164538964500000012324113747814596483_);fill:#FBAC43;" d="M179.8,74.6
			c0.3,0.3,0.4,0.6,0.5,0.9c-0.5,0-0.4-0.5-0.8-0.8C179.6,74.7,179.7,74.6,179.8,74.6"/>
		<path style="clip-path:url(#SVGID_00000134958360164538964500000012324113747814596483_);fill:#FBAC43;" d="M183.5,71.1
			c0.4,0.8,0.9,1.6,0.6,2.5C183.9,72.7,183,71.8,183.5,71.1"/>
		<path style="clip-path:url(#SVGID_00000134958360164538964500000012324113747814596483_);fill:#FBAC43;" d="M180.8,74.9
			c0.2,0.1,0.4,0.1,0.4,0.3c-0.1,0.1-0.1,0.1-0.2,0.2C180.9,75.3,180.3,74.9,180.8,74.9"/>
		<path style="clip-path:url(#SVGID_00000134958360164538964500000012324113747814596483_);fill:#FBAC43;" d="M184.5,71.2
			c0.3,0.7,0.5,1.4,0.5,2.1c-0.4-0.7-0.7-1.4-1.1-2C184.2,71.3,184.3,71.3,184.5,71.2"/>
		<path style="clip-path:url(#SVGID_00000134958360164538964500000012324113747814596483_);fill:#FBAC43;" d="M189.9,64.6
			c0.1,0.1,0.2,0.2,0.3,0.2c0.4-0.2-0.2-0.4,0.2-0.6c0.2,0,0.4,0,0.5-0.1c-0.1-0.2,0-0.3,0.1-0.5c0.6,0.3,0.3-0.3,0.7-0.5
			c0.5,0.7,0.9,1.5,1.1,2.3c-0.4-0.1-0.5-1-1.1-1c0.2,0.6,0.5,1.3,0.4,1.8c-0.2-0.5-0.3-1-0.9-1.2c-0.2,0.7,0.6,1.3,0.2,1.9
			c-0.1-0.4-0.5-0.6-0.6-1.1c-0.1,0-0.2,0-0.3,0c0.1,0.5,0.2,1.1,0.3,1.6c-0.7,0-0.2-1.7-1.1-0.9c-0.1,0.4,0.3,0.6,0.2,1
			c-0.3-0.4-0.6-0.7-0.8-1c0,0.3,0,0.5,0,0.8c-0.4,0-0.8-0.4-0.6-0.8c0.1-0.1,0.2-0.2,0.3-0.3c0.1,0.1,0.1,0.1,0.2,0.2
			c0.3-0.2-0.3-1.3,0.7-1.1C189.6,65.1,189.7,64.8,189.9,64.6"/>
		
			<path style="clip-path:url(#SVGID_00000134958360164538964500000012324113747814596483_);fill:none;stroke:#FBAC43;stroke-width:0.204;" d="
			M189.9,64.6c0.1,0.1,0.2,0.2,0.3,0.2c0.4-0.2-0.2-0.4,0.2-0.6c0.2,0,0.4,0,0.5-0.1c-0.1-0.2,0-0.3,0.1-0.5
			c0.6,0.3,0.3-0.3,0.7-0.5c0.5,0.7,0.9,1.5,1.1,2.3c-0.4-0.1-0.5-1-1.1-1c0.2,0.6,0.5,1.3,0.4,1.8c-0.2-0.5-0.3-1-0.9-1.2
			c-0.2,0.7,0.6,1.3,0.2,1.9c-0.1-0.4-0.5-0.6-0.6-1.1c-0.1,0-0.2,0-0.3,0c0.1,0.5,0.2,1.1,0.3,1.6c-0.7,0-0.2-1.7-1.1-0.9
			c-0.1,0.4,0.3,0.6,0.2,1c-0.3-0.4-0.6-0.7-0.8-1c0,0.3,0,0.5,0,0.8c-0.4,0-0.8-0.4-0.6-0.8c0.1-0.1,0.2-0.2,0.3-0.3
			c0.1,0.1,0.1,0.1,0.2,0.2c0.3-0.2-0.3-1.3,0.7-1.1C189.6,65.1,189.7,64.8,189.9,64.6z"/>
		<path style="clip-path:url(#SVGID_00000134958360164538964500000012324113747814596483_);fill:#FBAC43;" d="M192.5,62.6
			c0.7,0.6,0.7,1.4,1.1,2.1C193.2,64.3,192.4,63.3,192.5,62.6"/>
		<path style="clip-path:url(#SVGID_00000134958360164538964500000012324113747814596483_);fill:#FBAC43;" d="M187,69.1
			c0.5,0.5,0.5-0.7,1-0.1c0.2-0.1,0.4-0.2,0.6-0.4c0.4,0.6,0.8,1.5,0.8,2.3c-0.2-0.4-0.4-1.2-1-1.3c0.1,0.4,0.1,0.8,0.2,1.2
			c-0.4-0.3-0.4-0.8-0.9-0.9c0,0.4,0.1,0.8,0.1,1.1c-0.3-0.2-0.2-0.7-0.7-0.7c-0.1,0.2-0.2,0.4-0.3,0.6c-0.3-0.2-0.4-0.6-0.3-0.9
			C186.6,69.7,186.8,69.4,187,69.1"/>
		
			<path style="clip-path:url(#SVGID_00000134958360164538964500000012324113747814596483_);fill:none;stroke:#FBAC43;stroke-width:0.204;" d="
			M187,69.1c0.5,0.5,0.5-0.7,1-0.1c0.2-0.1,0.4-0.2,0.6-0.4c0.4,0.6,0.8,1.5,0.8,2.3c-0.2-0.4-0.4-1.2-1-1.3
			c0.1,0.4,0.1,0.8,0.2,1.2c-0.4-0.3-0.4-0.8-0.9-0.9c0,0.4,0.1,0.8,0.1,1.1c-0.3-0.2-0.2-0.7-0.7-0.7c-0.1,0.2-0.2,0.4-0.3,0.6
			c-0.3-0.2-0.4-0.6-0.3-0.9C186.6,69.7,186.8,69.4,187,69.1z"/>
		<path style="clip-path:url(#SVGID_00000134958360164538964500000012324113747814596483_);fill:#FBAC43;" d="M193.3,62.1
			c0.7,0.5,0.6,1.4,0.8,2.1C194,63.6,192.6,62.8,193.3,62.1"/>
		<path style="clip-path:url(#SVGID_00000134958360164538964500000012324113747814596483_);fill:#FBAC43;" d="M194.1,61.5
			c0,0.4,0.1,0.8,0.1,1.2C193.8,62.4,193.5,61.7,194.1,61.5"/>
		<path style="clip-path:url(#SVGID_00000134958360164538964500000012324113747814596483_);fill:#FBAC43;" d="M185.9,72.6
			c-0.1,0.2,0.2,0.4,0,0.6c-0.2-0.5-0.5-1-0.7-1.6C185.6,71.5,185.7,72.2,185.9,72.6"/>
		<path style="clip-path:url(#SVGID_00000134958360164538964500000012324113747814596483_);fill:#FBAC43;" d="M186.8,72.9
			c-0.1,0.1-0.1,0.1-0.2,0.2c-0.2-0.4-0.4-0.7-0.7-1.1C186.5,72.1,186.8,72.4,186.8,72.9"/>
		<path style="clip-path:url(#SVGID_00000134958360164538964500000012324113747814596483_);fill:#FBAC43;" d="M189.7,68.5
			c0.3,0.9,0.3,1.6,0.5,2.4c-0.5-0.5-0.6-1.5-0.9-2.3C189.4,68.5,189.5,68.5,189.7,68.5"/>
		<path style="clip-path:url(#SVGID_00000134958360164538964500000012324113747814596483_);fill:#FBAC43;" d="M190.4,68.5
			c0.3,0.7,0.5,1.4,0.6,2.2C190.8,69.9,189.8,69.2,190.4,68.5"/>
		<path style="clip-path:url(#SVGID_00000134958360164538964500000012324113747814596483_);fill:#FBAC43;" d="M187.7,72.6
			c0.1,0.1-0.1,0.2-0.1,0.3c-0.1-0.1-0.3-0.2-0.4-0.3C187.2,72.3,187.5,72.6,187.7,72.6"/>
		<path style="clip-path:url(#SVGID_00000134958360164538964500000012324113747814596483_);fill:#FBAC43;" d="M197.2,61.9
			c0.1-0.3,0.2-0.5,0.3-0.7c0.1,0.1,0.3,0.2,0.4,0.2c-0.3-1.1,1.1-0.1,1.1-1.2c0.7,0.5,1,1.6,1,2.4c-0.3-0.4-0.2-1-0.9-1.1
			c-0.4,0.7,0.5,1.3,0.5,1.9c-0.4-0.3-0.6-1-1.2-1.2c-0.3,0.7,0.9,1.3,0.5,1.9c-0.4-0.4-0.4-1-1.2-1.1c0,0.6,0.7,1.1,0.5,1.7
			c-0.8-0.1-0.4-1-1.2-1.1c0.1,0.4,0.2,0.8,0.4,1.2c-0.5-0.6-1.5-1.3-1-2.1c0.1,0,0.2,0,0.3,0c-0.2-0.3,0-0.6,0.3-0.9
			C197,61.9,197.1,61.9,197.2,61.9"/>
		
			<path style="clip-path:url(#SVGID_00000134958360164538964500000012324113747814596483_);fill:none;stroke:#FBAC43;stroke-width:0.204;" d="
			M197.2,61.9c0.1-0.3,0.2-0.5,0.3-0.7c0.1,0.1,0.3,0.2,0.4,0.2c-0.3-1.1,1.1-0.1,1.1-1.2c0.7,0.5,1,1.6,1,2.4
			c-0.3-0.4-0.2-1-0.9-1.1c-0.4,0.7,0.5,1.3,0.5,1.9c-0.4-0.3-0.6-1-1.2-1.2c-0.3,0.7,0.9,1.3,0.5,1.9c-0.4-0.4-0.4-1-1.2-1.1
			c0,0.6,0.7,1.1,0.5,1.7c-0.8-0.1-0.4-1-1.2-1.1c0.1,0.4,0.2,0.8,0.4,1.2c-0.5-0.6-1.5-1.3-1-2.1c0.1,0,0.2,0,0.3,0
			c-0.2-0.3,0-0.6,0.3-0.9C197,61.9,197.1,61.9,197.2,61.9z"/>
		<path style="clip-path:url(#SVGID_00000134958360164538964500000012324113747814596483_);fill:#FBAC43;" d="M191.4,68.7
			c0.2,0.6,0.4,1.2,0.2,1.8C191.7,69.8,190.6,69,191.4,68.7"/>
		<path style="clip-path:url(#SVGID_00000134958360164538964500000012324113747814596483_);fill:#FBAC43;" d="M196.5,64.6
			c-0.2,0.3-0.6-0.2-0.8-0.4c0-0.2,0-0.4,0-0.6C195.9,63.6,196.3,64.2,196.5,64.6"/>
		<path style="clip-path:url(#SVGID_00000134958360164538964500000012324113747814596483_);fill:#FBAC43;" d="M194,66.1
			c0.2-0.5,0.4,0,0.7,0c0.1-0.1,0.2-0.3,0.2-0.4c0.2,0.1,0.4,0.2,0.6,0.3c-0.1-0.1,0.1-0.2,0.2-0.4c1.1,0.4,0.9,1.7,1.3,2.5
			c-0.5-0.2-0.4-1.5-1.4-1.5c0.1,0.5,0.2,1,0.2,1.5c-0.5-0.4-0.4-1.3-1.1-1.3c0.1,0.5,0.2,0.9,0.3,1.4c-0.5-0.2-0.3-1.1-1-1
			c0.1,0.4,0.1,0.7,0.2,1.1c-0.3-0.2-0.2-0.7-0.8-0.7c-0.1,0.1-0.2,0.2-0.1,0.5c-0.3,0.4-0.8-0.5-0.6-0.9
			C193.5,67.1,193.2,66,194,66.1"/>
		
			<path style="clip-path:url(#SVGID_00000134958360164538964500000012324113747814596483_);fill:none;stroke:#FBAC43;stroke-width:0.204;" d="
			M194,66.1c0.2-0.5,0.4,0,0.7,0c0.1-0.1,0.2-0.3,0.2-0.4c0.2,0.1,0.4,0.2,0.6,0.3c-0.1-0.1,0.1-0.2,0.2-0.4
			c1.1,0.4,0.9,1.7,1.3,2.5c-0.5-0.2-0.4-1.5-1.4-1.5c0.1,0.5,0.2,1,0.2,1.5c-0.5-0.4-0.4-1.3-1.1-1.3c0.1,0.5,0.2,0.9,0.3,1.4
			c-0.5-0.2-0.3-1.1-1-1c0.1,0.4,0.1,0.7,0.2,1.1c-0.3-0.2-0.2-0.7-0.8-0.7c-0.1,0.1-0.2,0.2-0.1,0.5c-0.3,0.4-0.8-0.5-0.6-0.9
			C193.5,67.1,193.2,66,194,66.1z"/>
		<path style="clip-path:url(#SVGID_00000134958360164538964500000012324113747814596483_);fill:#FBAC43;" d="M200.4,60.3
			c0.1,0.4,0.3,0.7,0.4,1.1c-0.5-0.2-1-0.9-1.2-1.5C199.9,59.3,200.3,60,200.4,60.3"/>
		<path style="clip-path:url(#SVGID_00000134958360164538964500000012324113747814596483_);fill:#FBAC43;" d="M192.1,68.7
			c0.6,0.3,0.5,0.9,0.4,1.3C192.2,69.9,192,69.1,192.1,68.7"/>
		<path style="clip-path:url(#SVGID_00000134958360164538964500000012324113747814596483_);fill:#FBAC43;" d="M200.7,59.3
			c0.3,0.3,0.6,0.7,0.4,1.1C200.8,60.3,200.1,59.6,200.7,59.3"/>
		<path style="clip-path:url(#SVGID_00000134958360164538964500000012324113747814596483_);fill:#FBAC43;" d="M201.2,59
			c0.2,0.1,0,0.2,0.1,0.4c-0.1-0.1-0.2-0.1-0.3-0.2C201.1,59.1,201.2,59.1,201.2,59"/>
		<path style="clip-path:url(#SVGID_00000134958360164538964500000012324113747814596483_);fill:#FBAC43;" d="M193.2,69
			c0.4,0.2,0,0.5,0,0.8C193.1,69.6,192.6,69.1,193.2,69"/>
		<path style="clip-path:url(#SVGID_00000134958360164538964500000012324113747814596483_);fill:#FBAC43;" d="M197,65.6
			c0.7,0.7,0.8,1.7,1.1,2.4c-0.5-0.6-1.3-1.6-1.4-2.4C196.8,65.7,196.9,65.7,197,65.6"/>
		<path style="clip-path:url(#SVGID_00000134958360164538964500000012324113747814596483_);fill:#FBAC43;" d="M194,69.2
			c0.1,0.1,0.2,0.1,0.3,0.2c-0.1,0.1-0.2,0.2-0.3,0.3C193.8,69.6,193.6,69.2,194,69.2"/>
		<path style="clip-path:url(#SVGID_00000134958360164538964500000012324113747814596483_);fill:#FBAC43;" d="M199,67.9
			c-0.5-0.7-0.9-1.4-1.4-2.1C198.7,66,198.7,67.1,199,67.9"/>
		<path style="clip-path:url(#SVGID_00000134958360164538964500000012324113747814596483_);fill:#FBAC43;" d="M202.9,60.8
			c-0.3-0.3,0.2-0.5,0.3-0.7c0.1,0,0.3,0,0.4,0c-0.4-1.2,1.2,0,0.9-1.1c1.1,0.3,0.5,1.3,1,1.8c-0.3-0.2-0.6-0.4-0.9-0.7
			c-0.3,0.4,0.1,0.8,0.3,1.2c-0.1,0.1-0.1,0.1-0.2,0.2c-0.3-0.2-0.4-0.6-0.7-0.6c-0.5,0.4,0.4,0.7,0.1,1.2c-0.3-0.2-0.6-0.3-0.9-0.5
			c-0.5,0.3,0.2,1-0.6,0.5C202,61.8,202.2,60.8,202.9,60.8"/>
		
			<path style="clip-path:url(#SVGID_00000134958360164538964500000012324113747814596483_);fill:none;stroke:#FBAC43;stroke-width:0.204;" d="
			M202.9,60.8c-0.3-0.3,0.2-0.5,0.3-0.7c0.1,0,0.3,0,0.4,0c-0.4-1.2,1.2,0,0.9-1.1c1.1,0.3,0.5,1.3,1,1.8c-0.3-0.2-0.6-0.4-0.9-0.7
			c-0.3,0.4,0.1,0.8,0.3,1.2c-0.1,0.1-0.1,0.1-0.2,0.2c-0.3-0.2-0.4-0.6-0.7-0.6c-0.5,0.4,0.4,0.7,0.1,1.2c-0.3-0.2-0.6-0.3-0.9-0.5
			c-0.5,0.3,0.2,1-0.6,0.5C202,61.8,202.2,60.8,202.9,60.8z"/>
		<path style="clip-path:url(#SVGID_00000134958360164538964500000012324113747814596483_);fill:#FBAC43;" d="M205.2,58.6
			c0.5,0.3,0.8,0.9,1.1,1.5c-0.1,0.1-0.2,0.2-0.2,0.3C206,59.6,204.8,59.2,205.2,58.6"/>
		<path style="clip-path:url(#SVGID_00000134958360164538964500000012324113747814596483_);fill:#FBAC43;" d="M201.3,63.7
			c0.2-0.2,0.3-0.3,0.5-0.5c0.5,0.4,1.1-0.7,1.5,0.3c0,0.9,1.1,1.3,1,2.1c-0.8-0.3-0.8-1.5-1.8-1.6c0.2,0.6,0.6,1.1,0.8,1.7
			c-0.7-0.2-0.9-1.1-1.6-1.3c0.1,0.5,0.3,0.9,0.4,1.4c-0.4-0.3-0.8-0.6-1.3-0.9c-0.3,0.2,0.1,0.3,0,0.6c-0.4,0-0.6-0.2-0.9-0.4
			C200.1,64.3,200.5,63.9,201.3,63.7"/>
		
			<path style="clip-path:url(#SVGID_00000134958360164538964500000012324113747814596483_);fill:none;stroke:#FBAC43;stroke-width:0.204;" d="
			M201.3,63.7c0.2-0.2,0.3-0.3,0.5-0.5c0.5,0.4,1.1-0.7,1.5,0.3c0,0.9,1.1,1.3,1,2.1c-0.8-0.3-0.8-1.5-1.8-1.6
			c0.2,0.6,0.6,1.1,0.8,1.7c-0.7-0.2-0.9-1.1-1.6-1.3c0.1,0.5,0.3,0.9,0.4,1.4c-0.4-0.3-0.8-0.6-1.3-0.9c-0.3,0.2,0.1,0.3,0,0.6
			c-0.4,0-0.6-0.2-0.9-0.4C200.1,64.3,200.5,63.9,201.3,63.7z"/>
		<path style="clip-path:url(#SVGID_00000134958360164538964500000012324113747814596483_);fill:#FBAC43;" d="M198.9,66.1
			c0.9,0.2,0.8,1.1,1,1.7C199.7,67.3,198.6,66.7,198.9,66.1"/>
		<path style="clip-path:url(#SVGID_00000134958360164538964500000012324113747814596483_);fill:#FBAC43;" d="M206,58.2
			c0.4,0.3,0.7,0.8,0.5,1.1C206.1,59.1,205.7,58.6,206,58.2"/>
		<path style="clip-path:url(#SVGID_00000134958360164538964500000012324113747814596483_);fill:#FBAC43;" d="M206.7,58.4
			c-0.1-0.2-0.2-0.3-0.3-0.5c0.1,0,0.2-0.1,0.3-0.1C206.7,58,206.7,58.2,206.7,58.4"/>
		<path style="clip-path:url(#SVGID_00000134958360164538964500000012324113747814596483_);fill:#FBAC43;" d="M200.8,67.2
			c0,0.1,0,0.2,0,0.3c-0.3-0.1-0.8-0.7-0.9-1.1C200.4,66.3,200.6,66.9,200.8,67.2"/>
		<path style="clip-path:url(#SVGID_00000134958360164538964500000012324113747814596483_);fill:#FBAC43;" d="M205.4,65.2
			c-0.1,0.1-0.1,0.1-0.2,0.2c-0.7-0.7-1.2-1.4-1.7-2.3C204.4,63,204.7,64.6,205.4,65.2"/>
		<path style="clip-path:url(#SVGID_00000134958360164538964500000012324113747814596483_);fill:#FBAC43;" d="M209.8,57.3
			C209.8,57.3,209.8,57.3,209.8,57.3c0.2-0.1,0.4-0.2,0.6-0.3c0.4,0.4,1.2,1,1,1.6c-0.4-0.2-0.4-0.7-0.9-0.6
			c0.2,0.4,0.3,0.8,0.5,1.3c-0.7,0.1-0.4-0.8-1.1-0.6c0.1,0.3,0.1,0.6,0.2,1c-0.3-0.2-0.6-0.8-1-0.4c0.1,0.2,0.1,0.3,0.2,0.5
			c-0.4,0-0.8,0-0.9-0.4C208.3,58.1,209.5,57.9,209.8,57.3"/>
		
			<path style="clip-path:url(#SVGID_00000134958360164538964500000012324113747814596483_);fill:none;stroke:#FBAC43;stroke-width:0.204;" d="
			M209.8,57.3C209.8,57.3,209.8,57.3,209.8,57.3c0.2-0.1,0.4-0.2,0.6-0.3c0.4,0.4,1.2,1,1,1.6c-0.4-0.2-0.4-0.7-0.9-0.6
			c0.2,0.4,0.3,0.8,0.5,1.3c-0.7,0.1-0.4-0.8-1.1-0.6c0.1,0.3,0.1,0.6,0.2,1c-0.3-0.2-0.6-0.8-1-0.4c0.1,0.2,0.1,0.3,0.2,0.5
			c-0.4,0-0.8,0-0.9-0.4C208.3,58.1,209.5,57.9,209.8,57.3z"/>
		<path style="clip-path:url(#SVGID_00000134958360164538964500000012324113747814596483_);fill:#FBAC43;" d="M201.7,67.2
			c-0.1,0.1-0.1,0.1-0.2,0.2c-0.3,0.1-0.4-0.3-0.3-0.5C201.4,67,201.5,67.1,201.7,67.2"/>
		<path style="clip-path:url(#SVGID_00000134958360164538964500000012324113747814596483_);fill:#FBAC43;" d="M206,64.8
			c0,0.1,0.1,0.2,0.1,0.3c-0.5-0.6-1-1.2-1.5-1.8C205.9,62.8,205.4,64.3,206,64.8"/>
		<path style="clip-path:url(#SVGID_00000134958360164538964500000012324113747814596483_);fill:#FBAC43;" d="M211.7,56.9
			c0.1,0.3,0.6,0.6,0.2,0.8c-0.4-0.4-0.7-0.7-1.1-1.1C211.2,56,211.6,56.7,211.7,56.9"/>
		<path style="clip-path:url(#SVGID_00000134958360164538964500000012324113747814596483_);fill:#FBAC43;" d="M208.4,60.7
			c0.5-0.6,0.9,0.5,1.3-0.3c0.9,0.4,1,1.5,1.4,2.2c-0.6-0.1-0.6-1.1-1.4-0.9c0.1,0.3,0.4,0.7,0.4,0.9c-0.5-0.2-0.6-1.4-1.4-0.7
			c0.1,0.2,0.2,0.4,0.4,0.5c0,0,0,0,0,0c-0.6-0.1-0.4-0.9-1.1-0.8c0,0.3,0,0.5,0,0.8c-0.8-0.1-1.1-0.9-0.8-1.4
			C208,61.5,207.6,60.3,208.4,60.7"/>
		
			<path style="clip-path:url(#SVGID_00000134958360164538964500000012324113747814596483_);fill:none;stroke:#FBAC43;stroke-width:0.204;" d="
			M208.4,60.7c0.5-0.6,0.9,0.5,1.3-0.3c0.9,0.4,1,1.5,1.4,2.2c-0.6-0.1-0.6-1.1-1.4-0.9c0.1,0.3,0.4,0.7,0.4,0.9
			c-0.5-0.2-0.6-1.4-1.4-0.7c0.1,0.2,0.2,0.4,0.4,0.5c0,0,0,0,0,0c-0.6-0.1-0.4-0.9-1.1-0.8c0,0.3,0,0.5,0,0.8
			c-0.8-0.1-1.1-0.9-0.8-1.4C208,61.5,207.6,60.3,208.4,60.7z"/>
		<path style="clip-path:url(#SVGID_00000134958360164538964500000012324113747814596483_);fill:#FBAC43;" d="M212,55.8
			c0.3,0.1,0.5,0.4,0.6,0.7c-0.1,0.1-0.1,0.1-0.2,0.2c-0.3-0.2-0.6-0.3-0.8-0.5C211.7,56.1,211.8,56,212,55.8"/>
		<path style="clip-path:url(#SVGID_00000134958360164538964500000012324113747814596483_);fill:#FBAC43;" d="M212.7,55.5
			c0.2,0.1,0.1,0.2,0.1,0.3c-0.2,0-0.3-0.1-0.5-0.1C212.4,55.6,212.5,55.4,212.7,55.5"/>
		<path style="clip-path:url(#SVGID_00000134958360164538964500000012324113747814596483_);fill:#FBAC43;" d="M206.8,64.2
			c0,0.2,0,0.4,0,0.6c-0.4-0.2-0.9-0.8-1.1-1.2C206.2,63.3,206.7,63.8,206.8,64.2"/>
		<path style="clip-path:url(#SVGID_00000134958360164538964500000012324113747814596483_);fill:#FBAC43;" d="M207.9,64.3
			c0,0.1,0.1,0.3-0.1,0.4c-0.3-0.2-0.5-0.4-0.7-0.7C207.3,63.9,207.6,64,207.9,64.3"/>
		<path style="clip-path:url(#SVGID_00000134958360164538964500000012324113747814596483_);fill:#FBAC43;" d="M212.1,62.2
			c0,0.1,0,0.2,0,0.3c-0.7-0.4-0.9-1.3-1.6-1.9C211.7,60.2,211.5,61.7,212.1,62.2"/>
		<path style="clip-path:url(#SVGID_00000134958360164538964500000012324113747814596483_);fill:#FBAC43;" d="M216.3,55
			c0.9,0.7,0.3-1.1,1.1-0.2c0.2-0.2,0.3-0.3,0.5-0.5c0.1,0.1,0.3,0.1,0.3,0.3c0.1,0,0.2,0,0.3,0c0,0,0-0.1-0.1-0.2
			c0.1-0.1,0.1-0.1,0.2-0.2c0.5,0.1,0.7,0.5,0.9,0.9c-0.1,0.1-0.1,0.1-0.2,0.2c-0.3-0.2-0.5-0.4-0.8-0.5c-0.4,0.3,0.4,0.6,0.3,1
			c-0.3,0-0.6-0.7-1-0.3c-0.1,0.4,0.6,0.6,0.3,0.8c-0.3-0.2-0.6-0.3-0.8-0.5c0.1,0.3,0.2,0.6,0.3,0.8c-0.6-0.1-0.5-0.7-1.2-0.5
			c0.1,0.2,0.2,0.5,0.3,0.7c-0.3-0.1-0.6-0.2-0.9-0.3c0,0.2-0.1,0.4-0.1,0.6c-0.4,0-0.7-0.1-0.9-0.3C214.7,55.8,215.9,55.4,216.3,55
			"/>
		
			<path style="clip-path:url(#SVGID_00000134958360164538964500000012324113747814596483_);fill:none;stroke:#FBAC43;stroke-width:0.204;" d="
			M216.3,55c0.9,0.7,0.3-1.1,1.1-0.2c0.2-0.2,0.3-0.3,0.5-0.5c0.1,0.1,0.3,0.1,0.3,0.3c0.1,0,0.2,0,0.3,0c0,0,0-0.1-0.1-0.2
			c0.1-0.1,0.1-0.1,0.2-0.2c0.5,0.1,0.7,0.5,0.9,0.9c-0.1,0.1-0.1,0.1-0.2,0.2c-0.3-0.2-0.5-0.4-0.8-0.5c-0.4,0.3,0.4,0.6,0.3,1
			c-0.3,0-0.6-0.7-1-0.3c-0.1,0.4,0.6,0.6,0.3,0.8c-0.3-0.2-0.6-0.3-0.8-0.5c0.1,0.3,0.2,0.6,0.3,0.8c-0.6-0.1-0.5-0.7-1.2-0.5
			c0.1,0.2,0.2,0.5,0.3,0.7c-0.3-0.1-0.6-0.2-0.9-0.3c0,0.2-0.1,0.4-0.1,0.6c-0.4,0-0.7-0.1-0.9-0.3C214.7,55.8,215.9,55.4,216.3,55
			z"/>
		<path style="clip-path:url(#SVGID_00000134958360164538964500000012324113747814596483_);fill:#FBAC43;" d="M212.9,60
			c-0.1,0-0.7-0.2-0.5-0.5C212.6,59.6,212.7,59.8,212.9,60"/>
		<path style="clip-path:url(#SVGID_00000134958360164538964500000012324113747814596483_);fill:#FBAC43;" d="M214.5,58.2
			c0.5-0.2,1.4-0.2,2-0.5c0.3,0.5,0.7,0.9,1,1.4c-0.3-0.2-0.7-0.4-1-0.6c-0.3,0.2,0.1,0.6,0.2,0.9c0,0,0.1,0,0.1,0.1
			c-0.1,0.1-0.1,0.1-0.2,0.2c-0.4-0.3-0.5-0.9-1.1-0.8c-0.2,0.4,0.7,0.7,0.3,1.1c-0.4-0.3-0.8-0.5-1.2-0.8c0.1,0.3,0.1,0.7,0.2,1
			c-0.5-0.2-0.4-0.9-1.1-0.7c0,0.2,0.1,0.5,0.1,0.7c-0.5-0.4-0.9-0.6-1.1-1.2C213.7,59,213.9,58.3,214.5,58.2"/>
		
			<path style="clip-path:url(#SVGID_00000134958360164538964500000012324113747814596483_);fill:none;stroke:#FBAC43;stroke-width:0.204;" d="
			M214.5,58.2c0.5-0.2,1.4-0.2,2-0.5c0.3,0.5,0.7,0.9,1,1.4c-0.3-0.2-0.7-0.4-1-0.6c-0.3,0.2,0.1,0.6,0.2,0.9c0,0,0.1,0,0.1,0.1
			c-0.1,0.1-0.1,0.1-0.2,0.2c-0.4-0.3-0.5-0.9-1.1-0.8c-0.2,0.4,0.7,0.7,0.3,1.1c-0.4-0.3-0.8-0.5-1.2-0.8c0.1,0.3,0.1,0.7,0.2,1
			c-0.5-0.2-0.4-0.9-1.1-0.7c0,0.2,0.1,0.5,0.1,0.7c-0.5-0.4-0.9-0.6-1.1-1.2C213.7,59,213.9,58.3,214.5,58.2z"/>
		<path style="clip-path:url(#SVGID_00000134958360164538964500000012324113747814596483_);fill:#FBAC43;" d="M211.8,60.7
			c0.6,0.3,0.8,1,1.1,1.6C212.5,62,211.7,61.3,211.8,60.7"/>
		<path style="clip-path:url(#SVGID_00000134958360164538964500000012324113747814596483_);fill:#FBAC43;" d="M213.7,61.9
			c0,0.1,0,0.1,0,0.2c-0.4-0.1-0.7-0.7-0.9-1.1C213.7,60.6,213.3,61.7,213.7,61.9"/>
		<path style="clip-path:url(#SVGID_00000134958360164538964500000012324113747814596483_);fill:#FBAC43;" d="M219.5,54
			c0.4,0,0.5,0.3,0.5,0.5c0,0-0.1,0.1-0.1,0.1c-0.2-0.2-0.4-0.4-0.5-0.5C219.5,54.1,219.5,54.1,219.5,54"/>
		<path style="clip-path:url(#SVGID_00000134958360164538964500000012324113747814596483_);fill:#FBAC43;" d="M220.7,53.8
			c0.1,0.1,0,0.2,0.1,0.4c-0.2,0.2-0.6,0.1-0.6-0.2C220.3,53.8,220.5,53.9,220.7,53.8"/>
		<path style="clip-path:url(#SVGID_00000134958360164538964500000012324113747814596483_);fill:#FBAC43;" d="M217.5,57.5
			c0.3,0.4,0.5,0.8,0.8,1.2c-0.6,0.1-0.9-0.6-1.3-0.9C217.1,57.6,217.3,57.5,217.5,57.5"/>
		<path style="clip-path:url(#SVGID_00000134958360164538964500000012324113747814596483_);fill:#FBAC43;" d="M214.5,61.4
			c0,0.2,0.1,0.3-0.1,0.5c-0.1-0.2-0.2-0.4-0.3-0.7C214.3,61.2,214.3,61.4,214.5,61.4"/>
		<path style="clip-path:url(#SVGID_00000134958360164538964500000012324113747814596483_);fill:#FBAC43;" d="M218.1,57.5
			c0.5,0.1,0.6,0.4,0.8,0.8c-0.3-0.2-0.6-0.4-0.9-0.6C218.1,57.6,218.1,57.5,218.1,57.5"/>
		<path style="clip-path:url(#SVGID_00000134958360164538964500000012324113747814596483_);fill:#FBAC43;" d="M215.4,61.4
			c0.1,0,0.1,0.2,0.2,0.2c-0.2,0-0.3-0.1-0.5-0.1C215.1,61.3,215.3,61.4,215.4,61.4"/>
		<path style="clip-path:url(#SVGID_00000134958360164538964500000012324113747814596483_);fill:#FBAC43;" d="M219.6,57.5
			c0.1,0.2-0.2,0.3-0.3,0.4C218.7,57.8,219.2,57.2,219.6,57.5"/>
		<path style="clip-path:url(#SVGID_00000134958360164538964500000012324113747814596483_);fill:#232E67;" d="M375.9,194.4
			c11.9,0,21.5-10,21.5-22.3v-68.8c0-12.3-9.6-22.3-21.5-22.3H25.2C13.4,81,3.7,91,3.7,103.3v68.8c0,12.3,9.6,22.3,21.5,22.3H375.9z
			"/>
		
			<path style="clip-path:url(#SVGID_00000134958360164538964500000012324113747814596483_);fill:none;stroke:#B76C29;stroke-width:1.586;" d="
			M375.9,194.4c11.9,0,21.5-10,21.5-22.3v-68.8c0-12.3-9.6-22.3-21.5-22.3H25.2C13.4,81,3.7,91,3.7,103.3v68.8
			c0,12.3,9.6,22.3,21.5,22.3H375.9z"/>
		<path style="clip-path:url(#SVGID_00000134958360164538964500000012324113747814596483_);fill:#B76C29;" d="M101.1,109.2
			c-9.3,7.5-12.7,17.1-13.7,26.9l2.8-2.4c7.6-7.3,14.7-15,14.9-24.4C104.5,107.9,102.3,108.5,101.1,109.2 M90.7,98.5l-0.4,1.1
			c-17.5,13-31.1,27.3-34,44.8c-0.3,3.3,0,6.6,3.7,8.5c5.6,1,10.4-1.9,14.1-5c1.2-19.1,9.3-36.5,29.8-49.2c2.6-1.1,5.2-2.5,8.5-1.9
			c5.3,2.4,2.9,8.1,2.1,11.6c-3.7,13.1-14.3,24-26.7,34.3c1.3,4.8,1.7,10.1,7.6,13.2c7.6,1.3,13.2-4,17.8-8.1
			c8.5-9.2,13.6-19.5,16-30.6c-2.9-0.2-5.8-1.1-6.7-3.5c-0.1-5.9,2.4-11.6,8.7-15.5c1.4-0.6,3.4-0.3,4.7,0.2
			c4.4,2.8,2.9,7.9,2.9,11.9c6.4,0.4,12.1-1.6,17.8-3.1c18.9-6.5,25.4-8.6,50.1-9.8c4.6,0.7,9.9,0.2,15,1.7
			c-2.9,2.8-4.7,7.2-12.1,12.9c-23.8-6.1-46.9,1-67.9,4.5c-1.6,0.3-4.8-0.6-4.5,1.6c-5,17-13.8,32.9-30,46.4
			c-6.9,4.7-14.3,9.8-24,7.9c-5.8-2-7-6.9-8.3-11c-8.3,5.3-16.6,12.5-28.1,10.7c-10.4-4.5-7.3-15-5.8-22.3c4.5-16.1,16-30,29.2-43.3
			c0.2-0.4-0.3-0.6-0.6-0.9c-9.2,2.5-17.2,7.2-24.8,12.5c-4.3,2.7-8,6.3-12,9.5c-0.2-3.8,2.6-7.3,3.9-10.9l6-9.8
			c12.6-5,25.7-9.1,40.4-10.4C85.9,96.9,89.8,96.3,90.7,98.5"/>
		
			<path style="clip-path:url(#SVGID_00000134958360164538964500000012324113747814596483_);fill:none;stroke:#B76C29;stroke-width:2.056;" d="
			M101.1,109.4c-9.2,7.4-12.7,16.9-13.6,26.7l2.8-2.4c7.5-7.3,14.6-14.9,14.9-24.2C104.4,108.1,102.2,108.7,101.1,109.4z M90.7,98.8
			l-0.4,1.1c-17.4,12.9-30.9,27.1-33.8,44.5c-0.3,3.3,0,6.5,3.7,8.5c5.6,1,10.3-1.9,14-4.9c1.1-19,9.2-36.2,29.6-48.8
			c2.6-1.1,5.2-2.5,8.5-1.9c5.3,2.4,2.9,8,2.1,11.5c-3.7,13-14.2,23.8-26.6,34c1.3,4.7,1.7,10,7.6,13.1c7.6,1.2,13.1-3.9,17.7-8
			c8.5-9.1,13.5-19.3,15.9-30.3c-2.9-0.2-5.8-1.1-6.6-3.4c-0.1-5.8,2.4-11.5,8.7-15.4c1.4-0.6,3.4-0.3,4.7,0.2
			c4.4,2.7,2.9,7.8,2.9,11.8c6.4,0.4,12.1-1.6,17.7-3.1c18.8-6.4,25.2-8.5,49.8-9.7c4.6,0.7,9.9,0.2,15,1.7
			c-2.9,2.7-4.7,7.1-12.1,12.8c-23.7-6-46.7,1-67.5,4.4c-1.6,0.3-4.8-0.6-4.5,1.5c-5,16.9-13.7,32.6-29.9,46
			c-6.9,4.6-14.2,9.7-23.9,7.8c-5.7-2-6.9-6.8-8.2-10.9c-8.3,5.3-16.5,12.4-28,10.6c-10.3-4.4-7.3-14.9-5.8-22.1
			c4.5-15.9,15.9-29.7,29.1-43c0.2-0.4-0.3-0.6-0.6-0.9c-9.2,2.5-17.1,7.1-24.7,12.4c-4.3,2.6-8,6.3-12,9.4
			c-0.2-3.8,2.6-7.2,3.9-10.8l6-9.7c12.5-5,25.6-9,40.2-10.3C85.9,97.2,89.8,96.6,90.7,98.8z"/>
		<path style="clip-path:url(#SVGID_00000134958360164538964500000012324113747814596483_);fill:#B76C29;" d="M185,158.8
			c-1.6-0.4-0.9-0.6-2.8-0.5c-2.1,0.7-2.4,1.9-2.9,3.2c-0.5,1.2,1,3.4,2.3,4.3c1.5,0.8,3.2,1,5.2,0.9c16.1-3.9,5.6-17.5,9.2-26.4
			l-15,14.5c0,0,2.6,0,4,1.2C186.4,157,185,158.8,185,158.8 M161.9,128.8c-11,4.5-16.3,13.2-19.9,21.2l2.7-0.6
			c10.3-2.7,20-10.8,20.9-19.2C165,129.2,163.6,128.4,161.9,128.8 M215.1,121.5c0,0,0.4,0.1,0.4,0.6c0,0.5-0.3,0.7-0.3,0.7
			c-12.3,7-4.1,18.8-5.8,28.5c0,7.4-5.6,18.1-15.1,21.1c-6.2,2.5-15.7,1.5-21.6-1.9c-3.1-1.7-4.8-4.4-5.2-7.1
			c-8.8,5-22.8,13.5-34.2,9.3c-11.4-4.1-9-15.1-6.6-21.3c4.6-12.1,20.7-24.9,37.5-28.1c3.9-0.7,7.7,0.1,10.7,1.7
			c3.4,2.8,4.4,7.2,2.6,10.8c-5.4,11.5-21.9,18-36.7,19.1c-0.9,2.8-1.7,5.2,0.8,7.2c1.9,2,6.6,1.4,9.3,0.9c13-4.8,27.9-15.6,37.2-24
			l18.7-17.9C209.1,121.2,213.2,120.6,215.1,121.5"/>
		
			<path style="clip-path:url(#SVGID_00000134958360164538964500000012324113747814596483_);fill:none;stroke:#B76C29;stroke-width:2.056;" d="
			M184.9,158.6c-1.6-0.4-0.9-0.6-2.8-0.5c-2.1,0.7-2.4,1.9-2.9,3.1c-0.5,1.2,1,3.4,2.3,4.2c1.5,0.8,3.2,1,5.2,0.9
			c16-3.8,5.6-17.3,9.1-26.1L181,154.6c0,0,2.6,0,4,1.2C186.3,156.9,184.9,158.6,184.9,158.6z M162,129
			c-10.9,4.4-16.2,13.1-19.8,20.9l2.7-0.6c10.3-2.7,19.9-10.7,20.7-18.9C165.1,129.4,163.7,128.6,162,129z M214.8,121.8
			c0,0,0.4,0.1,0.4,0.6c0,0.5-0.3,0.7-0.3,0.7c-12.2,7-4,18.5-5.7,28.1c0,7.3-5.5,17.9-15,20.8c-6.2,2.4-15.6,1.5-21.5-1.8
			c-3-1.7-4.8-4.4-5.2-7c-8.7,4.9-22.6,13.3-34,9.2c-11.4-4-8.9-14.9-6.5-21.1c4.6-11.9,20.5-24.6,37.3-27.8
			c3.9-0.7,7.6,0.1,10.6,1.7c3.4,2.7,4.4,7.1,2.6,10.7c-5.3,11.4-21.7,17.7-36.5,18.9c-0.9,2.7-1.7,5.1,0.8,7.1
			c1.9,2,6.6,1.4,9.3,0.9c12.9-4.8,27.7-15.4,37-23.7l18.5-17.7C208.9,121.6,212.8,120.9,214.8,121.8z"/>
		<path style="clip-path:url(#SVGID_00000134958360164538964500000012324113747814596483_);fill:#B76C29;" d="M285,141.7
			c1.3,1.3,3,1.7,5,1.3l2.2-0.9c-2.8,6.7-8.9,16.3-19.5,18.3c-2.5,0.2-4.6-0.2-6.4-1.1c-4.8-4.4-1.4-11.8,1.2-16.1
			c3.8-5.5,11.7-13.2,21.3-12.6l1.9,0.7c1.8,1.1,1.9,2.7,2.3,4.2c-2.6,1-2.5,0.7-5.6,0.9C285,137.1,283.9,139.5,285,141.7
			 M360.2,152.2c-2.6-1.3-11.3,9.9-19,10.7c-1.6-0.4-1.3-1.8-1.1-2.7l13.8-22.8c1.9-3.5,4.9-6.9,4.3-11c-0.7-1.2-2.3-2.1-4.1-2.1
			c-9.2,0.6-16.4,5.3-23.7,9.1c0.5-2.6,1.1-5.9-1.3-7.9c-1.3-0.9-2.9-1-4.5-1.1c-7.7,1.2-16.9,6.3-24.2,8.4
			c-0.8-1.9-1.8-4.4-4.4-6.6c-3.2-2.6-9.7-2.5-14.4-1.8c-17.8,3.5-29.4,16.2-32.6,29l-9.6,6.3c-3.1,1.8-7.4,3.9-11.3,2.2
			c-1.4-0.9-1.7-3.3-1.3-4.6c4.1-9.7,10-17.3,16-26.9c4.4-0.3,8.8-0.2,12.9,0.1l4.3-6.1c-4.3-0.6-8.3,0.8-12.9,0
			c3.2-5.4,7.3-10.8,10.5-16.2c-4.3,0-8.7-0.1-12.9,0.2c-4.3,5-7,11.1-11.4,16.1l-11.7-0.7c-1.9,2.4-2.3,4-3.6,6.5l11.7-0.1
			c-6.5,10.7-14.1,18.4-16.7,30.9c-0.2,4,2.2,9.4,6.2,11.1c11.5,3,21.6-1.8,31.2-9.6c0.7,3.1,1.9,5.4,5.5,7.6
			c4.1,2.9,12.7,2.8,17.4,1.6c17.1-6,25.4-19.4,28-32.4c3.9-1.8,10.2-5.4,14.7-6.3c1.1,0.3,1.6,1.3,1.1,2.1l-21.7,35.5
			c4.2,0.1,9.9,0.2,13.6,0.2l5.6-9.8c5.2-7.7,8-16.2,16.1-23c2.5-1.7,5.1-3.9,8.9-3.9c0.8,0.4,1.1,1.1,1.3,1.8
			c-2.8,6.5-6.4,11.9-9.9,18.2c-1.8,2.6-3.5,7.8-2.2,11.4c0.4,1.2,2.1,5.7,6.2,6.3c8.3,1.6,10.7-1.2,18.6-7
			C353.4,164.8,364.1,154.1,360.2,152.2"/>
		
			<path style="clip-path:url(#SVGID_00000134958360164538964500000012324113747814596483_);fill:none;stroke:#B76C29;stroke-width:2.056;" d="
			M285.1,141.7c1.3,1.3,3,1.7,5,1.3l2.1-0.9c-2.8,6.7-8.9,16.1-19.4,18.1c-2.4,0.2-4.5-0.2-6.4-1.1c-4.7-4.3-1.4-11.7,1.2-16
			c3.8-5.4,11.7-13,21.2-12.5l1.9,0.7c1.8,1.1,1.9,2.7,2.3,4.2c-2.6,1-2.5,0.7-5.6,0.9C285,137.1,283.9,139.5,285.1,141.7z
			 M359.9,152.1c-2.6-1.3-11.3,9.8-18.9,10.6c-1.6-0.4-1.3-1.8-1.1-2.7l13.8-22.6c1.8-3.5,4.9-6.8,4.3-10.9
			c-0.7-1.2-2.3-2.1-4.1-2.1c-9.2,0.6-16.3,5.3-23.6,9c0.5-2.5,1.1-5.8-1.3-7.9c-1.3-0.8-2.9-1-4.5-1.1c-7.6,1.2-16.8,6.3-24.1,8.3
			c-0.8-1.9-1.8-4.4-4.4-6.5c-3.2-2.6-9.6-2.5-14.3-1.8c-17.7,3.4-29.3,16-32.5,28.7l-9.6,6.2c-3,1.7-7.4,3.9-11.2,2.2
			c-1.4-0.9-1.7-3.3-1.3-4.5c4.1-9.6,9.9-17.1,16-26.6c4.3-0.3,8.8-0.2,12.8,0.1l4.3-6c-4.3-0.6-8.3,0.8-12.9,0
			c3.2-5.3,7.3-10.7,10.5-16.1c-4.3,0-8.7-0.1-12.9,0.2c-4.3,5-7,11-11.4,15.9l-11.6-0.6c-1.8,2.4-2.3,4-3.6,6.4l11.6-0.1
			c-6.5,10.6-14.1,18.2-16.6,30.6c-0.2,4,2.2,9.3,6.2,11c11.5,2.9,21.5-1.8,31.1-9.5c0.7,3.1,1.9,5.4,5.5,7.5
			c4.1,2.9,12.7,2.8,17.4,1.6c17-5.9,25.3-19.2,27.8-32.1c3.9-1.8,10.2-5.4,14.7-6.2c1.1,0.3,1.6,1.3,1.1,2l-21.6,35.2
			c4.2,0.1,9.9,0.2,13.5,0.2l5.6-9.7c5.2-7.6,8-16,16-22.8c2.5-1.7,5.1-3.9,8.8-3.8c0.8,0.4,1.1,1.1,1.3,1.7
			c-2.8,6.4-6.4,11.8-9.9,18c-1.8,2.6-3.5,7.7-2.2,11.3c0.4,1.2,2.1,5.7,6.1,6.3c8.3,1.6,10.7-1.1,18.5-6.9
			C353.2,164.5,363.8,153.9,359.9,152.1z"/>
		<path style="clip-path:url(#SVGID_00000134958360164538964500000012324113747814596483_);fill:#FFFFFF;" d="M101.1,109.2
			c-9.3,7.5-12.7,17.1-13.7,26.9l2.8-2.4c7.6-7.3,14.7-15,14.9-24.4C104.5,107.9,102.3,108.5,101.1,109.2 M90.7,98.5l-0.4,1.1
			c-17.5,13-31.1,27.3-34,44.8c-0.3,3.3,0,6.6,3.7,8.5c5.6,1,10.4-1.9,14.1-5c1.2-19.1,9.3-36.5,29.8-49.2c2.6-1.1,5.2-2.5,8.5-1.9
			c5.3,2.4,2.9,8.1,2.1,11.6c-3.7,13.1-14.3,24-26.7,34.3c1.3,4.8,1.7,10.1,7.6,13.2c7.6,1.3,13.2-4,17.8-8.1
			c8.5-9.2,13.6-19.5,16-30.6c-2.9-0.2-5.8-1.1-6.7-3.5c-0.1-5.9,2.4-11.6,8.7-15.5c1.4-0.6,3.4-0.3,4.7,0.2
			c4.4,2.8,2.9,7.9,2.9,11.9c6.4,0.4,12.1-1.6,17.8-3.1c18.9-6.5,25.4-8.6,50.1-9.8c4.6,0.7,9.9,0.2,15,1.7
			c-2.9,2.8-4.7,7.2-12.1,12.9c-23.8-6.1-46.9,1-67.9,4.5c-1.6,0.3-4.8-0.6-4.5,1.6c-5,17-13.8,32.9-30,46.4
			c-6.9,4.7-14.3,9.8-24,7.9c-5.8-2-7-6.9-8.3-11c-8.3,5.3-16.6,12.5-28.1,10.7c-10.4-4.5-7.3-15-5.8-22.3c4.5-16.1,16-30,29.2-43.3
			c0.2-0.4-0.3-0.6-0.6-0.9c-9.2,2.5-17.2,7.2-24.8,12.5c-4.3,2.7-8,6.3-12,9.5c-0.2-3.8,2.6-7.3,3.9-10.9l6-9.8
			c12.6-5,25.7-9.1,40.4-10.4C85.9,96.9,89.8,96.3,90.7,98.5"/>
		
			<path style="clip-path:url(#SVGID_00000134958360164538964500000012324113747814596483_);fill:none;stroke:#FFFFFF;stroke-width:0.294;" d="
			M101.1,109.3c-9.3,7.5-12.7,17.1-13.6,26.9l2.8-2.4c7.6-7.3,14.7-15,14.9-24.4C104.5,107.9,102.3,108.5,101.1,109.3z M90.7,98.5
			l-0.4,1.1c-17.5,13-31,27.3-34,44.8c-0.3,3.3,0,6.6,3.7,8.5c5.6,1,10.3-1.9,14.1-5c1.1-19.1,9.3-36.5,29.8-49.1
			c2.6-1.1,5.2-2.5,8.5-1.9c5.3,2.4,2.9,8.1,2.1,11.6c-3.7,13-14.3,23.9-26.7,34.3c1.3,4.8,1.7,10.1,7.6,13.2
			c7.6,1.3,13.2-4,17.8-8.1c8.5-9.2,13.6-19.5,16-30.5c-2.9-0.2-5.8-1.1-6.7-3.4c-0.1-5.9,2.4-11.6,8.7-15.5
			c1.4-0.6,3.4-0.3,4.7,0.2c4.4,2.8,2.9,7.9,2.9,11.9c6.4,0.4,12.1-1.6,17.8-3.1c18.9-6.5,25.3-8.6,50-9.8c4.6,0.7,9.9,0.2,15,1.7
			c-2.9,2.8-4.7,7.2-12.1,12.9c-23.8-6.1-46.9,1-67.8,4.5c-1.6,0.3-4.8-0.6-4.5,1.5c-5,17-13.8,32.8-30,46.4
			c-6.9,4.6-14.3,9.8-24,7.9c-5.7-2-7-6.9-8.3-11c-8.3,5.3-16.6,12.4-28.1,10.7c-10.3-4.5-7.3-15-5.8-22.3
			c4.5-16.1,16-29.9,29.2-43.3c0.2-0.4-0.3-0.6-0.6-0.9c-9.2,2.5-17.2,7.2-24.8,12.5c-4.3,2.7-8,6.3-12,9.5
			c-0.2-3.8,2.6-7.3,3.9-10.9l6-9.8c12.6-5,25.7-9,40.3-10.4C85.9,97,89.8,96.3,90.7,98.5z"/>
		<path style="clip-path:url(#SVGID_00000134958360164538964500000012324113747814596483_);fill:#FFFFFF;" d="M185,158.8
			c-1.6-0.4-0.9-0.6-2.8-0.5c-2.1,0.7-2.4,1.9-2.9,3.2c-0.5,1.2,1,3.4,2.3,4.3c1.5,0.8,3.2,1,5.2,0.9c16.1-3.9,5.6-17.5,9.2-26.4
			l-15,14.5c0,0,2.6,0,4,1.2C186.4,157,185,158.8,185,158.8 M161.9,128.8c-11,4.5-16.3,13.2-19.9,21.2l2.7-0.6
			c10.3-2.7,20-10.8,20.9-19.2C165,129.2,163.6,128.4,161.9,128.8 M215.1,121.5c0,0,0.4,0.1,0.4,0.6c0,0.5-0.3,0.7-0.3,0.7
			c-12.3,7-4.1,18.8-5.8,28.5c0,7.4-5.6,18.1-15.1,21.1c-6.2,2.5-15.7,1.5-21.6-1.9c-3.1-1.7-4.8-4.4-5.2-7.1
			c-8.8,5-22.8,13.5-34.2,9.3c-11.4-4.1-9-15.1-6.6-21.3c4.6-12.1,20.7-24.9,37.5-28.1c3.9-0.7,7.7,0.1,10.7,1.7
			c3.4,2.8,4.4,7.2,2.6,10.8c-5.4,11.5-21.9,18-36.7,19.1c-0.9,2.8-1.7,5.2,0.8,7.2c1.9,2,6.6,1.4,9.3,0.9c13-4.8,27.9-15.6,37.2-24
			l18.7-17.9C209.1,121.2,213.2,120.6,215.1,121.5"/>
		
			<path style="clip-path:url(#SVGID_00000134958360164538964500000012324113747814596483_);fill:none;stroke:#FFFFFF;stroke-width:0.294;" d="
			M185,158.7c-1.6-0.4-0.9-0.6-2.8-0.5c-2.1,0.7-2.4,1.9-2.9,3.2c-0.5,1.2,1,3.4,2.3,4.3c1.5,0.8,3.2,1,5.2,0.9
			c16.1-3.9,5.6-17.5,9.2-26.4l-15,14.5c0,0,2.6,0,4,1.2C186.4,157,185,158.7,185,158.7z M161.9,128.8c-11,4.5-16.3,13.2-19.9,21.2
			l2.7-0.6c10.3-2.7,20-10.8,20.9-19.1C165.1,129.2,163.6,128.4,161.9,128.8z M215.1,121.6c0,0,0.4,0.1,0.4,0.6
			c0,0.5-0.3,0.7-0.3,0.7c-12.3,7-4.1,18.8-5.8,28.4c0,7.3-5.6,18.1-15.1,21c-6.2,2.5-15.7,1.5-21.6-1.9c-3-1.7-4.8-4.4-5.2-7.1
			c-8.8,4.9-22.7,13.5-34.2,9.3c-11.4-4.1-9-15.1-6.6-21.3c4.6-12,20.7-24.9,37.5-28.1c3.9-0.7,7.7,0.1,10.6,1.7
			c3.4,2.8,4.4,7.2,2.6,10.8c-5.4,11.5-21.9,17.9-36.7,19.1c-0.9,2.8-1.7,5.2,0.8,7.2c1.9,2,6.6,1.4,9.3,0.9
			c13-4.8,27.9-15.6,37.2-24l18.6-17.9C209.1,121.3,213.1,120.6,215.1,121.6z"/>
		<path style="clip-path:url(#SVGID_00000134958360164538964500000012324113747814596483_);fill:#FFFFFF;" d="M285,141.7
			c1.3,1.3,3,1.7,5,1.3l2.2-0.9c-2.8,6.7-8.9,16.3-19.5,18.3c-2.5,0.2-4.6-0.2-6.4-1.1c-4.8-4.4-1.4-11.8,1.2-16.1
			c3.8-5.5,11.7-13.2,21.3-12.6l1.9,0.7c1.8,1.1,1.9,2.7,2.3,4.2c-2.6,1-2.5,0.7-5.6,0.9C285,137.1,283.9,139.5,285,141.7
			 M360.2,152.2c-2.6-1.3-11.3,9.9-19,10.7c-1.6-0.4-1.3-1.8-1.1-2.7l13.8-22.8c1.9-3.5,4.9-6.9,4.3-11c-0.7-1.2-2.3-2.1-4.1-2.1
			c-9.2,0.6-16.4,5.3-23.7,9.1c0.5-2.6,1.1-5.9-1.3-7.9c-1.3-0.9-2.9-1-4.5-1.1c-7.7,1.2-16.9,6.3-24.2,8.4
			c-0.8-1.9-1.8-4.4-4.4-6.6c-3.2-2.6-9.7-2.5-14.4-1.8c-17.8,3.5-29.4,16.2-32.6,29l-9.6,6.3c-3.1,1.8-7.4,3.9-11.3,2.2
			c-1.4-0.9-1.7-3.3-1.3-4.6c4.1-9.7,10-17.3,16-26.9c4.4-0.3,8.8-0.2,12.9,0.1l4.3-6.1c-4.3-0.6-8.3,0.8-12.9,0
			c3.2-5.4,7.3-10.8,10.5-16.2c-4.3,0-8.7-0.1-12.9,0.2c-4.3,5-7,11.1-11.4,16.1l-11.7-0.7c-1.9,2.4-2.3,4-3.6,6.5l11.7-0.1
			c-6.5,10.7-14.1,18.4-16.7,30.9c-0.2,4,2.2,9.4,6.2,11.1c11.5,3,21.6-1.8,31.2-9.6c0.7,3.1,1.9,5.4,5.5,7.6
			c4.1,2.9,12.7,2.8,17.4,1.6c17.1-6,25.4-19.4,28-32.4c3.9-1.8,10.2-5.4,14.7-6.3c1.1,0.3,1.6,1.3,1.1,2.1l-21.7,35.5
			c4.2,0.1,9.9,0.2,13.6,0.2l5.6-9.8c5.2-7.7,8-16.2,16.1-23c2.5-1.7,5.1-3.9,8.9-3.9c0.8,0.4,1.1,1.1,1.3,1.8
			c-2.8,6.5-6.4,11.9-9.9,18.2c-1.8,2.6-3.5,7.8-2.2,11.4c0.4,1.2,2.1,5.7,6.2,6.3c8.3,1.6,10.7-1.2,18.6-7
			C353.4,164.8,364.1,154.1,360.2,152.2"/>
		
			<path style="clip-path:url(#SVGID_00000134958360164538964500000012324113747814596483_);fill:none;stroke:#FFFFFF;stroke-width:0.294;" d="
			M285,141.7c1.3,1.3,3,1.7,5,1.3l2.2-0.9c-2.8,6.7-8.9,16.3-19.5,18.3c-2.5,0.2-4.6-0.2-6.4-1.1c-4.8-4.3-1.4-11.8,1.2-16.1
			c3.8-5.4,11.7-13.2,21.3-12.6l1.9,0.7c1.8,1.1,1.9,2.7,2.3,4.2c-2.6,1-2.5,0.7-5.6,0.9C285,137.1,283.9,139.5,285,141.7z
			 M360.2,152.2c-2.6-1.3-11.3,9.9-19,10.7c-1.6-0.4-1.3-1.8-1.1-2.7l13.8-22.8c1.9-3.5,4.9-6.9,4.3-11c-0.7-1.2-2.3-2.1-4.1-2.1
			c-9.2,0.6-16.4,5.3-23.7,9c0.5-2.6,1.1-5.9-1.3-7.9c-1.3-0.9-2.9-1-4.5-1.1c-7.7,1.2-16.9,6.3-24.1,8.3c-0.8-1.9-1.8-4.4-4.4-6.6
			c-3.2-2.6-9.7-2.5-14.4-1.8c-17.8,3.4-29.4,16.2-32.6,29l-9.6,6.3c-3,1.7-7.4,3.9-11.3,2.2c-1.4-0.9-1.7-3.3-1.3-4.6
			c4.1-9.6,10-17.3,16-26.9c4.4-0.3,8.8-0.2,12.8,0.1l4.3-6.1c-4.3-0.6-8.3,0.8-12.9,0c3.2-5.4,7.3-10.8,10.5-16.2
			c-4.3,0-8.7-0.1-12.9,0.2c-4.3,5-7,11.1-11.4,16l-11.7-0.7c-1.9,2.4-2.3,4-3.6,6.5l11.7-0.1c-6.5,10.7-14.1,18.4-16.7,30.8
			c-0.2,4,2.2,9.3,6.2,11c11.5,3,21.5-1.8,31.2-9.6c0.7,3.1,1.9,5.4,5.5,7.5c4.1,2.9,12.7,2.8,17.4,1.6c17-6,25.4-19.4,28-32.4
			c3.9-1.8,10.2-5.4,14.7-6.2c1.1,0.3,1.6,1.3,1.1,2.1l-21.7,35.5c4.2,0.1,9.9,0.2,13.6,0.2l5.6-9.8c5.2-7.7,8-16.1,16.1-23
			c2.5-1.7,5.1-3.9,8.9-3.9c0.8,0.4,1.1,1.1,1.3,1.7c-2.8,6.5-6.4,11.9-9.9,18.1c-1.8,2.6-3.5,7.7-2.2,11.4c0.4,1.2,2.1,5.7,6.2,6.3
			c8.3,1.6,10.7-1.2,18.6-7C353.4,164.7,364.1,154.1,360.2,152.2z"/>
	</g>
	<path class="st15" d="M147.4,210.6h98.1 M128.8,205.4h134.5 M118.9,200.4h156.4"/>
	<g>
		<defs>
			<rect id="SVGID_00000134954056984339340830000005030345253420271772_" x="1.6" y="1" width="397.9" height="260.3"/>
		</defs>
		<clipPath id="SVGID_00000101089310017890576860000007352378879618708145_">
			<use xlink:href="#SVGID_00000134954056984339340830000005030345253420271772_"  style="overflow:visible;"/>
		</clipPath>
		<path style="clip-path:url(#SVGID_00000101089310017890576860000007352378879618708145_);fill:#FBAC43;" d="M107.3,206.7
			c-1.1-0.7-1.3-0.8-1.5-0.5l-4.6,7.2c-3,4.7-2.9,4.8-2.1,5.4c3.9,2.6,8,2.4,10.3-1.2C112.3,213.1,110.7,208.9,107.3,206.7
			 M93.8,215.6l1.1,0.7c0.3,0.2,0.4,0.1,0.6-0.1l5.9-9.2c1.9-2.9,1.8-3.1,1-3.6l-1.1-0.7l0.5-0.7l7.4,4.8c5.5,3.5,6.1,8.4,3.9,11.9
			c-1.9,2.9-6.5,6.1-13,2l-6.6-4.2L93.8,215.6z"/>
		<path style="clip-path:url(#SVGID_00000101089310017890576860000007352378879618708145_);fill:#FBAC43;" d="M116.5,229l1.2,0.5
			c0.3,0.1,0.5,0,0.6-0.2l4.3-10c1.4-3.2,1.3-3.3,0.4-3.7l-1.2-0.5l0.3-0.8l12.9,5.6c-1.3,2.2-1.4,2.3-1.6,2.2
			c-0.3-0.1-0.3-0.4-0.2-0.7c0.1-0.4-1-1.6-4-2.9l-1.9-0.8c-0.3-0.1-0.4-0.1-0.5,0.2l-2.3,5.3l2.5,1.1c2.8,1.2,3,1,3.3,0.3l0.4-0.8
			l0.8,0.3l-1.8,4.2l-0.8-0.3l0.4-0.9c0.2-0.4,0.2-0.7-2.6-1.9l-2.5-1.1l-0.8,1.8c-2.2,5.1-2.1,5.2-1.2,5.6l0.9,0.4
			c1.4,0.6,5,2.2,6.4,1.2c0.2-0.1,0.3-0.2,0.5-0.1c0.2,0.1,0.2,0.2,0.2,0.4c-0.1,0.2-0.4,0.5-1.7,2l-12.4-5.4L116.5,229z"/>
		<path style="clip-path:url(#SVGID_00000101089310017890576860000007352378879618708145_);fill:#FBAC43;" d="M144.2,231.1
			c0.4,0.3,1,0.6,1.6,0.8c2.1,0.6,4-0.1,4.6-2.1c0.4-1.4,0.1-4-3.2-4.9l-0.7-0.2c-0.3-0.1-0.4,0-0.5,0.2L144.2,231.1z M143,235.3
			c-1,3.3-0.8,3.5,0.1,3.7l1.2,0.4l-0.2,0.8l-7.2-2.1l0.2-0.8l1.2,0.4c0.4,0.1,0.5,0,0.5-0.3l3-10.5c1-3.3,0.8-3.5-0.1-3.7l-1.2-0.4
			l0.2-0.8l8,2.3c5,1.4,5.3,4.4,4.8,6.1c-0.7,2.6-4.1,3.6-7.4,2.6c-0.8-0.2-1.6-0.6-2.3-1L143,235.3z"/>
		<path style="clip-path:url(#SVGID_00000101089310017890576860000007352378879618708145_);fill:#FBAC43;" d="M166.4,229.1l-1.3-0.2
			c-0.4-0.1-0.4,0.1-0.5,0.3l-1.4,8.7c-0.3,2-0.7,5.8,3.9,6.5c1.3,0.2,5.5,0.6,6.3-4.6l0.6-4c0.2-1.4,0.5-3.3,0.5-4.6
			c0-0.8-0.2-0.9-1-1l-1.1-0.2l0.1-0.9l5.3,0.8l-0.1,0.9l-0.8-0.1c-0.7-0.1-0.9-0.1-0.9,0.2l-1.4,9.1c-0.7,4.8-4.8,6-8.5,5.4
			c-5.8-0.9-6.9-4-6.4-6.8l1.1-6.9c0.5-3.4,0.4-3.5-0.5-3.7l-1.3-0.2l0.1-0.9l7.4,1.2L166.4,229.1z"/>
		<path style="clip-path:url(#SVGID_00000101089310017890576860000007352378879618708145_);fill:#FBAC43;" d="M188.2,242.8
			c-0.2,3.4,0,3.6,0.9,3.6l1.3,0.1l0,0.9l-7.4-0.4l0-0.9l1.3,0.1c0.4,0,0.4-0.1,0.5-0.4l0.6-10.9c0.2-3.5,0-3.6-0.9-3.6l-1.3-0.1
			l0-0.9l7.4,0.4l0,0.9l-1.3-0.1c-0.4,0-0.4,0.1-0.5,0.4L188.2,242.8z"/>
		<path style="clip-path:url(#SVGID_00000101089310017890576860000007352378879618708145_);fill:#FBAC43;" d="M197.6,235.2
			c-0.1-3.2,3.5-4.9,6.7-5c1.2,0,2.4,0,3.6,0.4c0,0.7,0.2,1.7,0.2,2.1c0,0.3-0.2,0.4-0.4,0.4c-0.3,0-0.4-0.2-0.4-0.4
			c-0.3-1.1-2.3-1.4-3.3-1.4c-1.8,0.1-3.8,1-3.7,2.9c0.1,4.1,9.4,1.9,9.6,8.2c0,0.9-0.7,5.3-7.1,5.5c-1.6,0.1-3.2-0.2-4.7-0.6
			c-0.3-1.5-0.6-2.1-0.6-2.4c0-0.2,0-0.4,0.4-0.5c0.3,0,0.4,0.2,0.5,0.5c0.6,1.4,3.1,2,4.5,1.9c2.2-0.1,4.5-1.2,4.4-3.4
			C207.1,238.9,197.8,241.2,197.6,235.2"/>
		<path style="clip-path:url(#SVGID_00000101089310017890576860000007352378879618708145_);fill:#FBAC43;" d="M228.3,228.4
			c2.1-0.5,4.1-1.1,6.2-1.8L237,239c0.7,3.4,0.9,3.5,1.8,3.3l2.2-0.4l0.2,0.8l-9.7,1.9l-0.2-0.8l2.8-0.6c0.4-0.1,0.4-0.2,0.3-0.5
			l-2-9.9c-0.6-3.3-1.1-3.9-1.3-4c-0.3-0.1-0.6-0.1-1.4,0.1l-1.3,0.3L228.3,228.4z"/>
		<path style="clip-path:url(#SVGID_00000101089310017890576860000007352378879618708145_);fill:#FBAC43;" d="M254.5,228.7
			c0.9-1,1.4-2,1-3.3c-0.6-1.9-2.4-2.9-4.5-2.3c-1.7,0.5-2.7,2.1-2.2,3.7c0.6,1.8,2.7,2,4.2,1.9L254.5,228.7z M252.1,231.5
			c-1.4,0.9-1.5,2.6-1.1,3.9c0.7,2.1,2.8,3.6,5.3,2.8c2.1-0.7,3-2.4,2.4-4.3c-0.4-1.4-1-2.5-5.1-2.4L252.1,231.5z M250.8,231.4
			c-1.9-0.1-3.6-1-4.2-2.8c-0.7-2.1,0.7-5.2,4.6-6.4c2.6-0.8,5.7-0.5,6.5,2.2c0.6,1.9-0.5,3.4-2.1,4.5l0,0c2.6,0.1,4.6,0.8,5.4,3.1
			c1,3.3-1.9,6.1-5.1,7.2c-3.1,1-6.4,0.4-7.4-2.7C247.8,234.4,249,232.7,250.8,231.4"/>
		<path style="clip-path:url(#SVGID_00000101089310017890576860000007352378879618708145_);fill:#FBAC43;" d="M272.7,221.6
			c0.8-1.1,1.1-2.2,0.6-3.4c-0.8-1.8-2.7-2.6-4.8-1.7c-1.6,0.7-2.4,2.4-1.7,3.9c0.8,1.7,2.9,1.6,4.4,1.4L272.7,221.6z M270.6,224.6
			c-1.3,1.1-1.2,2.7-0.6,4c0.9,2,3.2,3.2,5.6,2.1c2-0.9,2.7-2.7,1.9-4.5c-0.6-1.3-1.3-2.4-5.4-1.8L270.6,224.6z M269.3,224.6
			c-1.9,0.1-3.7-0.5-4.5-2.2c-0.9-2,0.1-5.2,3.8-6.9c2.4-1.1,5.6-1.2,6.8,1.4c0.9,1.9-0.1,3.4-1.6,4.7l0,0c2.6-0.2,4.7,0.2,5.7,2.5
			c1.4,3.1-1.1,6.3-4.2,7.7c-3,1.4-6.3,1.2-7.7-1.8C266.7,228,267.6,226.2,269.3,224.6"/>
		<path style="clip-path:url(#SVGID_00000101089310017890576860000007352378879618708145_);fill:#FBAC43;" d="M288.5,224.6
			c-0.2,0.1-0.4,0.3-0.5,0.1s-0.1-0.4,0.1-1l0.6-2.3c1.6-5.6,1.6-8.2,0.1-10.6c-1.2-1.9-3.3-2.7-5.5-1.3c-1,0.7-1.9,1.6-2.4,2.7
			l-0.7-0.2c0.5-1.8,1.9-3.5,3.5-4.6c2.8-1.8,5.7-1.4,7.4,1.2c1.9,3,0.7,6.1-0.4,9.3l-1,3.1l4.3-2.9c2.4-1.6,2.8-2,2.9-2.4
			c0-0.2,0-0.5,0.2-0.6c0.2-0.1,0.4,0,0.4,0.1c0.2,0.3,0.4,1.5,0.4,1.9l0.2,1.4L288.5,224.6z"/>
		<path style="clip-path:url(#SVGID_00000101089310017890576860000007352378879618708145_);fill:#FBAC43;" d="M97,49
			c-1.8-2.6,0.3-6,3-7.8c1-0.7,2.1-1.3,3.2-1.6c0.4,0.5,1.1,1.3,1.3,1.7c0.2,0.3,0,0.4-0.1,0.5c-0.2,0.2-0.4,0-0.6-0.1
			c-0.8-0.8-2.7,0-3.6,0.6c-1.5,1-2.6,2.9-1.6,4.5c2.3,3.4,9-3.5,12.5,1.8c0.5,0.7,2.2,4.8-3.1,8.4c-1.3,0.9-2.8,1.6-4.3,2
			c-1.1-1.1-1.6-1.5-1.8-1.8c-0.1-0.1-0.3-0.4,0.1-0.6c0.3-0.2,0.5,0,0.7,0.2c1.3,0.9,3.6,0,4.9-0.8c1.8-1.2,3.1-3.4,1.9-5.2
			C107,47,100.4,54,97,49"/>
		<path style="clip-path:url(#SVGID_00000101089310017890576860000007352378879618708145_);fill:#FBAC43;" d="M125,41.7
			c1.5,3.1,1.7,3.1,2.5,2.7l1.2-0.6l0.4,0.8l-6.7,3.2l-0.4-0.8l1.2-0.6c0.3-0.2,0.3-0.3,0.2-0.6l-4.7-9.8c-1.5-3.1-1.7-3.1-2.5-2.7
			l-1.2,0.6l-0.4-0.8l6.7-3.2l0.4,0.8l-1.2,0.6c-0.3,0.2-0.3,0.3-0.2,0.6L125,41.7z"/>
		<path style="clip-path:url(#SVGID_00000101089310017890576860000007352378879618708145_);fill:#FBAC43;" d="M150.8,32l-1.6-5.3
			c-0.4-1.4-1-3.2-1.5-4.3c-0.4-0.7-0.6-0.7-1.3-0.5l-1.1,0.3l-0.3-0.8l5.2-1.6l0.2,0.8l-0.8,0.2c-0.7,0.2-0.9,0.3-0.8,0.6l4.5,14.7
			c0.1,0.2,0,0.3-0.2,0.4c-0.2,0.1-0.4-0.1-1-0.4l-16-8.9l2.1,6.9c0.4,1.4,1,3.2,1.5,4.3c0.4,0.7,0.6,0.7,1.3,0.5l1.1-0.3l0.3,0.8
			l-5.2,1.6l-0.3-0.8l0.8-0.2c0.7-0.2,0.9-0.3,0.8-0.6L135.1,28c-0.4-1.4-1.4-2.3-2.4-2l-0.8,0.2l-0.3-0.8l4.8-1.4L150.8,32z"/>
		<path style="clip-path:url(#SVGID_00000101089310017890576860000007352378879618708145_);fill:#FBAC43;" d="M177.7,18.1
			c-0.3,0-0.3-0.1-0.5-0.6c-0.3-0.7-2.5-1.2-4.2-1c-4.8,0.6-7.2,4.6-6.6,8.8c0.5,3.9,3.5,7.2,8.1,6.6c1.6-0.2,4.9-1.5,5-3.3
			c0-0.2,0-0.5,0.4-0.5c0.3,0,0.4,0.1,0.4,0.2c0,0.2,0,0.8,0.1,2.5c-1.9,1.2-4.4,1.9-6.6,2.2c-5.7,0.8-10-1.4-10.8-6.8
			c-0.8-5.7,4.1-10.1,10.1-10.9c1.7-0.2,3.4-0.1,5,0.3C178.1,18,178,18,177.7,18.1"/>
		<path style="clip-path:url(#SVGID_00000101089310017890576860000007352378879618708145_);fill:#FBAC43;" d="M190.6,30.2l1.3,0
			c0.4,0,0.4-0.2,0.4-0.4l0-10.9c0-3.5-0.2-3.6-1.1-3.6l-1.3,0l0-0.9l14.1,0c-0.3,2.5-0.4,2.7-0.6,2.7c-0.4,0-0.4-0.2-0.5-0.6
			c0-0.4-1.5-1.1-4.8-1.1l-2.1,0c-0.3,0-0.4,0.1-0.4,0.3l0,5.7l2.7,0c3.1,0,3.2-0.3,3.2-1.1l0-0.9l0.9,0l0,4.6l-0.9,0l0-0.9
			c0-0.4-0.1-0.7-3.2-0.7l-2.7,0l0,1.9c0,5.6,0.1,5.7,1.1,5.7l1,0c1.6,0,5.5,0,6.4-1.4c0.1-0.2,0.2-0.3,0.4-0.3
			c0.2,0,0.3,0.1,0.3,0.3c0,0.2-0.1,0.6-0.8,2.5l-13.5,0L190.6,30.2z"/>
		<path style="clip-path:url(#SVGID_00000101089310017890576860000007352378879618708145_);fill:#FBAC43;" d="M225.7,15.4
			c2.1,0.3,4.3,0.4,6.5,0.6L230,28.5c-0.6,3.4-0.4,3.5,0.5,3.7l2.2,0.4l-0.1,0.8l-9.7-1.7l0.1-0.8l2.8,0.5c0.4,0.1,0.5-0.1,0.5-0.3
			l1.7-9.9c0.6-3.3,0.4-4,0.2-4.2c-0.2-0.2-0.5-0.3-1.3-0.4l-1.3-0.2L225.7,15.4z"/>
		<path style="clip-path:url(#SVGID_00000101089310017890576860000007352378879618708145_);fill:#FBAC43;" d="M253.2,28.7
			c1.3-0.2,2.3-0.9,2.6-2.1c0.6-1.9-0.3-3.8-2.4-4.4c-1.7-0.5-3.4,0.2-3.9,1.8c-0.6,1.8,1.1,3.1,2.4,4L253.2,28.7z M249.6,29.6
			c-1.7,0-2.7,1.3-3.1,2.6c-0.7,2.1,0.3,4.6,2.8,5.3c2.1,0.6,3.8-0.2,4.4-2.1c0.4-1.4,0.6-2.7-2.8-4.9L249.6,29.6z M248.7,28.8
			c-1.5-1.2-2.4-2.9-1.9-4.7c0.6-2.1,3.5-3.8,7.4-2.6c2.6,0.8,5,2.8,4.1,5.5c-0.6,1.9-2.4,2.5-4.3,2.4l0,0c2.1,1.6,3.3,3.3,2.6,5.6
			c-1,3.3-5.1,4-8.3,3c-3.1-1-5.5-3.3-4.6-6.5C244.5,29.5,246.4,28.8,248.7,28.8"/>
		<path style="clip-path:url(#SVGID_00000101089310017890576860000007352378879618708145_);fill:#FBAC43;" d="M274.9,37.3
			c1.3-0.1,2.4-0.6,2.9-1.7c0.8-1.8,0.3-3.8-1.8-4.7c-1.6-0.8-3.4-0.3-4.1,1.2c-0.8,1.7,0.6,3.2,1.8,4.3L274.9,37.3z M271.2,37.6
			c-1.7-0.3-2.8,0.9-3.4,2.1c-1,2-0.4,4.5,2,5.7c2,0.9,3.8,0.3,4.7-1.5c0.6-1.3,1-2.5-2.1-5.3L271.2,37.6z M270.4,36.7
			c-1.3-1.4-2-3.2-1.2-4.9c0.9-2,4-3.3,7.7-1.6c2.4,1.1,4.5,3.5,3.3,6c-0.9,1.8-2.7,2.1-4.6,1.8l0,0c1.9,1.9,2.9,3.7,1.8,5.9
			c-1.5,3.1-5.6,3.2-8.6,1.8c-2.9-1.4-5-4.1-3.6-7C266.1,36.9,268.1,36.4,270.4,36.7"/>
		<path style="clip-path:url(#SVGID_00000101089310017890576860000007352378879618708145_);fill:#FBAC43;" d="M283.1,52.8
			c-0.2-0.1-0.4-0.2-0.3-0.4c0.1-0.2,0.3-0.2,1-0.3l2.4-0.3c5.7-0.7,8.2-1.8,9.8-4.1c1.3-1.9,1.2-4-1-5.5c-1-0.7-2.3-1.1-3.5-1.1
			l-0.1-0.8c1.9-0.2,4,0.3,5.6,1.4c2.7,1.9,3.6,4.7,1.8,7.3c-2,2.9-5.3,3-8.7,3.3l-3.2,0.3l4.4,2.8c2.5,1.6,3,1.8,3.4,1.7
			c0.2-0.1,0.4-0.2,0.7,0c0.2,0.1,0.2,0.3,0.1,0.4c-0.2,0.3-1.3,0.9-1.6,1.1l-1.2,0.8L283.1,52.8z"/>
	</g>
</g>
</svg>
