<?xml version="1.0" encoding="utf-8"?>
<!-- Generator: Adobe Illustrator 26.3.1, SVG Export Plug-In . SVG Version: 6.00 Build 0)  -->
<svg version="1.1" id="Layer_1" xmlns="http://www.w3.org/2000/svg" xmlns:xlink="http://www.w3.org/1999/xlink" x="0px" y="0px"
	 viewBox="0 0 150 86" style="enable-background:new 0 0 150 86;" xml:space="preserve">
<style type="text/css">
	.st0{fill:#006751;}
</style>
<g>
	<g>
		<path class="st0" d="M103.5,18.1c-0.4,0-1.5,0.9,0.2,1.6C104.3,19.2,104.2,18.1,103.5,18.1z"/>
		<path class="st0" d="M87,14.3l-1.1,2.3l-2.7,5.9c1.8-2,3.7-5,4.7-7.8C88.4,13.5,88,12.7,87,14.3z"/>
		<path class="st0" d="M95.2,25.5c1.4-0.8,1.8-1.6,1.6-1.9c-0.5-0.7-2.8,0.1-3.9,2.7C93.1,26.5,94.3,25.9,95.2,25.5z"/>
		<path class="st0" d="M131.1,35.4c0.2,0.3,2.4-3.3,2.8-5.5C133.9,29.9,130.6,32.2,131.1,35.4z"/>
	</g>
	<path class="st0" d="M17.9,0.6C8.2,0.6,0.3,8.5,0.3,18.2c0,0.2,0.1,2,0.2,2.6l0,0.1c1,7,5.7,14.7,9.5,20c3.7,5.2,7.3,9.1,7.9,9.8
		c0.6-0.6,3.8-3.7,7.4-8.3c3.6-4.7,8.2-12,9.7-19.8c0.3-1.3,0.5-4.5,0.5-4.7c-0.1-4.6-2-9-5.3-12.2C26.9,2.4,22.6,0.6,17.9,0.6z
		 M17.9,30.9c-7.4,0-13.3-6-13.3-13.3c0-7.4,6-13.3,13.3-13.3c7.4,0,13.3,6,13.3,13.3C31.3,24.9,25.3,30.9,17.9,30.9z"/>
	<g>
		<g>
			<path class="st0" d="M17.1,22V9h3.3c0.8,0,1.4,0.6,1.4,1.4v5.5c0,0.8-0.6,1.4-1.4,1.4h-1.9V22H17.1z M18.5,16h1.6
				c0.2,0,0.3-0.1,0.3-0.3v-5.2c0-0.2-0.1-0.3-0.3-0.3h-1.6V16z"/>
			<path class="st0" d="M24.1,22c-0.8,0-1.4-0.6-1.4-1.4V10.4c0-0.8,0.6-1.4,1.4-1.4h3.2l-0.2,1.2h-2.7c-0.2,0-0.3,0.1-0.3,0.3v9.9
				c0,0.2,0.1,0.3,0.3,0.3h1.4c0.2,0,0.3-0.1,0.3-0.3v-5.7l1.4-0.2v6c0,0.8-0.6,1.4-1.4,1.4H24.1z"/>
			<path class="st0" d="M13.3,22c-0.3,0-0.6-0.1-0.9-0.3l-0.1,0l-0.1,0C12,21.9,11.7,22,11.4,22H10c-0.8,0-1.5-0.7-1.5-1.5V9h1.4
				v11.4c0,0.2,0.1,0.3,0.3,0.3h1.2c0.2,0,0.3-0.1,0.3-0.3V9H13v11.4c0,0.2,0.1,0.3,0.3,0.3h1.2c0.2,0,0.3-0.1,0.3-0.3V9h1.4v11.4
				c0,0.8-0.7,1.5-1.5,1.5H13.3z"/>
		</g>
		<g>
			<path class="st0" d="M8.5,25.9l1.2-1.3c0.2-0.2,0.3-0.3,0.3-0.5c0-0.2-0.1-0.3-0.3-0.3c-0.2,0-0.4,0.2-0.4,0.4L8.6,24
				c0.1-0.6,0.5-0.9,1.1-0.9c0.6,0,1.1,0.3,1.1,0.9c0,0.4-0.2,0.6-0.5,0.9l-0.4,0.4h0.8V26L8.5,25.9C8.5,26,8.5,26,8.5,25.9z"/>
			<path class="st0" d="M13.9,24.6c0-0.9,0.7-1.5,1.5-1.5c0.8,0,1.5,0.6,1.5,1.5c0,0.9-0.7,1.5-1.5,1.5C14.6,26,13.9,25.4,13.9,24.6
				z M16.2,24.6c0-0.4-0.3-0.8-0.8-0.8c-0.5,0-0.8,0.3-0.8,0.8c0,0.4,0.3,0.8,0.8,0.8C15.9,25.4,16.2,25,16.2,24.6z"/>
			<path class="st0" d="M19.8,25.9l1.2-1.3c0.2-0.2,0.3-0.3,0.3-0.5c0-0.2-0.1-0.3-0.3-0.3c-0.2,0-0.4,0.2-0.4,0.4L19.9,24
				c0.1-0.6,0.5-0.9,1.1-0.9c0.6,0,1.1,0.3,1.1,0.9c0,0.4-0.2,0.6-0.5,0.9l-0.4,0.4h0.8V26L19.8,25.9C19.8,26,19.8,26,19.8,25.9z"/>
			<path class="st0" d="M25.1,25.9l1.2-1.3c0.2-0.2,0.3-0.3,0.3-0.5c0-0.2-0.1-0.3-0.3-0.3c-0.2,0-0.4,0.2-0.4,0.4L25.2,24
				c0.1-0.6,0.5-0.9,1.1-0.9c0.6,0,1.1,0.3,1.1,0.9c0,0.4-0.2,0.6-0.5,0.9l-0.4,0.4h0.8V26L25.1,25.9C25.1,26,25.1,26,25.1,25.9z"/>
		</g>
	</g>
	<g>
		<path class="st0" d="M45.2,0.3l-2.2,7.6h-1.9l-1.2-4.3l-1.2,4.3h-1.9l-2.2-7.6h1.9l1.3,5.2l1.4-5.2h1.3L42,5.5l1.3-5.2H45.2z"/>
		<path class="st0" d="M47.6,0.3v7.6h-1.7V0.3H47.6z"/>
		<path class="st0" d="M50.9,0.3L53.9,5V0.3h1.7v7.6h-1.7l-3.1-4.7v4.7h-1.7V0.3H50.9z"/>
		<path class="st0" d="M61.6,0.3v1.5h-1.8v6.1H58V1.8h-1.8V0.3H61.6z"/>
		<path class="st0" d="M66.9,0.3v1.5h-2.6v1.5h2.5v1.5h-2.5v1.5h2.6v1.5h-4.4V0.3H66.9z"/>
		<path class="st0" d="M71.1,0.3c1.5,0,2.6,0.8,2.6,2.4c0,1.2-0.6,2-1.6,2.3l2.5,3h-2.2l-2.2-2.8h-0.1v2.8h-1.7V0.3H71.1z M70.1,3.7
			h0.5c0.7,0,1.3-0.2,1.3-1c0-0.8-0.6-1-1.3-1h-0.5V3.7z"/>
		<path class="st0" d="M77.1,0.3v7.6h-1.7V0.3H77.1z"/>
		<path class="st0" d="M80.3,0.3L83.3,5V0.3h1.7v7.6h-1.7l-3.1-4.7v4.7h-1.7V0.3H80.3z"/>
		<path class="st0" d="M89.9,0.1c1.3,0,2.3,0.5,2.9,1.3l-1.1,1.2c-0.4-0.7-1-1-1.7-1c-1.1,0-1.9,1.1-1.9,2.4c0,1.3,0.9,2.4,1.9,2.4
			c0.8,0,1.7-0.5,1.7-1.4v0h-1.8V3.6h3.5V5c0,1.4-1.3,3.1-3.5,3.1c-2.1,0-3.7-1.8-3.7-4C86.2,1.9,87.8,0.1,89.9,0.1z"/>
		<path class="st0" d="M100.3,0.3c1.5,0,2.6,0.8,2.6,2.4c0,1.6-1.1,2.5-2.6,2.5h-1v2.8h-1.7V0.3H100.3z M99.2,3.7h0.5
			c0.7,0,1.3-0.2,1.3-1c0-0.8-0.6-1-1.3-1h-0.5V3.7z"/>
		<path class="st0" d="M107.3,0.3l3.1,7.6h-1.9L108,6.4H105l-0.6,1.5h-1.9l3.1-7.6H107.3z M105.6,4.8h1.7l-0.9-2.2L105.6,4.8z"/>
		<path class="st0" d="M113.8,0.3c1.5,0,2.6,0.8,2.6,2.4c0,1.2-0.6,2-1.6,2.3l2.5,3h-2.2l-2.2-2.8h-0.1v2.8h-1.7V0.3H113.8z
			 M112.8,3.7h0.5c0.7,0,1.3-0.2,1.3-1c0-0.8-0.6-1-1.3-1h-0.5V3.7z"/>
		<path class="st0" d="M122.6,0.3v1.5h-1.8v6.1H119V1.8h-1.8V0.3H122.6z"/>
		<path class="st0" d="M125.3,0.3l3.1,4.7V0.3h1.7v7.6h-1.7l-3.1-4.7v4.7h-1.7V0.3H125.3z"/>
		<path class="st0" d="M135.9,0.3v1.5h-2.6v1.5h2.5v1.5h-2.5v1.5h2.6v1.5h-4.4V0.3H135.9z"/>
		<path class="st0" d="M140.1,0.3c1.5,0,2.6,0.8,2.6,2.4c0,1.2-0.6,2-1.6,2.3l2.5,3h-2.2l-2.2-2.8h-0.1v2.8h-1.7V0.3H140.1z
			 M139.1,3.7h0.5c0.7,0,1.3-0.2,1.3-1c0-0.8-0.6-1-1.3-1h-0.5V3.7z"/>
		<path class="st0" d="M147.1,0.1c1.4,0,2.4,0.7,2.4,0.7l-0.7,1.4c0,0-0.8-0.5-1.5-0.5c-0.6,0-0.9,0.3-0.9,0.7
			c0,0.4,0.7,0.7,1.6,1.1c0.9,0.4,1.8,1.1,1.8,2.1c0,1.8-1.4,2.5-2.9,2.5c-1.8,0-2.9-1-2.9-1l0.9-1.5c0,0,1,0.9,1.9,0.9
			c0.4,0,1.1,0,1.1-0.7c0-0.6-0.8-0.8-1.7-1.3c-0.9-0.5-1.5-1.2-1.5-2C144.6,1,145.9,0.1,147.1,0.1z"/>
	</g>
	<g>
		<path class="st0" d="M9.2,78.6V61.8l-2.1,0.3v-3.1l7.6-1v3.1l-2.1,0.3v16.7L9.2,78.6z"/>
		<path class="st0" d="M19.8,77.2l-0.3-2.8l-2.1,0.3l-0.3,2.9L14,78l2.3-20.1l4.7-0.6l2.3,19.5L19.8,77.2z M17.7,71.6l1.6-0.2
			l-0.8-9L17.7,71.6z"/>
		<path class="st0" d="M29.2,76l-1.8-9.1v9.3L24,76.7V56.9l3.4-0.4v9.3l1.9-9.6l3.6-0.5l-2.3,10l2.2,9.8L29.2,76z"/>
		<path class="st0" d="M36.9,75.1l-3.4,0.4V55.7l3.4-0.4V75.1z"/>
		<path class="st0" d="M43.2,74.3L41,63.5l0.1,5.2l0.1,5.8l-3,0.4V55.1l3.5-0.4l2.1,10l-0.1-5.6l0-4.6l2.9-0.4v19.8L43.2,74.3z"/>
		<path class="st0" d="M51.9,65.1v-2.9l4.4-0.6v7.9c0,2.1-1.1,3.3-3.2,3.6l-2.2,0.3c-2.1,0.3-3.2-0.6-3.2-2.8V56.9
			c0-2.1,1-3.3,3.2-3.6l2.1-0.3c2.1-0.3,3.2,0.6,3.2,2.8v4.5l-3.4,0.4v-4.2c0-0.4-0.2-0.6-0.6-0.5l-0.5,0.1
			c-0.4,0.1-0.6,0.3-0.6,0.7v13c0,0.4,0.2,0.6,0.6,0.5l0.6-0.1c0.4-0.1,0.6-0.3,0.6-0.7V65L51.9,65.1z"/>
	</g>
	<g>
		<path class="st0" d="M62.1,57.2v2.6c0,1-0.5,1.5-1.5,1.7l-1,0.1c-1,0.1-1.5-0.3-1.5-1.3V54c0-1,0.5-1.5,1.5-1.7l0.9-0.1
			c1-0.1,1.5,0.3,1.5,1.3v2.4l-1.5,0.2v-2.2c0-0.2-0.1-0.3-0.3-0.2l-0.2,0c-0.2,0-0.3,0.1-0.3,0.3v6c0,0.2,0.1,0.3,0.3,0.3l0.2,0
			c0.2,0,0.3-0.1,0.3-0.3v-2.5L62.1,57.2z"/>
		<path class="st0" d="M65,60.8l-0.1-1.3l-1,0.1L63.8,61l-1.4,0.2l1-9.2l2.2-0.3l1,8.9L65,60.8z M64,58.3l0.7-0.1L64.4,54L64,58.3z"
			/>
		<path class="st0" d="M70.7,56.8v3.3l-1.6,0.2v-3.3c0-0.2-0.1-0.3-0.3-0.3l-0.4,0.1v3.6l-1.6,0.2v-9.1l2.3-0.3
			c1-0.1,1.5,0.3,1.5,1.3v2.2c0,0.7-0.2,1-0.7,1.3C70.5,56,70.7,56.3,70.7,56.8z M68.8,52.7l-0.4,0v2.8l0.4,0c0.2,0,0.3-0.1,0.3-0.3
			v-2.3C69.1,52.7,69,52.6,68.8,52.7z"/>
		<path class="st0" d="M74.2,50.6V52l-1.3,0.2v2.4l1.3-0.2v1.4l-1.3,0.2v2.5l1.4-0.2v1.4L71.2,60V51L74.2,50.6z"/>
	</g>
	<g>
		<path class="st0" d="M65.3,71.5l-1,0.1c-1,0.1-1.5-0.3-1.5-1.3v-6.3c0-1,0.5-1.5,1.5-1.7l1-0.1c1-0.1,1.5,0.3,1.5,1.3v6.3
			C66.8,70.8,66.3,71.4,65.3,71.5z M64.9,63.7l-0.2,0c-0.2,0-0.3,0.1-0.3,0.3v6c0,0.2,0.1,0.3,0.3,0.3l0.2,0c0.2,0,0.3-0.1,0.3-0.3
			v-6C65.2,63.7,65.1,63.7,64.9,63.7z"/>
		<path class="st0" d="M70.2,61.7v1.4l-1.3,0.2v2.5l1.2-0.2V67l-1.2,0.2V71l-1.6,0.2v-9.1L70.2,61.7z"/>
	</g>
	<g>
		<path class="st0" d="M84.3,61.1v4.8c0,2.1-1,3.3-3.2,3.6L76,70.1V50.3l5.1-0.6c2.1-0.3,3.2,0.6,3.2,2.8v3.8c0,1.5-0.5,2.3-1.4,2.8
			C83.8,59.2,84.3,59.8,84.3,61.1z M80.2,52.7l-0.8,0.1v5.4l0.8-0.1c0.4-0.1,0.6-0.3,0.6-0.7v-4.2C80.8,52.8,80.6,52.7,80.2,52.7z
			 M79.4,66.7l0.9-0.1c0.4-0.1,0.6-0.3,0.6-0.7v-4.4c0-0.4-0.2-0.6-0.6-0.5l-0.9,0.1V66.7z"/>
		<path class="st0" d="M93.8,64.8c0,2.1-1,3.3-3.2,3.6l-2.1,0.3c-2.1,0.3-3.2-0.6-3.2-2.8V49.1l3.4-0.4v16.4c0,0.4,0.2,0.6,0.6,0.5
			l0.4,0c0.4-0.1,0.6-0.3,0.6-0.7V48.5l3.4-0.4V64.8z"/>
		<path class="st0" d="M103.3,59.4v4.2c0,2.1-1.1,3.3-3.2,3.6l-1.9,0.2c-2.1,0.3-3.2-0.6-3.2-2.8v-4.9l3.4-0.4v4.5
			c0,0.4,0.2,0.6,0.6,0.5l0.3,0c0.4-0.1,0.6-0.3,0.6-0.7v-3.2c0-0.6-0.2-0.9-0.6-1.2l-2.8-1.8c-1.1-0.7-1.5-1.4-1.5-2.8v-3.8
			c0-2.1,1-3.3,3.2-3.6l1.9-0.2c2.1-0.3,3.2,0.6,3.2,2.8v4.4l-3.4,0.4v-4c0-0.4-0.2-0.6-0.6-0.5l-0.3,0c-0.4,0.1-0.6,0.3-0.6,0.7
			v2.7c0,0.6,0.2,0.9,0.6,1.2l2.8,1.8C102.9,57.3,103.3,58,103.3,59.4z"/>
		<path class="st0" d="M107.8,66.1l-3.4,0.4V46.7l3.4-0.4V66.1z"/>
		<path class="st0" d="M114.1,65.3l-2.3-10.8l0.1,5.2l0.1,5.8l-3,0.4V46.1l3.5-0.4l2.1,10l-0.1-5.6l0-4.6l2.9-0.4v19.8L114.1,65.3z"
			/>
		<path class="st0" d="M125,44.1v3.1l-2.9,0.4v5.2l2.8-0.4v3.1l-2.8,0.4v5.4l3-0.4v3.1l-6.4,0.8V44.9L125,44.1z"/>
		<path class="st0" d="M134.3,55.5v4.2c0,2.1-1.1,3.3-3.2,3.6l-1.9,0.2c-2.1,0.3-3.2-0.6-3.2-2.8v-4.9l3.4-0.4V60
			c0,0.4,0.2,0.6,0.6,0.5l0.3,0c0.4-0.1,0.6-0.3,0.6-0.7v-3.2c0-0.6-0.2-0.9-0.6-1.2l-2.8-1.8c-1.1-0.7-1.5-1.4-1.5-2.8V47
			c0-2.1,1-3.3,3.2-3.6l1.9-0.2c2.1-0.3,3.2,0.6,3.2,2.8v4.4l-3.4,0.4v-4c0-0.4-0.2-0.6-0.6-0.5l-0.3,0c-0.4,0.1-0.6,0.3-0.6,0.7
			v2.7c0,0.6,0.2,0.9,0.7,1.2l2.8,1.8C133.9,53.3,134.3,54,134.3,55.5z"/>
		<path class="st0" d="M143.5,54.3v4.2c0,2.1-1.1,3.3-3.2,3.6l-1.9,0.2c-2.1,0.3-3.2-0.6-3.2-2.8v-4.9l3.4-0.4v4.5
			c0,0.4,0.2,0.6,0.6,0.5l0.3,0c0.4-0.1,0.6-0.3,0.6-0.7v-3.2c0-0.6-0.2-0.9-0.6-1.2l-2.8-1.8c-1.1-0.7-1.5-1.4-1.5-2.8v-3.8
			c0-2.1,1-3.3,3.2-3.6l1.9-0.2c2.1-0.3,3.2,0.6,3.2,2.8v4.4l-3.4,0.4v-4c0-0.4-0.2-0.6-0.6-0.5l-0.3,0c-0.4,0.1-0.6,0.3-0.6,0.7
			v2.7c0,0.6,0.2,0.9,0.6,1.2l2.8,1.8C143.1,52.2,143.5,52.9,143.5,54.3z"/>
	</g>
	<path class="st0" d="M148.1,36.5l-9.8,1.2c0.1-0.2,0.2-0.4,0.3-0.6c1-2.4,1.5-4.8,1.8-6.7c4.8-2.6,7.6-6.3,8.6-7.8l0.3-0.4
		c0.7-1.2,0.6-2.6-0.4-3.2c-0.3-0.2-0.6-0.3-1-0.4c-0.1-0.4-0.4-0.8-0.8-1c-0.7-0.5-1.9-0.6-3.2,0.3c-0.1-0.3-0.2-0.5-0.3-0.8
		c-0.4-0.6-1-1.1-1.8-1.4c-0.9-1.3-2.8-2-4.9-1.7c-2.2,0.3-4,1.2-5.5,2.3c-0.3-0.4-0.7-0.7-1.2-0.8l-0.9-0.2l-0.9-0.1
		c-0.7,0-1.4,0.2-2.2,0.5c-0.5,0.2-1,0.5-1.6,0.9c-0.4-0.4-1-0.7-1.9-0.6c-0.2,0-0.5,0-0.7,0.1c0-0.5-0.1-1-0.3-1.4l0-0.1
		c-0.4-0.8-1.1-1.3-1.9-1.5c-1-1.7-3.3-2-5.3-0.9c-2,1.2-3,3.6-2.4,5.3c-1.1,0.5-1.7,1.2-2,1.8l0,0.1c-0.2,0.3-0.3,0.7-0.3,1
		c-0.1-0.1-0.2-0.1-0.3-0.2c0.2-1.4-0.2-2.7-1-3.4l0,0c-0.4-0.3-0.8-0.5-1.2-0.7c-0.2-0.2-0.3-0.5-0.5-0.7l0,0
		c-1.9-1.6-4.8-1.2-6.6,0.7c-0.9,1-1.4,2.2-1.4,3.5c0,0.2,0,0.3,0,0.5c-0.4-0.2-0.9-0.3-1.4-0.4l-0.1,0c-2.1-0.2-4.4,0.8-6.3,2.5
		c0-0.1-0.1-0.1-0.1-0.2c-0.1-0.2-0.3-0.3-0.4-0.5c0.8-1.2,1.3-2.4,1.9-3.6c1.1-2.8,0.8-5.3-0.8-6.4c-0.3-0.2-0.6-0.3-0.9-0.4
		c-0.2-0.4-0.5-0.7-0.9-1c-1.4-1-3.4-0.6-5.4,1c-1.6,1.3-2.8,3-3.5,4.2c-0.1-1.6-0.8-2.9-2.2-3.7c-0.1-0.1-0.3-0.2-0.5-0.2
		c-0.3-0.4-0.8-0.8-1.3-1.2c-1.5-0.9-3.3-0.7-4.4,0.4l-0.1,0.1c-0.7,0.8-1.1,2-1,3c0,0.2-0.1,0.7-0.1,0.9l-0.1,0.4
		c-0.2,0.7-0.4,1.4-0.6,2.1L70,18.1c-0.5,0.2-0.9,0.4-1.3,0.7c-2.1,1.4-3.1,3.9-2.3,5.9l0.2,0.6c-1-0.7-2.4-1-4-0.8
		c-1,0.1-1.9,0.4-2.8,0.8c0.5-2.2,0.2-4.6-1.6-6.5c-0.4-0.4-0.9-0.8-1.4-1c-0.1-0.1-0.2-0.2-0.3-0.4c-2.5-2.6-7.6-2.2-11.5,0.8
		c-8.3,6.4-10.1,14.8-8.6,18.7c0.1,0.4,0.3,0.7,0.5,1l-0.4,0.2c-1.7,0.9-3,2.8-3.2,5c-0.3,2.6,0.8,5,2.9,6.3
		c0.1,0.1,0.2,0.1,0.3,0.2c0.3,0.4,0.7,0.7,1.1,1L3.1,54.9L2.5,55v29.4L5.3,84v1.8l144.2-18.3V39.5l-1.5,0.2V36.5z M115.5,13.6
		c1.2-0.7,2.5-0.5,3,0.5c0.4,0.9-0.2,2.3-1.3,2.9c-1.2,0.7-2.5,0.5-3-0.5C113.7,15.6,114.3,14.3,115.5,13.6z M63,26.2
		c3.4-0.5,5.5,2.6,0.3,3.2c0.3-0.4,0.2-1.2-0.2-1.3c-1.4-0.2-4.2,3.5-4.3,5.9c0,1,0.7,1,1.3,0.5c1.1-1,1.6-3.3,3-3.7
		c0.1-0.1,2.9-0.6,2.1,0.5c-1,1.6-1.6,2.8-0.7,2.8c0.7,0.1,1.5-0.5,2.4-1.3c0-0.2,0.1-0.5,0.2-0.8c0.2-0.5,1.4-4.5,1.6-4.8
		c0.2-0.5,1-2.6,1.8-4.7c-0.4-0.3-1.5,0.3-2,1.1c-0.4-1.1,0.1-2.6,1.4-3.5c0.5-0.3,1.1-0.6,1.8-0.7l0.7-1.8c0.4-1,0.6-2,0.8-2.8
		c0-0.2,0.1-1.2,0.1-1.4c-0.1-0.7,0.2-1.3,0.4-1.5c0.4-0.4,1.3-0.5,2.2,0c1.5,0.9,1.9,2.5,0.9,4.8l-1,2.7c1.5-0.2,2.5-0.7,2.6-1.7
		c2.2,0.4,1.5,5.1-3.8,5.2c-0.7,1.9-1.3,3.6-1.5,4c-0.2,0.4-0.8,2.1-0.9,2.5c-0.8,2.1-1.5,4.3,0.3,3.4c0.4-0.1,1.2-0.9,2.3-2.1
		l2.6-3c1.1-3.1,2.7-7.1,4.8-10.7c0.6-1,1.8-3.1,3.6-4.5c3.1-2.5,4.9-0.1,3.4,3.5c-1.2,2.9-2.6,5-6.8,9.6c-0.1,0.1-1,2.6-1.2,2.9
		c1.4-2.1,3.2-4.4,5.3-5.4c2.2-1,4.2-0.1,2.9,1.4c-1.3,1.5-4.1,6.4-2.7,6.3c0.4,0,1.2-0.7,2.2-1.8c0-0.1,0-0.1,0-0.2
		c1.3-4.2,5.4-7.5,8.3-7.3c1.1,0.1,2,0.7,1.7,2.4c-0.2,1.3-1.9,4-6.5,4.8c-0.1,2,2.9,1.4,4.4,0.4c0.9-0.6,1.8-1.3,2.5-2.3
		c0.1-0.2,0.3-0.3,0.4-0.5c1.5-2.1,2.6-3.7,2.9-4.4c-1.9-1.2-2.2-3.3-1-4.7c1.1-1.2,2.9-1.3,4.1-0.4c0.5,0.4,0.7,1.3,0.4,2.3
		c0,0.2-0.2,0.9-0.7,1.6c0.5,0.2,1.1,0.4,1.8,0.5c1.8,0.3,2.8,1.5,2,3.1c-0.6,1.2-1.8,2.5-2.5,3.5c-0.3,0.4-0.9,1.2-0.8,1.4
		c0.1,1.6,3.3-1.6,4.4-3c0.2-0.5,0.5-1.1,0.7-1.8c0.3-0.7,0.4-0.9,0.7-1.8c0.4-1.3-0.2-2,0.2-2.7c0.4-0.6,1-0.9,1.5-1.1
		c0.2,0,2.4-0.4,3-0.2c0.7,0.3,0.9,0.9,0.4,1.7c-1.4,2.3-3.8,6.3-2.4,6.2c0.5-0.1,1.8-1.2,3.1-3c0.1-0.1,0.2-0.2,0.2-0.3
		c0.8-2,1.6-3.8,2.1-4.4c0.6-0.7,1.3-1.1,3-1.2c1.4-0.1,0.6,1,0,2.1c-0.8,1.6-1.1,2.5-1.3,2.8c1.4-2.1,3.4-4.5,5.5-5.4
		c2.2-0.9,4.1,0.1,2.8,1.5c-1.4,1.5-4.3,6.5-3,6.4c0.4,0,1.2-0.6,2.2-1.7c0.5-3.2,3.2-7.1,8.1-7.8c3.4-0.5,5.6,2.7,0.3,3.2
		c0.3-0.4,0.2-1.2-0.2-1.3c-1.4-0.2-4.3,3.5-4.3,5.9c0,1.1,0.7,1.1,1.3,0.5c1.1-1,1.6-3.3,3-3.7c0.1-0.1,2.9-0.6,2.2,0.5
		c-0.1,0.4-0.6,1.2-1,2.3l-0.5,2.4c0.5-0.3,2.6-1.4,5.9-5.3c1.8-2,3-1.4,2.5-0.5l-0.2,0.4c-1.3,1.9-4.2,5.4-8.7,7.6
		c-0.3,1.9-0.7,4.7-1.9,7.3c-1.2,2.7-3.2,3.9-4.9,3.1c-0.9-0.4-2.5-2.4-1.4-5.6c1.4-3.9,5.3-5.3,5.3-5.3l0.4-1.6
		c-1.4,1.4-4,2.8-5.3,1.2c-0.2-0.2-0.3-0.5-0.4-0.8c-1.2,1.2-2.6,2.1-3.8,2.4c-0.1,0-1,0.2-1.6,0.1c-0.9-0.2-1.5-0.9-1-2.3
		c0.7-2.1,1.8-4,1.8-4s-3.2,3.5-4.5,6.3c-0.4,0.9-2.6,1.4-3.5,1c-0.4-0.1-0.6-0.3-0.3-1.7c-0.9,0.8-1.9,1.5-3.1,2.1
		c-0.4,0.2-2.7,1-3.3-0.2c-0.8,0.8-1.7,1.5-2.5,2c-0.4,0.2-4.2,1.9-5.3-0.2c-1.5-2.6,2.5-6.1,3.4-7.6c0.6-1-0.5-1-1.3-1.3
		c-0.3,0.6-1.3,2.3-2.4,3.7c0,0.1-0.1,0.2-0.2,0.3c-0.6,1-1.3,1.8-2.1,2.7c-0.6,0.6-2.2,2.4-4.1,3c-2,0.7-4.2,1.1-5.5,0.1
		c-0.4-0.3-0.7-0.7-0.8-1c-1.2,1.2-2.5,2.2-3.7,2.6c-0.7,0.2-1.3,0.3-1.8,0.2c-0.9-0.1-1.5-0.9-1.1-2.3C82.9,29.7,84,28,84,28
		s-2.8,3.4-4.3,5.9c-0.5,0.9-2.5,1.5-3.5,1.2c-0.4-0.1-0.9-0.5-0.4-2.6c0-0.1,0.1-0.3,0.1-0.5c-1.4,1.7-2.8,3-4.8,3.9
		c-1.3,0.6-3.1,0.5-3.9-0.7c-1.1,1-2.2,1.7-3.3,1.9c-1.6,0.2-2.4-0.3-2.6-1.5c-1.1,1.6-4.3,3.6-5.8,1.8C53.5,35,56,27.2,63,26.2z
		 M37.4,39.6c0,0,1.2,4.7,7,3.3c5.3-1.4,7.1-6.1,7.5-7.7c-2,3.6-5.8,4.3-7.3,4.3c-2.3,0-5-0.7-6.1-3.7c-1.1-3,0.1-10.4,7.8-16.3
		c3.2-2.5,7.2-2.7,9.1-0.8c2.5,2.5,1.2,6.3-0.2,8.2c-1.5,2.1-4.5,2.9-6.4,2c-2-1-1.5-3.8-0.4-4.8c0.8,2.9,4.9,1.4,5.5-0.9
		c0.7-2.5-0.4-3.1-1.2-3.3c-2.4-0.5-6.8,2.6-9.3,8.7c-1.2,2.8-1.9,6.9,0.7,7.8c3.1,1,6.5-1.4,8.1-4.7c0.4-0.8,0.3-1.3,1.1-1.6
		c0.4-0.2,1-0.3,1.4,0.8c0.3,1,0.4,5.1-2.6,10.3c-0.8,1.3-1.8,2.5-3.1,3.7c-4.1,3.7-8.8,4.4-11.3,2.9C34.3,45.6,34.8,41,37.4,39.6z
		 M51.4,47.6c1.5-1.3,2.7-2.7,3.6-4.3c0.5-0.8,0.9-1.6,1.2-2.4c0.7,0.5,1.6,0.7,2.6,0.5c0,0,0,0,0.1,0c1.2-0.2,2.4-0.7,3.4-1.5
		c0.8,0.5,1.8,0.7,3,0.5c1-0.1,2.1-0.6,3.1-1.3c1.4,0.7,3.2,0.6,4.6,0c1-0.4,1.8-0.9,2.6-1.5c0.3,0.5,0.8,0.7,1.3,0.8
		c1.6,0.4,4.3-0.3,5.6-1.9c0.4,0.5,1,0.8,1.8,1c0.8,0.2,1.7,0.1,2.7-0.2c1-0.3,2-0.9,3.1-1.7c2.4,1.8,5.9,0.5,7.1,0.1
		c1.3-0.5,2.5-1.3,3.4-2.1c0.4,0.3,0.8,0.6,1.2,0.7c1.8,2.9,6.4,1.2,7.6,0.5c0.6-0.3,1.2-0.7,1.8-1.2c1.5,0.4,3.3-0.1,4.1-0.6
		c0.4-0.2,0.7-0.4,1.1-0.6c0.2,0.2,0.5,0.3,0.8,0.4c1.5,0.5,4.5-0.1,5.7-1.9c0.4,0.4,0.9,0.8,1.6,0.9l0.1,0c0.6,0.1,1.3,0.1,2.2,0
		l0.1,0c0.2,0,0.3-0.1,0.5-0.1c-0.1,0.2-0.2,0.4-0.3,0.6c-1.1,3-0.3,5.4,0.8,6.7L49.5,49C50.2,48.6,50.8,48.1,51.4,47.6z
		 M146.8,64.8L3.8,82.9V56.1l132.5-16.8l1.1-0.1l0,0l9.4-1.2V64.8z"/>
</g>
</svg>
